M48
; DRILL file {KiCad 9.0.5} date 2026-03-10T15:38:52+0100
; FORMAT={-:-/ absolute / metric / decimal}
; #@! TF.CreationDate,2026-03-10T15:38:52+01:00
; #@! TF.GenerationSoftware,Kicad,Pcbnew,9.0.5
; #@! TF.FileFunction,Plated,1,4,PTH
FMAT,2
METRIC
; #@! TA.AperFunction,Plated,PTH,ViaDrill
T1C0.200
; #@! TA.AperFunction,Plated,PTH,ComponentDrill
T2C0.200
; #@! TA.AperFunction,Plated,PTH,ViaDrill
T3C0.300
; #@! TA.AperFunction,Plated,PTH,ComponentDrill
T4C0.600
; #@! TA.AperFunction,Plated,PTH,ComponentDrill
T5C1.000
; #@! TA.AperFunction,Plated,PTH,ComponentDrill
T6C1.020
%
G90
G05
T1
X89.4Y-123.4
X91.5Y-121.7
X102.5Y-71.9
X102.5Y-77.4
X105.0Y-73.9
X105.0Y-80.7
X107.56Y-73.74
X116.5Y-79.0
X118.05Y-77.65
X119.0Y-100.0
X119.298Y-79.425
X121.048Y-77.998
X123.475Y-78.501
X123.5Y-79.5
X127.987Y-77.486
X130.38Y-113.03
X131.05Y-94.55
X131.474Y-73.5
X132.5Y-73.0
X133.5Y-76.5
X134.1Y-82.0
X136.0Y-76.0
X136.3Y-110.1
X139.104Y-79.396
X139.2Y-73.9
X139.389Y-97.561
X139.429Y-82.0
X140.5Y-85.0
X140.6Y-86.975
X141.999Y-83.6
X142.0Y-82.0
X142.0Y-83.0
X142.0Y-85.0
X142.75Y-90.05
X143.25Y-87.425
X143.325Y-80.45
X143.9Y-83.475
X144.0Y-70.0
X144.5Y-92.0
X144.587Y-91.406
X145.475Y-96.647
X145.5Y-95.0
X145.5Y-102.75
X145.737Y-94.374
X146.0Y-97.0
X146.0Y-97.7
X146.0Y-98.3
X147.0Y-85.5
X148.0Y-75.0
X148.5Y-86.0
X149.0Y-82.0
X149.1Y-79.15
X150.0Y-87.0
X150.0Y-89.0
X150.0Y-106.4
X150.0Y-95.455
X150.25Y-96.0
X150.3Y-92.5
X150.752Y-95.0
X150.776Y-91.0
X151.0Y-89.1
X151.5Y-82.5
X151.611Y-81.389
X152.3Y-74.6
X152.625Y-89.125
X152.824Y-104.05
X153.0Y-92.0
X153.549Y-78.85
X154.0Y-80.475
X154.024Y-75.9
X154.086Y-79.414
X154.2Y-81.525
X154.203Y-97.0
X154.24Y-97.671
X154.5Y-101.75
X154.5Y-91.0
X154.579Y-98.321
X155.414Y-91.914
X155.525Y-78.5
X156.0Y-75.5
X156.0Y-78.0
X156.025Y-78.975
X156.992Y-89.494
X157.0Y-82.5
X157.464Y-89.864
X157.5Y-90.5
X158.5Y-77.5
X158.5Y-81.5
X158.913Y-88.406
X159.0Y-89.0
X159.395Y-82.475
X160.0Y-86.5
X160.664Y-86.664
X161.5Y-85.0
X161.5Y-87.5
X161.896Y-82.932
X162.25Y-82.4
X162.543Y-84.434
X162.9Y-82.525
X163.005Y-83.476
X164.448Y-72.673
X164.575Y-80.999
X164.739Y-82.525
X166.5Y-83.0
X166.914Y-81.975
X169.464Y-76.964
X170.0Y-81.0
X170.5Y-76.5
X170.5Y-77.5
X170.5Y-82.0
X170.5Y-83.0
X171.0Y-79.0
X171.0Y-81.5
X171.0Y-82.5
X172.0Y-85.5
X172.5Y-86.775
X172.5Y-89.5
X173.0Y-80.5
T2
X93.65Y-114.15
X93.65Y-115.15
X93.65Y-116.15
X94.65Y-114.15
X94.65Y-115.15
X94.65Y-116.15
X95.65Y-114.15
X95.65Y-115.15
X95.65Y-116.15
T3
X81.48Y-75.55
X81.48Y-78.05
X84.95Y-87.2
X85.25Y-70.25
X85.25Y-72.75
X85.75Y-85.8
X86.25Y-75.8
X86.5Y-74.05
X86.795Y-77.55
X86.795Y-78.55
X87.0Y-76.5
X87.347Y-107.002
X87.347Y-108.002
X87.5Y-87.75
X88.285Y-83.4
X88.35Y-72.0
X89.5Y-120.0
X90.0Y-81.32
X90.4Y-116.65
X92.3Y-119.35
X92.5Y-120.3
X93.0Y-72.0
X93.0Y-87.75
X93.95Y-74.611
X94.7Y-109.45
X96.095Y-107.093
X96.095Y-108.093
X96.25Y-68.75
X96.5Y-72.5
X96.65Y-109.475
X97.55Y-118.8
X97.95Y-115.15
X98.0Y-70.25
X98.84Y-99.1
X99.425Y-109.525
X99.59Y-99.85
X99.988Y-119.697
X99.988Y-120.697
X100.34Y-99.1
X100.75Y-90.8
X101.09Y-99.85
X101.5Y-84.25
X101.84Y-99.1
X102.75Y-109.375
X105.395Y-106.02
X105.7Y-120.1
X109.5Y-101.25
X111.0Y-74.5
X111.295Y-112.295
X112.2Y-71.0
X113.59Y-120.6
X115.05Y-75.35
X116.0Y-78.45
X116.75Y-73.55
X117.1Y-75.95
X118.0Y-96.5
X118.05Y-75.5
X118.5Y-78.65
X118.524Y-101.476
X120.1Y-73.0
X120.55Y-75.45
X121.5Y-78.5
X123.05Y-75.15
X124.3Y-69.9
X124.5Y-78.15
X124.639Y-93.361
X126.0Y-113.25
X126.564Y-96.851
X127.236Y-118.386
X127.95Y-69.7
X129.15Y-113.65
X129.45Y-86.5
X130.4Y-69.65
X130.486Y-83.886
X130.6Y-110.895
X131.9Y-110.9
X132.702Y-88.014
X134.225Y-100.25
X134.636Y-83.586
X135.15Y-77.05
X136.15Y-81.2
X136.872Y-72.612
X137.0Y-83.502
X137.792Y-82.55
X138.35Y-73.0
X139.2Y-77.45
X141.9Y-87.05
X142.5Y-80.45
X142.5Y-84.4
X142.736Y-126.906
X142.75Y-118.75
X142.75Y-120.75
X142.75Y-123.0
X142.75Y-125.0
X142.78Y-101.0
X143.45Y-88.969
X143.55Y-74.85
X143.57Y-102.77
X143.8Y-117.35
X144.0Y-84.3
X144.5Y-92.799
X144.5Y-102.829
X145.25Y-115.0
X146.4Y-117.4
X146.5Y-93.349
X146.575Y-95.4
X146.7Y-94.5
X146.75Y-74.5
X147.75Y-115.0
X147.8Y-80.6
X147.825Y-102.2
X147.9Y-100.0
X148.025Y-97.95
X148.1Y-93.25
X148.25Y-117.5
X148.5Y-111.25
X149.025Y-101.075
X149.1Y-99.175
X149.975Y-98.075
X150.0Y-94.5
X150.075Y-102.15
X151.075Y-99.2
X151.15Y-101.1
X151.35Y-105.0
X151.5Y-106.0
X151.5Y-110.326
X151.905Y-107.781
X152.1Y-102.225
X152.125Y-98.025
X152.175Y-99.975
X152.5Y-95.35
X153.0Y-117.5
X153.5Y-96.55
X153.55Y-95.7
X155.0Y-106.5
X155.15Y-108.75
X155.179Y-100.75
X155.25Y-117.5
X155.3Y-110.626
X155.395Y-104.6
X155.7Y-94.51
X156.75Y-98.5
X156.75Y-108.5
X157.695Y-96.16
X157.81Y-102.15
X157.81Y-102.95
X157.839Y-101.129
X157.96Y-99.41
X158.0Y-95.0
X158.3Y-107.576
X158.7Y-76.4
X158.7Y-96.1
X159.365Y-98.11
X159.75Y-105.5
X159.75Y-108.5
X159.75Y-113.0
X160.25Y-116.0
X160.25Y-118.5
X161.3Y-110.626
X161.4Y-100.6
X161.525Y-102.31
X161.7Y-101.3
X162.175Y-85.0
X162.4Y-90.15
X162.5Y-117.25
X162.5Y-118.5
X162.75Y-104.75
X163.25Y-114.3
X163.75Y-110.75
X163.85Y-76.95
X164.25Y-108.0
X165.0Y-115.25
X165.0Y-117.75
X165.5Y-73.1
X165.5Y-104.75
X166.15Y-80.2
X167.0Y-106.25
X167.0Y-108.5
X167.0Y-110.75
X167.0Y-113.0
X167.0Y-115.25
X167.25Y-117.75
X167.625Y-72.911
T5
X82.0Y-112.0
X82.0Y-114.54
X82.425Y-118.275
X82.425Y-120.815
X82.425Y-123.355
X99.64Y-68.8
X102.18Y-68.8
X104.72Y-68.8
X107.26Y-68.8
X109.8Y-68.8
X112.34Y-68.8
X116.475Y-68.975
X119.015Y-68.975
X121.555Y-68.975
X126.325Y-68.725
X128.865Y-68.725
X131.405Y-68.725
X133.945Y-68.725
X136.485Y-68.725
X139.025Y-68.725
X141.565Y-68.725
X144.105Y-68.725
X148.25Y-68.975
X150.79Y-68.975
X154.38Y-68.8
X156.92Y-68.8
X159.46Y-68.8
X162.0Y-68.8
X164.54Y-68.8
X167.08Y-68.8
X169.62Y-68.8
X172.16Y-68.8
T6
X109.5Y-96.0
X116.5Y-96.0
T4
G00X86.43Y-69.177
M15
G01X86.43Y-67.977
M16
G05
G00X86.43Y-72.977
M15
G01X86.43Y-72.177
M16
G05
G00X95.07Y-69.177
M15
G01X95.07Y-67.977
M16
G05
G00X95.07Y-72.977
M15
G01X95.07Y-72.177
M16
G05
M30
