%TF.GenerationSoftware,KiCad,Pcbnew,9.0.5*%
%TF.CreationDate,2026-03-10T15:38:56+01:00*%
%TF.ProjectId,Processing_board,50726f63-6573-4736-996e-675f626f6172,rev?*%
%TF.SameCoordinates,Original*%
%TF.FileFunction,Paste,Top*%
%TF.FilePolarity,Positive*%
%FSLAX46Y46*%
G04 Gerber Fmt 4.6, Leading zero omitted, Abs format (unit mm)*
G04 Created by KiCad (PCBNEW 9.0.5) date 2026-03-10 15:38:56*
%MOMM*%
%LPD*%
G01*
G04 APERTURE LIST*
G04 Aperture macros list*
%AMRoundRect*
0 Rectangle with rounded corners*
0 $1 Rounding radius*
0 $2 $3 $4 $5 $6 $7 $8 $9 X,Y pos of 4 corners*
0 Add a 4 corners polygon primitive as box body*
4,1,4,$2,$3,$4,$5,$6,$7,$8,$9,$2,$3,0*
0 Add four circle primitives for the rounded corners*
1,1,$1+$1,$2,$3*
1,1,$1+$1,$4,$5*
1,1,$1+$1,$6,$7*
1,1,$1+$1,$8,$9*
0 Add four rect primitives between the rounded corners*
20,1,$1+$1,$2,$3,$4,$5,0*
20,1,$1+$1,$4,$5,$6,$7,0*
20,1,$1+$1,$6,$7,$8,$9,0*
20,1,$1+$1,$8,$9,$2,$3,0*%
G04 Aperture macros list end*
%ADD10C,0.000000*%
%ADD11RoundRect,0.147500X-0.172500X0.147500X-0.172500X-0.147500X0.172500X-0.147500X0.172500X0.147500X0*%
%ADD12RoundRect,0.200000X-0.275000X0.200000X-0.275000X-0.200000X0.275000X-0.200000X0.275000X0.200000X0*%
%ADD13RoundRect,0.090000X0.090000X-0.139000X0.090000X0.139000X-0.090000X0.139000X-0.090000X-0.139000X0*%
%ADD14RoundRect,0.200000X0.275000X-0.200000X0.275000X0.200000X-0.275000X0.200000X-0.275000X-0.200000X0*%
%ADD15RoundRect,0.090000X-0.090000X0.139000X-0.090000X-0.139000X0.090000X-0.139000X0.090000X0.139000X0*%
%ADD16RoundRect,0.135000X0.135000X0.185000X-0.135000X0.185000X-0.135000X-0.185000X0.135000X-0.185000X0*%
%ADD17RoundRect,0.237500X-0.300000X-0.237500X0.300000X-0.237500X0.300000X0.237500X-0.300000X0.237500X0*%
%ADD18RoundRect,0.090000X0.139000X0.090000X-0.139000X0.090000X-0.139000X-0.090000X0.139000X-0.090000X0*%
%ADD19RoundRect,0.135000X0.185000X-0.135000X0.185000X0.135000X-0.185000X0.135000X-0.185000X-0.135000X0*%
%ADD20RoundRect,0.250000X0.385000X-0.385000X0.385000X0.385000X-0.385000X0.385000X-0.385000X-0.385000X0*%
%ADD21RoundRect,0.087500X0.087500X-0.425000X0.087500X0.425000X-0.087500X0.425000X-0.087500X-0.425000X0*%
%ADD22RoundRect,0.087500X0.425000X-0.087500X0.425000X0.087500X-0.425000X0.087500X-0.425000X-0.087500X0*%
%ADD23RoundRect,0.237500X0.300000X0.237500X-0.300000X0.237500X-0.300000X-0.237500X0.300000X-0.237500X0*%
%ADD24RoundRect,0.079500X-0.100500X0.079500X-0.100500X-0.079500X0.100500X-0.079500X0.100500X0.079500X0*%
%ADD25R,1.000000X0.400000*%
%ADD26RoundRect,0.090000X-0.139000X-0.090000X0.139000X-0.090000X0.139000X0.090000X-0.139000X0.090000X0*%
%ADD27RoundRect,0.237500X0.237500X-0.300000X0.237500X0.300000X-0.237500X0.300000X-0.237500X-0.300000X0*%
%ADD28RoundRect,0.140000X-0.170000X0.140000X-0.170000X-0.140000X0.170000X-0.140000X0.170000X0.140000X0*%
%ADD29R,0.600000X1.150000*%
%ADD30R,0.300000X1.150000*%
%ADD31R,0.300000X0.550000*%
%ADD32R,0.550000X0.300000*%
%ADD33R,0.700000X0.275000*%
%ADD34R,0.245000X0.450000*%
%ADD35R,0.650000X1.525000*%
%ADD36RoundRect,0.135000X-0.185000X0.135000X-0.185000X-0.135000X0.185000X-0.135000X0.185000X0.135000X0*%
%ADD37R,1.600000X1.400000*%
%ADD38R,1.000000X1.050000*%
%ADD39R,1.050000X2.200000*%
%ADD40RoundRect,0.218750X0.218750X0.381250X-0.218750X0.381250X-0.218750X-0.381250X0.218750X-0.381250X0*%
%ADD41RoundRect,0.237500X-0.237500X0.300000X-0.237500X-0.300000X0.237500X-0.300000X0.237500X0.300000X0*%
%ADD42R,1.200000X1.000000*%
%ADD43R,1.200000X1.150000*%
%ADD44R,1.500000X1.550000*%
%ADD45RoundRect,0.375000X0.375000X-0.625000X0.375000X0.625000X-0.375000X0.625000X-0.375000X-0.625000X0*%
%ADD46RoundRect,0.500000X1.400000X-0.500000X1.400000X0.500000X-1.400000X0.500000X-1.400000X-0.500000X0*%
%ADD47RoundRect,0.140000X-0.140000X-0.170000X0.140000X-0.170000X0.140000X0.170000X-0.140000X0.170000X0*%
%ADD48RoundRect,0.140000X0.170000X-0.140000X0.170000X0.140000X-0.170000X0.140000X-0.170000X-0.140000X0*%
%ADD49RoundRect,0.147500X-0.147500X-0.172500X0.147500X-0.172500X0.147500X0.172500X-0.147500X0.172500X0*%
%ADD50RoundRect,0.135000X-0.135000X-0.185000X0.135000X-0.185000X0.135000X0.185000X-0.135000X0.185000X0*%
%ADD51R,1.800000X1.150000*%
%ADD52RoundRect,0.147500X0.147500X0.172500X-0.147500X0.172500X-0.147500X-0.172500X0.147500X-0.172500X0*%
%ADD53R,0.889000X0.812800*%
%ADD54R,1.346200X0.279400*%
%ADD55R,0.279400X1.346200*%
%ADD56R,1.000000X1.200000*%
%ADD57R,1.150000X1.200000*%
%ADD58R,1.550000X1.500000*%
%ADD59RoundRect,0.200000X-0.200000X-0.275000X0.200000X-0.275000X0.200000X0.275000X-0.200000X0.275000X0*%
%ADD60R,5.500000X2.000000*%
%ADD61R,0.650000X1.850000*%
G04 APERTURE END LIST*
D10*
%TO.C,U1*%
G36*
X148500000Y-98500000D02*
G01*
X147300000Y-98500000D01*
X147300000Y-97300000D01*
X148500000Y-97300000D01*
X148500000Y-98500000D01*
G37*
G36*
X148500000Y-99900000D02*
G01*
X147300000Y-99900000D01*
X147300000Y-98700000D01*
X148500000Y-98700000D01*
X148500000Y-99900000D01*
G37*
G36*
X148500000Y-101300000D02*
G01*
X147300000Y-101300000D01*
X147300000Y-100100000D01*
X148500000Y-100100000D01*
X148500000Y-101300000D01*
G37*
G36*
X148500000Y-102700000D02*
G01*
X147300000Y-102700000D01*
X147300000Y-101500000D01*
X148500000Y-101500000D01*
X148500000Y-102700000D01*
G37*
G36*
X149900000Y-98500000D02*
G01*
X148700000Y-98500000D01*
X148700000Y-97300000D01*
X149900000Y-97300000D01*
X149900000Y-98500000D01*
G37*
G36*
X149900000Y-99900000D02*
G01*
X148700000Y-99900000D01*
X148700000Y-98700000D01*
X149900000Y-98700000D01*
X149900000Y-99900000D01*
G37*
G36*
X149900000Y-101300000D02*
G01*
X148700000Y-101300000D01*
X148700000Y-100100000D01*
X149900000Y-100100000D01*
X149900000Y-101300000D01*
G37*
G36*
X149900000Y-102700000D02*
G01*
X148700000Y-102700000D01*
X148700000Y-101500000D01*
X149900000Y-101500000D01*
X149900000Y-102700000D01*
G37*
G36*
X151300000Y-98500000D02*
G01*
X150100000Y-98500000D01*
X150100000Y-97300000D01*
X151300000Y-97300000D01*
X151300000Y-98500000D01*
G37*
G36*
X151300000Y-99900000D02*
G01*
X150100000Y-99900000D01*
X150100000Y-98700000D01*
X151300000Y-98700000D01*
X151300000Y-99900000D01*
G37*
G36*
X151300000Y-101300000D02*
G01*
X150100000Y-101300000D01*
X150100000Y-100100000D01*
X151300000Y-100100000D01*
X151300000Y-101300000D01*
G37*
G36*
X151300000Y-102700000D02*
G01*
X150100000Y-102700000D01*
X150100000Y-101500000D01*
X151300000Y-101500000D01*
X151300000Y-102700000D01*
G37*
G36*
X152700000Y-98500000D02*
G01*
X151500000Y-98500000D01*
X151500000Y-97300000D01*
X152700000Y-97300000D01*
X152700000Y-98500000D01*
G37*
G36*
X152700000Y-99900000D02*
G01*
X151500000Y-99900000D01*
X151500000Y-98700000D01*
X152700000Y-98700000D01*
X152700000Y-99900000D01*
G37*
G36*
X152700000Y-101300000D02*
G01*
X151500000Y-101300000D01*
X151500000Y-100100000D01*
X152700000Y-100100000D01*
X152700000Y-101300000D01*
G37*
G36*
X152700000Y-102700000D02*
G01*
X151500000Y-102700000D01*
X151500000Y-101500000D01*
X152700000Y-101500000D01*
X152700000Y-102700000D01*
G37*
%TD*%
D11*
%TO.C,L2*%
X150976497Y-114374158D03*
X150976497Y-113404158D03*
%TD*%
D12*
%TO.C,R41*%
X156200000Y-114500000D03*
X156200000Y-116150000D03*
%TD*%
%TO.C,R40*%
X154500000Y-114575000D03*
X154500000Y-116225000D03*
%TD*%
D13*
%TO.C,R_LDO_5V_N1*%
X95350000Y-120290000D03*
X95350000Y-119425000D03*
%TD*%
D14*
%TO.C,R38*%
X146600000Y-73075000D03*
X146600000Y-71425000D03*
%TD*%
D15*
%TO.C,C2*%
X129150000Y-114487500D03*
X129150000Y-115352500D03*
%TD*%
D16*
%TO.C,R8*%
X129410000Y-109150000D03*
X128390000Y-109150000D03*
%TD*%
D17*
%TO.C,C16*%
X133650000Y-89200000D03*
X135375000Y-89200000D03*
%TD*%
D18*
%TO.C,C35*%
X153607151Y-107682842D03*
X152742151Y-107682842D03*
%TD*%
D19*
%TO.C,R16*%
X84400000Y-71250000D03*
X84400000Y-70230000D03*
%TD*%
D20*
%TO.C,U2*%
X93860000Y-115940000D03*
X95440000Y-115940000D03*
X93860000Y-114360000D03*
X95440000Y-114360000D03*
D21*
X93350000Y-117512500D03*
X94000000Y-117512500D03*
X94650000Y-117512500D03*
X95300000Y-117512500D03*
X95950000Y-117512500D03*
D22*
X97012500Y-116450000D03*
X97012500Y-115800000D03*
X97012500Y-115150000D03*
X97012500Y-114500000D03*
X97012500Y-113850000D03*
D21*
X95950000Y-112787500D03*
X95300000Y-112787500D03*
X94650000Y-112787500D03*
X94000000Y-112787500D03*
X93350000Y-112787500D03*
D22*
X92287500Y-113850000D03*
X92287500Y-114500000D03*
X92287500Y-115150000D03*
X92287500Y-115800000D03*
X92287500Y-116450000D03*
%TD*%
D23*
%TO.C,C32*%
X166150000Y-90350000D03*
X164425000Y-90350000D03*
%TD*%
D24*
%TO.C,R_LDO_5V_N2*%
X95700000Y-121285000D03*
X95700000Y-121975000D03*
%TD*%
D12*
%TO.C,R30*%
X155000000Y-76000000D03*
X155000000Y-77650000D03*
%TD*%
%TO.C,R11*%
X125500000Y-76500000D03*
X125500000Y-78150000D03*
%TD*%
D25*
%TO.C,Q3*%
X83980000Y-78550000D03*
X83980000Y-77550000D03*
X82480000Y-78050000D03*
%TD*%
D12*
%TO.C,R28*%
X144950000Y-81925000D03*
X144950000Y-83575000D03*
%TD*%
%TO.C,R32*%
X153000000Y-76000000D03*
X153000000Y-77650000D03*
%TD*%
D17*
%TO.C,C5*%
X168187500Y-90100000D03*
X169912500Y-90100000D03*
%TD*%
D18*
%TO.C,C43*%
X144482966Y-102000000D03*
X143617966Y-102000000D03*
%TD*%
D23*
%TO.C,C8*%
X135834001Y-72521501D03*
X134109001Y-72521501D03*
%TD*%
D26*
%TO.C,C34*%
X153672500Y-104698000D03*
X154537500Y-104698000D03*
%TD*%
D27*
%TO.C,C69*%
X144000000Y-73137500D03*
X144000000Y-71412500D03*
%TD*%
D18*
%TO.C,C4*%
X160192500Y-102310000D03*
X159327500Y-102310000D03*
%TD*%
D17*
%TO.C,C15*%
X167087500Y-88550000D03*
X168812500Y-88550000D03*
%TD*%
D28*
%TO.C,C29*%
X93350000Y-119340000D03*
X93350000Y-120300000D03*
%TD*%
D23*
%TO.C,C14*%
X138875000Y-89200000D03*
X137150000Y-89200000D03*
%TD*%
D29*
%TO.C,J11*%
X93950000Y-73152500D03*
X93150000Y-73152500D03*
D30*
X92000000Y-73152500D03*
X91000000Y-73152500D03*
X90500000Y-73152500D03*
X89500000Y-73152500D03*
D29*
X87550000Y-73152500D03*
X88350000Y-73152500D03*
D30*
X89000000Y-73152500D03*
X90000000Y-73152500D03*
X91500000Y-73152500D03*
X92500000Y-73152500D03*
%TD*%
D31*
%TO.C,U1*%
X152750693Y-96625000D03*
X152250567Y-96625000D03*
X151750441Y-96625000D03*
X151250315Y-96625000D03*
X150750189Y-96625000D03*
X150250063Y-96625000D03*
X149749937Y-96625000D03*
X149249811Y-96625000D03*
X148749685Y-96625000D03*
X148249559Y-96625000D03*
X147749433Y-96625000D03*
X147249307Y-96625000D03*
D32*
X146625000Y-97250000D03*
X146625000Y-97749999D03*
X146625000Y-98250001D03*
X146625000Y-98750000D03*
X146625000Y-99249999D03*
X146625000Y-99750000D03*
X146625000Y-100250000D03*
X146625000Y-100750001D03*
X146625000Y-101250000D03*
X146625000Y-101749999D03*
X146625000Y-102250001D03*
X146625000Y-102750000D03*
D31*
X147249307Y-103375000D03*
X147749433Y-103375000D03*
X148249559Y-103375000D03*
X148749685Y-103375000D03*
X149249811Y-103375000D03*
X149749937Y-103375000D03*
X150250063Y-103375000D03*
X150750189Y-103375000D03*
X151250315Y-103375000D03*
X151750441Y-103375000D03*
X152250567Y-103375000D03*
X152750693Y-103375000D03*
D32*
X153375000Y-102750000D03*
X153375000Y-102250001D03*
X153375000Y-101749999D03*
X153375000Y-101250000D03*
X153375000Y-100750001D03*
X153375000Y-100250000D03*
X153375000Y-99750000D03*
X153375000Y-99249999D03*
X153375000Y-98750000D03*
X153375000Y-98250001D03*
X153375000Y-97749999D03*
X153375000Y-97250000D03*
%TD*%
D12*
%TO.C,R31*%
X159350000Y-72775000D03*
X159350000Y-74425000D03*
%TD*%
D15*
%TO.C,C45*%
X152250000Y-104587500D03*
X152250000Y-105452500D03*
%TD*%
D33*
%TO.C,FL1*%
X153574651Y-109963842D03*
D34*
X153347651Y-110575842D03*
D33*
X153574651Y-111188842D03*
D34*
X153801651Y-110575842D03*
%TD*%
D18*
%TO.C,C38*%
X150975000Y-112500000D03*
X150110000Y-112500000D03*
%TD*%
D35*
%TO.C,Q1*%
X105750000Y-118376000D03*
X107020000Y-118376000D03*
X108290000Y-118376000D03*
X109560000Y-118376000D03*
X109560000Y-113000000D03*
X108290000Y-113000000D03*
X107020000Y-113000000D03*
X105750000Y-113000000D03*
%TD*%
D18*
%TO.C,C46*%
X158642500Y-98110000D03*
X157777500Y-98110000D03*
%TD*%
D36*
%TO.C,R17*%
X85480000Y-74780000D03*
X85480000Y-75800000D03*
%TD*%
D12*
%TO.C,R33*%
X154000000Y-73000000D03*
X154000000Y-74650000D03*
%TD*%
D18*
%TO.C,C44*%
X149952500Y-94500000D03*
X149087500Y-94500000D03*
%TD*%
D37*
%TO.C,SW1*%
X126000000Y-108900000D03*
X118800000Y-108900000D03*
X126000000Y-111900000D03*
X118800000Y-111900000D03*
%TD*%
D12*
%TO.C,R39*%
X94350000Y-121450000D03*
X94350000Y-123100000D03*
%TD*%
%TO.C,R22*%
X124000000Y-73500000D03*
X124000000Y-75150000D03*
%TD*%
D26*
%TO.C,C50*%
X143637966Y-101000000D03*
X144502966Y-101000000D03*
%TD*%
D19*
%TO.C,R9*%
X131900000Y-110130000D03*
X131900000Y-109110000D03*
%TD*%
D38*
%TO.C,J10*%
X158299651Y-112150842D03*
D39*
X159774651Y-110625842D03*
D38*
X158299651Y-109100842D03*
D39*
X156824651Y-110625842D03*
%TD*%
D13*
%TO.C,C1*%
X130600000Y-110057500D03*
X130600000Y-109192500D03*
%TD*%
D36*
%TO.C,R3*%
X113000000Y-76480000D03*
X113000000Y-77500000D03*
%TD*%
D23*
%TO.C,C10*%
X168912500Y-72000000D03*
X167187500Y-72000000D03*
%TD*%
D40*
%TO.C,L3*%
X153962500Y-93450000D03*
X151837500Y-93450000D03*
%TD*%
D18*
%TO.C,C51*%
X157002500Y-100510000D03*
X156137500Y-100510000D03*
%TD*%
%TO.C,C48*%
X156952500Y-102750000D03*
X156087500Y-102750000D03*
%TD*%
D41*
%TO.C,C12*%
X135350000Y-91225000D03*
X135350000Y-92950000D03*
%TD*%
D12*
%TO.C,R12*%
X122500000Y-76850000D03*
X122500000Y-78500000D03*
%TD*%
D42*
%TO.C,D3*%
X113695000Y-107545000D03*
D43*
X113695000Y-110719000D03*
D44*
X113695000Y-108795000D03*
%TD*%
D18*
%TO.C,C47*%
X158232500Y-97010000D03*
X157367500Y-97010000D03*
%TD*%
D36*
%TO.C,R13*%
X113645000Y-118625000D03*
X113645000Y-119645000D03*
%TD*%
D41*
%TO.C,C22*%
X140900000Y-72787500D03*
X140900000Y-74512500D03*
%TD*%
D36*
%TO.C,R4*%
X114000000Y-78940000D03*
X114000000Y-79960000D03*
%TD*%
D25*
%TO.C,Q2*%
X83980000Y-76050000D03*
X83980000Y-75050000D03*
X82480000Y-75550000D03*
%TD*%
D16*
%TO.C,R18*%
X86250000Y-77550000D03*
X85230000Y-77550000D03*
%TD*%
D36*
%TO.C,R21*%
X101500000Y-85250000D03*
X101500000Y-86270000D03*
%TD*%
D12*
%TO.C,R35*%
X151500000Y-73000000D03*
X151500000Y-74650000D03*
%TD*%
%TO.C,R34*%
X150500000Y-76350000D03*
X150500000Y-78000000D03*
%TD*%
D18*
%TO.C,C52*%
X153412500Y-95000000D03*
X152547500Y-95000000D03*
%TD*%
D16*
%TO.C,R14*%
X105770000Y-101250000D03*
X104750000Y-101250000D03*
%TD*%
D12*
%TO.C,R27*%
X116000000Y-74350000D03*
X116000000Y-76000000D03*
%TD*%
D45*
%TO.C,U6*%
X97895000Y-107545000D03*
X100195000Y-107545000D03*
D46*
X100195000Y-101245000D03*
D45*
X102495000Y-107545000D03*
%TD*%
D17*
%TO.C,C20*%
X130308000Y-93045600D03*
X132033000Y-93045600D03*
%TD*%
D12*
%TO.C,R26*%
X119000000Y-73500000D03*
X119000000Y-75150000D03*
%TD*%
D23*
%TO.C,C6*%
X166175000Y-92000000D03*
X164450000Y-92000000D03*
%TD*%
D15*
%TO.C,C40*%
X147500000Y-94567500D03*
X147500000Y-95432500D03*
%TD*%
D47*
%TO.C,C31*%
X100905000Y-109375000D03*
X101865000Y-109375000D03*
%TD*%
D17*
%TO.C,C19*%
X162775000Y-87900000D03*
X164500000Y-87900000D03*
%TD*%
D11*
%TO.C,L1*%
X153604651Y-105682842D03*
X153604651Y-106652842D03*
%TD*%
D27*
%TO.C,C17*%
X142500000Y-78812500D03*
X142500000Y-77087500D03*
%TD*%
D48*
%TO.C,C30*%
X104595000Y-106980000D03*
X104595000Y-106020000D03*
%TD*%
D18*
%TO.C,C42*%
X156952500Y-101750000D03*
X156087500Y-101750000D03*
%TD*%
D27*
%TO.C,C13*%
X137100000Y-93000000D03*
X137100000Y-91275000D03*
%TD*%
D12*
%TO.C,R36*%
X149000000Y-73000000D03*
X149000000Y-74650000D03*
%TD*%
D49*
%TO.C,D5*%
X96780000Y-88300000D03*
X97750000Y-88300000D03*
%TD*%
%TO.C,D6*%
X96780000Y-89300000D03*
X97750000Y-89300000D03*
%TD*%
D19*
%TO.C,R6*%
X110680439Y-77507989D03*
X110680439Y-76487989D03*
%TD*%
D50*
%TO.C,R2*%
X86590000Y-123400000D03*
X87610000Y-123400000D03*
%TD*%
D19*
%TO.C,R15*%
X96900000Y-71250000D03*
X96900000Y-70230000D03*
%TD*%
D50*
%TO.C,R7*%
X134980000Y-100250000D03*
X136000000Y-100250000D03*
%TD*%
D27*
%TO.C,C7*%
X171500000Y-90325000D03*
X171500000Y-88600000D03*
%TD*%
D51*
%TO.C,AE2*%
X150950000Y-116000000D03*
X150950000Y-119000000D03*
%TD*%
D50*
%TO.C,R10*%
X130380000Y-115400000D03*
X131400000Y-115400000D03*
%TD*%
D37*
%TO.C,SW2*%
X126000000Y-115400000D03*
X118800000Y-115400000D03*
X126000000Y-118400000D03*
X118800000Y-118400000D03*
%TD*%
D12*
%TO.C,R23*%
X120000000Y-77025000D03*
X120000000Y-78675000D03*
%TD*%
D36*
%TO.C,R20*%
X100750000Y-88790000D03*
X100750000Y-89810000D03*
%TD*%
D18*
%TO.C,C54*%
X93025000Y-88540000D03*
X92160000Y-88540000D03*
%TD*%
D26*
%TO.C,C53*%
X87475000Y-88540000D03*
X88340000Y-88540000D03*
%TD*%
D52*
%TO.C,D4*%
X108235000Y-101250000D03*
X107265000Y-101250000D03*
%TD*%
D36*
%TO.C,R5*%
X89500000Y-120740000D03*
X89500000Y-121760000D03*
%TD*%
D15*
%TO.C,C55*%
X86750000Y-85847500D03*
X86750000Y-86712500D03*
%TD*%
D53*
%TO.C,XTAL1*%
X160360001Y-99700501D03*
X158959999Y-99700501D03*
X158959999Y-100800499D03*
X160360001Y-100800499D03*
%TD*%
D54*
%TO.C,U10*%
X128920500Y-76895600D03*
X128920500Y-77395599D03*
X128920500Y-77895600D03*
X128920500Y-78395599D03*
X128920500Y-78895601D03*
X128920500Y-79395600D03*
X128920500Y-79895599D03*
X128920500Y-80395600D03*
X128920500Y-80895600D03*
X128920500Y-81395601D03*
X128920500Y-81895600D03*
X128920500Y-82395599D03*
X128920500Y-82895601D03*
X128920500Y-83395600D03*
X128920500Y-83895601D03*
X128920500Y-84395600D03*
D55*
X130949000Y-86424100D03*
X131448999Y-86424100D03*
X131949000Y-86424100D03*
X132448999Y-86424100D03*
X132949001Y-86424100D03*
X133449000Y-86424100D03*
X133948999Y-86424100D03*
X134449000Y-86424100D03*
X134949000Y-86424100D03*
X135449001Y-86424100D03*
X135949000Y-86424100D03*
X136448999Y-86424100D03*
X136949001Y-86424100D03*
X137449000Y-86424100D03*
X137949001Y-86424100D03*
X138449000Y-86424100D03*
D54*
X140477500Y-84395600D03*
X140477500Y-83895601D03*
X140477500Y-83395600D03*
X140477500Y-82895601D03*
X140477500Y-82395599D03*
X140477500Y-81895600D03*
X140477500Y-81395601D03*
X140477500Y-80895600D03*
X140477500Y-80395600D03*
X140477500Y-79895599D03*
X140477500Y-79395600D03*
X140477500Y-78895601D03*
X140477500Y-78395599D03*
X140477500Y-77895600D03*
X140477500Y-77395599D03*
X140477500Y-76895600D03*
D55*
X138449000Y-74867100D03*
X137949001Y-74867100D03*
X137449000Y-74867100D03*
X136949001Y-74867100D03*
X136448999Y-74867100D03*
X135949000Y-74867100D03*
X135449001Y-74867100D03*
X134949000Y-74867100D03*
X134449000Y-74867100D03*
X133948999Y-74867100D03*
X133449000Y-74867100D03*
X132949001Y-74867100D03*
X132448999Y-74867100D03*
X131949000Y-74867100D03*
X131448999Y-74867100D03*
X130949000Y-74867100D03*
%TD*%
D56*
%TO.C,D2*%
X109119000Y-109951000D03*
D57*
X105945000Y-109951000D03*
D58*
X107869000Y-109951000D03*
%TD*%
D49*
%TO.C,D1*%
X137780000Y-100250000D03*
X138750000Y-100250000D03*
%TD*%
D12*
%TO.C,R29*%
X157500000Y-75850000D03*
X157500000Y-77500000D03*
%TD*%
D59*
%TO.C,R37*%
X146500000Y-82000000D03*
X148150000Y-82000000D03*
%TD*%
D12*
%TO.C,R24*%
X121500000Y-73500000D03*
X121500000Y-75150000D03*
%TD*%
D15*
%TO.C,C3*%
X162750000Y-100042500D03*
X162750000Y-100907500D03*
%TD*%
D18*
%TO.C,C41*%
X149940000Y-93050000D03*
X149075000Y-93050000D03*
%TD*%
D50*
%TO.C,R1*%
X86600000Y-120800000D03*
X87620000Y-120800000D03*
%TD*%
D16*
%TO.C,R19*%
X86250000Y-78550000D03*
X85230000Y-78550000D03*
%TD*%
D60*
%TO.C,XTAL2*%
X85000000Y-93540000D03*
X94500000Y-93540000D03*
%TD*%
D24*
%TO.C,C28*%
X89700000Y-115335000D03*
X89700000Y-116025000D03*
%TD*%
D12*
%TO.C,R25*%
X117500000Y-76850000D03*
X117500000Y-78500000D03*
%TD*%
D54*
%TO.C,U11*%
X160443000Y-76499999D03*
X160443000Y-76999998D03*
X160443000Y-77499999D03*
X160443000Y-77999998D03*
X160443000Y-78500000D03*
X160443000Y-78999999D03*
X160443000Y-79499998D03*
X160443000Y-79999999D03*
X160443000Y-80499999D03*
X160443000Y-81000000D03*
X160443000Y-81499999D03*
X160443000Y-81999998D03*
X160443000Y-82500000D03*
X160443000Y-82999999D03*
X160443000Y-83500000D03*
X160443000Y-83999999D03*
D55*
X162471500Y-86028499D03*
X162971499Y-86028499D03*
X163471500Y-86028499D03*
X163971499Y-86028499D03*
X164471501Y-86028499D03*
X164971500Y-86028499D03*
X165471499Y-86028499D03*
X165971500Y-86028499D03*
X166471500Y-86028499D03*
X166971501Y-86028499D03*
X167471500Y-86028499D03*
X167971499Y-86028499D03*
X168471501Y-86028499D03*
X168971500Y-86028499D03*
X169471501Y-86028499D03*
X169971500Y-86028499D03*
D54*
X172000000Y-83999999D03*
X172000000Y-83500000D03*
X172000000Y-82999999D03*
X172000000Y-82500000D03*
X172000000Y-81999998D03*
X172000000Y-81499999D03*
X172000000Y-81000000D03*
X172000000Y-80499999D03*
X172000000Y-79999999D03*
X172000000Y-79499998D03*
X172000000Y-78999999D03*
X172000000Y-78500000D03*
X172000000Y-77999998D03*
X172000000Y-77499999D03*
X172000000Y-76999998D03*
X172000000Y-76499999D03*
D55*
X169971500Y-74471499D03*
X169471501Y-74471499D03*
X168971500Y-74471499D03*
X168471501Y-74471499D03*
X167971499Y-74471499D03*
X167471500Y-74471499D03*
X166971501Y-74471499D03*
X166471500Y-74471499D03*
X165971500Y-74471499D03*
X165471499Y-74471499D03*
X164971500Y-74471499D03*
X164471501Y-74471499D03*
X163971499Y-74471499D03*
X163471500Y-74471499D03*
X162971499Y-74471499D03*
X162471500Y-74471499D03*
%TD*%
D18*
%TO.C,C49*%
X155632500Y-95300000D03*
X154767500Y-95300000D03*
%TD*%
D61*
%TO.C,U9*%
X88285000Y-86215000D03*
X89555000Y-86215000D03*
X90825000Y-86215000D03*
X92095000Y-86215000D03*
X93365000Y-86215000D03*
X94635000Y-86215000D03*
X95905000Y-86215000D03*
X97175000Y-86215000D03*
X98445000Y-86215000D03*
X99715000Y-86215000D03*
X99715000Y-76865000D03*
X98445000Y-76865000D03*
X97175000Y-76865000D03*
X95905000Y-76865000D03*
X94635000Y-76865000D03*
X93365000Y-76865000D03*
X92095000Y-76865000D03*
X90825000Y-76865000D03*
X89555000Y-76865000D03*
X88285000Y-76865000D03*
%TD*%
D41*
%TO.C,C33*%
X133800000Y-91275000D03*
X133800000Y-93000000D03*
%TD*%
M02*
