%TF.GenerationSoftware,KiCad,Pcbnew,9.0.5*%
%TF.CreationDate,2026-03-10T15:38:56+01:00*%
%TF.ProjectId,Processing_board,50726f63-6573-4736-996e-675f626f6172,rev?*%
%TF.SameCoordinates,Original*%
%TF.FileFunction,Soldermask,Top*%
%TF.FilePolarity,Negative*%
%FSLAX46Y46*%
G04 Gerber Fmt 4.6, Leading zero omitted, Abs format (unit mm)*
G04 Created by KiCad (PCBNEW 9.0.5) date 2026-03-10 15:38:56*
%MOMM*%
%LPD*%
G01*
G04 APERTURE LIST*
G04 Aperture macros list*
%AMRoundRect*
0 Rectangle with rounded corners*
0 $1 Rounding radius*
0 $2 $3 $4 $5 $6 $7 $8 $9 X,Y pos of 4 corners*
0 Add a 4 corners polygon primitive as box body*
4,1,4,$2,$3,$4,$5,$6,$7,$8,$9,$2,$3,0*
0 Add four circle primitives for the rounded corners*
1,1,$1+$1,$2,$3*
1,1,$1+$1,$4,$5*
1,1,$1+$1,$6,$7*
1,1,$1+$1,$8,$9*
0 Add four rect primitives between the rounded corners*
20,1,$1+$1,$2,$3,$4,$5,0*
20,1,$1+$1,$4,$5,$6,$7,0*
20,1,$1+$1,$6,$7,$8,$9,0*
20,1,$1+$1,$8,$9,$2,$3,0*%
%AMFreePoly0*
4,1,23,0.500000,-0.750000,0.000000,-0.750000,0.000000,-0.745722,-0.065263,-0.745722,-0.191342,-0.711940,-0.304381,-0.646677,-0.396677,-0.554381,-0.461940,-0.441342,-0.495722,-0.315263,-0.495722,-0.250000,-0.500000,-0.250000,-0.500000,0.250000,-0.495722,0.250000,-0.495722,0.315263,-0.461940,0.441342,-0.396677,0.554381,-0.304381,0.646677,-0.191342,0.711940,-0.065263,0.745722,0.000000,0.745722,
0.000000,0.750000,0.500000,0.750000,0.500000,-0.750000,0.500000,-0.750000,$1*%
%AMFreePoly1*
4,1,23,0.000000,0.745722,0.065263,0.745722,0.191342,0.711940,0.304381,0.646677,0.396677,0.554381,0.461940,0.441342,0.495722,0.315263,0.495722,0.250000,0.500000,0.250000,0.500000,-0.250000,0.495722,-0.250000,0.495722,-0.315263,0.461940,-0.441342,0.396677,-0.554381,0.304381,-0.646677,0.191342,-0.711940,0.065263,-0.745722,0.000000,-0.745722,0.000000,-0.750000,-0.500000,-0.750000,
-0.500000,0.750000,0.000000,0.750000,0.000000,0.745722,0.000000,0.745722,$1*%
G04 Aperture macros list end*
%ADD10C,0.010000*%
%ADD11RoundRect,0.147500X-0.172500X0.147500X-0.172500X-0.147500X0.172500X-0.147500X0.172500X0.147500X0*%
%ADD12RoundRect,0.200000X-0.275000X0.200000X-0.275000X-0.200000X0.275000X-0.200000X0.275000X0.200000X0*%
%ADD13RoundRect,0.100000X0.100000X-0.217500X0.100000X0.217500X-0.100000X0.217500X-0.100000X-0.217500X0*%
%ADD14RoundRect,0.200000X0.275000X-0.200000X0.275000X0.200000X-0.275000X0.200000X-0.275000X-0.200000X0*%
%ADD15RoundRect,0.100000X-0.100000X0.217500X-0.100000X-0.217500X0.100000X-0.217500X0.100000X0.217500X0*%
%ADD16R,1.700000X1.700000*%
%ADD17O,1.700000X1.700000*%
%ADD18RoundRect,0.135000X0.135000X0.185000X-0.135000X0.185000X-0.135000X-0.185000X0.135000X-0.185000X0*%
%ADD19RoundRect,0.237500X-0.300000X-0.237500X0.300000X-0.237500X0.300000X0.237500X-0.300000X0.237500X0*%
%ADD20RoundRect,0.100000X0.217500X0.100000X-0.217500X0.100000X-0.217500X-0.100000X0.217500X-0.100000X0*%
%ADD21RoundRect,0.135000X0.185000X-0.135000X0.185000X0.135000X-0.185000X0.135000X-0.185000X-0.135000X0*%
%ADD22RoundRect,0.087500X0.087500X-0.425000X0.087500X0.425000X-0.087500X0.425000X-0.087500X-0.425000X0*%
%ADD23RoundRect,0.087500X0.425000X-0.087500X0.425000X0.087500X-0.425000X0.087500X-0.425000X-0.087500X0*%
%ADD24R,3.150000X3.150000*%
%ADD25RoundRect,0.237500X0.300000X0.237500X-0.300000X0.237500X-0.300000X-0.237500X0.300000X-0.237500X0*%
%ADD26RoundRect,0.100000X-0.100000X0.130000X-0.100000X-0.130000X0.100000X-0.130000X0.100000X0.130000X0*%
%ADD27R,1.000000X0.400000*%
%ADD28RoundRect,0.100000X-0.217500X-0.100000X0.217500X-0.100000X0.217500X0.100000X-0.217500X0.100000X0*%
%ADD29C,1.734000*%
%ADD30RoundRect,0.237500X0.237500X-0.300000X0.237500X0.300000X-0.237500X0.300000X-0.237500X-0.300000X0*%
%ADD31RoundRect,0.140000X-0.170000X0.140000X-0.170000X-0.140000X0.170000X-0.140000X0.170000X0.140000X0*%
%ADD32RoundRect,0.090000X0.300000X0.575000X-0.300000X0.575000X-0.300000X-0.575000X0.300000X-0.575000X0*%
%ADD33RoundRect,0.090000X0.150000X0.575000X-0.150000X0.575000X-0.150000X-0.575000X0.150000X-0.575000X0*%
%ADD34O,1.204000X2.004000*%
%ADD35R,0.300000X0.550000*%
%ADD36R,0.550000X0.300000*%
%ADD37R,5.599999X5.599999*%
%ADD38R,0.700000X0.275000*%
%ADD39R,0.245000X0.450000*%
%ADD40R,0.650000X1.525000*%
%ADD41RoundRect,0.135000X-0.185000X0.135000X-0.185000X-0.135000X0.185000X-0.135000X0.185000X0.135000X0*%
%ADD42R,1.600000X1.400000*%
%ADD43R,1.000000X1.050000*%
%ADD44R,1.050000X2.200000*%
%ADD45RoundRect,0.218750X0.218750X0.381250X-0.218750X0.381250X-0.218750X-0.381250X0.218750X-0.381250X0*%
%ADD46RoundRect,0.237500X-0.237500X0.300000X-0.237500X-0.300000X0.237500X-0.300000X0.237500X0.300000X0*%
%ADD47R,1.200000X1.000000*%
%ADD48R,1.200000X1.150000*%
%ADD49R,1.500000X1.550000*%
%ADD50RoundRect,0.375000X0.375000X-0.625000X0.375000X0.625000X-0.375000X0.625000X-0.375000X-0.625000X0*%
%ADD51RoundRect,0.500000X1.400000X-0.500000X1.400000X0.500000X-1.400000X0.500000X-1.400000X-0.500000X0*%
%ADD52RoundRect,0.140000X-0.140000X-0.170000X0.140000X-0.170000X0.140000X0.170000X-0.140000X0.170000X0*%
%ADD53FreePoly0,0.000000*%
%ADD54FreePoly1,0.000000*%
%ADD55RoundRect,0.140000X0.170000X-0.140000X0.170000X0.140000X-0.170000X0.140000X-0.170000X-0.140000X0*%
%ADD56RoundRect,0.147500X-0.147500X-0.172500X0.147500X-0.172500X0.147500X0.172500X-0.147500X0.172500X0*%
%ADD57RoundRect,0.135000X-0.135000X-0.185000X0.135000X-0.185000X0.135000X0.185000X-0.135000X0.185000X0*%
%ADD58R,1.800000X1.150000*%
%ADD59C,1.700000*%
%ADD60RoundRect,0.147500X0.147500X0.172500X-0.147500X0.172500X-0.147500X-0.172500X0.147500X-0.172500X0*%
%ADD61R,0.889000X0.812800*%
%ADD62R,1.346200X0.279400*%
%ADD63R,0.279400X1.346200*%
%ADD64R,1.000000X1.200000*%
%ADD65R,1.150000X1.200000*%
%ADD66R,1.550000X1.500000*%
%ADD67RoundRect,0.200000X-0.200000X-0.275000X0.200000X-0.275000X0.200000X0.275000X-0.200000X0.275000X0*%
%ADD68R,5.500000X2.000000*%
%ADD69R,0.650000X1.850000*%
G04 APERTURE END LIST*
D10*
%TO.C,J11*%
X86461000Y-67378500D02*
X86493000Y-67380500D01*
X86524000Y-67384500D01*
X86555000Y-67390500D01*
X86585000Y-67397500D01*
X86615000Y-67406500D01*
X86645000Y-67417500D01*
X86674000Y-67429500D01*
X86702000Y-67442500D01*
X86730000Y-67457500D01*
X86757000Y-67474500D01*
X86783000Y-67492500D01*
X86808000Y-67511500D01*
X86831000Y-67531500D01*
X86854000Y-67553500D01*
X86876000Y-67576500D01*
X86896000Y-67599500D01*
X86915000Y-67624500D01*
X86933000Y-67650500D01*
X86950000Y-67677500D01*
X86965000Y-67705500D01*
X86978000Y-67733500D01*
X86990000Y-67762500D01*
X87001000Y-67792500D01*
X87010000Y-67822500D01*
X87017000Y-67852500D01*
X87023000Y-67883500D01*
X87027000Y-67914500D01*
X87029000Y-67946500D01*
X87030000Y-67977500D01*
X87030000Y-68577500D01*
X87030000Y-69177500D01*
X87029000Y-69208500D01*
X87027000Y-69240500D01*
X87023000Y-69271500D01*
X87017000Y-69302500D01*
X87010000Y-69332500D01*
X87001000Y-69362500D01*
X86990000Y-69392500D01*
X86978000Y-69421500D01*
X86965000Y-69449500D01*
X86950000Y-69477500D01*
X86933000Y-69504500D01*
X86915000Y-69530500D01*
X86896000Y-69555500D01*
X86876000Y-69578500D01*
X86854000Y-69601500D01*
X86831000Y-69623500D01*
X86808000Y-69643500D01*
X86783000Y-69662500D01*
X86757000Y-69680500D01*
X86730000Y-69697500D01*
X86702000Y-69712500D01*
X86674000Y-69725500D01*
X86645000Y-69737500D01*
X86615000Y-69748500D01*
X86585000Y-69757500D01*
X86555000Y-69764500D01*
X86524000Y-69770500D01*
X86493000Y-69774500D01*
X86461000Y-69776500D01*
X86430000Y-69777500D01*
X86399000Y-69776500D01*
X86367000Y-69774500D01*
X86336000Y-69770500D01*
X86305000Y-69764500D01*
X86275000Y-69757500D01*
X86245000Y-69748500D01*
X86215000Y-69737500D01*
X86186000Y-69725500D01*
X86158000Y-69712500D01*
X86130000Y-69697500D01*
X86103000Y-69680500D01*
X86077000Y-69662500D01*
X86052000Y-69643500D01*
X86029000Y-69623500D01*
X86006000Y-69601500D01*
X85984000Y-69578500D01*
X85964000Y-69555500D01*
X85945000Y-69530500D01*
X85927000Y-69504500D01*
X85910000Y-69477500D01*
X85895000Y-69449500D01*
X85882000Y-69421500D01*
X85870000Y-69392500D01*
X85859000Y-69362500D01*
X85850000Y-69332500D01*
X85843000Y-69302500D01*
X85837000Y-69271500D01*
X85833000Y-69240500D01*
X85831000Y-69208500D01*
X85830000Y-69177500D01*
X85830000Y-68577500D01*
X85830000Y-67977500D01*
X85831000Y-67946500D01*
X85833000Y-67914500D01*
X85837000Y-67883500D01*
X85843000Y-67852500D01*
X85850000Y-67822500D01*
X85859000Y-67792500D01*
X85870000Y-67762500D01*
X85882000Y-67733500D01*
X85895000Y-67705500D01*
X85910000Y-67677500D01*
X85927000Y-67650500D01*
X85945000Y-67624500D01*
X85964000Y-67599500D01*
X85984000Y-67576500D01*
X86006000Y-67553500D01*
X86029000Y-67531500D01*
X86052000Y-67511500D01*
X86077000Y-67492500D01*
X86103000Y-67474500D01*
X86130000Y-67457500D01*
X86158000Y-67442500D01*
X86186000Y-67429500D01*
X86215000Y-67417500D01*
X86245000Y-67406500D01*
X86275000Y-67397500D01*
X86305000Y-67390500D01*
X86336000Y-67384500D01*
X86367000Y-67380500D01*
X86399000Y-67378500D01*
X86430000Y-67377500D01*
X86461000Y-67378500D01*
G36*
X86461000Y-67378500D02*
G01*
X86493000Y-67380500D01*
X86524000Y-67384500D01*
X86555000Y-67390500D01*
X86585000Y-67397500D01*
X86615000Y-67406500D01*
X86645000Y-67417500D01*
X86674000Y-67429500D01*
X86702000Y-67442500D01*
X86730000Y-67457500D01*
X86757000Y-67474500D01*
X86783000Y-67492500D01*
X86808000Y-67511500D01*
X86831000Y-67531500D01*
X86854000Y-67553500D01*
X86876000Y-67576500D01*
X86896000Y-67599500D01*
X86915000Y-67624500D01*
X86933000Y-67650500D01*
X86950000Y-67677500D01*
X86965000Y-67705500D01*
X86978000Y-67733500D01*
X86990000Y-67762500D01*
X87001000Y-67792500D01*
X87010000Y-67822500D01*
X87017000Y-67852500D01*
X87023000Y-67883500D01*
X87027000Y-67914500D01*
X87029000Y-67946500D01*
X87030000Y-67977500D01*
X87030000Y-68577500D01*
X87030000Y-69177500D01*
X87029000Y-69208500D01*
X87027000Y-69240500D01*
X87023000Y-69271500D01*
X87017000Y-69302500D01*
X87010000Y-69332500D01*
X87001000Y-69362500D01*
X86990000Y-69392500D01*
X86978000Y-69421500D01*
X86965000Y-69449500D01*
X86950000Y-69477500D01*
X86933000Y-69504500D01*
X86915000Y-69530500D01*
X86896000Y-69555500D01*
X86876000Y-69578500D01*
X86854000Y-69601500D01*
X86831000Y-69623500D01*
X86808000Y-69643500D01*
X86783000Y-69662500D01*
X86757000Y-69680500D01*
X86730000Y-69697500D01*
X86702000Y-69712500D01*
X86674000Y-69725500D01*
X86645000Y-69737500D01*
X86615000Y-69748500D01*
X86585000Y-69757500D01*
X86555000Y-69764500D01*
X86524000Y-69770500D01*
X86493000Y-69774500D01*
X86461000Y-69776500D01*
X86430000Y-69777500D01*
X86399000Y-69776500D01*
X86367000Y-69774500D01*
X86336000Y-69770500D01*
X86305000Y-69764500D01*
X86275000Y-69757500D01*
X86245000Y-69748500D01*
X86215000Y-69737500D01*
X86186000Y-69725500D01*
X86158000Y-69712500D01*
X86130000Y-69697500D01*
X86103000Y-69680500D01*
X86077000Y-69662500D01*
X86052000Y-69643500D01*
X86029000Y-69623500D01*
X86006000Y-69601500D01*
X85984000Y-69578500D01*
X85964000Y-69555500D01*
X85945000Y-69530500D01*
X85927000Y-69504500D01*
X85910000Y-69477500D01*
X85895000Y-69449500D01*
X85882000Y-69421500D01*
X85870000Y-69392500D01*
X85859000Y-69362500D01*
X85850000Y-69332500D01*
X85843000Y-69302500D01*
X85837000Y-69271500D01*
X85833000Y-69240500D01*
X85831000Y-69208500D01*
X85830000Y-69177500D01*
X85830000Y-68577500D01*
X85830000Y-67977500D01*
X85831000Y-67946500D01*
X85833000Y-67914500D01*
X85837000Y-67883500D01*
X85843000Y-67852500D01*
X85850000Y-67822500D01*
X85859000Y-67792500D01*
X85870000Y-67762500D01*
X85882000Y-67733500D01*
X85895000Y-67705500D01*
X85910000Y-67677500D01*
X85927000Y-67650500D01*
X85945000Y-67624500D01*
X85964000Y-67599500D01*
X85984000Y-67576500D01*
X86006000Y-67553500D01*
X86029000Y-67531500D01*
X86052000Y-67511500D01*
X86077000Y-67492500D01*
X86103000Y-67474500D01*
X86130000Y-67457500D01*
X86158000Y-67442500D01*
X86186000Y-67429500D01*
X86215000Y-67417500D01*
X86245000Y-67406500D01*
X86275000Y-67397500D01*
X86305000Y-67390500D01*
X86336000Y-67384500D01*
X86367000Y-67380500D01*
X86399000Y-67378500D01*
X86430000Y-67377500D01*
X86461000Y-67378500D01*
G37*
X95101000Y-67378500D02*
X95133000Y-67380500D01*
X95164000Y-67384500D01*
X95195000Y-67390500D01*
X95225000Y-67397500D01*
X95255000Y-67406500D01*
X95285000Y-67417500D01*
X95314000Y-67429500D01*
X95342000Y-67442500D01*
X95370000Y-67457500D01*
X95397000Y-67474500D01*
X95423000Y-67492500D01*
X95448000Y-67511500D01*
X95471000Y-67531500D01*
X95494000Y-67553500D01*
X95516000Y-67576500D01*
X95536000Y-67599500D01*
X95555000Y-67624500D01*
X95573000Y-67650500D01*
X95590000Y-67677500D01*
X95605000Y-67705500D01*
X95618000Y-67733500D01*
X95630000Y-67762500D01*
X95641000Y-67792500D01*
X95650000Y-67822500D01*
X95657000Y-67852500D01*
X95663000Y-67883500D01*
X95667000Y-67914500D01*
X95669000Y-67946500D01*
X95670000Y-67977500D01*
X95670000Y-68577500D01*
X95670000Y-69177500D01*
X95669000Y-69208500D01*
X95667000Y-69240500D01*
X95663000Y-69271500D01*
X95657000Y-69302500D01*
X95650000Y-69332500D01*
X95641000Y-69362500D01*
X95630000Y-69392500D01*
X95618000Y-69421500D01*
X95605000Y-69449500D01*
X95590000Y-69477500D01*
X95573000Y-69504500D01*
X95555000Y-69530500D01*
X95536000Y-69555500D01*
X95516000Y-69578500D01*
X95494000Y-69601500D01*
X95471000Y-69623500D01*
X95448000Y-69643500D01*
X95423000Y-69662500D01*
X95397000Y-69680500D01*
X95370000Y-69697500D01*
X95342000Y-69712500D01*
X95314000Y-69725500D01*
X95285000Y-69737500D01*
X95255000Y-69748500D01*
X95225000Y-69757500D01*
X95195000Y-69764500D01*
X95164000Y-69770500D01*
X95133000Y-69774500D01*
X95101000Y-69776500D01*
X95070000Y-69777500D01*
X95039000Y-69776500D01*
X95007000Y-69774500D01*
X94976000Y-69770500D01*
X94945000Y-69764500D01*
X94915000Y-69757500D01*
X94885000Y-69748500D01*
X94855000Y-69737500D01*
X94826000Y-69725500D01*
X94798000Y-69712500D01*
X94770000Y-69697500D01*
X94743000Y-69680500D01*
X94717000Y-69662500D01*
X94692000Y-69643500D01*
X94669000Y-69623500D01*
X94646000Y-69601500D01*
X94624000Y-69578500D01*
X94604000Y-69555500D01*
X94585000Y-69530500D01*
X94567000Y-69504500D01*
X94550000Y-69477500D01*
X94535000Y-69449500D01*
X94522000Y-69421500D01*
X94510000Y-69392500D01*
X94499000Y-69362500D01*
X94490000Y-69332500D01*
X94483000Y-69302500D01*
X94477000Y-69271500D01*
X94473000Y-69240500D01*
X94471000Y-69208500D01*
X94470000Y-69177500D01*
X94470000Y-68577500D01*
X94470000Y-67977500D01*
X94471000Y-67946500D01*
X94473000Y-67914500D01*
X94477000Y-67883500D01*
X94483000Y-67852500D01*
X94490000Y-67822500D01*
X94499000Y-67792500D01*
X94510000Y-67762500D01*
X94522000Y-67733500D01*
X94535000Y-67705500D01*
X94550000Y-67677500D01*
X94567000Y-67650500D01*
X94585000Y-67624500D01*
X94604000Y-67599500D01*
X94624000Y-67576500D01*
X94646000Y-67553500D01*
X94669000Y-67531500D01*
X94692000Y-67511500D01*
X94717000Y-67492500D01*
X94743000Y-67474500D01*
X94770000Y-67457500D01*
X94798000Y-67442500D01*
X94826000Y-67429500D01*
X94855000Y-67417500D01*
X94885000Y-67406500D01*
X94915000Y-67397500D01*
X94945000Y-67390500D01*
X94976000Y-67384500D01*
X95007000Y-67380500D01*
X95039000Y-67378500D01*
X95070000Y-67377500D01*
X95101000Y-67378500D01*
G36*
X95101000Y-67378500D02*
G01*
X95133000Y-67380500D01*
X95164000Y-67384500D01*
X95195000Y-67390500D01*
X95225000Y-67397500D01*
X95255000Y-67406500D01*
X95285000Y-67417500D01*
X95314000Y-67429500D01*
X95342000Y-67442500D01*
X95370000Y-67457500D01*
X95397000Y-67474500D01*
X95423000Y-67492500D01*
X95448000Y-67511500D01*
X95471000Y-67531500D01*
X95494000Y-67553500D01*
X95516000Y-67576500D01*
X95536000Y-67599500D01*
X95555000Y-67624500D01*
X95573000Y-67650500D01*
X95590000Y-67677500D01*
X95605000Y-67705500D01*
X95618000Y-67733500D01*
X95630000Y-67762500D01*
X95641000Y-67792500D01*
X95650000Y-67822500D01*
X95657000Y-67852500D01*
X95663000Y-67883500D01*
X95667000Y-67914500D01*
X95669000Y-67946500D01*
X95670000Y-67977500D01*
X95670000Y-68577500D01*
X95670000Y-69177500D01*
X95669000Y-69208500D01*
X95667000Y-69240500D01*
X95663000Y-69271500D01*
X95657000Y-69302500D01*
X95650000Y-69332500D01*
X95641000Y-69362500D01*
X95630000Y-69392500D01*
X95618000Y-69421500D01*
X95605000Y-69449500D01*
X95590000Y-69477500D01*
X95573000Y-69504500D01*
X95555000Y-69530500D01*
X95536000Y-69555500D01*
X95516000Y-69578500D01*
X95494000Y-69601500D01*
X95471000Y-69623500D01*
X95448000Y-69643500D01*
X95423000Y-69662500D01*
X95397000Y-69680500D01*
X95370000Y-69697500D01*
X95342000Y-69712500D01*
X95314000Y-69725500D01*
X95285000Y-69737500D01*
X95255000Y-69748500D01*
X95225000Y-69757500D01*
X95195000Y-69764500D01*
X95164000Y-69770500D01*
X95133000Y-69774500D01*
X95101000Y-69776500D01*
X95070000Y-69777500D01*
X95039000Y-69776500D01*
X95007000Y-69774500D01*
X94976000Y-69770500D01*
X94945000Y-69764500D01*
X94915000Y-69757500D01*
X94885000Y-69748500D01*
X94855000Y-69737500D01*
X94826000Y-69725500D01*
X94798000Y-69712500D01*
X94770000Y-69697500D01*
X94743000Y-69680500D01*
X94717000Y-69662500D01*
X94692000Y-69643500D01*
X94669000Y-69623500D01*
X94646000Y-69601500D01*
X94624000Y-69578500D01*
X94604000Y-69555500D01*
X94585000Y-69530500D01*
X94567000Y-69504500D01*
X94550000Y-69477500D01*
X94535000Y-69449500D01*
X94522000Y-69421500D01*
X94510000Y-69392500D01*
X94499000Y-69362500D01*
X94490000Y-69332500D01*
X94483000Y-69302500D01*
X94477000Y-69271500D01*
X94473000Y-69240500D01*
X94471000Y-69208500D01*
X94470000Y-69177500D01*
X94470000Y-68577500D01*
X94470000Y-67977500D01*
X94471000Y-67946500D01*
X94473000Y-67914500D01*
X94477000Y-67883500D01*
X94483000Y-67852500D01*
X94490000Y-67822500D01*
X94499000Y-67792500D01*
X94510000Y-67762500D01*
X94522000Y-67733500D01*
X94535000Y-67705500D01*
X94550000Y-67677500D01*
X94567000Y-67650500D01*
X94585000Y-67624500D01*
X94604000Y-67599500D01*
X94624000Y-67576500D01*
X94646000Y-67553500D01*
X94669000Y-67531500D01*
X94692000Y-67511500D01*
X94717000Y-67492500D01*
X94743000Y-67474500D01*
X94770000Y-67457500D01*
X94798000Y-67442500D01*
X94826000Y-67429500D01*
X94855000Y-67417500D01*
X94885000Y-67406500D01*
X94915000Y-67397500D01*
X94945000Y-67390500D01*
X94976000Y-67384500D01*
X95007000Y-67380500D01*
X95039000Y-67378500D01*
X95070000Y-67377500D01*
X95101000Y-67378500D01*
G37*
%TO.C,JP1*%
G36*
X112645000Y-113451000D02*
G01*
X112945000Y-113451000D01*
X112945000Y-114951000D01*
X112645000Y-114951000D01*
X112645000Y-113451000D01*
G37*
%TD*%
D11*
%TO.C,L2*%
X150976497Y-114374158D03*
X150976497Y-113404158D03*
%TD*%
D12*
%TO.C,R41*%
X156200000Y-114500000D03*
X156200000Y-116150000D03*
%TD*%
%TO.C,R40*%
X154500000Y-114575000D03*
X154500000Y-116225000D03*
%TD*%
D13*
%TO.C,R_LDO_5V_N1*%
X95350000Y-120265000D03*
X95350000Y-119450000D03*
%TD*%
D14*
%TO.C,R38*%
X146600000Y-73075000D03*
X146600000Y-71425000D03*
%TD*%
D15*
%TO.C,C2*%
X129150000Y-114512500D03*
X129150000Y-115327500D03*
%TD*%
D16*
%TO.C,J1*%
X126325000Y-68725000D03*
D17*
X128865000Y-68725000D03*
X131405000Y-68725000D03*
X133945000Y-68725000D03*
X136485000Y-68725000D03*
X139025000Y-68725000D03*
X141565000Y-68725000D03*
X144105000Y-68725000D03*
%TD*%
D18*
%TO.C,R8*%
X129410000Y-109150000D03*
X128390000Y-109150000D03*
%TD*%
D19*
%TO.C,C16*%
X133650000Y-89200000D03*
X135375000Y-89200000D03*
%TD*%
D20*
%TO.C,C35*%
X153582151Y-107682842D03*
X152767151Y-107682842D03*
%TD*%
D21*
%TO.C,R16*%
X84400000Y-71250000D03*
X84400000Y-70230000D03*
%TD*%
D22*
%TO.C,U2*%
X93350000Y-117512500D03*
X94000000Y-117512500D03*
X94650000Y-117512500D03*
X95300000Y-117512500D03*
X95950000Y-117512500D03*
D23*
X97012500Y-116450000D03*
X97012500Y-115800000D03*
X97012500Y-115150000D03*
X97012500Y-114500000D03*
X97012500Y-113850000D03*
D22*
X95950000Y-112787500D03*
X95300000Y-112787500D03*
X94650000Y-112787500D03*
X94000000Y-112787500D03*
X93350000Y-112787500D03*
D23*
X92287500Y-113850000D03*
X92287500Y-114500000D03*
X92287500Y-115150000D03*
X92287500Y-115800000D03*
X92287500Y-116450000D03*
D24*
X94650000Y-115150000D03*
%TD*%
D25*
%TO.C,C32*%
X166150000Y-90350000D03*
X164425000Y-90350000D03*
%TD*%
D26*
%TO.C,R_LDO_5V_N2*%
X95700000Y-121310000D03*
X95700000Y-121950000D03*
%TD*%
D12*
%TO.C,R30*%
X155000000Y-76000000D03*
X155000000Y-77650000D03*
%TD*%
%TO.C,R11*%
X125500000Y-76500000D03*
X125500000Y-78150000D03*
%TD*%
D27*
%TO.C,Q3*%
X83980000Y-78550000D03*
X83980000Y-77550000D03*
X82480000Y-78050000D03*
%TD*%
D16*
%TO.C,J4*%
X82425000Y-118275000D03*
D17*
X82425000Y-120815000D03*
X82425000Y-123355000D03*
%TD*%
D12*
%TO.C,R28*%
X144950000Y-81925000D03*
X144950000Y-83575000D03*
%TD*%
%TO.C,R32*%
X153000000Y-76000000D03*
X153000000Y-77650000D03*
%TD*%
D19*
%TO.C,C5*%
X168187500Y-90100000D03*
X169912500Y-90100000D03*
%TD*%
D20*
%TO.C,C43*%
X144457966Y-102000000D03*
X143642966Y-102000000D03*
%TD*%
D25*
%TO.C,C8*%
X135834001Y-72521501D03*
X134109001Y-72521501D03*
%TD*%
D28*
%TO.C,C34*%
X153697500Y-104698000D03*
X154512500Y-104698000D03*
%TD*%
D29*
%TO.C,TP13*%
X116500000Y-96000000D03*
%TD*%
D30*
%TO.C,C69*%
X144000000Y-73137500D03*
X144000000Y-71412500D03*
%TD*%
D20*
%TO.C,C4*%
X160167500Y-102310000D03*
X159352500Y-102310000D03*
%TD*%
D19*
%TO.C,C15*%
X167087500Y-88550000D03*
X168812500Y-88550000D03*
%TD*%
D31*
%TO.C,C29*%
X93350000Y-119340000D03*
X93350000Y-120300000D03*
%TD*%
D25*
%TO.C,C14*%
X138875000Y-89200000D03*
X137150000Y-89200000D03*
%TD*%
D32*
%TO.C,J11*%
X93950000Y-73152500D03*
X93150000Y-73152500D03*
D33*
X92000000Y-73152500D03*
X91000000Y-73152500D03*
X90500000Y-73152500D03*
X89500000Y-73152500D03*
D32*
X87550000Y-73152500D03*
X88350000Y-73152500D03*
D33*
X89000000Y-73152500D03*
X90000000Y-73152500D03*
X91500000Y-73152500D03*
X92500000Y-73152500D03*
D34*
X95070000Y-72577500D03*
X86430000Y-72577500D03*
%TD*%
D35*
%TO.C,U1*%
X152750693Y-96625000D03*
X152250567Y-96625000D03*
X151750441Y-96625000D03*
X151250315Y-96625000D03*
X150750189Y-96625000D03*
X150250063Y-96625000D03*
X149749937Y-96625000D03*
X149249811Y-96625000D03*
X148749685Y-96625000D03*
X148249559Y-96625000D03*
X147749433Y-96625000D03*
X147249307Y-96625000D03*
D36*
X146625000Y-97250000D03*
X146625000Y-97749999D03*
X146625000Y-98250001D03*
X146625000Y-98750000D03*
X146625000Y-99249999D03*
X146625000Y-99750000D03*
X146625000Y-100250000D03*
X146625000Y-100750001D03*
X146625000Y-101250000D03*
X146625000Y-101749999D03*
X146625000Y-102250001D03*
X146625000Y-102750000D03*
D35*
X147249307Y-103375000D03*
X147749433Y-103375000D03*
X148249559Y-103375000D03*
X148749685Y-103375000D03*
X149249811Y-103375000D03*
X149749937Y-103375000D03*
X150250063Y-103375000D03*
X150750189Y-103375000D03*
X151250315Y-103375000D03*
X151750441Y-103375000D03*
X152250567Y-103375000D03*
X152750693Y-103375000D03*
D36*
X153375000Y-102750000D03*
X153375000Y-102250001D03*
X153375000Y-101749999D03*
X153375000Y-101250000D03*
X153375000Y-100750001D03*
X153375000Y-100250000D03*
X153375000Y-99750000D03*
X153375000Y-99249999D03*
X153375000Y-98750000D03*
X153375000Y-98250001D03*
X153375000Y-97749999D03*
X153375000Y-97250000D03*
D37*
X150000000Y-100000000D03*
%TD*%
D12*
%TO.C,R31*%
X159350000Y-72775000D03*
X159350000Y-74425000D03*
%TD*%
D15*
%TO.C,C45*%
X152250000Y-104612500D03*
X152250000Y-105427500D03*
%TD*%
D38*
%TO.C,FL1*%
X153574651Y-109963842D03*
D39*
X153347651Y-110575842D03*
D38*
X153574651Y-111188842D03*
D39*
X153801651Y-110575842D03*
%TD*%
D20*
%TO.C,C38*%
X150950000Y-112500000D03*
X150135000Y-112500000D03*
%TD*%
D40*
%TO.C,Q1*%
X105750000Y-118376000D03*
X107020000Y-118376000D03*
X108290000Y-118376000D03*
X109560000Y-118376000D03*
X109560000Y-113000000D03*
X108290000Y-113000000D03*
X107020000Y-113000000D03*
X105750000Y-113000000D03*
%TD*%
D20*
%TO.C,C46*%
X158617500Y-98110000D03*
X157802500Y-98110000D03*
%TD*%
D41*
%TO.C,R17*%
X85480000Y-74780000D03*
X85480000Y-75800000D03*
%TD*%
D12*
%TO.C,R33*%
X154000000Y-73000000D03*
X154000000Y-74650000D03*
%TD*%
D20*
%TO.C,C44*%
X149927500Y-94500000D03*
X149112500Y-94500000D03*
%TD*%
D42*
%TO.C,SW1*%
X126000000Y-108900000D03*
X118800000Y-108900000D03*
X126000000Y-111900000D03*
X118800000Y-111900000D03*
%TD*%
D12*
%TO.C,R39*%
X94350000Y-121450000D03*
X94350000Y-123100000D03*
%TD*%
%TO.C,R22*%
X124000000Y-73500000D03*
X124000000Y-75150000D03*
%TD*%
D28*
%TO.C,C50*%
X143662966Y-101000000D03*
X144477966Y-101000000D03*
%TD*%
D16*
%TO.C,J2*%
X154380000Y-68800000D03*
D17*
X156920000Y-68800000D03*
X159460000Y-68800000D03*
X162000000Y-68800000D03*
X164540000Y-68800000D03*
X167080000Y-68800000D03*
X169620000Y-68800000D03*
X172160000Y-68800000D03*
%TD*%
D16*
%TO.C,J5*%
X116475000Y-68975000D03*
D17*
X119015000Y-68975000D03*
X121555000Y-68975000D03*
%TD*%
D21*
%TO.C,R9*%
X131900000Y-110130000D03*
X131900000Y-109110000D03*
%TD*%
D43*
%TO.C,J10*%
X158299651Y-112150842D03*
D44*
X159774651Y-110625842D03*
D43*
X158299651Y-109100842D03*
D44*
X156824651Y-110625842D03*
%TD*%
D13*
%TO.C,C1*%
X130600000Y-110032500D03*
X130600000Y-109217500D03*
%TD*%
D41*
%TO.C,R3*%
X113000000Y-76480000D03*
X113000000Y-77500000D03*
%TD*%
D25*
%TO.C,C10*%
X168912500Y-72000000D03*
X167187500Y-72000000D03*
%TD*%
D45*
%TO.C,L3*%
X153962500Y-93450000D03*
X151837500Y-93450000D03*
%TD*%
D20*
%TO.C,C51*%
X156977500Y-100510000D03*
X156162500Y-100510000D03*
%TD*%
%TO.C,C48*%
X156927500Y-102750000D03*
X156112500Y-102750000D03*
%TD*%
D46*
%TO.C,C12*%
X135350000Y-91225000D03*
X135350000Y-92950000D03*
%TD*%
D12*
%TO.C,R12*%
X122500000Y-76850000D03*
X122500000Y-78500000D03*
%TD*%
D47*
%TO.C,D3*%
X113695000Y-107545000D03*
D48*
X113695000Y-110719000D03*
D49*
X113695000Y-108795000D03*
%TD*%
D20*
%TO.C,C47*%
X158207500Y-97010000D03*
X157392500Y-97010000D03*
%TD*%
D41*
%TO.C,R13*%
X113645000Y-118625000D03*
X113645000Y-119645000D03*
%TD*%
D46*
%TO.C,C22*%
X140900000Y-72787500D03*
X140900000Y-74512500D03*
%TD*%
D41*
%TO.C,R4*%
X114000000Y-78940000D03*
X114000000Y-79960000D03*
%TD*%
D27*
%TO.C,Q2*%
X83980000Y-76050000D03*
X83980000Y-75050000D03*
X82480000Y-75550000D03*
%TD*%
D18*
%TO.C,R18*%
X86250000Y-77550000D03*
X85230000Y-77550000D03*
%TD*%
D41*
%TO.C,R21*%
X101500000Y-85250000D03*
X101500000Y-86270000D03*
%TD*%
D12*
%TO.C,R35*%
X151500000Y-73000000D03*
X151500000Y-74650000D03*
%TD*%
%TO.C,R34*%
X150500000Y-76350000D03*
X150500000Y-78000000D03*
%TD*%
D20*
%TO.C,C52*%
X153387500Y-95000000D03*
X152572500Y-95000000D03*
%TD*%
D18*
%TO.C,R14*%
X105770000Y-101250000D03*
X104750000Y-101250000D03*
%TD*%
D12*
%TO.C,R27*%
X116000000Y-74350000D03*
X116000000Y-76000000D03*
%TD*%
D50*
%TO.C,U6*%
X97895000Y-107545000D03*
X100195000Y-107545000D03*
D51*
X100195000Y-101245000D03*
D50*
X102495000Y-107545000D03*
%TD*%
D19*
%TO.C,C20*%
X130308000Y-93045600D03*
X132033000Y-93045600D03*
%TD*%
D12*
%TO.C,R26*%
X119000000Y-73500000D03*
X119000000Y-75150000D03*
%TD*%
D25*
%TO.C,C6*%
X166175000Y-92000000D03*
X164450000Y-92000000D03*
%TD*%
D15*
%TO.C,C40*%
X147500000Y-94592500D03*
X147500000Y-95407500D03*
%TD*%
D52*
%TO.C,C31*%
X100905000Y-109375000D03*
X101865000Y-109375000D03*
%TD*%
D19*
%TO.C,C19*%
X162775000Y-87900000D03*
X164500000Y-87900000D03*
%TD*%
D11*
%TO.C,L1*%
X153604651Y-105682842D03*
X153604651Y-106652842D03*
%TD*%
D53*
%TO.C,JP1*%
X112145000Y-114201000D03*
D54*
X113445000Y-114201000D03*
%TD*%
D30*
%TO.C,C17*%
X142500000Y-78812500D03*
X142500000Y-77087500D03*
%TD*%
D16*
%TO.C,J6*%
X82000000Y-112000000D03*
D17*
X82000000Y-114540000D03*
%TD*%
D55*
%TO.C,C30*%
X104595000Y-106980000D03*
X104595000Y-106020000D03*
%TD*%
D20*
%TO.C,C42*%
X156927500Y-101750000D03*
X156112500Y-101750000D03*
%TD*%
D30*
%TO.C,C13*%
X137100000Y-93000000D03*
X137100000Y-91275000D03*
%TD*%
D12*
%TO.C,R36*%
X149000000Y-73000000D03*
X149000000Y-74650000D03*
%TD*%
D56*
%TO.C,D5*%
X96780000Y-88300000D03*
X97750000Y-88300000D03*
%TD*%
%TO.C,D6*%
X96780000Y-89300000D03*
X97750000Y-89300000D03*
%TD*%
D21*
%TO.C,R6*%
X110680439Y-77507989D03*
X110680439Y-76487989D03*
%TD*%
D57*
%TO.C,R2*%
X86590000Y-123400000D03*
X87610000Y-123400000D03*
%TD*%
D21*
%TO.C,R15*%
X96900000Y-71250000D03*
X96900000Y-70230000D03*
%TD*%
D57*
%TO.C,R7*%
X134980000Y-100250000D03*
X136000000Y-100250000D03*
%TD*%
D30*
%TO.C,C7*%
X171500000Y-90325000D03*
X171500000Y-88600000D03*
%TD*%
D58*
%TO.C,AE2*%
X150950000Y-116000000D03*
X150950000Y-119000000D03*
%TD*%
D57*
%TO.C,R10*%
X130380000Y-115400000D03*
X131400000Y-115400000D03*
%TD*%
D42*
%TO.C,SW2*%
X126000000Y-115400000D03*
X118800000Y-115400000D03*
X126000000Y-118400000D03*
X118800000Y-118400000D03*
%TD*%
D12*
%TO.C,R23*%
X120000000Y-77025000D03*
X120000000Y-78675000D03*
%TD*%
D16*
%TO.C,J12*%
X148250000Y-68975000D03*
D59*
X150790000Y-68975000D03*
%TD*%
D41*
%TO.C,R20*%
X100750000Y-88790000D03*
X100750000Y-89810000D03*
%TD*%
D20*
%TO.C,C54*%
X93000000Y-88540000D03*
X92185000Y-88540000D03*
%TD*%
D28*
%TO.C,C53*%
X87500000Y-88540000D03*
X88315000Y-88540000D03*
%TD*%
D60*
%TO.C,D4*%
X108235000Y-101250000D03*
X107265000Y-101250000D03*
%TD*%
D41*
%TO.C,R5*%
X89500000Y-120740000D03*
X89500000Y-121760000D03*
%TD*%
D15*
%TO.C,C55*%
X86750000Y-85872500D03*
X86750000Y-86687500D03*
%TD*%
D61*
%TO.C,XTAL1*%
X160360001Y-99700501D03*
X158959999Y-99700501D03*
X158959999Y-100800499D03*
X160360001Y-100800499D03*
%TD*%
D62*
%TO.C,U10*%
X128920500Y-76895600D03*
X128920500Y-77395599D03*
X128920500Y-77895600D03*
X128920500Y-78395599D03*
X128920500Y-78895601D03*
X128920500Y-79395600D03*
X128920500Y-79895599D03*
X128920500Y-80395600D03*
X128920500Y-80895600D03*
X128920500Y-81395601D03*
X128920500Y-81895600D03*
X128920500Y-82395599D03*
X128920500Y-82895601D03*
X128920500Y-83395600D03*
X128920500Y-83895601D03*
X128920500Y-84395600D03*
D63*
X130949000Y-86424100D03*
X131448999Y-86424100D03*
X131949000Y-86424100D03*
X132448999Y-86424100D03*
X132949001Y-86424100D03*
X133449000Y-86424100D03*
X133948999Y-86424100D03*
X134449000Y-86424100D03*
X134949000Y-86424100D03*
X135449001Y-86424100D03*
X135949000Y-86424100D03*
X136448999Y-86424100D03*
X136949001Y-86424100D03*
X137449000Y-86424100D03*
X137949001Y-86424100D03*
X138449000Y-86424100D03*
D62*
X140477500Y-84395600D03*
X140477500Y-83895601D03*
X140477500Y-83395600D03*
X140477500Y-82895601D03*
X140477500Y-82395599D03*
X140477500Y-81895600D03*
X140477500Y-81395601D03*
X140477500Y-80895600D03*
X140477500Y-80395600D03*
X140477500Y-79895599D03*
X140477500Y-79395600D03*
X140477500Y-78895601D03*
X140477500Y-78395599D03*
X140477500Y-77895600D03*
X140477500Y-77395599D03*
X140477500Y-76895600D03*
D63*
X138449000Y-74867100D03*
X137949001Y-74867100D03*
X137449000Y-74867100D03*
X136949001Y-74867100D03*
X136448999Y-74867100D03*
X135949000Y-74867100D03*
X135449001Y-74867100D03*
X134949000Y-74867100D03*
X134449000Y-74867100D03*
X133948999Y-74867100D03*
X133449000Y-74867100D03*
X132949001Y-74867100D03*
X132448999Y-74867100D03*
X131949000Y-74867100D03*
X131448999Y-74867100D03*
X130949000Y-74867100D03*
%TD*%
D64*
%TO.C,D2*%
X109119000Y-109951000D03*
D65*
X105945000Y-109951000D03*
D66*
X107869000Y-109951000D03*
%TD*%
D56*
%TO.C,D1*%
X137780000Y-100250000D03*
X138750000Y-100250000D03*
%TD*%
D12*
%TO.C,R29*%
X157500000Y-75850000D03*
X157500000Y-77500000D03*
%TD*%
D67*
%TO.C,R37*%
X146500000Y-82000000D03*
X148150000Y-82000000D03*
%TD*%
D29*
%TO.C,TP12*%
X109500000Y-96000000D03*
%TD*%
D12*
%TO.C,R24*%
X121500000Y-73500000D03*
X121500000Y-75150000D03*
%TD*%
D16*
%TO.C,J3*%
X112340000Y-68800000D03*
D17*
X109800000Y-68800000D03*
X107260000Y-68800000D03*
X104720000Y-68800000D03*
X102180000Y-68800000D03*
X99640000Y-68800000D03*
%TD*%
D15*
%TO.C,C3*%
X162750000Y-100067500D03*
X162750000Y-100882500D03*
%TD*%
D20*
%TO.C,C41*%
X149915000Y-93050000D03*
X149100000Y-93050000D03*
%TD*%
D57*
%TO.C,R1*%
X86600000Y-120800000D03*
X87620000Y-120800000D03*
%TD*%
D18*
%TO.C,R19*%
X86250000Y-78550000D03*
X85230000Y-78550000D03*
%TD*%
D68*
%TO.C,XTAL2*%
X85000000Y-93540000D03*
X94500000Y-93540000D03*
%TD*%
D26*
%TO.C,C28*%
X89700000Y-115360000D03*
X89700000Y-116000000D03*
%TD*%
D12*
%TO.C,R25*%
X117500000Y-76850000D03*
X117500000Y-78500000D03*
%TD*%
D62*
%TO.C,U11*%
X160443000Y-76499999D03*
X160443000Y-76999998D03*
X160443000Y-77499999D03*
X160443000Y-77999998D03*
X160443000Y-78500000D03*
X160443000Y-78999999D03*
X160443000Y-79499998D03*
X160443000Y-79999999D03*
X160443000Y-80499999D03*
X160443000Y-81000000D03*
X160443000Y-81499999D03*
X160443000Y-81999998D03*
X160443000Y-82500000D03*
X160443000Y-82999999D03*
X160443000Y-83500000D03*
X160443000Y-83999999D03*
D63*
X162471500Y-86028499D03*
X162971499Y-86028499D03*
X163471500Y-86028499D03*
X163971499Y-86028499D03*
X164471501Y-86028499D03*
X164971500Y-86028499D03*
X165471499Y-86028499D03*
X165971500Y-86028499D03*
X166471500Y-86028499D03*
X166971501Y-86028499D03*
X167471500Y-86028499D03*
X167971499Y-86028499D03*
X168471501Y-86028499D03*
X168971500Y-86028499D03*
X169471501Y-86028499D03*
X169971500Y-86028499D03*
D62*
X172000000Y-83999999D03*
X172000000Y-83500000D03*
X172000000Y-82999999D03*
X172000000Y-82500000D03*
X172000000Y-81999998D03*
X172000000Y-81499999D03*
X172000000Y-81000000D03*
X172000000Y-80499999D03*
X172000000Y-79999999D03*
X172000000Y-79499998D03*
X172000000Y-78999999D03*
X172000000Y-78500000D03*
X172000000Y-77999998D03*
X172000000Y-77499999D03*
X172000000Y-76999998D03*
X172000000Y-76499999D03*
D63*
X169971500Y-74471499D03*
X169471501Y-74471499D03*
X168971500Y-74471499D03*
X168471501Y-74471499D03*
X167971499Y-74471499D03*
X167471500Y-74471499D03*
X166971501Y-74471499D03*
X166471500Y-74471499D03*
X165971500Y-74471499D03*
X165471499Y-74471499D03*
X164971500Y-74471499D03*
X164471501Y-74471499D03*
X163971499Y-74471499D03*
X163471500Y-74471499D03*
X162971499Y-74471499D03*
X162471500Y-74471499D03*
%TD*%
D20*
%TO.C,C49*%
X155607500Y-95300000D03*
X154792500Y-95300000D03*
%TD*%
D69*
%TO.C,U9*%
X88285000Y-86215000D03*
X89555000Y-86215000D03*
X90825000Y-86215000D03*
X92095000Y-86215000D03*
X93365000Y-86215000D03*
X94635000Y-86215000D03*
X95905000Y-86215000D03*
X97175000Y-86215000D03*
X98445000Y-86215000D03*
X99715000Y-86215000D03*
X99715000Y-76865000D03*
X98445000Y-76865000D03*
X97175000Y-76865000D03*
X95905000Y-76865000D03*
X94635000Y-76865000D03*
X93365000Y-76865000D03*
X92095000Y-76865000D03*
X90825000Y-76865000D03*
X89555000Y-76865000D03*
X88285000Y-76865000D03*
%TD*%
D46*
%TO.C,C33*%
X133800000Y-91275000D03*
X133800000Y-93000000D03*
%TD*%
M02*
