%TF.GenerationSoftware,KiCad,Pcbnew,9.0.5*%
%TF.CreationDate,2026-03-10T15:38:56+01:00*%
%TF.ProjectId,Processing_board,50726f63-6573-4736-996e-675f626f6172,rev?*%
%TF.SameCoordinates,Original*%
%TF.FileFunction,Copper,L1,Top*%
%TF.FilePolarity,Positive*%
%FSLAX46Y46*%
G04 Gerber Fmt 4.6, Leading zero omitted, Abs format (unit mm)*
G04 Created by KiCad (PCBNEW 9.0.5) date 2026-03-10 15:38:56*
%MOMM*%
%LPD*%
G01*
G04 APERTURE LIST*
G04 Aperture macros list*
%AMRoundRect*
0 Rectangle with rounded corners*
0 $1 Rounding radius*
0 $2 $3 $4 $5 $6 $7 $8 $9 X,Y pos of 4 corners*
0 Add a 4 corners polygon primitive as box body*
4,1,4,$2,$3,$4,$5,$6,$7,$8,$9,$2,$3,0*
0 Add four circle primitives for the rounded corners*
1,1,$1+$1,$2,$3*
1,1,$1+$1,$4,$5*
1,1,$1+$1,$6,$7*
1,1,$1+$1,$8,$9*
0 Add four rect primitives between the rounded corners*
20,1,$1+$1,$2,$3,$4,$5,0*
20,1,$1+$1,$4,$5,$6,$7,0*
20,1,$1+$1,$6,$7,$8,$9,0*
20,1,$1+$1,$8,$9,$2,$3,0*%
%AMFreePoly0*
4,1,23,0.500000,-0.750000,0.000000,-0.750000,0.000000,-0.745722,-0.065263,-0.745722,-0.191342,-0.711940,-0.304381,-0.646677,-0.396677,-0.554381,-0.461940,-0.441342,-0.495722,-0.315263,-0.495722,-0.250000,-0.500000,-0.250000,-0.500000,0.250000,-0.495722,0.250000,-0.495722,0.315263,-0.461940,0.441342,-0.396677,0.554381,-0.304381,0.646677,-0.191342,0.711940,-0.065263,0.745722,0.000000,0.745722,
0.000000,0.750000,0.500000,0.750000,0.500000,-0.750000,0.500000,-0.750000,$1*%
%AMFreePoly1*
4,1,23,0.000000,0.745722,0.065263,0.745722,0.191342,0.711940,0.304381,0.646677,0.396677,0.554381,0.461940,0.441342,0.495722,0.315263,0.495722,0.250000,0.500000,0.250000,0.500000,-0.250000,0.495722,-0.250000,0.495722,-0.315263,0.461940,-0.441342,0.396677,-0.554381,0.304381,-0.646677,0.191342,-0.711940,0.065263,-0.745722,0.000000,-0.745722,0.000000,-0.750000,-0.500000,-0.750000,
-0.500000,0.750000,0.000000,0.750000,0.000000,0.745722,0.000000,0.745722,$1*%
G04 Aperture macros list end*
%TA.AperFunction,EtchedComponent*%
%ADD10C,0.000000*%
%TD*%
%TA.AperFunction,SMDPad,CuDef*%
%ADD11RoundRect,0.147500X-0.172500X0.147500X-0.172500X-0.147500X0.172500X-0.147500X0.172500X0.147500X0*%
%TD*%
%TA.AperFunction,SMDPad,CuDef*%
%ADD12RoundRect,0.200000X-0.275000X0.200000X-0.275000X-0.200000X0.275000X-0.200000X0.275000X0.200000X0*%
%TD*%
%TA.AperFunction,SMDPad,CuDef*%
%ADD13RoundRect,0.100000X0.100000X-0.217500X0.100000X0.217500X-0.100000X0.217500X-0.100000X-0.217500X0*%
%TD*%
%TA.AperFunction,SMDPad,CuDef*%
%ADD14RoundRect,0.200000X0.275000X-0.200000X0.275000X0.200000X-0.275000X0.200000X-0.275000X-0.200000X0*%
%TD*%
%TA.AperFunction,SMDPad,CuDef*%
%ADD15RoundRect,0.100000X-0.100000X0.217500X-0.100000X-0.217500X0.100000X-0.217500X0.100000X0.217500X0*%
%TD*%
%TA.AperFunction,ComponentPad*%
%ADD16R,1.700000X1.700000*%
%TD*%
%TA.AperFunction,ComponentPad*%
%ADD17O,1.700000X1.700000*%
%TD*%
%TA.AperFunction,SMDPad,CuDef*%
%ADD18RoundRect,0.135000X0.135000X0.185000X-0.135000X0.185000X-0.135000X-0.185000X0.135000X-0.185000X0*%
%TD*%
%TA.AperFunction,SMDPad,CuDef*%
%ADD19RoundRect,0.237500X-0.300000X-0.237500X0.300000X-0.237500X0.300000X0.237500X-0.300000X0.237500X0*%
%TD*%
%TA.AperFunction,SMDPad,CuDef*%
%ADD20RoundRect,0.100000X0.217500X0.100000X-0.217500X0.100000X-0.217500X-0.100000X0.217500X-0.100000X0*%
%TD*%
%TA.AperFunction,SMDPad,CuDef*%
%ADD21RoundRect,0.135000X0.185000X-0.135000X0.185000X0.135000X-0.185000X0.135000X-0.185000X-0.135000X0*%
%TD*%
%TA.AperFunction,SMDPad,CuDef*%
%ADD22RoundRect,0.087500X0.087500X-0.425000X0.087500X0.425000X-0.087500X0.425000X-0.087500X-0.425000X0*%
%TD*%
%TA.AperFunction,SMDPad,CuDef*%
%ADD23RoundRect,0.087500X0.425000X-0.087500X0.425000X0.087500X-0.425000X0.087500X-0.425000X-0.087500X0*%
%TD*%
%TA.AperFunction,HeatsinkPad*%
%ADD24C,0.500000*%
%TD*%
%TA.AperFunction,HeatsinkPad*%
%ADD25R,3.150000X3.150000*%
%TD*%
%TA.AperFunction,SMDPad,CuDef*%
%ADD26RoundRect,0.237500X0.300000X0.237500X-0.300000X0.237500X-0.300000X-0.237500X0.300000X-0.237500X0*%
%TD*%
%TA.AperFunction,SMDPad,CuDef*%
%ADD27RoundRect,0.100000X-0.100000X0.130000X-0.100000X-0.130000X0.100000X-0.130000X0.100000X0.130000X0*%
%TD*%
%TA.AperFunction,SMDPad,CuDef*%
%ADD28R,1.000000X0.400000*%
%TD*%
%TA.AperFunction,SMDPad,CuDef*%
%ADD29C,2.000000*%
%TD*%
%TA.AperFunction,SMDPad,CuDef*%
%ADD30RoundRect,0.100000X-0.217500X-0.100000X0.217500X-0.100000X0.217500X0.100000X-0.217500X0.100000X0*%
%TD*%
%TA.AperFunction,ComponentPad*%
%ADD31C,1.530000*%
%TD*%
%TA.AperFunction,SMDPad,CuDef*%
%ADD32RoundRect,0.237500X0.237500X-0.300000X0.237500X0.300000X-0.237500X0.300000X-0.237500X-0.300000X0*%
%TD*%
%TA.AperFunction,SMDPad,CuDef*%
%ADD33RoundRect,0.140000X-0.170000X0.140000X-0.170000X-0.140000X0.170000X-0.140000X0.170000X0.140000X0*%
%TD*%
%TA.AperFunction,SMDPad,CuDef*%
%ADD34R,0.600000X1.150000*%
%TD*%
%TA.AperFunction,SMDPad,CuDef*%
%ADD35R,0.300000X1.150000*%
%TD*%
%TA.AperFunction,ComponentPad*%
%ADD36O,1.000000X1.800000*%
%TD*%
%TA.AperFunction,ComponentPad*%
%ADD37O,1.000000X2.200000*%
%TD*%
%TA.AperFunction,SMDPad,CuDef*%
%ADD38R,0.300000X0.550000*%
%TD*%
%TA.AperFunction,SMDPad,CuDef*%
%ADD39R,0.550000X0.300000*%
%TD*%
%TA.AperFunction,SMDPad,CuDef*%
%ADD40R,5.599999X5.599999*%
%TD*%
%TA.AperFunction,SMDPad,CuDef*%
%ADD41R,0.700000X0.275000*%
%TD*%
%TA.AperFunction,SMDPad,CuDef*%
%ADD42R,0.245000X0.450000*%
%TD*%
%TA.AperFunction,SMDPad,CuDef*%
%ADD43R,0.650000X1.525000*%
%TD*%
%TA.AperFunction,SMDPad,CuDef*%
%ADD44RoundRect,0.135000X-0.185000X0.135000X-0.185000X-0.135000X0.185000X-0.135000X0.185000X0.135000X0*%
%TD*%
%TA.AperFunction,SMDPad,CuDef*%
%ADD45R,1.600000X1.400000*%
%TD*%
%TA.AperFunction,SMDPad,CuDef*%
%ADD46R,1.000000X1.050000*%
%TD*%
%TA.AperFunction,SMDPad,CuDef*%
%ADD47R,1.050000X2.200000*%
%TD*%
%TA.AperFunction,SMDPad,CuDef*%
%ADD48RoundRect,0.218750X0.218750X0.381250X-0.218750X0.381250X-0.218750X-0.381250X0.218750X-0.381250X0*%
%TD*%
%TA.AperFunction,SMDPad,CuDef*%
%ADD49RoundRect,0.237500X-0.237500X0.300000X-0.237500X-0.300000X0.237500X-0.300000X0.237500X0.300000X0*%
%TD*%
%TA.AperFunction,SMDPad,CuDef*%
%ADD50R,1.200000X1.000000*%
%TD*%
%TA.AperFunction,SMDPad,CuDef*%
%ADD51R,1.200000X1.150000*%
%TD*%
%TA.AperFunction,SMDPad,CuDef*%
%ADD52R,1.500000X1.550000*%
%TD*%
%TA.AperFunction,SMDPad,CuDef*%
%ADD53RoundRect,0.375000X0.375000X-0.625000X0.375000X0.625000X-0.375000X0.625000X-0.375000X-0.625000X0*%
%TD*%
%TA.AperFunction,SMDPad,CuDef*%
%ADD54RoundRect,0.500000X1.400000X-0.500000X1.400000X0.500000X-1.400000X0.500000X-1.400000X-0.500000X0*%
%TD*%
%TA.AperFunction,SMDPad,CuDef*%
%ADD55RoundRect,0.140000X-0.140000X-0.170000X0.140000X-0.170000X0.140000X0.170000X-0.140000X0.170000X0*%
%TD*%
%TA.AperFunction,SMDPad,CuDef*%
%ADD56FreePoly0,0.000000*%
%TD*%
%TA.AperFunction,SMDPad,CuDef*%
%ADD57FreePoly1,0.000000*%
%TD*%
%TA.AperFunction,SMDPad,CuDef*%
%ADD58RoundRect,0.140000X0.170000X-0.140000X0.170000X0.140000X-0.170000X0.140000X-0.170000X-0.140000X0*%
%TD*%
%TA.AperFunction,SMDPad,CuDef*%
%ADD59RoundRect,0.147500X-0.147500X-0.172500X0.147500X-0.172500X0.147500X0.172500X-0.147500X0.172500X0*%
%TD*%
%TA.AperFunction,SMDPad,CuDef*%
%ADD60RoundRect,0.135000X-0.135000X-0.185000X0.135000X-0.185000X0.135000X0.185000X-0.135000X0.185000X0*%
%TD*%
%TA.AperFunction,SMDPad,CuDef*%
%ADD61R,1.800000X1.150000*%
%TD*%
%TA.AperFunction,ComponentPad*%
%ADD62C,1.700000*%
%TD*%
%TA.AperFunction,SMDPad,CuDef*%
%ADD63RoundRect,0.147500X0.147500X0.172500X-0.147500X0.172500X-0.147500X-0.172500X0.147500X-0.172500X0*%
%TD*%
%TA.AperFunction,SMDPad,CuDef*%
%ADD64R,0.889000X0.812800*%
%TD*%
%TA.AperFunction,SMDPad,CuDef*%
%ADD65R,1.346200X0.279400*%
%TD*%
%TA.AperFunction,SMDPad,CuDef*%
%ADD66R,0.279400X1.346200*%
%TD*%
%TA.AperFunction,SMDPad,CuDef*%
%ADD67R,1.000000X1.200000*%
%TD*%
%TA.AperFunction,SMDPad,CuDef*%
%ADD68R,1.150000X1.200000*%
%TD*%
%TA.AperFunction,SMDPad,CuDef*%
%ADD69R,1.550000X1.500000*%
%TD*%
%TA.AperFunction,SMDPad,CuDef*%
%ADD70RoundRect,0.200000X-0.200000X-0.275000X0.200000X-0.275000X0.200000X0.275000X-0.200000X0.275000X0*%
%TD*%
%TA.AperFunction,SMDPad,CuDef*%
%ADD71R,5.500000X2.000000*%
%TD*%
%TA.AperFunction,SMDPad,CuDef*%
%ADD72R,0.650000X1.850000*%
%TD*%
%TA.AperFunction,ViaPad*%
%ADD73C,0.700000*%
%TD*%
%TA.AperFunction,ViaPad*%
%ADD74C,0.600000*%
%TD*%
%TA.AperFunction,ViaPad*%
%ADD75C,0.450000*%
%TD*%
%TA.AperFunction,Conductor*%
%ADD76C,0.500000*%
%TD*%
%TA.AperFunction,Conductor*%
%ADD77C,0.200000*%
%TD*%
%TA.AperFunction,Conductor*%
%ADD78C,0.400000*%
%TD*%
%TA.AperFunction,Conductor*%
%ADD79C,0.300000*%
%TD*%
%TA.AperFunction,Conductor*%
%ADD80C,0.250000*%
%TD*%
%TA.AperFunction,Conductor*%
%ADD81C,0.190000*%
%TD*%
%TA.AperFunction,Conductor*%
%ADD82C,0.320800*%
%TD*%
%TA.AperFunction,Conductor*%
%ADD83C,0.150000*%
%TD*%
G04 APERTURE END LIST*
D10*
%TA.AperFunction,EtchedComponent*%
%TO.C,NT1*%
G36*
X147300000Y-80050000D02*
G01*
X145300000Y-80050000D01*
X145300000Y-76050000D01*
X147300000Y-76050000D01*
X147300000Y-80050000D01*
G37*
%TD.AperFunction*%
%TA.AperFunction,EtchedComponent*%
%TO.C,JP1*%
G36*
X113045000Y-114001000D02*
G01*
X112545000Y-114001000D01*
X112545000Y-113601000D01*
X113045000Y-113601000D01*
X113045000Y-114001000D01*
G37*
%TD.AperFunction*%
%TA.AperFunction,EtchedComponent*%
G36*
X113045000Y-114801000D02*
G01*
X112545000Y-114801000D01*
X112545000Y-114401000D01*
X113045000Y-114401000D01*
X113045000Y-114801000D01*
G37*
%TD.AperFunction*%
%TD*%
D11*
%TO.P,L2,2,2*%
%TO.N,/RF circuitry & antennas/RF_CERAMIC_ANT*%
X150976497Y-114374158D03*
%TO.P,L2,1,1*%
%TO.N,/RF circuitry & antennas/RF_CERAMIC_MATCH*%
X150976497Y-113404158D03*
%TD*%
D12*
%TO.P,R41,1*%
%TO.N,/RF circuitry & antennas/RF_UFL_ANT*%
X156200000Y-114500000D03*
%TO.P,R41,2*%
%TO.N,/RF circuitry & antennas/RF_CERAMIC_MATCH*%
X156200000Y-116150000D03*
%TD*%
%TO.P,R40,1*%
%TO.N,/RF circuitry & antennas/RF_LPF*%
X154500000Y-114575000D03*
%TO.P,R40,2*%
%TO.N,/RF circuitry & antennas/RF_CERAMIC_MATCH*%
X154500000Y-116225000D03*
%TD*%
D13*
%TO.P,R_LDO_5V_N1,1*%
%TO.N,/Power switching and voltage adaptation/+5V*%
X95350000Y-120265000D03*
%TO.P,R_LDO_5V_N1,2*%
%TO.N,Net-(U2-PG)*%
X95350000Y-119450000D03*
%TD*%
D14*
%TO.P,R38,1*%
%TO.N,Net-(U10-BIASIN)*%
X146600000Y-73075000D03*
%TO.P,R38,2*%
%TO.N,/ADC/BIAS_DRV*%
X146600000Y-71425000D03*
%TD*%
D15*
%TO.P,C2,1*%
%TO.N,GND*%
X129150000Y-114512500D03*
%TO.P,C2,2*%
%TO.N,/SWD_NRST*%
X129150000Y-115327500D03*
%TD*%
D16*
%TO.P,J1,1,Pin_1*%
%TO.N,/ADC/IN1P*%
X126325000Y-68725000D03*
D17*
%TO.P,J1,2,Pin_2*%
%TO.N,/ADC/IN2P*%
X128865000Y-68725000D03*
%TO.P,J1,3,Pin_3*%
%TO.N,/ADC/IN3P*%
X131405000Y-68725000D03*
%TO.P,J1,4,Pin_4*%
%TO.N,/ADC/IN4P*%
X133945000Y-68725000D03*
%TO.P,J1,5,Pin_5*%
%TO.N,/ADC/IN5P*%
X136485000Y-68725000D03*
%TO.P,J1,6,Pin_6*%
%TO.N,/ADC/IN6P*%
X139025000Y-68725000D03*
%TO.P,J1,7,Pin_7*%
%TO.N,/ADC/IN7P*%
X141565000Y-68725000D03*
%TO.P,J1,8,Pin_8*%
%TO.N,/ADC/IN8P*%
X144105000Y-68725000D03*
%TD*%
D18*
%TO.P,R8,1*%
%TO.N,/BOOT0*%
X129410000Y-109150000D03*
%TO.P,R8,2*%
%TO.N,Net-(R8-Pad2)*%
X128390000Y-109150000D03*
%TD*%
D19*
%TO.P,C16,1*%
%TO.N,GNDA*%
X133650000Y-89200000D03*
%TO.P,C16,2*%
%TO.N,Net-(U10-VCAP4)*%
X135375000Y-89200000D03*
%TD*%
D20*
%TO.P,C35,1*%
%TO.N,/RF circuitry & antennas/RF_MATCH*%
X153582151Y-107682842D03*
%TO.P,C35,2*%
%TO.N,GND*%
X152767151Y-107682842D03*
%TD*%
D21*
%TO.P,R16,1*%
%TO.N,/USB-C circuit/USB_CC2*%
X84400000Y-71250000D03*
%TO.P,R16,2*%
%TO.N,GND*%
X84400000Y-70230000D03*
%TD*%
D22*
%TO.P,U2,1,OUT*%
%TO.N,/Power switching and voltage adaptation/+5V*%
X93350000Y-117512500D03*
%TO.P,U2,2,SNS*%
%TO.N,unconnected-(U2-SNS-Pad2)*%
X94000000Y-117512500D03*
%TO.P,U2,3,FB*%
%TO.N,Net-(U2-FB)*%
X94650000Y-117512500D03*
%TO.P,U2,4,PG*%
%TO.N,Net-(U2-PG)*%
X95300000Y-117512500D03*
%TO.P,U2,5,50mV*%
%TO.N,unconnected-(U2-50mV-Pad5)*%
X95950000Y-117512500D03*
D23*
%TO.P,U2,6,100mV*%
%TO.N,unconnected-(U2-100mV-Pad6)*%
X97012500Y-116450000D03*
%TO.P,U2,7,200mV*%
%TO.N,unconnected-(U2-200mV-Pad7)*%
X97012500Y-115800000D03*
%TO.P,U2,8,GND*%
%TO.N,GND*%
X97012500Y-115150000D03*
%TO.P,U2,9,400mV*%
%TO.N,unconnected-(U2-400mV-Pad9)*%
X97012500Y-114500000D03*
%TO.P,U2,10,800mV*%
%TO.N,unconnected-(U2-800mV-Pad10)*%
X97012500Y-113850000D03*
D22*
%TO.P,U2,11,1.6V*%
%TO.N,unconnected-(U2-1.6V-Pad11)*%
X95950000Y-112787500D03*
%TO.P,U2,12,NC*%
%TO.N,unconnected-(U2-NC-Pad12)*%
X95300000Y-112787500D03*
%TO.P,U2,13,SS*%
%TO.N,unconnected-(U2-SS-Pad13)*%
X94650000Y-112787500D03*
%TO.P,U2,14,EN*%
%TO.N,/Power*%
X94000000Y-112787500D03*
%TO.P,U2,15,IN*%
X93350000Y-112787500D03*
D23*
%TO.P,U2,16,IN*%
X92287500Y-113850000D03*
%TO.P,U2,17,IN*%
X92287500Y-114500000D03*
%TO.P,U2,18,GND*%
%TO.N,GND*%
X92287500Y-115150000D03*
%TO.P,U2,19,OUT*%
%TO.N,/Power switching and voltage adaptation/+5V*%
X92287500Y-115800000D03*
%TO.P,U2,20,OUT*%
X92287500Y-116450000D03*
D24*
%TO.P,U2,21,EP*%
%TO.N,GND*%
X93650000Y-116150000D03*
X94650000Y-116150000D03*
X95650000Y-116150000D03*
X93650000Y-115150000D03*
X94650000Y-115150000D03*
D25*
X94650000Y-115150000D03*
D24*
X95650000Y-115150000D03*
X93650000Y-114150000D03*
X94650000Y-114150000D03*
X95650000Y-114150000D03*
%TD*%
D26*
%TO.P,C32,1*%
%TO.N,Net-(U11-VREFP)*%
X166150000Y-90350000D03*
%TO.P,C32,2*%
%TO.N,GNDA*%
X164425000Y-90350000D03*
%TD*%
D27*
%TO.P,R_LDO_5V_N2,1*%
%TO.N,/Power switching and voltage adaptation/+5V*%
X95700000Y-121310000D03*
%TO.P,R_LDO_5V_N2,2*%
%TO.N,Net-(U2-FB)*%
X95700000Y-121950000D03*
%TD*%
D12*
%TO.P,R30,1*%
%TO.N,/ADC/IN15P*%
X155000000Y-76000000D03*
%TO.P,R30,2*%
%TO.N,Net-(U11-IN7P)*%
X155000000Y-77650000D03*
%TD*%
%TO.P,R11,1*%
%TO.N,/ADC/IN8P*%
X125500000Y-76500000D03*
%TO.P,R11,2*%
%TO.N,Net-(U10-IN8P)*%
X125500000Y-78150000D03*
%TD*%
D28*
%TO.P,Q3,1,D*%
%TO.N,/USB-C circuit/MCP_NRST*%
X83980000Y-78550000D03*
%TO.P,Q3,2,G*%
%TO.N,Net-(Q2-D)*%
X83980000Y-77550000D03*
%TO.P,Q3,3,S*%
%TO.N,GND*%
X82480000Y-78050000D03*
%TD*%
D16*
%TO.P,J4,1,Pin_1*%
%TO.N,GND*%
X82425000Y-118275000D03*
D17*
%TO.P,J4,2,Pin_2*%
%TO.N,/USART2_TX_CONN*%
X82425000Y-120815000D03*
%TO.P,J4,3,Pin_3*%
%TO.N,/USART2_RX_CONN*%
X82425000Y-123355000D03*
%TD*%
D12*
%TO.P,R28,1*%
%TO.N,/ADC/SRB1*%
X144950000Y-81925000D03*
%TO.P,R28,2*%
%TO.N,Net-(U10-SRB1)*%
X144950000Y-83575000D03*
%TD*%
D29*
%TO.P,NT1,1,1*%
%TO.N,GNDA*%
X146300000Y-76050000D03*
%TO.P,NT1,2,2*%
%TO.N,GND*%
X146300000Y-80050000D03*
%TD*%
D12*
%TO.P,R32,1*%
%TO.N,/ADC/IN13P*%
X153000000Y-76000000D03*
%TO.P,R32,2*%
%TO.N,Net-(U11-IN5P)*%
X153000000Y-77650000D03*
%TD*%
D19*
%TO.P,C5,1*%
%TO.N,GNDA*%
X168187500Y-90100000D03*
%TO.P,C5,2*%
%TO.N,Net-(U11-VCAP1)*%
X169912500Y-90100000D03*
%TD*%
D20*
%TO.P,C43,1*%
%TO.N,+3.3V*%
X144457966Y-102000000D03*
%TO.P,C43,2*%
%TO.N,GND*%
X143642966Y-102000000D03*
%TD*%
D26*
%TO.P,C8,1*%
%TO.N,Net-(U10-VCAP3)*%
X135834001Y-72521501D03*
%TO.P,C8,2*%
%TO.N,GNDA*%
X134109001Y-72521501D03*
%TD*%
D30*
%TO.P,C34,1*%
%TO.N,/RF*%
X153697500Y-104698000D03*
%TO.P,C34,2*%
%TO.N,GND*%
X154512500Y-104698000D03*
%TD*%
D31*
%TO.P,TP13,1*%
%TO.N,/USART1_TX*%
X116500000Y-96000000D03*
%TD*%
D32*
%TO.P,C69,1*%
%TO.N,Net-(U10-BIASIN)*%
X144000000Y-73137500D03*
%TO.P,C69,2*%
%TO.N,/ADC/BIAS_DRV*%
X144000000Y-71412500D03*
%TD*%
D20*
%TO.P,C4,1*%
%TO.N,GND*%
X160167500Y-102310000D03*
%TO.P,C4,2*%
%TO.N,/OSC_OUT*%
X159352500Y-102310000D03*
%TD*%
D19*
%TO.P,C15,1*%
%TO.N,GNDA*%
X167087500Y-88550000D03*
%TO.P,C15,2*%
%TO.N,Net-(U11-VCAP4)*%
X168812500Y-88550000D03*
%TD*%
D33*
%TO.P,C29,1*%
%TO.N,/Power switching and voltage adaptation/+5V*%
X93350000Y-119340000D03*
%TO.P,C29,2*%
%TO.N,GND*%
X93350000Y-120300000D03*
%TD*%
D26*
%TO.P,C14,1*%
%TO.N,GNDA*%
X138875000Y-89200000D03*
%TO.P,C14,2*%
%TO.N,Net-(U10-VCAP2)*%
X137150000Y-89200000D03*
%TD*%
D34*
%TO.P,J11,A1_B12,GND_A*%
%TO.N,GND*%
X93950000Y-73152500D03*
%TO.P,J11,A4_B9,VBUS_A*%
%TO.N,/USB-C circuit/USB_VBUS*%
X93150000Y-73152500D03*
D35*
%TO.P,J11,A5,CC1*%
%TO.N,/USB-C circuit/USB_CC1*%
X92000000Y-73152500D03*
%TO.P,J11,A6,D+*%
%TO.N,/USB-C circuit/USB_D+*%
X91000000Y-73152500D03*
%TO.P,J11,A7,D-*%
%TO.N,/USB-C circuit/USB_D-*%
X90500000Y-73152500D03*
%TO.P,J11,A8,SBU1*%
%TO.N,unconnected-(J11-SBU1-PadA8)*%
X89500000Y-73152500D03*
D34*
%TO.P,J11,B1_A12,GND_B*%
%TO.N,GND*%
X87550000Y-73152500D03*
%TO.P,J11,B4_A9,VBUS_B*%
%TO.N,/USB-C circuit/USB_VBUS*%
X88350000Y-73152500D03*
D35*
%TO.P,J11,B5,CC2*%
%TO.N,/USB-C circuit/USB_CC2*%
X89000000Y-73152500D03*
%TO.P,J11,B6,D+*%
%TO.N,/USB-C circuit/USB_D+*%
X90000000Y-73152500D03*
%TO.P,J11,B7,D-*%
%TO.N,/USB-C circuit/USB_D-*%
X91500000Y-73152500D03*
%TO.P,J11,B8,SBU2*%
%TO.N,unconnected-(J11-SBU2-PadB8)*%
X92500000Y-73152500D03*
D36*
%TO.P,J11,SH1,SHIELD*%
%TO.N,GND*%
X95070000Y-72577500D03*
%TO.P,J11,SH2,SHIELD*%
X86430000Y-72577500D03*
D37*
%TO.P,J11,SH3,SHIELD*%
X95070000Y-68577500D03*
%TO.P,J11,SH4,SHIELD*%
X86430000Y-68577500D03*
%TD*%
D38*
%TO.P,U1,1,VSSSMPS*%
%TO.N,GND*%
X152750693Y-96625000D03*
%TO.P,U1,2,VDDSMPS*%
%TO.N,+3.3V*%
X152250567Y-96625000D03*
%TO.P,U1,3,VLXSMPS*%
%TO.N,/VLXSMPS*%
X151750441Y-96625000D03*
%TO.P,U1,4,PB12*%
%TO.N,/USART1_TX*%
X151250315Y-96625000D03*
%TO.P,U1,5,PA8*%
%TO.N,/ADC_CLK*%
X150750189Y-96625000D03*
%TO.P,U1,6,PA7*%
%TO.N,/GPIO_IN*%
X150250063Y-96625000D03*
%TO.P,U1,7,PA6*%
%TO.N,/USART1_RX*%
X149749937Y-96625000D03*
%TO.P,U1,8,VDDA*%
%TO.N,+3.3V*%
X149249811Y-96625000D03*
%TO.P,U1,9,PA5*%
%TO.N,/GPIO_OUT*%
X148749685Y-96625000D03*
%TO.P,U1,10,PA2*%
%TO.N,unconnected-(U1-PA2-Pad10)*%
X148249559Y-96625000D03*
%TO.P,U1,11,VDD*%
%TO.N,+3.3V*%
X147749433Y-96625000D03*
%TO.P,U1,12,PA1*%
%TO.N,/ADC_DRDY*%
X147249307Y-96625000D03*
D39*
%TO.P,U1,13,PA0*%
%TO.N,/SPI3_SCK*%
X146625000Y-97250000D03*
%TO.P,U1,14,PB9*%
%TO.N,/SPI3_MISO*%
X146625000Y-97749999D03*
%TO.P,U1,15,PB8*%
%TO.N,/SPI3_MOSI*%
X146625000Y-98250001D03*
%TO.P,U1,16,PC15-OSC32_OUT*%
%TO.N,/SPI_CS2*%
X146625000Y-98750000D03*
%TO.P,U1,17,PC14-OSC32_IN*%
%TO.N,unconnected-(U1-PC14-OSC32_IN-Pad17)*%
X146625000Y-99249999D03*
%TO.P,U1,18,PC13*%
%TO.N,/SPI_CS1*%
X146625000Y-99750000D03*
%TO.P,U1,19,PB7*%
%TO.N,/LED*%
X146625000Y-100250000D03*
%TO.P,U1,20,PB6*%
%TO.N,unconnected-(U1-PB6-Pad20)*%
X146625000Y-100750001D03*
%TO.P,U1,21,PB5*%
%TO.N,unconnected-(U1-PB5-Pad21)*%
X146625000Y-101250000D03*
%TO.P,U1,22,VDD*%
%TO.N,+3.3V*%
X146625000Y-101749999D03*
%TO.P,U1,23,PB4*%
%TO.N,/USART2_RX*%
X146625000Y-102250001D03*
%TO.P,U1,24,PB3*%
%TO.N,/SWD_Traces*%
X146625000Y-102750000D03*
D38*
%TO.P,U1,25,PA15*%
%TO.N,unconnected-(U1-PA15-Pad25)*%
X147249307Y-103375000D03*
%TO.P,U1,26,PA14*%
%TO.N,/SWCLK*%
X147749433Y-103375000D03*
%TO.P,U1,27,PA13*%
%TO.N,/SWDIO*%
X148249559Y-103375000D03*
%TO.P,U1,28,PA12*%
%TO.N,/ANT_LOGIC_2*%
X148749685Y-103375000D03*
%TO.P,U1,29,PA11*%
%TO.N,/ANT_LOGIC_1*%
X149249811Y-103375000D03*
%TO.P,U1,30,PB2*%
%TO.N,unconnected-(U1-PB2-Pad30)*%
X149749937Y-103375000D03*
%TO.P,U1,31,PB1*%
%TO.N,unconnected-(U1-PB1-Pad31)*%
X150250063Y-103375000D03*
%TO.P,U1,32,PB0*%
%TO.N,/USART2_TX*%
X150750189Y-103375000D03*
%TO.P,U1,33,PB15*%
%TO.N,unconnected-(U1-PB15-Pad33)*%
X151250315Y-103375000D03*
%TO.P,U1,34,PH3-BOOT0*%
%TO.N,/BOOT0*%
X151750441Y-103375000D03*
%TO.P,U1,35,VDD*%
%TO.N,+3.3V*%
X152250567Y-103375000D03*
%TO.P,U1,36,NRST*%
%TO.N,Net-(U1-NRST)*%
X152750693Y-103375000D03*
D39*
%TO.P,U1,37,RF*%
%TO.N,/RF*%
X153375000Y-102750000D03*
%TO.P,U1,38,VDDHPA*%
%TO.N,/VDDHPA*%
X153375000Y-102250001D03*
%TO.P,U1,39,VDDANA*%
%TO.N,/VDD11*%
X153375000Y-101749999D03*
%TO.P,U1,40,VDDRF*%
%TO.N,+3.3V*%
X153375000Y-101250000D03*
%TO.P,U1,41,OSC_OUT*%
%TO.N,/OSC_OUT*%
X153375000Y-100750001D03*
%TO.P,U1,42,OSC_IN*%
%TO.N,/OSC_IN*%
X153375000Y-100250000D03*
%TO.P,U1,43,VDDRFPA*%
%TO.N,/VDD11*%
X153375000Y-99750000D03*
%TO.P,U1,44,VDD*%
%TO.N,+3.3V*%
X153375000Y-99249999D03*
%TO.P,U1,45,VDD11*%
%TO.N,/VDD11*%
X153375000Y-98750000D03*
%TO.P,U1,46,PA10*%
%TO.N,unconnected-(U1-PA10-Pad46)*%
X153375000Y-98250001D03*
%TO.P,U1,47,PA9*%
%TO.N,/ADC/START*%
X153375000Y-97749999D03*
%TO.P,U1,48,PB14*%
%TO.N,/ADC/RESET*%
X153375000Y-97250000D03*
D40*
%TO.P,U1,49,EPAD*%
%TO.N,GND*%
X150000000Y-100000000D03*
%TD*%
D12*
%TO.P,R31,1*%
%TO.N,/ADC/IN14P*%
X159350000Y-72775000D03*
%TO.P,R31,2*%
%TO.N,Net-(U11-IN6P)*%
X159350000Y-74425000D03*
%TD*%
D15*
%TO.P,C45,1*%
%TO.N,+3.3V*%
X152250000Y-104612500D03*
%TO.P,C45,2*%
%TO.N,GND*%
X152250000Y-105427500D03*
%TD*%
D41*
%TO.P,FL1,1,IN*%
%TO.N,/RF circuitry & antennas/RF_MATCH*%
X153574651Y-109963842D03*
D42*
%TO.P,FL1,2,GND_1*%
%TO.N,GND*%
X153347651Y-110575842D03*
D41*
%TO.P,FL1,3,OUT*%
%TO.N,/RF circuitry & antennas/RF_LPF*%
X153574651Y-111188842D03*
D42*
%TO.P,FL1,4,GND_2*%
%TO.N,GND*%
X153801651Y-110575842D03*
%TD*%
D20*
%TO.P,C38,1*%
%TO.N,/RF circuitry & antennas/RF_CERAMIC_MATCH*%
X150950000Y-112500000D03*
%TO.P,C38,2*%
%TO.N,GND*%
X150135000Y-112500000D03*
%TD*%
D43*
%TO.P,Q1,1,S_1*%
%TO.N,/Power switching and voltage adaptation/+5V*%
X105750000Y-118376000D03*
%TO.P,Q1,2,S_2*%
%TO.N,unconnected-(Q1-S_2-Pad2)*%
X107020000Y-118376000D03*
%TO.P,Q1,3,S_3*%
%TO.N,unconnected-(Q1-S_3-Pad3)*%
X108290000Y-118376000D03*
%TO.P,Q1,4,G*%
%TO.N,Net-(D3-A)*%
X109560000Y-118376000D03*
%TO.P,Q1,5,D_1*%
%TO.N,unconnected-(Q1-D_1-Pad5)*%
X109560000Y-113000000D03*
%TO.P,Q1,6,D_2*%
%TO.N,unconnected-(Q1-D_2-Pad6)*%
X108290000Y-113000000D03*
%TO.P,Q1,7,D_3*%
%TO.N,unconnected-(Q1-D_3-Pad7)*%
X107020000Y-113000000D03*
%TO.P,Q1,8,D_4*%
%TO.N,Net-(D2-A)*%
X105750000Y-113000000D03*
%TD*%
D20*
%TO.P,C46,1*%
%TO.N,GND*%
X158617500Y-98110000D03*
%TO.P,C46,2*%
%TO.N,/VDD11*%
X157802500Y-98110000D03*
%TD*%
D44*
%TO.P,R17,1*%
%TO.N,/USB-C circuit/USB_VBUS*%
X85480000Y-74780000D03*
%TO.P,R17,2*%
%TO.N,GND*%
X85480000Y-75800000D03*
%TD*%
D12*
%TO.P,R33,1*%
%TO.N,/ADC/IN12P*%
X154000000Y-73000000D03*
%TO.P,R33,2*%
%TO.N,Net-(U11-IN4P)*%
X154000000Y-74650000D03*
%TD*%
D20*
%TO.P,C44,1*%
%TO.N,GND*%
X149927500Y-94500000D03*
%TO.P,C44,2*%
%TO.N,+3.3V*%
X149112500Y-94500000D03*
%TD*%
D45*
%TO.P,SW1,1,1*%
%TO.N,Net-(R8-Pad2)*%
X126000000Y-108900000D03*
%TO.P,SW1,2,2*%
%TO.N,unconnected-(SW1-Pad2)*%
X118800000Y-108900000D03*
%TO.P,SW1,3,3*%
%TO.N,+3.3V*%
X126000000Y-111900000D03*
%TO.P,SW1,4,4*%
%TO.N,unconnected-(SW1-Pad4)*%
X118800000Y-111900000D03*
%TD*%
D12*
%TO.P,R39,1*%
%TO.N,Net-(U2-FB)*%
X94350000Y-121450000D03*
%TO.P,R39,2*%
%TO.N,GND*%
X94350000Y-123100000D03*
%TD*%
%TO.P,R22,1*%
%TO.N,/ADC/IN6P*%
X124000000Y-73500000D03*
%TO.P,R22,2*%
%TO.N,Net-(U10-IN6P)*%
X124000000Y-75150000D03*
%TD*%
D30*
%TO.P,C50,1*%
%TO.N,GND*%
X143662966Y-101000000D03*
%TO.P,C50,2*%
%TO.N,+3.3V*%
X144477966Y-101000000D03*
%TD*%
D16*
%TO.P,J2,1,Pin_1*%
%TO.N,/ADC/IN9P*%
X154380000Y-68800000D03*
D17*
%TO.P,J2,2,Pin_2*%
%TO.N,/ADC/IN10P*%
X156920000Y-68800000D03*
%TO.P,J2,3,Pin_3*%
%TO.N,/ADC/IN11P*%
X159460000Y-68800000D03*
%TO.P,J2,4,Pin_4*%
%TO.N,/ADC/IN12P*%
X162000000Y-68800000D03*
%TO.P,J2,5,Pin_5*%
%TO.N,/ADC/IN13P*%
X164540000Y-68800000D03*
%TO.P,J2,6,Pin_6*%
%TO.N,/ADC/IN14P*%
X167080000Y-68800000D03*
%TO.P,J2,7,Pin_7*%
%TO.N,/ADC/IN15P*%
X169620000Y-68800000D03*
%TO.P,J2,8,Pin_8*%
%TO.N,/ADC/IN16P*%
X172160000Y-68800000D03*
%TD*%
D16*
%TO.P,J5,1,Pin_1*%
%TO.N,GND*%
X116475000Y-68975000D03*
D17*
%TO.P,J5,2,Pin_2*%
%TO.N,/GPIO_OUT_CONN*%
X119015000Y-68975000D03*
%TO.P,J5,3,Pin_3*%
%TO.N,/GPIO_IN_CONN*%
X121555000Y-68975000D03*
%TD*%
D21*
%TO.P,R9,1*%
%TO.N,GND*%
X131900000Y-110130000D03*
%TO.P,R9,2*%
%TO.N,/BOOT0*%
X131900000Y-109110000D03*
%TD*%
D46*
%TO.P,J10,1*%
%TO.N,/RF circuitry & antennas/RF_UFL_ANT*%
X158299651Y-112150842D03*
D47*
%TO.P,J10,2*%
%TO.N,GND*%
X159774651Y-110625842D03*
D46*
%TO.P,J10,3*%
X158299651Y-109100842D03*
D47*
%TO.P,J10,4*%
X156824651Y-110625842D03*
%TD*%
D13*
%TO.P,C1,1*%
%TO.N,GND*%
X130600000Y-110032500D03*
%TO.P,C1,2*%
%TO.N,/BOOT0*%
X130600000Y-109217500D03*
%TD*%
D44*
%TO.P,R3,1*%
%TO.N,/GPIO_OUT_CONN*%
X113000000Y-76480000D03*
%TO.P,R3,2*%
%TO.N,/GPIO_OUT*%
X113000000Y-77500000D03*
%TD*%
D26*
%TO.P,C10,1*%
%TO.N,Net-(U11-VCAP3)*%
X168912500Y-72000000D03*
%TO.P,C10,2*%
%TO.N,GNDA*%
X167187500Y-72000000D03*
%TD*%
D48*
%TO.P,L3,1*%
%TO.N,/VDD11*%
X153962500Y-93450000D03*
%TO.P,L3,2*%
%TO.N,/VLXSMPS*%
X151837500Y-93450000D03*
%TD*%
D20*
%TO.P,C51,1*%
%TO.N,GND*%
X156977500Y-100510000D03*
%TO.P,C51,2*%
%TO.N,+3.3V*%
X156162500Y-100510000D03*
%TD*%
%TO.P,C48,1*%
%TO.N,GND*%
X156927500Y-102750000D03*
%TO.P,C48,2*%
%TO.N,/VDDHPA*%
X156112500Y-102750000D03*
%TD*%
D49*
%TO.P,C12,1*%
%TO.N,Net-(U10-VREFP)*%
X135350000Y-91225000D03*
%TO.P,C12,2*%
%TO.N,GNDA*%
X135350000Y-92950000D03*
%TD*%
D12*
%TO.P,R12,1*%
%TO.N,/ADC/IN7P*%
X122500000Y-76850000D03*
%TO.P,R12,2*%
%TO.N,Net-(U10-IN7P)*%
X122500000Y-78500000D03*
%TD*%
D50*
%TO.P,D3,1,K*%
%TO.N,+5V*%
X113695000Y-107545000D03*
D51*
%TO.P,D3,2,A*%
%TO.N,Net-(D3-A)*%
X113695000Y-110719000D03*
D52*
%TO.P,D3,3,K*%
%TO.N,+5V*%
X113695000Y-108795000D03*
%TD*%
D20*
%TO.P,C47,1*%
%TO.N,GND*%
X158207500Y-97010000D03*
%TO.P,C47,2*%
%TO.N,+3.3V*%
X157392500Y-97010000D03*
%TD*%
D44*
%TO.P,R13,1*%
%TO.N,Net-(D3-A)*%
X113645000Y-118625000D03*
%TO.P,R13,2*%
%TO.N,GND*%
X113645000Y-119645000D03*
%TD*%
D49*
%TO.P,C22,1*%
%TO.N,GNDA*%
X140900000Y-72787500D03*
%TO.P,C22,2*%
%TO.N,+5V*%
X140900000Y-74512500D03*
%TD*%
D44*
%TO.P,R4,1*%
%TO.N,/GPIO_IN_CONN*%
X114000000Y-78940000D03*
%TO.P,R4,2*%
%TO.N,/GPIO_IN*%
X114000000Y-79960000D03*
%TD*%
D28*
%TO.P,Q2,1,D*%
%TO.N,Net-(Q2-D)*%
X83980000Y-76050000D03*
%TO.P,Q2,2,G*%
%TO.N,/USB-C circuit/USB_VBUS*%
X83980000Y-75050000D03*
%TO.P,Q2,3,S*%
%TO.N,GND*%
X82480000Y-75550000D03*
%TD*%
D18*
%TO.P,R18,1*%
%TO.N,+3.3V*%
X86250000Y-77550000D03*
%TO.P,R18,2*%
%TO.N,Net-(Q2-D)*%
X85230000Y-77550000D03*
%TD*%
D44*
%TO.P,R21,1*%
%TO.N,+3.3V*%
X101500000Y-85250000D03*
%TO.P,R21,2*%
%TO.N,/USART1_RX*%
X101500000Y-86270000D03*
%TD*%
D12*
%TO.P,R35,1*%
%TO.N,/ADC/IN10P*%
X151500000Y-73000000D03*
%TO.P,R35,2*%
%TO.N,Net-(U11-IN2P)*%
X151500000Y-74650000D03*
%TD*%
%TO.P,R34,1*%
%TO.N,/ADC/IN11P*%
X150500000Y-76350000D03*
%TO.P,R34,2*%
%TO.N,Net-(U11-IN3P)*%
X150500000Y-78000000D03*
%TD*%
D20*
%TO.P,C52,1*%
%TO.N,GND*%
X153387500Y-95000000D03*
%TO.P,C52,2*%
%TO.N,+3.3V*%
X152572500Y-95000000D03*
%TD*%
D18*
%TO.P,R14,1*%
%TO.N,Net-(D4-A)*%
X105770000Y-101250000D03*
%TO.P,R14,2*%
%TO.N,+3.3V*%
X104750000Y-101250000D03*
%TD*%
D12*
%TO.P,R27,1*%
%TO.N,/ADC/IN1P*%
X116000000Y-74350000D03*
%TO.P,R27,2*%
%TO.N,Net-(U10-IN1P)*%
X116000000Y-76000000D03*
%TD*%
D53*
%TO.P,U6,1,GND*%
%TO.N,GND*%
X97895000Y-107545000D03*
%TO.P,U6,2,VO*%
%TO.N,+3.3V*%
X100195000Y-107545000D03*
D54*
X100195000Y-101245000D03*
D53*
%TO.P,U6,3,VI*%
%TO.N,+5V*%
X102495000Y-107545000D03*
%TD*%
D19*
%TO.P,C20,1*%
%TO.N,+5V*%
X130308000Y-93045600D03*
%TO.P,C20,2*%
%TO.N,GNDA*%
X132033000Y-93045600D03*
%TD*%
D12*
%TO.P,R26,1*%
%TO.N,/ADC/IN2P*%
X119000000Y-73500000D03*
%TO.P,R26,2*%
%TO.N,Net-(U10-IN2P)*%
X119000000Y-75150000D03*
%TD*%
D26*
%TO.P,C6,1*%
%TO.N,Net-(U11-VREFP)*%
X166175000Y-92000000D03*
%TO.P,C6,2*%
%TO.N,GNDA*%
X164450000Y-92000000D03*
%TD*%
D15*
%TO.P,C40,1*%
%TO.N,GND*%
X147500000Y-94592500D03*
%TO.P,C40,2*%
%TO.N,+3.3V*%
X147500000Y-95407500D03*
%TD*%
D55*
%TO.P,C31,1*%
%TO.N,+3.3V*%
X100905000Y-109375000D03*
%TO.P,C31,2*%
%TO.N,GND*%
X101865000Y-109375000D03*
%TD*%
D19*
%TO.P,C19,1*%
%TO.N,+5V*%
X162775000Y-87900000D03*
%TO.P,C19,2*%
%TO.N,GNDA*%
X164500000Y-87900000D03*
%TD*%
D11*
%TO.P,L1,1,1*%
%TO.N,/RF*%
X153604651Y-105682842D03*
%TO.P,L1,2,2*%
%TO.N,/RF circuitry & antennas/RF_MATCH*%
X153604651Y-106652842D03*
%TD*%
D56*
%TO.P,JP1,1,A*%
%TO.N,/USB-C circuit/USB_VBUS*%
X112145000Y-114201000D03*
D57*
%TO.P,JP1,2,B*%
%TO.N,Net-(D3-A)*%
X113445000Y-114201000D03*
%TD*%
D32*
%TO.P,C17,1*%
%TO.N,GND*%
X142500000Y-78812500D03*
%TO.P,C17,2*%
%TO.N,+3.3V*%
X142500000Y-77087500D03*
%TD*%
D16*
%TO.P,J6,1,Pin_1*%
%TO.N,GND*%
X82000000Y-112000000D03*
D17*
%TO.P,J6,2,Pin_2*%
%TO.N,/Power*%
X82000000Y-114540000D03*
%TD*%
D58*
%TO.P,C30,1*%
%TO.N,+5V*%
X104595000Y-106980000D03*
%TO.P,C30,2*%
%TO.N,GND*%
X104595000Y-106020000D03*
%TD*%
D20*
%TO.P,C42,1*%
%TO.N,GND*%
X156927500Y-101750000D03*
%TO.P,C42,2*%
%TO.N,/VDD11*%
X156112500Y-101750000D03*
%TD*%
D32*
%TO.P,C13,1*%
%TO.N,GNDA*%
X137100000Y-93000000D03*
%TO.P,C13,2*%
%TO.N,Net-(U10-VCAP1)*%
X137100000Y-91275000D03*
%TD*%
D12*
%TO.P,R36,1*%
%TO.N,/ADC/IN9P*%
X149000000Y-73000000D03*
%TO.P,R36,2*%
%TO.N,Net-(U11-IN1P)*%
X149000000Y-74650000D03*
%TD*%
D59*
%TO.P,D5,1,K*%
%TO.N,/USB-C circuit/RXLED*%
X96780000Y-88300000D03*
%TO.P,D5,2,A*%
%TO.N,/USB-C circuit/R_LED*%
X97750000Y-88300000D03*
%TD*%
%TO.P,D6,1,K*%
%TO.N,/USB-C circuit/TXLED*%
X96780000Y-89300000D03*
%TO.P,D6,2,A*%
%TO.N,/USB-C circuit/R_LED*%
X97750000Y-89300000D03*
%TD*%
D21*
%TO.P,R6,1*%
%TO.N,/GPIO_OUT*%
X110680439Y-77507989D03*
%TO.P,R6,2*%
%TO.N,+3.3V*%
X110680439Y-76487989D03*
%TD*%
D60*
%TO.P,R2,1*%
%TO.N,/USART2_RX_CONN*%
X86590000Y-123400000D03*
%TO.P,R2,2*%
%TO.N,/USART2_RX*%
X87610000Y-123400000D03*
%TD*%
D21*
%TO.P,R15,1*%
%TO.N,/USB-C circuit/USB_CC1*%
X96900000Y-71250000D03*
%TO.P,R15,2*%
%TO.N,GND*%
X96900000Y-70230000D03*
%TD*%
D60*
%TO.P,R7,1*%
%TO.N,GND*%
X134980000Y-100250000D03*
%TO.P,R7,2*%
%TO.N,Net-(D1-K)*%
X136000000Y-100250000D03*
%TD*%
D32*
%TO.P,C7,1*%
%TO.N,GNDA*%
X171500000Y-90325000D03*
%TO.P,C7,2*%
%TO.N,Net-(U11-VCAP2)*%
X171500000Y-88600000D03*
%TD*%
D61*
%TO.P,AE2,1,FEED*%
%TO.N,/RF circuitry & antennas/RF_CERAMIC_ANT*%
X150950000Y-116000000D03*
%TO.P,AE2,2,NC*%
%TO.N,GND*%
X150950000Y-119000000D03*
%TD*%
D60*
%TO.P,R10,1*%
%TO.N,/SWD_NRST*%
X130380000Y-115400000D03*
%TO.P,R10,2*%
%TO.N,Net-(U1-NRST)*%
X131400000Y-115400000D03*
%TD*%
D45*
%TO.P,SW2,1,1*%
%TO.N,/SWD_NRST*%
X126000000Y-115400000D03*
%TO.P,SW2,2,2*%
%TO.N,unconnected-(SW2-Pad2)*%
X118800000Y-115400000D03*
%TO.P,SW2,3,3*%
%TO.N,GND*%
X126000000Y-118400000D03*
%TO.P,SW2,4,4*%
%TO.N,unconnected-(SW2-Pad4)*%
X118800000Y-118400000D03*
%TD*%
D12*
%TO.P,R23,1*%
%TO.N,/ADC/IN5P*%
X120000000Y-77025000D03*
%TO.P,R23,2*%
%TO.N,Net-(U10-IN5P)*%
X120000000Y-78675000D03*
%TD*%
D16*
%TO.P,J12,1,Pin_1*%
%TO.N,/ADC/BIAS_DRV*%
X148250000Y-68975000D03*
D62*
%TO.P,J12,2,Pin_2*%
%TO.N,/ADC/SRB1*%
X150790000Y-68975000D03*
%TD*%
D44*
%TO.P,R20,1*%
%TO.N,/USB-C circuit/R_LED*%
X100750000Y-88790000D03*
%TO.P,R20,2*%
%TO.N,+3.3V*%
X100750000Y-89810000D03*
%TD*%
D20*
%TO.P,C54,1*%
%TO.N,GND*%
X93000000Y-88540000D03*
%TO.P,C54,2*%
%TO.N,/USB-C circuit/OSC2*%
X92185000Y-88540000D03*
%TD*%
D30*
%TO.P,C53,1*%
%TO.N,GND*%
X87500000Y-88540000D03*
%TO.P,C53,2*%
%TO.N,/USB-C circuit/OSC1*%
X88315000Y-88540000D03*
%TD*%
D63*
%TO.P,D4,1,K*%
%TO.N,GND*%
X108235000Y-101250000D03*
%TO.P,D4,2,A*%
%TO.N,Net-(D4-A)*%
X107265000Y-101250000D03*
%TD*%
D44*
%TO.P,R5,1*%
%TO.N,+3.3V*%
X89500000Y-120740000D03*
%TO.P,R5,2*%
%TO.N,/USART2_TX*%
X89500000Y-121760000D03*
%TD*%
D15*
%TO.P,C55,1*%
%TO.N,+3.3V*%
X86750000Y-85872500D03*
%TO.P,C55,2*%
%TO.N,GND*%
X86750000Y-86687500D03*
%TD*%
D64*
%TO.P,XTAL1,1,1*%
%TO.N,/OSC_IN*%
X160360001Y-99700501D03*
%TO.P,XTAL1,2,GND*%
%TO.N,GND*%
X158959999Y-99700501D03*
%TO.P,XTAL1,3,3*%
%TO.N,/OSC_OUT*%
X158959999Y-100800499D03*
%TO.P,XTAL1,4,GND*%
%TO.N,GND*%
X160360001Y-100800499D03*
%TD*%
D65*
%TO.P,U10,1,IN8N*%
%TO.N,+5V*%
X128920500Y-76895600D03*
%TO.P,U10,2,IN8P*%
%TO.N,Net-(U10-IN8P)*%
X128920500Y-77395599D03*
%TO.P,U10,3,IN7N*%
%TO.N,+5V*%
X128920500Y-77895600D03*
%TO.P,U10,4,IN7P*%
%TO.N,Net-(U10-IN7P)*%
X128920500Y-78395599D03*
%TO.P,U10,5,IN6N*%
%TO.N,+5V*%
X128920500Y-78895601D03*
%TO.P,U10,6,IN6P*%
%TO.N,Net-(U10-IN6P)*%
X128920500Y-79395600D03*
%TO.P,U10,7,IN5N*%
%TO.N,+5V*%
X128920500Y-79895599D03*
%TO.P,U10,8,IN5P*%
%TO.N,Net-(U10-IN5P)*%
X128920500Y-80395600D03*
%TO.P,U10,9,IN4N*%
%TO.N,+5V*%
X128920500Y-80895600D03*
%TO.P,U10,10,IN4P*%
%TO.N,Net-(U10-IN4P)*%
X128920500Y-81395601D03*
%TO.P,U10,11,IN3N*%
%TO.N,+5V*%
X128920500Y-81895600D03*
%TO.P,U10,12,IN3P*%
%TO.N,Net-(U10-IN3P)*%
X128920500Y-82395599D03*
%TO.P,U10,13,IN2N*%
%TO.N,+5V*%
X128920500Y-82895601D03*
%TO.P,U10,14,IN2P*%
%TO.N,Net-(U10-IN2P)*%
X128920500Y-83395600D03*
%TO.P,U10,15,IN1N*%
%TO.N,+5V*%
X128920500Y-83895601D03*
%TO.P,U10,16,IN1P*%
%TO.N,Net-(U10-IN1P)*%
X128920500Y-84395600D03*
D66*
%TO.P,U10,17,SRB1*%
%TO.N,Net-(U10-SRB1)*%
X130949000Y-86424100D03*
%TO.P,U10,18,SRB2*%
%TO.N,unconnected-(U10-SRB2-Pad18)*%
X131448999Y-86424100D03*
%TO.P,U10,19,AVDD*%
%TO.N,+5V*%
X131949000Y-86424100D03*
%TO.P,U10,20,AVSS*%
%TO.N,GNDA*%
X132448999Y-86424100D03*
%TO.P,U10,21,AVDD*%
%TO.N,+5V*%
X132949001Y-86424100D03*
%TO.P,U10,22,AVDD*%
X133449000Y-86424100D03*
%TO.P,U10,23,AVSS*%
%TO.N,GNDA*%
X133948999Y-86424100D03*
%TO.P,U10,24,VREFP*%
%TO.N,Net-(U10-VREFP)*%
X134449000Y-86424100D03*
%TO.P,U10,25,VREFN*%
%TO.N,GNDA*%
X134949000Y-86424100D03*
%TO.P,U10,26,VCAP4*%
%TO.N,Net-(U10-VCAP4)*%
X135449001Y-86424100D03*
%TO.P,U10,27,NC*%
%TO.N,unconnected-(U10-NC-Pad27)*%
X135949000Y-86424100D03*
%TO.P,U10,28,VCAP1*%
%TO.N,Net-(U10-VCAP1)*%
X136448999Y-86424100D03*
%TO.P,U10,29,NC*%
%TO.N,unconnected-(U10-NC-Pad29)*%
X136949001Y-86424100D03*
%TO.P,U10,30,VCAP2*%
%TO.N,Net-(U10-VCAP2)*%
X137449000Y-86424100D03*
%TO.P,U10,31,RESV1*%
%TO.N,GNDA*%
X137949001Y-86424100D03*
%TO.P,U10,32,AVSS*%
X138449000Y-86424100D03*
D65*
%TO.P,U10,33,DGND*%
%TO.N,GND*%
X140477500Y-84395600D03*
%TO.P,U10,34,DIN*%
%TO.N,/SPI3_MOSI*%
X140477500Y-83895601D03*
%TO.P,U10,35,\u002APWDN*%
%TO.N,/ADC/PWDN*%
X140477500Y-83395600D03*
%TO.P,U10,36,\u002ARESET*%
%TO.N,/ADC/RESET*%
X140477500Y-82895601D03*
%TO.P,U10,37,CLK*%
%TO.N,/ADC_CLK*%
X140477500Y-82395599D03*
%TO.P,U10,38,START*%
%TO.N,/ADC/START*%
X140477500Y-81895600D03*
%TO.P,U10,39,\u002ACS*%
%TO.N,/SPI_CS1*%
X140477500Y-81395601D03*
%TO.P,U10,40,SCLK*%
%TO.N,/SPI3_SCK*%
X140477500Y-80895600D03*
%TO.P,U10,41,DAISY_IN*%
%TO.N,unconnected-(U10-DAISY_IN-Pad41)*%
X140477500Y-80395600D03*
%TO.P,U10,42,GPIO1*%
%TO.N,GND*%
X140477500Y-79895599D03*
%TO.P,U10,43,DOUT*%
%TO.N,/SPI3_MISO*%
X140477500Y-79395600D03*
%TO.P,U10,44,GPIO2*%
%TO.N,GND*%
X140477500Y-78895601D03*
%TO.P,U10,45,GPIO3*%
X140477500Y-78395599D03*
%TO.P,U10,46,GPIO4*%
X140477500Y-77895600D03*
%TO.P,U10,47,\u002ADRDY*%
%TO.N,/ADC_DRDY*%
X140477500Y-77395599D03*
%TO.P,U10,48,DVDD*%
%TO.N,+3.3V*%
X140477500Y-76895600D03*
D66*
%TO.P,U10,49,DGND*%
%TO.N,GND*%
X138449000Y-74867100D03*
%TO.P,U10,50,DVDD*%
%TO.N,+3.3V*%
X137949001Y-74867100D03*
%TO.P,U10,51,DGND*%
%TO.N,GND*%
X137449000Y-74867100D03*
%TO.P,U10,52,CLKSEL*%
%TO.N,+3.3V*%
X136949001Y-74867100D03*
%TO.P,U10,53,AVSS1*%
%TO.N,GNDA*%
X136448999Y-74867100D03*
%TO.P,U10,54,AVDD1*%
%TO.N,+5V*%
X135949000Y-74867100D03*
%TO.P,U10,55,VCAP3*%
%TO.N,Net-(U10-VCAP3)*%
X135449001Y-74867100D03*
%TO.P,U10,56,AVDD*%
%TO.N,+5V*%
X134949000Y-74867100D03*
%TO.P,U10,57,AVSS*%
%TO.N,GNDA*%
X134449000Y-74867100D03*
%TO.P,U10,58,AVSS*%
X133948999Y-74867100D03*
%TO.P,U10,59,AVDD*%
%TO.N,+5V*%
X133449000Y-74867100D03*
%TO.P,U10,60,BIASREF*%
%TO.N,unconnected-(U10-BIASREF-Pad60)*%
X132949001Y-74867100D03*
%TO.P,U10,61,BIASINV*%
%TO.N,Net-(U10-BIASINV)*%
X132448999Y-74867100D03*
%TO.P,U10,62,BIASIN*%
%TO.N,Net-(U10-BIASIN)*%
X131949000Y-74867100D03*
%TO.P,U10,63,BIASOUT*%
%TO.N,/ADC/BIAS_DRV*%
X131448999Y-74867100D03*
%TO.P,U10,64,RESERVED*%
%TO.N,unconnected-(U10-RESERVED-Pad64)*%
X130949000Y-74867100D03*
%TD*%
D67*
%TO.P,D2,1,K*%
%TO.N,+5V*%
X109119000Y-109951000D03*
D68*
%TO.P,D2,2,A*%
%TO.N,Net-(D2-A)*%
X105945000Y-109951000D03*
D69*
%TO.P,D2,3,K*%
%TO.N,+5V*%
X107869000Y-109951000D03*
%TD*%
D59*
%TO.P,D1,1,K*%
%TO.N,Net-(D1-K)*%
X137780000Y-100250000D03*
%TO.P,D1,2,A*%
%TO.N,/LED*%
X138750000Y-100250000D03*
%TD*%
D12*
%TO.P,R29,1*%
%TO.N,/ADC/IN16P*%
X157500000Y-75850000D03*
%TO.P,R29,2*%
%TO.N,Net-(U11-IN8P)*%
X157500000Y-77500000D03*
%TD*%
D70*
%TO.P,R37,1*%
%TO.N,/ADC/SRB1*%
X146500000Y-82000000D03*
%TO.P,R37,2*%
%TO.N,Net-(U11-SRB1)*%
X148150000Y-82000000D03*
%TD*%
D31*
%TO.P,TP12,1*%
%TO.N,/USART1_RX*%
X109500000Y-96000000D03*
%TD*%
D12*
%TO.P,R24,1*%
%TO.N,/ADC/IN4P*%
X121500000Y-73500000D03*
%TO.P,R24,2*%
%TO.N,Net-(U10-IN4P)*%
X121500000Y-75150000D03*
%TD*%
D16*
%TO.P,J3,1,Pin_1*%
%TO.N,+3.3V*%
X112340000Y-68800000D03*
D17*
%TO.P,J3,2,Pin_2*%
%TO.N,GND*%
X109800000Y-68800000D03*
%TO.P,J3,3,Pin_3*%
%TO.N,/SWD_NRST*%
X107260000Y-68800000D03*
%TO.P,J3,4,Pin_4*%
%TO.N,/SWDIO*%
X104720000Y-68800000D03*
%TO.P,J3,5,Pin_5*%
%TO.N,/SWCLK*%
X102180000Y-68800000D03*
%TO.P,J3,6,Pin_6*%
%TO.N,/SWD_Traces*%
X99640000Y-68800000D03*
%TD*%
D15*
%TO.P,C3,1*%
%TO.N,/OSC_IN*%
X162750000Y-100067500D03*
%TO.P,C3,2*%
%TO.N,GND*%
X162750000Y-100882500D03*
%TD*%
D20*
%TO.P,C41,1*%
%TO.N,GND*%
X149915000Y-93050000D03*
%TO.P,C41,2*%
%TO.N,+3.3V*%
X149100000Y-93050000D03*
%TD*%
D60*
%TO.P,R1,1*%
%TO.N,/USART2_TX_CONN*%
X86600000Y-120800000D03*
%TO.P,R1,2*%
%TO.N,/USART2_TX*%
X87620000Y-120800000D03*
%TD*%
D18*
%TO.P,R19,1*%
%TO.N,+3.3V*%
X86250000Y-78550000D03*
%TO.P,R19,2*%
%TO.N,/USB-C circuit/MCP_NRST*%
X85230000Y-78550000D03*
%TD*%
D71*
%TO.P,XTAL2,1*%
%TO.N,/USB-C circuit/OSC1*%
X85000000Y-93540000D03*
%TO.P,XTAL2,2*%
%TO.N,/USB-C circuit/OSC2*%
X94500000Y-93540000D03*
%TD*%
D27*
%TO.P,C28,1*%
%TO.N,/Power*%
X89700000Y-115360000D03*
%TO.P,C28,2*%
%TO.N,GND*%
X89700000Y-116000000D03*
%TD*%
D12*
%TO.P,R25,1*%
%TO.N,/ADC/IN3P*%
X117500000Y-76850000D03*
%TO.P,R25,2*%
%TO.N,Net-(U10-IN3P)*%
X117500000Y-78500000D03*
%TD*%
D65*
%TO.P,U11,1,IN8N*%
%TO.N,+5V*%
X160443000Y-76499999D03*
%TO.P,U11,2,IN8P*%
%TO.N,Net-(U11-IN8P)*%
X160443000Y-76999998D03*
%TO.P,U11,3,IN7N*%
%TO.N,+5V*%
X160443000Y-77499999D03*
%TO.P,U11,4,IN7P*%
%TO.N,Net-(U11-IN7P)*%
X160443000Y-77999998D03*
%TO.P,U11,5,IN6N*%
%TO.N,+5V*%
X160443000Y-78500000D03*
%TO.P,U11,6,IN6P*%
%TO.N,Net-(U11-IN6P)*%
X160443000Y-78999999D03*
%TO.P,U11,7,IN5N*%
%TO.N,+5V*%
X160443000Y-79499998D03*
%TO.P,U11,8,IN5P*%
%TO.N,Net-(U11-IN5P)*%
X160443000Y-79999999D03*
%TO.P,U11,9,IN4N*%
%TO.N,+5V*%
X160443000Y-80499999D03*
%TO.P,U11,10,IN4P*%
%TO.N,Net-(U11-IN4P)*%
X160443000Y-81000000D03*
%TO.P,U11,11,IN3N*%
%TO.N,+5V*%
X160443000Y-81499999D03*
%TO.P,U11,12,IN3P*%
%TO.N,Net-(U11-IN3P)*%
X160443000Y-81999998D03*
%TO.P,U11,13,IN2N*%
%TO.N,+5V*%
X160443000Y-82500000D03*
%TO.P,U11,14,IN2P*%
%TO.N,Net-(U11-IN2P)*%
X160443000Y-82999999D03*
%TO.P,U11,15,IN1N*%
%TO.N,+5V*%
X160443000Y-83500000D03*
%TO.P,U11,16,IN1P*%
%TO.N,Net-(U11-IN1P)*%
X160443000Y-83999999D03*
D66*
%TO.P,U11,17,SRB1*%
%TO.N,Net-(U11-SRB1)*%
X162471500Y-86028499D03*
%TO.P,U11,18,SRB2*%
%TO.N,unconnected-(U11-SRB2-Pad18)*%
X162971499Y-86028499D03*
%TO.P,U11,19,AVDD*%
%TO.N,+5V*%
X163471500Y-86028499D03*
%TO.P,U11,20,AVSS*%
%TO.N,GNDA*%
X163971499Y-86028499D03*
%TO.P,U11,21,AVDD*%
%TO.N,+5V*%
X164471501Y-86028499D03*
%TO.P,U11,22,AVDD*%
X164971500Y-86028499D03*
%TO.P,U11,23,AVSS*%
%TO.N,GNDA*%
X165471499Y-86028499D03*
%TO.P,U11,24,VREFP*%
%TO.N,Net-(U11-VREFP)*%
X165971500Y-86028499D03*
%TO.P,U11,25,VREFN*%
%TO.N,GNDA*%
X166471500Y-86028499D03*
%TO.P,U11,26,VCAP4*%
%TO.N,Net-(U11-VCAP4)*%
X166971501Y-86028499D03*
%TO.P,U11,27,NC*%
%TO.N,unconnected-(U11-NC-Pad27)*%
X167471500Y-86028499D03*
%TO.P,U11,28,VCAP1*%
%TO.N,Net-(U11-VCAP1)*%
X167971499Y-86028499D03*
%TO.P,U11,29,NC*%
%TO.N,unconnected-(U11-NC-Pad29)*%
X168471501Y-86028499D03*
%TO.P,U11,30,VCAP2*%
%TO.N,Net-(U11-VCAP2)*%
X168971500Y-86028499D03*
%TO.P,U11,31,RESV1*%
%TO.N,GNDA*%
X169471501Y-86028499D03*
%TO.P,U11,32,AVSS*%
X169971500Y-86028499D03*
D65*
%TO.P,U11,33,DGND*%
%TO.N,GND*%
X172000000Y-83999999D03*
%TO.P,U11,34,DIN*%
%TO.N,/SPI3_MOSI*%
X172000000Y-83500000D03*
%TO.P,U11,35,\u002APWDN*%
%TO.N,/ADC/PWDN*%
X172000000Y-82999999D03*
%TO.P,U11,36,\u002ARESET*%
%TO.N,/ADC/RESET*%
X172000000Y-82500000D03*
%TO.P,U11,37,CLK*%
%TO.N,/ADC_CLK*%
X172000000Y-81999998D03*
%TO.P,U11,38,START*%
%TO.N,/ADC/START*%
X172000000Y-81499999D03*
%TO.P,U11,39,\u002ACS*%
%TO.N,/SPI_CS2*%
X172000000Y-81000000D03*
%TO.P,U11,40,SCLK*%
%TO.N,/SPI3_SCK*%
X172000000Y-80499999D03*
%TO.P,U11,41,DAISY_IN*%
%TO.N,unconnected-(U11-DAISY_IN-Pad41)*%
X172000000Y-79999999D03*
%TO.P,U11,42,GPIO1*%
%TO.N,GND*%
X172000000Y-79499998D03*
%TO.P,U11,43,DOUT*%
%TO.N,/SPI3_MISO*%
X172000000Y-78999999D03*
%TO.P,U11,44,GPIO2*%
%TO.N,GND*%
X172000000Y-78500000D03*
%TO.P,U11,45,GPIO3*%
X172000000Y-77999998D03*
%TO.P,U11,46,GPIO4*%
X172000000Y-77499999D03*
%TO.P,U11,47,\u002ADRDY*%
%TO.N,/ADC_DRDY*%
X172000000Y-76999998D03*
%TO.P,U11,48,DVDD*%
%TO.N,+3.3V*%
X172000000Y-76499999D03*
D66*
%TO.P,U11,49,DGND*%
%TO.N,GND*%
X169971500Y-74471499D03*
%TO.P,U11,50,DVDD*%
%TO.N,+3.3V*%
X169471501Y-74471499D03*
%TO.P,U11,51,DGND*%
%TO.N,GND*%
X168971500Y-74471499D03*
%TO.P,U11,52,CLKSEL*%
%TO.N,+3.3V*%
X168471501Y-74471499D03*
%TO.P,U11,53,AVSS1*%
%TO.N,GNDA*%
X167971499Y-74471499D03*
%TO.P,U11,54,AVDD1*%
%TO.N,+5V*%
X167471500Y-74471499D03*
%TO.P,U11,55,VCAP3*%
%TO.N,Net-(U11-VCAP3)*%
X166971501Y-74471499D03*
%TO.P,U11,56,AVDD*%
%TO.N,+5V*%
X166471500Y-74471499D03*
%TO.P,U11,57,AVSS*%
%TO.N,GNDA*%
X165971500Y-74471499D03*
%TO.P,U11,58,AVSS*%
X165471499Y-74471499D03*
%TO.P,U11,59,AVDD*%
%TO.N,+5V*%
X164971500Y-74471499D03*
%TO.P,U11,60,BIASREF*%
%TO.N,unconnected-(U11-BIASREF-Pad60)*%
X164471501Y-74471499D03*
%TO.P,U11,61,BIASINV*%
%TO.N,Net-(U10-BIASINV)*%
X163971499Y-74471499D03*
%TO.P,U11,62,BIASIN*%
%TO.N,unconnected-(U11-BIASIN-Pad62)*%
X163471500Y-74471499D03*
%TO.P,U11,63,BIASOUT*%
%TO.N,unconnected-(U11-BIASOUT-Pad63)*%
X162971499Y-74471499D03*
%TO.P,U11,64,RESERVED*%
%TO.N,unconnected-(U11-RESERVED-Pad64)*%
X162471500Y-74471499D03*
%TD*%
D20*
%TO.P,C49,1*%
%TO.N,GND*%
X155607500Y-95300000D03*
%TO.P,C49,2*%
%TO.N,/VDD11*%
X154792500Y-95300000D03*
%TD*%
D72*
%TO.P,U9,1,VDD*%
%TO.N,+3.3V*%
X88285000Y-86215000D03*
%TO.P,U9,2,OSC1*%
%TO.N,/USB-C circuit/OSC1*%
X89555000Y-86215000D03*
%TO.P,U9,3,OSC2*%
%TO.N,/USB-C circuit/OSC2*%
X90825000Y-86215000D03*
%TO.P,U9,4,~{RST}*%
%TO.N,/USB-C circuit/MCP_NRST*%
X92095000Y-86215000D03*
%TO.P,U9,5,GP7/TXLED*%
%TO.N,/USB-C circuit/TXLED*%
X93365000Y-86215000D03*
%TO.P,U9,6,GP6/RXLED*%
%TO.N,/USB-C circuit/RXLED*%
X94635000Y-86215000D03*
%TO.P,U9,7,GP5*%
%TO.N,unconnected-(U9-GP5-Pad7)*%
X95905000Y-86215000D03*
%TO.P,U9,8,GP4*%
%TO.N,unconnected-(U9-GP4-Pad8)*%
X97175000Y-86215000D03*
%TO.P,U9,9,GP3*%
%TO.N,unconnected-(U9-GP3-Pad9)*%
X98445000Y-86215000D03*
%TO.P,U9,10,TX*%
%TO.N,/USART1_RX*%
X99715000Y-86215000D03*
%TO.P,U9,11,~{RTS}*%
%TO.N,unconnected-(U9-~{RTS}-Pad11)*%
X99715000Y-76865000D03*
%TO.P,U9,12,RX*%
%TO.N,/USART1_TX*%
X98445000Y-76865000D03*
%TO.P,U9,13,~{CTS}*%
%TO.N,unconnected-(U9-~{CTS}-Pad13)*%
X97175000Y-76865000D03*
%TO.P,U9,14,GP2*%
%TO.N,unconnected-(U9-GP2-Pad14)*%
X95905000Y-76865000D03*
%TO.P,U9,15,GP1/USBCFG*%
%TO.N,unconnected-(U9-GP1{slash}USBCFG-Pad15)*%
X94635000Y-76865000D03*
%TO.P,U9,16,GP0/SSPND*%
%TO.N,unconnected-(U9-GP0{slash}SSPND-Pad16)*%
X93365000Y-76865000D03*
%TO.P,U9,17,VUSB*%
%TO.N,+3.3V*%
X92095000Y-76865000D03*
%TO.P,U9,18,D-*%
%TO.N,/USB-C circuit/USB_D-*%
X90825000Y-76865000D03*
%TO.P,U9,19,D+*%
%TO.N,/USB-C circuit/USB_D+*%
X89555000Y-76865000D03*
%TO.P,U9,20,VSS*%
%TO.N,GND*%
X88285000Y-76865000D03*
%TD*%
D49*
%TO.P,C33,1*%
%TO.N,Net-(U10-VREFP)*%
X133800000Y-91275000D03*
%TO.P,C33,2*%
%TO.N,GNDA*%
X133800000Y-93000000D03*
%TD*%
D73*
%TO.N,GND*%
X149025000Y-101075000D03*
X167000000Y-108500000D03*
X164250000Y-108000000D03*
X152125000Y-98025000D03*
X157960000Y-99410000D03*
X165000000Y-117750000D03*
X162500000Y-117250000D03*
X151500000Y-106000000D03*
X162750000Y-104750000D03*
X150000000Y-94500000D03*
D74*
X96095000Y-108092500D03*
D73*
X143800000Y-117350000D03*
X151500000Y-110325842D03*
X151904651Y-107780842D03*
X159365000Y-98110000D03*
X81480000Y-75550000D03*
X142750000Y-118750000D03*
X158299651Y-107575842D03*
X142736116Y-126906400D03*
X167000000Y-110750000D03*
X165000000Y-115250000D03*
X157810000Y-102950000D03*
X102750000Y-109375000D03*
X86500000Y-74050000D03*
X87000000Y-76500000D03*
X146400000Y-117400000D03*
X167000000Y-106250000D03*
X96250000Y-68750000D03*
X152175000Y-99975000D03*
D75*
X170500000Y-77500000D03*
D73*
X145250000Y-115000000D03*
D74*
X96095000Y-107092500D03*
D73*
X148500000Y-111250000D03*
X155250000Y-117500000D03*
D74*
X97950000Y-115150000D03*
D73*
X146700000Y-94500000D03*
D74*
X90400000Y-116650000D03*
D73*
X163750000Y-110750000D03*
X81480000Y-78050000D03*
X153000000Y-117500000D03*
X96500000Y-72500000D03*
X147825000Y-102200000D03*
X160250000Y-116000000D03*
X159750000Y-113000000D03*
X156750000Y-108500000D03*
X93000000Y-87750000D03*
X93950000Y-74610662D03*
X148025000Y-97950000D03*
X149100000Y-99175000D03*
X134225000Y-100250000D03*
X87500000Y-87750000D03*
X161700000Y-101300000D03*
X167000000Y-113000000D03*
X161400000Y-100600000D03*
D74*
X142500000Y-80450000D03*
X84950000Y-87200000D03*
D73*
X151150000Y-101100000D03*
X157839437Y-101129445D03*
X151075000Y-99200000D03*
X142780466Y-101000000D03*
X85250000Y-70250000D03*
D74*
X87347000Y-107002500D03*
D73*
X98000000Y-70250000D03*
X155395000Y-104600000D03*
X148250000Y-117500000D03*
X159750000Y-105500000D03*
X155700000Y-94510000D03*
X161299651Y-110625842D03*
X131900000Y-110900000D03*
X160250000Y-118500000D03*
X113590000Y-120600000D03*
X167250000Y-117750000D03*
X153500000Y-96549998D03*
X150075000Y-102150000D03*
X149975000Y-98075000D03*
D74*
X109500000Y-101250000D03*
D73*
X143570466Y-102770000D03*
X86250000Y-75800000D03*
X159750000Y-108500000D03*
X129150000Y-113650000D03*
X161525000Y-102310000D03*
X155299651Y-110625842D03*
X155000000Y-106500000D03*
X163250000Y-114300000D03*
X130600000Y-110895000D03*
X147900000Y-100000000D03*
D74*
X99988000Y-119697500D03*
D73*
X167000000Y-115250000D03*
X142750000Y-125000000D03*
X105395000Y-106020000D03*
X158700000Y-96100000D03*
X142750000Y-120750000D03*
X142750000Y-123000000D03*
X157810000Y-102150000D03*
X152100000Y-102225000D03*
X85250000Y-72750000D03*
X153550000Y-95700000D03*
D74*
X87347000Y-108002500D03*
D73*
X147750000Y-115000000D03*
D74*
X127236091Y-118386091D03*
X92500000Y-120300000D03*
X147800000Y-80600000D03*
X166150000Y-80200000D03*
X99988000Y-120697500D03*
D73*
X155150000Y-108750000D03*
X162500000Y-118500000D03*
X165500000Y-104750000D03*
D75*
%TO.N,/SWD_NRST*%
X107560000Y-73740000D03*
X130380000Y-113030000D03*
D73*
%TO.N,+3.3V*%
X100750000Y-90800000D03*
X146575000Y-95400000D03*
X101090000Y-99850000D03*
X86795000Y-77550000D03*
X157695000Y-96160000D03*
X101500000Y-84250000D03*
X90000000Y-81320000D03*
X99590000Y-99850000D03*
X99425000Y-109525000D03*
D74*
X143550000Y-74850000D03*
D73*
X144500000Y-102829017D03*
X112200000Y-71000000D03*
X98840000Y-99100000D03*
X89500000Y-120000000D03*
X151350000Y-105000000D03*
X94700000Y-109450000D03*
X96650000Y-109475000D03*
X88285000Y-83400000D03*
D75*
X170500000Y-76500000D03*
D73*
X126000000Y-113250000D03*
X86795000Y-78550000D03*
X85750000Y-85800000D03*
X100340000Y-99100000D03*
X101840000Y-99100000D03*
X155179000Y-100750000D03*
X111000000Y-74500000D03*
D74*
X148100000Y-93250000D03*
D73*
X152500000Y-95350000D03*
D75*
%TO.N,+5V*%
X136000000Y-76000000D03*
X139200000Y-73900000D03*
X133500000Y-76500000D03*
D73*
X118524265Y-101475735D03*
D74*
X130486091Y-83886091D03*
X158700000Y-76400000D03*
D73*
X162400000Y-90150000D03*
D74*
X132701800Y-88014300D03*
%TO.N,GNDA*%
X165500000Y-73100000D03*
X163850000Y-76950000D03*
X135150000Y-77050000D03*
X146750000Y-74500000D03*
X138350000Y-73000000D03*
%TO.N,/VDD11*%
X156750000Y-98500000D03*
D75*
X154579000Y-98321000D03*
D74*
X158000000Y-95000000D03*
D75*
X154499999Y-101749999D03*
%TO.N,/SWDIO*%
X105000000Y-73900000D03*
X105000000Y-80700000D03*
%TO.N,/SWCLK*%
X102500000Y-71900000D03*
X102500000Y-77400000D03*
%TO.N,/USART2_RX*%
X145500000Y-102750000D03*
X89400000Y-123400000D03*
%TO.N,/USART2_TX*%
X91500000Y-121700000D03*
X136300000Y-110100000D03*
%TO.N,Net-(U1-NRST)*%
X150000000Y-106400000D03*
X152823775Y-104050000D03*
D73*
%TO.N,/USB-C circuit/USB_VBUS*%
X88350000Y-72000000D03*
X111295000Y-112295000D03*
X93000000Y-72000000D03*
D75*
%TO.N,/SPI3_MISO*%
X146000000Y-97699997D03*
X139104400Y-79395600D03*
X140600000Y-86975000D03*
X171000000Y-79000000D03*
X142750000Y-90050000D03*
X172000000Y-85500000D03*
X172500000Y-86774997D03*
%TO.N,/USART1_RX*%
X119000000Y-100000000D03*
D74*
X126564401Y-96851000D03*
D75*
X145500000Y-95000000D03*
X150000045Y-95454633D03*
D74*
%TO.N,/USART1_TX*%
X124638909Y-93361091D03*
D75*
X150776000Y-91000000D03*
D74*
X146500000Y-93349000D03*
X118000000Y-96500000D03*
D75*
%TO.N,/SPI3_MOSI*%
X172500000Y-89500000D03*
D74*
X142500000Y-84400000D03*
X141900000Y-87050000D03*
X143450000Y-88969084D03*
D75*
X146000000Y-98300000D03*
%TO.N,/SPI3_SCK*%
X173000000Y-80500000D03*
X146000000Y-97000000D03*
D74*
X137792355Y-82549999D03*
X137000000Y-83501553D03*
D75*
X144587017Y-91406341D03*
D74*
%TO.N,Net-(U10-VCAP3)*%
X136871501Y-72612416D03*
D75*
%TO.N,/GPIO_IN*%
X150250063Y-96000063D03*
D74*
X144500000Y-92799000D03*
%TO.N,Net-(U11-VCAP3)*%
X167624674Y-72911184D03*
%TO.N,Net-(U10-IN1P)*%
X115050000Y-75350000D03*
%TO.N,Net-(U10-SRB1)*%
X144000000Y-84300000D03*
X134636091Y-83586091D03*
X129450000Y-86500000D03*
D75*
X142000000Y-85000000D03*
X140500000Y-85000000D03*
%TO.N,Net-(U10-IN2P)*%
X116500000Y-79000000D03*
X118050000Y-77650000D03*
D74*
X118050000Y-75500000D03*
%TO.N,Net-(U10-IN3P)*%
X116000000Y-78450000D03*
D75*
%TO.N,Net-(U10-IN4P)*%
X121048447Y-77998275D03*
X119297812Y-79425000D03*
D74*
X120550000Y-75450000D03*
%TO.N,Net-(U10-IN5P)*%
X118500000Y-78650000D03*
%TO.N,Net-(U10-IN6P)*%
X123050000Y-75150000D03*
D75*
X123500000Y-79500000D03*
X123474794Y-78501460D03*
D74*
%TO.N,Net-(U10-IN7P)*%
X121500000Y-78500000D03*
%TO.N,Net-(U10-IN8P)*%
X124500000Y-78150000D03*
D75*
X127986749Y-77486294D03*
%TO.N,Net-(U11-SRB1)*%
X149000000Y-82000000D03*
D74*
X162175003Y-85000000D03*
D75*
%TO.N,Net-(U11-IN1P)*%
X148000000Y-75000000D03*
%TO.N,Net-(U11-IN2P)*%
X151500000Y-82500000D03*
X152300000Y-74600000D03*
X151610876Y-81389124D03*
%TO.N,Net-(U11-IN3P)*%
X149100000Y-79150000D03*
%TO.N,Net-(U11-IN4P)*%
X154085876Y-79414124D03*
X154000000Y-80474999D03*
X154024000Y-75900000D03*
%TO.N,Net-(U11-IN5P)*%
X153549000Y-78850000D03*
%TO.N,Net-(U11-IN6P)*%
X156000000Y-78000000D03*
X156025000Y-78975000D03*
X156000000Y-75500000D03*
%TO.N,Net-(U11-IN7P)*%
X155525000Y-78500000D03*
%TO.N,Net-(U11-IN8P)*%
X158500000Y-77500000D03*
%TO.N,/ADC/BIAS_DRV*%
X131474000Y-73500000D03*
X144000000Y-70000000D03*
D74*
%TO.N,/ADC/IN3P*%
X130400000Y-69650000D03*
X117100000Y-75950000D03*
%TO.N,/ADC/IN1P*%
X116750000Y-73550000D03*
X124300000Y-69900000D03*
%TO.N,/ADC/IN2P*%
X127950000Y-69700000D03*
X120100000Y-73000000D03*
D75*
%TO.N,/SPI_CS1*%
X134100000Y-82000000D03*
X139389124Y-97560876D03*
X139429398Y-82000000D03*
X131050000Y-94550000D03*
%TO.N,/ADC/RESET*%
X160664124Y-86664124D03*
X158912983Y-88406341D03*
X142000000Y-83000000D03*
X154500000Y-91000000D03*
X154202859Y-97000000D03*
X147000000Y-85500000D03*
X152625000Y-89125000D03*
X161500000Y-87500000D03*
X155414124Y-91914124D03*
X157464125Y-89864122D03*
X171000000Y-82500000D03*
%TO.N,/ADC_DRDY*%
X144500000Y-92000000D03*
X163005474Y-83476000D03*
X161896436Y-82931812D03*
X143249638Y-87425001D03*
X145475000Y-96646751D03*
D74*
X139200000Y-77450000D03*
D75*
X169464124Y-76964124D03*
D74*
X136150000Y-81200000D03*
D75*
X157000000Y-82500000D03*
X159394898Y-82474998D03*
%TO.N,/ADC_CLK*%
X150751839Y-95000000D03*
X170500000Y-82000000D03*
X164739124Y-82525000D03*
X156992061Y-89493772D03*
X153000000Y-92000000D03*
X150300000Y-92500000D03*
X166914124Y-81975000D03*
X162542869Y-84434047D03*
%TO.N,/ADC/START*%
X159000000Y-89000000D03*
X148500000Y-86000000D03*
X142000000Y-82000000D03*
X171000000Y-81500000D03*
X157500000Y-90500000D03*
X154240380Y-97671000D03*
X151000000Y-89100000D03*
%TO.N,/SPI_CS2*%
X150000000Y-87000000D03*
X170000000Y-81000000D03*
X160000000Y-86500000D03*
X145737346Y-94374000D03*
X150000000Y-89000000D03*
X164575000Y-80998582D03*
X161500000Y-85000000D03*
X162900000Y-82525000D03*
%TO.N,/ADC/PWDN*%
X166500000Y-83000000D03*
X170500000Y-83000000D03*
X143325000Y-80450000D03*
X143900000Y-83475000D03*
X141999000Y-83600000D03*
X158500000Y-81500000D03*
X154200000Y-81524998D03*
X162250000Y-82400000D03*
%TO.N,Net-(U10-BIASINV)*%
X132500000Y-73000000D03*
X164447775Y-72672979D03*
D74*
%TO.N,/Power switching and voltage adaptation/+5V*%
X97550000Y-118800000D03*
X105700000Y-120100000D03*
X92300000Y-119350000D03*
%TD*%
D76*
%TO.N,/RF circuitry & antennas/RF_CERAMIC_MATCH*%
X154500000Y-116225000D02*
X154332545Y-116225000D01*
X154332545Y-116225000D02*
X150950000Y-112842455D01*
X150950000Y-112842455D02*
X150950000Y-112500000D01*
%TO.N,/RF circuitry & antennas/RF_CERAMIC_ANT*%
X150976497Y-114374158D02*
X150976497Y-115973503D01*
X150976497Y-115973503D02*
X150950000Y-116000000D01*
%TO.N,/RF circuitry & antennas/RF_CERAMIC_MATCH*%
X156200000Y-116150000D02*
X154575000Y-116150000D01*
X154575000Y-116150000D02*
X154500000Y-116225000D01*
X150976497Y-113404158D02*
X150976497Y-112526497D01*
X150976497Y-112526497D02*
X150950000Y-112500000D01*
%TO.N,/RF circuitry & antennas/RF_UFL_ANT*%
X156200000Y-114500000D02*
X156200000Y-114250493D01*
X156200000Y-114250493D02*
X158299651Y-112150842D01*
%TO.N,/RF circuitry & antennas/RF_LPF*%
X153574651Y-111188842D02*
X153574651Y-113649651D01*
X153574651Y-113649651D02*
X154500000Y-114575000D01*
%TO.N,GND*%
X95147500Y-72500000D02*
X95070000Y-72577500D01*
D77*
X138971768Y-78001000D02*
X140372100Y-78001000D01*
X142351000Y-78251000D02*
X142310552Y-78251000D01*
D76*
X151500000Y-106000000D02*
X151750000Y-106000000D01*
D77*
X170826834Y-78500000D02*
X172000000Y-78500000D01*
D76*
X92287500Y-115150000D02*
X91270654Y-115150000D01*
D77*
X137449000Y-74867100D02*
X137449000Y-75681899D01*
X141401600Y-78946601D02*
X141350600Y-78895601D01*
X138449000Y-77478232D02*
X138885384Y-77914616D01*
D76*
X98000000Y-70250000D02*
X97890000Y-70140000D01*
D77*
X137449000Y-75681899D02*
X137558301Y-75791200D01*
D78*
X86750000Y-86760000D02*
X85390000Y-86760000D01*
D77*
X141995599Y-78395599D02*
X142500000Y-78900000D01*
X170276834Y-79050000D02*
X167300000Y-79050000D01*
D76*
X104660000Y-106020000D02*
X105450000Y-106020000D01*
D77*
X172873100Y-83999999D02*
X173476000Y-83397099D01*
D76*
X85490000Y-75800000D02*
X86230000Y-75800000D01*
D77*
X153347651Y-110575842D02*
X151750000Y-110575842D01*
D76*
X142780466Y-101000000D02*
X143570466Y-101000000D01*
X96250000Y-68750000D02*
X95621000Y-68750000D01*
X113590000Y-120600000D02*
X113590000Y-119810000D01*
D77*
X142310552Y-78251000D02*
X142059552Y-78000000D01*
X172000000Y-77999998D02*
X171549998Y-77999998D01*
D76*
X92500000Y-121250000D02*
X92500000Y-120300000D01*
D77*
X173476000Y-80102898D02*
X172873100Y-79499998D01*
X168971500Y-74471499D02*
X168971500Y-76750334D01*
D76*
X87920000Y-76500000D02*
X88285000Y-76865000D01*
X102750000Y-109375000D02*
X101960000Y-109375000D01*
X143570466Y-102770000D02*
X143570466Y-102000000D01*
X157610000Y-102750000D02*
X157810000Y-102950000D01*
X158959999Y-99700501D02*
X158250501Y-99700501D01*
X90409653Y-116011000D02*
X90409653Y-116640347D01*
D77*
X171050000Y-77500000D02*
X170500000Y-77500000D01*
D78*
X85390000Y-86760000D02*
X84950000Y-87200000D01*
D76*
X161400000Y-100600000D02*
X161090000Y-100910000D01*
X82480000Y-78050000D02*
X81480000Y-78050000D01*
X151904651Y-107780842D02*
X152694651Y-107780842D01*
D77*
X140477500Y-78395599D02*
X141995599Y-78395599D01*
D76*
X108235000Y-101250000D02*
X109500000Y-101250000D01*
D77*
X168988124Y-77161290D02*
X169326834Y-77500000D01*
D76*
X131900000Y-110900000D02*
X131900000Y-110110000D01*
D77*
X138449000Y-74867100D02*
X138449000Y-77478232D01*
X141292301Y-79895599D02*
X141401600Y-79786300D01*
D79*
X153424998Y-96625000D02*
X152750693Y-96625000D01*
D76*
X157000000Y-102750000D02*
X157610000Y-102750000D01*
D77*
X130599000Y-110546000D02*
X130600000Y-110545000D01*
D76*
X161525000Y-102310000D02*
X160735000Y-102310000D01*
D80*
X147250000Y-80050000D02*
X147800000Y-80600000D01*
D76*
X94350000Y-123100000D02*
X92500000Y-121250000D01*
X158250501Y-99700501D02*
X157960000Y-99410000D01*
D77*
X140477500Y-78395599D02*
X140477500Y-78895601D01*
X150039265Y-93440735D02*
X150015000Y-93416470D01*
X141350600Y-78895601D02*
X140477500Y-78895601D01*
X170726832Y-79499998D02*
X170276834Y-79050000D01*
D76*
X162750000Y-101250000D02*
X161750000Y-101250000D01*
X151750000Y-106000000D02*
X152250000Y-105500000D01*
X158700000Y-96590000D02*
X158280000Y-97010000D01*
X157410000Y-101750000D02*
X157810000Y-102150000D01*
D77*
X138339701Y-75791200D02*
X138449000Y-75681901D01*
D76*
X85250000Y-72750000D02*
X86257500Y-72750000D01*
X93350000Y-120300000D02*
X92500000Y-120300000D01*
D77*
X142500000Y-78400000D02*
X142351000Y-78251000D01*
X142500000Y-78900000D02*
X142500000Y-78400000D01*
X140477500Y-79895599D02*
X141292301Y-79895599D01*
X170500000Y-77500000D02*
X168850000Y-77500000D01*
X150000000Y-94500000D02*
X150039265Y-94460735D01*
D76*
X96500000Y-72500000D02*
X95147500Y-72500000D01*
D77*
X170826834Y-78500000D02*
X170276834Y-79050000D01*
D76*
X86500000Y-74050000D02*
X86652500Y-74050000D01*
X87500000Y-87750000D02*
X87500000Y-88540000D01*
D77*
X155249651Y-110575842D02*
X155299651Y-110625842D01*
D76*
X155700000Y-94510000D02*
X155700000Y-95300000D01*
D77*
X172873100Y-79499998D02*
X172000000Y-79499998D01*
X172000000Y-79499998D02*
X170726832Y-79499998D01*
D76*
X90409653Y-116011000D02*
X89711000Y-116011000D01*
X130600000Y-110895000D02*
X130600000Y-110105000D01*
D77*
X153801651Y-110575842D02*
X155249651Y-110575842D01*
D79*
X153500000Y-96549998D02*
X153424998Y-96625000D01*
D76*
X86652500Y-74050000D02*
X87550000Y-73152500D01*
D77*
X138449000Y-75681901D02*
X138449000Y-74867100D01*
D76*
X91270654Y-115150000D02*
X90409653Y-116011000D01*
X95621000Y-68750000D02*
X95621000Y-68577500D01*
D77*
X142059552Y-78000000D02*
X141500000Y-78000000D01*
D76*
X153550000Y-95700000D02*
X153550000Y-94920000D01*
X153550000Y-94920000D02*
X153480000Y-94850000D01*
X146700000Y-94500000D02*
X147500000Y-94500000D01*
D77*
X140429405Y-84443695D02*
X138908233Y-84443695D01*
D76*
X93000000Y-87750000D02*
X93000000Y-88540000D01*
D77*
X150015000Y-93416470D02*
X150015000Y-93100000D01*
D76*
X87500000Y-73102500D02*
X87550000Y-73152500D01*
D80*
X146300000Y-80050000D02*
X147250000Y-80050000D01*
D77*
X157050000Y-100510000D02*
X157219992Y-100510000D01*
X157219992Y-100510000D02*
X157839437Y-101129445D01*
X138908233Y-84443695D02*
X137099000Y-82634462D01*
D76*
X161750000Y-101250000D02*
X161700000Y-101300000D01*
X85240000Y-70240000D02*
X84400000Y-70240000D01*
X127222182Y-118400000D02*
X127236091Y-118386091D01*
D77*
X141500000Y-78000000D02*
X141395600Y-77895600D01*
X172000000Y-83999999D02*
X172873100Y-83999999D01*
D76*
X93950000Y-74610662D02*
X93950000Y-73152500D01*
D77*
X150039265Y-94460735D02*
X150039265Y-93440735D01*
D76*
X159365000Y-98110000D02*
X158575000Y-98110000D01*
X161090000Y-100910000D02*
X160670000Y-100910000D01*
D77*
X168988124Y-76766958D02*
X168988124Y-77161290D01*
D76*
X129150000Y-113650000D02*
X129150000Y-114440000D01*
X149500000Y-113800000D02*
X149504158Y-113795842D01*
X134225000Y-100250000D02*
X135015000Y-100250000D01*
X153415000Y-94915000D02*
X153480000Y-94850000D01*
X158700000Y-96100000D02*
X158700000Y-96590000D01*
D77*
X172000000Y-77499999D02*
X171050000Y-77500000D01*
X169971500Y-75783582D02*
X168988124Y-76766958D01*
X167300000Y-79050000D02*
X166150000Y-80200000D01*
X140477500Y-84395600D02*
X140429405Y-84443695D01*
X141395600Y-77895600D02*
X140477500Y-77895600D01*
D76*
X86257500Y-72750000D02*
X86430000Y-72577500D01*
X97890000Y-70140000D02*
X97000000Y-70140000D01*
D77*
X171549998Y-77999998D02*
X171050000Y-77500000D01*
D76*
X90409653Y-116640347D02*
X90400000Y-116650000D01*
D77*
X140372100Y-78001000D02*
X140477500Y-77895600D01*
X173476000Y-83397099D02*
X173476000Y-80102898D01*
D76*
X97000000Y-70140000D02*
X96900000Y-70240000D01*
D77*
X137558301Y-75791200D02*
X138339701Y-75791200D01*
X169326834Y-77500000D02*
X170500000Y-77500000D01*
D76*
X87000000Y-76500000D02*
X87920000Y-76500000D01*
D77*
X168850000Y-77500000D02*
X167300000Y-79050000D01*
X137099000Y-82634462D02*
X137099000Y-79701000D01*
X151750000Y-110575842D02*
X151500000Y-110325842D01*
X137099000Y-79701000D02*
X138885384Y-77914616D01*
D76*
X85250000Y-70250000D02*
X85240000Y-70240000D01*
D77*
X138885384Y-77914616D02*
X138971768Y-78001000D01*
D76*
X97012500Y-115150000D02*
X97950000Y-115150000D01*
D77*
X141401600Y-79786300D02*
X141401600Y-78946601D01*
D76*
X126000000Y-118400000D02*
X127222182Y-118400000D01*
X155395000Y-104600000D02*
X154605000Y-104600000D01*
X82480000Y-75550000D02*
X81480000Y-75550000D01*
D77*
X168971500Y-76750334D02*
X168988124Y-76766958D01*
D76*
X157000000Y-101750000D02*
X157410000Y-101750000D01*
D77*
X142500000Y-78900000D02*
X142500000Y-80450000D01*
X169971500Y-74471499D02*
X169971500Y-75783582D01*
%TO.N,/BOOT0*%
X151701315Y-103951000D02*
X151299000Y-103951000D01*
X135250000Y-113750000D02*
X134500000Y-113000000D01*
X134500000Y-113000000D02*
X134500000Y-111710000D01*
X151701315Y-103424126D02*
X151701315Y-103951000D01*
X134500000Y-111710000D02*
X131900000Y-109110000D01*
D76*
X130600000Y-109145000D02*
X129415000Y-109145000D01*
D77*
X151299000Y-103951000D02*
X141500000Y-113750000D01*
D76*
X131900000Y-109110000D02*
X130635000Y-109110000D01*
D77*
X141500000Y-113750000D02*
X135250000Y-113750000D01*
D76*
X130635000Y-109110000D02*
X130600000Y-109145000D01*
D77*
X151750441Y-103375000D02*
X151701315Y-103424126D01*
D76*
X129415000Y-109145000D02*
X129410000Y-109150000D01*
D81*
%TO.N,/OSC_IN*%
X159423500Y-98764000D02*
X160360001Y-99700501D01*
D77*
X160360001Y-99700501D02*
X162383001Y-99700501D01*
D81*
X160360001Y-99700501D02*
X160450501Y-99700501D01*
X160450501Y-99700501D02*
X160451002Y-99700000D01*
X155447563Y-99669001D02*
X155603564Y-99513000D01*
D77*
X162383001Y-99700501D02*
X162750000Y-100067500D01*
D81*
X155927480Y-99513000D02*
X156857000Y-99513000D01*
X155603564Y-99513000D02*
X155927479Y-99512999D01*
X156857000Y-99513000D02*
X157606000Y-98764000D01*
X154677563Y-99669001D02*
X155447563Y-99669001D01*
X153375000Y-100250000D02*
X154096564Y-100250000D01*
X155927479Y-99512999D02*
X155927480Y-99513000D01*
X157606000Y-98764000D02*
X159423500Y-98764000D01*
X154096564Y-100250000D02*
X154677563Y-99669001D01*
D77*
%TO.N,/SWD_NRST*%
X125900000Y-115500000D02*
X125900000Y-115650000D01*
X107560000Y-69100000D02*
X107260000Y-68800000D01*
X130380000Y-115400000D02*
X129150000Y-115400000D01*
X107560000Y-73740000D02*
X107560000Y-69100000D01*
X130380000Y-115400000D02*
X130380000Y-113030000D01*
X129150000Y-115400000D02*
X126000000Y-115400000D01*
X130350000Y-113000000D02*
X130380000Y-113030000D01*
X126000000Y-115400000D02*
X125900000Y-115500000D01*
%TO.N,+3.3V*%
X168471501Y-74471499D02*
X168471501Y-73528499D01*
D76*
X157320000Y-97010000D02*
X156810654Y-97010000D01*
D81*
X146625000Y-101749999D02*
X145750001Y-101749999D01*
D77*
X155179000Y-100750000D02*
X155419000Y-100510000D01*
D80*
X147749433Y-95729433D02*
X147500000Y-95480000D01*
D76*
X156810654Y-97010000D02*
X155048653Y-98772001D01*
X147370000Y-95350000D02*
X147500000Y-95480000D01*
D77*
X152500000Y-95072500D02*
X152572500Y-95000000D01*
D80*
X149020000Y-95520378D02*
X149249811Y-95750189D01*
D77*
X137650000Y-73450000D02*
X137450000Y-73450000D01*
X141549000Y-71849000D02*
X141600000Y-71900000D01*
X137949001Y-73749001D02*
X137650000Y-73450000D01*
D76*
X138771768Y-71799000D02*
X141549000Y-71799000D01*
X144500000Y-102829017D02*
X144500000Y-102030466D01*
D79*
X155048653Y-98772001D02*
X154948654Y-98872000D01*
D77*
X111000000Y-76168428D02*
X110680439Y-76487989D01*
X137250000Y-73450000D02*
X136949001Y-73750999D01*
D81*
X148999811Y-93249811D02*
X149000000Y-93250000D01*
D77*
X154679000Y-101250000D02*
X153375000Y-101250000D01*
D76*
X104595000Y-101360000D02*
X100310000Y-101360000D01*
D79*
X153902001Y-99249999D02*
X153375000Y-99249999D01*
D81*
X152250567Y-96148433D02*
X152500000Y-95899000D01*
D77*
X169471501Y-73471501D02*
X169471501Y-74471499D01*
X137450000Y-73450000D02*
X137450000Y-73120768D01*
D76*
X112200000Y-71000000D02*
X112200000Y-68940000D01*
X144530466Y-102000000D02*
X144800466Y-102000000D01*
X90000000Y-81320000D02*
X90000000Y-81250000D01*
D77*
X155179000Y-100750000D02*
X154679000Y-101250000D01*
D81*
X152250567Y-103375000D02*
X152250000Y-103375567D01*
D77*
X168471501Y-73528499D02*
X168800000Y-73200000D01*
X170500000Y-76500000D02*
X172000000Y-76499999D01*
D76*
X144550466Y-102020000D02*
X144530466Y-102000000D01*
X170014801Y-73200000D02*
X168800000Y-73200000D01*
D81*
X152250567Y-96625000D02*
X152250567Y-96148433D01*
D76*
X100310000Y-101360000D02*
X100195000Y-101245000D01*
D77*
X137949001Y-74867100D02*
X137949001Y-73749001D01*
X169200000Y-73200000D02*
X170014801Y-73200000D01*
D76*
X89500000Y-120000000D02*
X89500000Y-120740000D01*
X151400000Y-105050000D02*
X151910000Y-104540000D01*
X142500000Y-72800000D02*
X142500000Y-73350000D01*
D77*
X168800000Y-73200000D02*
X169200000Y-73200000D01*
D80*
X149249811Y-95750189D02*
X149249811Y-96625000D01*
D76*
X86750000Y-85800000D02*
X87870000Y-85800000D01*
D81*
X152250000Y-103375567D02*
X152250000Y-104540000D01*
D77*
X152500000Y-95350000D02*
X152500000Y-95072500D01*
D76*
X101500000Y-84250000D02*
X101500000Y-85250000D01*
X146600000Y-95350000D02*
X147370000Y-95350000D01*
X149020000Y-93270000D02*
X149020000Y-95520378D01*
X144800466Y-102000000D02*
X145050467Y-101749999D01*
X92095000Y-79155000D02*
X92095000Y-76865000D01*
X85750000Y-85800000D02*
X86750000Y-85800000D01*
D77*
X169200000Y-73200000D02*
X169471501Y-73471501D01*
D76*
X149000000Y-93250000D02*
X148100000Y-93250000D01*
X100115000Y-107625000D02*
X100195000Y-107545000D01*
X142500000Y-77087500D02*
X142500000Y-75650000D01*
X170512200Y-76237800D02*
X170512200Y-73800000D01*
X141600000Y-71900000D02*
X142500000Y-72800000D01*
X170500000Y-73685199D02*
X170500000Y-73550000D01*
X90000000Y-81250000D02*
X92095000Y-79155000D01*
D77*
X136949001Y-73750999D02*
X136949001Y-74867100D01*
D76*
X170500000Y-73550000D02*
X170150000Y-73200000D01*
D77*
X137450000Y-73450000D02*
X137250000Y-73450000D01*
D76*
X152500000Y-95350000D02*
X152500000Y-95899000D01*
D77*
X170500000Y-76250000D02*
X170500000Y-76500000D01*
D76*
X142267399Y-76854899D02*
X140477500Y-76854899D01*
D77*
X142395600Y-76895600D02*
X140477500Y-76895600D01*
D76*
X144530466Y-101020000D02*
X144550466Y-101000000D01*
D79*
X154948654Y-98872000D02*
X154280000Y-98872000D01*
D76*
X151910000Y-104540000D02*
X152250000Y-104540000D01*
X145101465Y-101699001D02*
X145899000Y-101699001D01*
X142500000Y-73350000D02*
X142500000Y-73800000D01*
D80*
X147749433Y-96625000D02*
X147749433Y-95729433D01*
D76*
X144530466Y-102000000D02*
X144530466Y-101020000D01*
D77*
X137450000Y-73120768D02*
X138721768Y-71849000D01*
D81*
X149000000Y-93250000D02*
X149020000Y-93270000D01*
D76*
X142500000Y-73800000D02*
X143550000Y-74850000D01*
X138721768Y-71849000D02*
X138771768Y-71799000D01*
X88285000Y-86215000D02*
X88285000Y-83400000D01*
X87870000Y-85800000D02*
X88285000Y-86215000D01*
X100750000Y-90800000D02*
X100750000Y-89810000D01*
X157695000Y-96160000D02*
X157320000Y-96535000D01*
D77*
X170014801Y-73200000D02*
X170500000Y-73685199D01*
D76*
X157320000Y-96535000D02*
X157320000Y-97010000D01*
X142500000Y-77087500D02*
X142267399Y-76854899D01*
X144500000Y-102030466D02*
X144530466Y-102000000D01*
D77*
X155419000Y-100510000D02*
X156090000Y-100510000D01*
D76*
X170500000Y-76250000D02*
X170512200Y-76237800D01*
D77*
X170500000Y-73685199D02*
X170500000Y-76250000D01*
X111000000Y-74500000D02*
X111000000Y-76168428D01*
D76*
X86795000Y-77550000D02*
X86250000Y-77550000D01*
D79*
X154280000Y-98872000D02*
X153902001Y-99249999D01*
D76*
X142500000Y-73350000D02*
X142500000Y-75650000D01*
X126000000Y-113250000D02*
X126000000Y-111900000D01*
X144800466Y-102000000D02*
X145101465Y-101699001D01*
X149020000Y-93230000D02*
X149000000Y-93250000D01*
X112200000Y-68940000D02*
X112340000Y-68800000D01*
D81*
%TO.N,/OSC_OUT*%
X155609521Y-100060001D02*
X155765522Y-99904000D01*
D77*
X158959999Y-100800499D02*
X158959999Y-101917499D01*
D81*
X155765522Y-99904000D02*
X157526161Y-99904000D01*
X158422660Y-100800499D02*
X158959999Y-100800499D01*
X154149521Y-100750001D02*
X154839521Y-100060001D01*
D77*
X158959999Y-101917499D02*
X159352500Y-102310000D01*
D81*
X158582160Y-100959999D02*
X158859999Y-100959999D01*
X153375000Y-100750001D02*
X154149521Y-100750001D01*
X154839521Y-100060001D02*
X155609521Y-100060001D01*
X157526161Y-99904000D02*
X158422660Y-100800499D01*
D77*
%TO.N,+5V*%
X136000000Y-74918100D02*
X135949000Y-74867100D01*
D76*
X129994600Y-83394600D02*
X129994600Y-77201000D01*
D77*
X132701800Y-87348200D02*
X132701800Y-87550000D01*
D76*
X139450000Y-74150000D02*
X140650000Y-74150000D01*
D77*
X161367100Y-78350000D02*
X161367100Y-79482900D01*
X129844600Y-78844601D02*
X129793600Y-78895601D01*
D76*
X107995000Y-107545000D02*
X108805000Y-107545000D01*
X133500000Y-76500000D02*
X133195600Y-76500000D01*
X162400000Y-90150000D02*
X162400000Y-88275000D01*
D77*
X161367100Y-78449000D02*
X161367100Y-78350000D01*
X129793600Y-82895601D02*
X129844600Y-82844601D01*
D80*
X166898998Y-75900000D02*
X165907799Y-75900000D01*
D77*
X129844600Y-78700000D02*
X129844600Y-78844601D01*
X164971500Y-86028499D02*
X164971500Y-86561899D01*
X129844600Y-79786300D02*
X129735301Y-79895599D01*
X131949000Y-87297200D02*
X132000000Y-87348200D01*
X161316100Y-76499999D02*
X161367100Y-76550999D01*
D76*
X118524265Y-101475735D02*
X118524265Y-102975735D01*
D77*
X163471500Y-87463500D02*
X163235000Y-87700000D01*
X129650000Y-83895601D02*
X129793600Y-83895601D01*
X161367100Y-81390700D02*
X161367100Y-82449000D01*
X164433399Y-87100000D02*
X164273100Y-87100000D01*
D76*
X109119000Y-109951000D02*
X109119000Y-108669000D01*
D77*
X162021558Y-83500000D02*
X162473558Y-83952000D01*
X129735301Y-76895600D02*
X129844600Y-77004899D01*
D76*
X130508000Y-90208100D02*
X132701800Y-88014300D01*
D77*
X128920500Y-83895601D02*
X129650000Y-83895601D01*
X161367100Y-79482900D02*
X161367100Y-80448999D01*
X128920500Y-81895600D02*
X129793600Y-81895600D01*
D76*
X131908050Y-88808050D02*
X132701800Y-88014300D01*
D77*
X160343001Y-76400000D02*
X160443000Y-76499999D01*
X164971500Y-74471499D02*
X164971500Y-75971500D01*
X129844600Y-77550000D02*
X129844600Y-77646600D01*
X131949000Y-86424100D02*
X131949000Y-87297200D01*
D76*
X118524265Y-102975735D02*
X117750000Y-103750000D01*
X162400000Y-88275000D02*
X162775000Y-87900000D01*
X132800000Y-76895600D02*
X130300000Y-76895600D01*
D77*
X132701800Y-87348200D02*
X132949001Y-87100999D01*
X130300000Y-76895600D02*
X128920500Y-76895600D01*
D80*
X167471500Y-74471499D02*
X167471500Y-75327498D01*
D77*
X132701800Y-88014300D02*
X133449000Y-87267100D01*
X164971500Y-86561899D02*
X164433399Y-87100000D01*
X132000000Y-87348200D02*
X132701800Y-87348200D01*
D76*
X130486091Y-83886091D02*
X129994600Y-83394600D01*
D80*
X164900000Y-75900000D02*
X165907799Y-75900000D01*
X166471500Y-75336299D02*
X166471500Y-74471499D01*
D77*
X133500000Y-74918100D02*
X133449000Y-74867100D01*
X161367100Y-76550999D02*
X161367100Y-77390698D01*
X160443000Y-83500000D02*
X161750000Y-83500000D01*
X161350002Y-79499998D02*
X160443000Y-79499998D01*
D76*
X132701800Y-87550000D02*
X132701800Y-88014300D01*
D77*
X134949000Y-75740200D02*
X134949000Y-74867100D01*
X161367100Y-79482900D02*
X161350002Y-79499998D01*
D76*
X161916100Y-75900000D02*
X161533050Y-76283050D01*
D77*
X161367100Y-78350000D02*
X161367100Y-77390698D01*
X133449000Y-87267100D02*
X133449000Y-86424100D01*
D76*
X102495000Y-107545000D02*
X107995000Y-107545000D01*
D77*
X162473558Y-83952000D02*
X162733988Y-83952000D01*
X135208800Y-76000000D02*
X134949000Y-75740200D01*
X163471500Y-86028499D02*
X163471500Y-87100000D01*
X129793600Y-78895601D02*
X128920500Y-78895601D01*
X129595600Y-77895600D02*
X128920500Y-77895600D01*
D76*
X117750000Y-103750000D02*
X117500000Y-103750000D01*
X140925000Y-74512500D02*
X140900000Y-74512500D01*
X107995000Y-107545000D02*
X113695000Y-107545000D01*
D77*
X129844600Y-77550000D02*
X129844600Y-78700000D01*
X130420500Y-92395600D02*
X130420500Y-90295600D01*
X162733988Y-83952000D02*
X163471500Y-84689512D01*
D80*
X165907799Y-75900000D02*
X166471500Y-75336299D01*
D77*
X130420500Y-90295600D02*
X131908050Y-88808050D01*
X136000000Y-76000000D02*
X136000000Y-74918100D01*
X164900000Y-75900000D02*
X165000000Y-76000000D01*
D80*
X167471500Y-75327498D02*
X166898998Y-75900000D01*
D76*
X109119000Y-108669000D02*
X107995000Y-107545000D01*
D77*
X129844600Y-77646600D02*
X129595600Y-77895600D01*
X129793600Y-81895600D02*
X129844600Y-81844600D01*
X161316100Y-76499999D02*
X161533050Y-76283050D01*
X164471501Y-86901599D02*
X164273100Y-87100000D01*
X129844600Y-82844601D02*
X129844600Y-81844600D01*
X161316100Y-78500000D02*
X161367100Y-78449000D01*
X161316100Y-80499999D02*
X160443000Y-80499999D01*
X161367100Y-80550999D02*
X161367100Y-81390700D01*
X130486091Y-83886091D02*
X129659510Y-83886091D01*
X128920500Y-76895600D02*
X129735301Y-76895600D01*
D76*
X113705000Y-107545000D02*
X113695000Y-107545000D01*
D77*
X161316100Y-82500000D02*
X160443000Y-82500000D01*
X161367100Y-80448999D02*
X161316100Y-80499999D01*
X160443000Y-76499999D02*
X161316100Y-76499999D01*
X161257801Y-81499999D02*
X160443000Y-81499999D01*
X164273100Y-87100000D02*
X163471500Y-87100000D01*
X132949001Y-87100999D02*
X132949001Y-86424100D01*
D76*
X161533050Y-76283050D02*
X161533050Y-82283050D01*
D77*
X128920500Y-82895601D02*
X129793600Y-82895601D01*
X164971500Y-75971500D02*
X165000000Y-76000000D01*
X160443000Y-78500000D02*
X161316100Y-78500000D01*
D76*
X140962500Y-74462500D02*
X140962500Y-74475000D01*
X133195600Y-76500000D02*
X132800000Y-76895600D01*
D77*
X129844600Y-80786300D02*
X129735300Y-80895600D01*
X129659510Y-83886091D02*
X129650000Y-83895601D01*
X161367100Y-77390698D02*
X161257799Y-77499999D01*
X161750000Y-83500000D02*
X162021558Y-83500000D01*
X161367100Y-82449000D02*
X161367100Y-83117100D01*
X161257799Y-77499999D02*
X160443000Y-77499999D01*
D76*
X139200000Y-73900000D02*
X139450000Y-74150000D01*
D77*
X129844600Y-81844600D02*
X129844600Y-80786300D01*
D76*
X130508000Y-92845600D02*
X130508000Y-90208100D01*
D77*
X129793600Y-83895601D02*
X129844600Y-83844601D01*
X129844600Y-78700000D02*
X129844600Y-79786300D01*
X136000000Y-76000000D02*
X135208800Y-76000000D01*
X129735301Y-79895599D02*
X128920500Y-79895599D01*
X163471500Y-87250000D02*
X163471500Y-87463500D01*
X161316100Y-80499999D02*
X161367100Y-80550999D01*
X163471500Y-87100000D02*
X163471500Y-87250000D01*
X163471500Y-84689512D02*
X163471500Y-86028499D01*
X161367100Y-83117100D02*
X161750000Y-83500000D01*
X161367100Y-82449000D02*
X161316100Y-82500000D01*
X129735300Y-80895600D02*
X128920500Y-80895600D01*
X158700000Y-76400000D02*
X160343001Y-76400000D01*
D76*
X164900000Y-75900000D02*
X161916100Y-75900000D01*
D77*
X129844600Y-77004899D02*
X129844600Y-77550000D01*
D76*
X140650000Y-74150000D02*
X140962500Y-74462500D01*
X102824000Y-107366000D02*
X102595000Y-107595000D01*
D77*
X129844600Y-79786300D02*
X129844600Y-80786300D01*
D76*
X140962500Y-74475000D02*
X140925000Y-74512500D01*
D77*
X161367100Y-81390700D02*
X161257801Y-81499999D01*
X164471501Y-86028499D02*
X164471501Y-86901599D01*
X133500000Y-76500000D02*
X133500000Y-74918100D01*
X129844600Y-83844601D02*
X129844600Y-82844601D01*
D76*
X129994600Y-77201000D02*
X130300000Y-76895600D01*
X117500000Y-103750000D02*
X113705000Y-107545000D01*
D80*
%TO.N,GNDA*%
X146300000Y-76050000D02*
X146300000Y-74950000D01*
D77*
X138449000Y-85890700D02*
X138058300Y-85500000D01*
X167087500Y-88087500D02*
X166471500Y-87471500D01*
X165420499Y-85104399D02*
X165471499Y-85155399D01*
X168450000Y-82700000D02*
X168450000Y-81800000D01*
X168913500Y-90826000D02*
X168187500Y-90100000D01*
D80*
X165971500Y-74471499D02*
X165471499Y-74471499D01*
D77*
X166187925Y-84138909D02*
X167300000Y-84138909D01*
X133948999Y-85609299D02*
X133948999Y-86424100D01*
X133470500Y-88895600D02*
X133420500Y-88895600D01*
X164450000Y-92000000D02*
X164550000Y-91900000D01*
X138733000Y-87208099D02*
X137949001Y-86424100D01*
X135550000Y-83450000D02*
X134949000Y-84051000D01*
X165420499Y-85104399D02*
X165420499Y-84906335D01*
X164550000Y-87950000D02*
X164500000Y-87900000D01*
X133203600Y-89200000D02*
X133650000Y-89200000D01*
X163971499Y-85155399D02*
X164022499Y-85104399D01*
X132033000Y-92595600D02*
X132033000Y-93045600D01*
X164982399Y-87332399D02*
X165471499Y-86843300D01*
X168450000Y-81800000D02*
X167500000Y-80850000D01*
X134021501Y-74794598D02*
X133948999Y-74867100D01*
X138058300Y-85500000D02*
X137326834Y-85500000D01*
X164050000Y-87700000D02*
X164614799Y-87700000D01*
X134449000Y-75740200D02*
X134449000Y-74867100D01*
X165471499Y-73598399D02*
X165471499Y-74471499D01*
X165471499Y-85155399D02*
X165471499Y-86028499D01*
X170999000Y-90826000D02*
X168913500Y-90826000D01*
X169471501Y-85155399D02*
X168455011Y-84138909D01*
X135550000Y-78500000D02*
X135550000Y-83450000D01*
X165471499Y-86843300D02*
X165471499Y-86028499D01*
X165500000Y-73569898D02*
X165471499Y-73598399D01*
X135150000Y-78100000D02*
X135550000Y-78500000D01*
D80*
X167971499Y-75394599D02*
X166416098Y-76950000D01*
D77*
X168455011Y-82705011D02*
X168450000Y-82700000D01*
X133948999Y-75798999D02*
X133948999Y-74867100D01*
X165420499Y-84906335D02*
X166187925Y-84138909D01*
X168455011Y-84138909D02*
X168455011Y-82705011D01*
X135550000Y-83723166D02*
X135550000Y-83450000D01*
D80*
X167971499Y-74471499D02*
X167971499Y-75394599D01*
D77*
X135150000Y-77050000D02*
X135150000Y-78100000D01*
X132558301Y-85500000D02*
X133839700Y-85500000D01*
X138733000Y-89058000D02*
X138733000Y-87208099D01*
X138449000Y-86424100D02*
X138449000Y-85890700D01*
X163971499Y-86028499D02*
X163971499Y-85155399D01*
X166471500Y-86028499D02*
X166471500Y-84967409D01*
X134021501Y-72521501D02*
X134021501Y-74794598D01*
X136197166Y-76476000D02*
X135184800Y-76476000D01*
X165550000Y-80850000D02*
X163850000Y-79150000D01*
D76*
X138350000Y-73000000D02*
X140687500Y-73000000D01*
D77*
X132448999Y-86424100D02*
X132448999Y-85609302D01*
X167300000Y-84138909D02*
X168455011Y-84138909D01*
X168187500Y-90100000D02*
X167800000Y-89712500D01*
X133839700Y-85500000D02*
X133948999Y-85609299D01*
X165971500Y-73216000D02*
X165971500Y-74471499D01*
X135184800Y-76476000D02*
X134449000Y-75740200D01*
X132328600Y-92300000D02*
X132033000Y-92595600D01*
X164022499Y-85104399D02*
X165420499Y-85104399D01*
D76*
X140687500Y-73000000D02*
X140900000Y-72787500D01*
D77*
X136476000Y-76197166D02*
X136197166Y-76476000D01*
X165500000Y-73100000D02*
X165500000Y-73569898D01*
X133948999Y-85051001D02*
X133948999Y-86424100D01*
X167800000Y-89712500D02*
X167800000Y-89262500D01*
X166471500Y-84967409D02*
X167300000Y-84138909D01*
X135150000Y-77050000D02*
X135150000Y-77000000D01*
X133948999Y-88367101D02*
X133948999Y-86424100D01*
X134949000Y-86424100D02*
X134949000Y-84051000D01*
X169915000Y-86471998D02*
X169471501Y-86028499D01*
X167187500Y-72000000D02*
X165971500Y-73216000D01*
X133420500Y-88895600D02*
X133948999Y-88367101D01*
X171500000Y-90325000D02*
X170999000Y-90826000D01*
X134500000Y-73000000D02*
X134500000Y-74993001D01*
X132033000Y-93045600D02*
X132233000Y-92845600D01*
X136448999Y-74867100D02*
X136476000Y-74894101D01*
X169471501Y-86028499D02*
X169471501Y-85155399D01*
X167087500Y-88550000D02*
X167087500Y-88087500D01*
X163850000Y-79150000D02*
X163850000Y-76950000D01*
X132448999Y-85609302D02*
X132558301Y-85500000D01*
X132033000Y-93045600D02*
X137054400Y-93045600D01*
X137054400Y-93045600D02*
X137100000Y-93000000D01*
X136500000Y-74918101D02*
X136448999Y-74867100D01*
X167800000Y-89262500D02*
X167087500Y-88550000D01*
X164614799Y-87700000D02*
X164982399Y-87332399D01*
X137326834Y-85500000D02*
X135550000Y-83723166D01*
X164550000Y-91900000D02*
X164550000Y-87950000D01*
D80*
X146300000Y-74950000D02*
X146750000Y-74500000D01*
D77*
X135150000Y-77000000D02*
X133948999Y-75798999D01*
X167500000Y-80850000D02*
X165550000Y-80850000D01*
X134021501Y-72521501D02*
X134500000Y-73000000D01*
X132233000Y-90170600D02*
X133203600Y-89200000D01*
X136476000Y-74894101D02*
X136476000Y-76197166D01*
X132233000Y-92845600D02*
X132233000Y-90170600D01*
X134949000Y-84051000D02*
X133948999Y-85051001D01*
D80*
X166416098Y-76950000D02*
X163850000Y-76950000D01*
D77*
X166471500Y-87471500D02*
X166471500Y-86028499D01*
X138875000Y-89200000D02*
X138733000Y-89058000D01*
%TO.N,/VDD11*%
X155451057Y-93909000D02*
X155360057Y-94000000D01*
D76*
X155000000Y-97900000D02*
X155000000Y-95918298D01*
D77*
X157500000Y-94500000D02*
X156500000Y-94500000D01*
X154513535Y-99273001D02*
X155283535Y-99273001D01*
D76*
X155000000Y-95918298D02*
X154720000Y-95638298D01*
D77*
X153375000Y-98750000D02*
X153690201Y-98750000D01*
X156091509Y-99117000D02*
X156573000Y-99117000D01*
X155767593Y-99116999D02*
X155767592Y-99117000D01*
X156301000Y-94261057D02*
X155948943Y-93909000D01*
X154927500Y-94000000D02*
X154720000Y-94207500D01*
X156091508Y-99116999D02*
X156091509Y-99117000D01*
X155439535Y-99116999D02*
X155763451Y-99117000D01*
X155439534Y-99117000D02*
X155439536Y-99117000D01*
X153375000Y-99750000D02*
X154036536Y-99750000D01*
X154356536Y-99430000D02*
X154513535Y-99273001D01*
X157580000Y-98110000D02*
X157730000Y-98110000D01*
D76*
X154579000Y-98321000D02*
X155000000Y-97900000D01*
D77*
X154281563Y-99504973D02*
X154356536Y-99430000D01*
X158000000Y-95000000D02*
X157500000Y-94500000D01*
X153690201Y-98750000D02*
X154119201Y-98321000D01*
X156500000Y-94500000D02*
X156301000Y-94301000D01*
X156301000Y-94301000D02*
X156301000Y-94261057D01*
D76*
X154579000Y-98321000D02*
X154119201Y-98321000D01*
D77*
X154036536Y-99750000D02*
X154281563Y-99504973D01*
X156573000Y-99117000D02*
X156970000Y-98720000D01*
D76*
X154720000Y-94207500D02*
X154720000Y-95300000D01*
D77*
X155439536Y-99117000D02*
X155439535Y-99116999D01*
X155767592Y-99117000D02*
X156091508Y-99116999D01*
D76*
X153962500Y-93450000D02*
X154720000Y-94207500D01*
D77*
X156970000Y-98720000D02*
X157580000Y-98110000D01*
X155283535Y-99273001D02*
X155439534Y-99117000D01*
X154281563Y-99504973D02*
X154281563Y-99504972D01*
X155763451Y-99117000D02*
X155767593Y-99116999D01*
X154499999Y-101749999D02*
X153375000Y-101749999D01*
D76*
X154720000Y-95638298D02*
X154720000Y-95300000D01*
D77*
X155948943Y-93909000D02*
X155451057Y-93909000D01*
X155360057Y-94000000D02*
X154927500Y-94000000D01*
X154499999Y-101749999D02*
X156040000Y-101750000D01*
X156970000Y-98720000D02*
X156750000Y-98500000D01*
%TO.N,/VDDHPA*%
X153375000Y-102250001D02*
X154000001Y-102250001D01*
X154500000Y-102750000D02*
X156040000Y-102750000D01*
X154000001Y-102250001D02*
X154500000Y-102750000D01*
D82*
%TO.N,/RF*%
X153674651Y-104682842D02*
X153674651Y-105612842D01*
X153674651Y-105612842D02*
X153604651Y-105682842D01*
X153625000Y-103011401D02*
X153375000Y-102761401D01*
X153625000Y-104698000D02*
X153625000Y-103011401D01*
%TO.N,/RF circuitry & antennas/RF_MATCH*%
X153654651Y-107682842D02*
X153654651Y-109883842D01*
X153654651Y-109883842D02*
X153574651Y-109963842D01*
X153604651Y-107632842D02*
X153654651Y-107682842D01*
X153604651Y-106652842D02*
X153604651Y-107632842D01*
D77*
%TO.N,Net-(D1-K)*%
X137780000Y-100250000D02*
X136000000Y-100250000D01*
%TO.N,/LED*%
X146625000Y-100250000D02*
X138750000Y-100250000D01*
D76*
%TO.N,Net-(D2-A)*%
X105785000Y-113168000D02*
X105785000Y-110111000D01*
X105785000Y-110111000D02*
X105945000Y-109951000D01*
D77*
%TO.N,/SWDIO*%
X130650000Y-107750000D02*
X105000000Y-82100000D01*
X145209521Y-107749000D02*
X130651000Y-107749000D01*
X105000000Y-80700000D02*
X105000000Y-80800000D01*
X105000000Y-73800000D02*
X105020000Y-73780000D01*
X105020000Y-73780000D02*
X105020000Y-69100000D01*
X105000000Y-73900000D02*
X105000000Y-73800000D01*
X105020000Y-69100000D02*
X104720000Y-68800000D01*
X148249559Y-104708962D02*
X145209521Y-107749000D01*
X105000000Y-82100000D02*
X105000000Y-80700000D01*
X148249559Y-103375000D02*
X148249559Y-104708962D01*
%TO.N,/SWCLK*%
X131400000Y-105500000D02*
X130600000Y-105500000D01*
X146151307Y-105500000D02*
X131400000Y-105500000D01*
X102480000Y-69100000D02*
X102180000Y-68800000D01*
X102480000Y-71880000D02*
X102480000Y-69100000D01*
X147749433Y-103375000D02*
X147749433Y-103901874D01*
X147749433Y-103901874D02*
X146151307Y-105500000D01*
X102500000Y-71900000D02*
X102480000Y-71880000D01*
X130600000Y-105500000D02*
X102500000Y-77400000D01*
%TO.N,/SWD_Traces*%
X99640000Y-71100000D02*
X99640000Y-68800000D01*
X145894983Y-103480017D02*
X132020017Y-103480017D01*
X146625000Y-102750000D02*
X145894983Y-103480017D01*
X132020017Y-103480017D02*
X99640000Y-71100000D01*
%TO.N,/USART2_RX*%
X145999999Y-102250001D02*
X145500000Y-102750000D01*
X146625000Y-102250001D02*
X145999999Y-102250001D01*
X89400000Y-123400000D02*
X87610000Y-123400000D01*
%TO.N,/USART2_TX*%
X88540000Y-120800000D02*
X89500000Y-121760000D01*
X91440000Y-121760000D02*
X89500000Y-121760000D01*
X150725000Y-103375000D02*
X150750189Y-103375000D01*
X144400000Y-110100000D02*
X136300000Y-110100000D01*
X150701063Y-103798937D02*
X150701063Y-103398937D01*
X145900000Y-108600000D02*
X150701063Y-103798937D01*
X87620000Y-120800000D02*
X88540000Y-120800000D01*
X145900000Y-108600000D02*
X144400000Y-110100000D01*
X136300000Y-110100000D02*
X136400000Y-110100000D01*
X150701063Y-103398937D02*
X150725000Y-103375000D01*
X91500000Y-121700000D02*
X91440000Y-121760000D01*
D83*
%TO.N,/GPIO_OUT_CONN*%
X113000000Y-74990000D02*
X119015000Y-68975000D01*
X113000000Y-76480000D02*
X113000000Y-74990000D01*
%TO.N,/GPIO_IN_CONN*%
X114000000Y-75267002D02*
X114000000Y-78940000D01*
X119216002Y-70051000D02*
X114000000Y-75267002D01*
X120479000Y-70051000D02*
X119216002Y-70051000D01*
X121555000Y-68975000D02*
X120479000Y-70051000D01*
D76*
%TO.N,/Power*%
X91000000Y-114500000D02*
X92287500Y-114500000D01*
X82000000Y-114540000D02*
X90200000Y-114540000D01*
X92287500Y-113850000D02*
X92287500Y-114500000D01*
X92287500Y-113560500D02*
X93060500Y-112787500D01*
X92287500Y-113850000D02*
X92287500Y-113560500D01*
X90200000Y-114540000D02*
X90240000Y-114500000D01*
X90140000Y-115360000D02*
X91000000Y-114500000D01*
X89700000Y-115360000D02*
X90140000Y-115360000D01*
X90240000Y-114500000D02*
X91000000Y-114500000D01*
X93060500Y-112787500D02*
X94000000Y-112787500D01*
D79*
%TO.N,/VLXSMPS*%
X151750441Y-96625000D02*
X151750441Y-95800441D01*
D76*
X151727839Y-93559661D02*
X151727839Y-95899000D01*
X151837500Y-93450000D02*
X151727839Y-93559661D01*
D77*
%TO.N,Net-(U1-NRST)*%
X131400000Y-115400000D02*
X141000000Y-115400000D01*
X152823775Y-103448082D02*
X152750693Y-103375000D01*
X150000000Y-106400000D02*
X141000000Y-115400000D01*
X152823775Y-104050000D02*
X152823775Y-103448082D01*
D76*
%TO.N,/USB-C circuit/USB_VBUS*%
X111295000Y-112295000D02*
X111295000Y-113351000D01*
X85480000Y-74780000D02*
X84250000Y-74780000D01*
X88350000Y-72000000D02*
X88350000Y-73152500D01*
X111295000Y-113351000D02*
X112145000Y-114201000D01*
X93150000Y-73152500D02*
X93150000Y-72150000D01*
X88350000Y-74527500D02*
X88077500Y-74800000D01*
X88350000Y-73152500D02*
X88350000Y-74527500D01*
X84250000Y-74780000D02*
X83980000Y-75050000D01*
X85500000Y-74800000D02*
X85480000Y-74780000D01*
X93150000Y-72150000D02*
X93000000Y-72000000D01*
X88077500Y-74800000D02*
X85500000Y-74800000D01*
D77*
%TO.N,/USB-C circuit/MCP_NRST*%
X91250000Y-83800000D02*
X90375000Y-83800000D01*
X85125000Y-78550000D02*
X85000000Y-78550000D01*
X92095000Y-86215000D02*
X92095000Y-84645000D01*
X92095000Y-84645000D02*
X91250000Y-83800000D01*
D76*
X85230000Y-78550000D02*
X83980000Y-78550000D01*
D77*
X90375000Y-83800000D02*
X85125000Y-78550000D01*
%TO.N,/USB-C circuit/USB_CC1*%
X96900000Y-71250000D02*
X92500000Y-71250000D01*
X92000000Y-71750000D02*
X92000000Y-73152500D01*
X92500000Y-71250000D02*
X92000000Y-71750000D01*
%TO.N,/USB-C circuit/USB_CC2*%
X89000000Y-71500000D02*
X88750000Y-71250000D01*
X89000000Y-73152500D02*
X89000000Y-71500000D01*
X88750000Y-71250000D02*
X84400000Y-71250000D01*
D76*
%TO.N,unconnected-(SW1-Pad2)*%
X118550000Y-108650000D02*
X118800000Y-108900000D01*
D77*
%TO.N,/SPI3_MISO*%
X140650000Y-87950000D02*
X142750000Y-90050000D01*
X146050002Y-97749999D02*
X146625000Y-97749999D01*
X140477500Y-79395600D02*
X139104400Y-79395600D01*
X140600000Y-86975000D02*
X140650000Y-87025000D01*
X140650000Y-87025000D02*
X140650000Y-87950000D01*
X146000000Y-97699997D02*
X146050002Y-97749999D01*
X172500000Y-86774997D02*
X172500000Y-86000000D01*
X172500000Y-86000000D02*
X172000000Y-85500000D01*
X171000000Y-79000000D02*
X172000000Y-78999999D01*
%TO.N,/USART1_RX*%
X143649000Y-96851000D02*
X145500000Y-95000000D01*
D83*
X109500000Y-96000000D02*
X113600000Y-100100000D01*
D77*
X150000045Y-95576915D02*
X149749937Y-95827023D01*
X150000045Y-95454633D02*
X150000045Y-95576915D01*
D83*
X101500000Y-88000000D02*
X109500000Y-96000000D01*
X113600000Y-100100000D02*
X118900000Y-100100000D01*
X118900000Y-100100000D02*
X119000000Y-100000000D01*
D77*
X101500000Y-86270000D02*
X99770000Y-86270000D01*
X149749937Y-95827023D02*
X149749937Y-96625000D01*
X126564401Y-96851000D02*
X143649000Y-96851000D01*
D83*
X101500000Y-86270000D02*
X101500000Y-88000000D01*
D77*
X99770000Y-86270000D02*
X99715000Y-86215000D01*
D83*
%TO.N,/USART1_TX*%
X108000000Y-88500000D02*
X109000000Y-88500000D01*
D77*
X146500000Y-93349000D02*
X143651000Y-93349000D01*
X127277818Y-96000000D02*
X124638909Y-93361091D01*
X108000000Y-88500000D02*
X98500000Y-79000000D01*
X150775000Y-93657888D02*
X151226839Y-94109727D01*
X150776000Y-91000000D02*
X150776000Y-92999000D01*
X150775000Y-92001000D02*
X150775000Y-93657888D01*
X143651000Y-93349000D02*
X141000000Y-96000000D01*
X98500000Y-79000000D02*
X98500000Y-77230000D01*
D83*
X109000000Y-88500000D02*
X116500000Y-96000000D01*
D77*
X141000000Y-96000000D02*
X127277818Y-96000000D01*
X150776000Y-92000000D02*
X150775000Y-92001000D01*
X150776000Y-91000000D02*
X150776000Y-92000000D01*
D83*
X117500000Y-96000000D02*
X118000000Y-96500000D01*
D77*
X151226839Y-96601524D02*
X151250315Y-96625000D01*
X151226839Y-94109727D02*
X151226839Y-96601524D01*
D83*
X116500000Y-96000000D02*
X117500000Y-96000000D01*
D77*
%TO.N,Net-(U11-VCAP1)*%
X169912500Y-90100000D02*
X169912500Y-88415076D01*
X168022499Y-86952599D02*
X167971499Y-86901599D01*
X169912500Y-88415076D02*
X168450023Y-86952599D01*
X168450023Y-86952599D02*
X168022499Y-86952599D01*
X167971499Y-86901599D02*
X167971499Y-86028499D01*
%TO.N,/SPI3_MOSI*%
X171126900Y-83500000D02*
X172000000Y-83500000D01*
X171051000Y-83551000D02*
X171075900Y-83551000D01*
X171000000Y-84314799D02*
X171075900Y-84390699D01*
X171075900Y-83551000D02*
X171126900Y-83500000D01*
X171000000Y-83500000D02*
X171000000Y-84314799D01*
X171673166Y-84390699D02*
X173101000Y-85818533D01*
X141621435Y-83895601D02*
X142125834Y-84400000D01*
X143450000Y-88600000D02*
X141900000Y-87050000D01*
X140477500Y-83895601D02*
X141621435Y-83895601D01*
X173101000Y-88899000D02*
X172500000Y-89500000D01*
X142125834Y-84400000D02*
X142500000Y-84400000D01*
X143450000Y-88969084D02*
X143450000Y-88600000D01*
X171000000Y-83500000D02*
X171051000Y-83551000D01*
X173101000Y-85818533D02*
X173101000Y-88899000D01*
X146000000Y-98300000D02*
X146575001Y-98300000D01*
X171075900Y-84390699D02*
X171673166Y-84390699D01*
X146575001Y-98300000D02*
X146625000Y-98250001D01*
%TO.N,/SPI3_SCK*%
X138296447Y-84798000D02*
X139003226Y-84798000D01*
X142496389Y-86000000D02*
X141500000Y-86000000D01*
X144587017Y-91406341D02*
X144587017Y-88090628D01*
X138354400Y-80895600D02*
X140477500Y-80895600D01*
X137792355Y-81457645D02*
X137792355Y-82549999D01*
X140205226Y-86000000D02*
X141500000Y-86000000D01*
X146250000Y-97250000D02*
X146625000Y-97250000D01*
X144587017Y-88090628D02*
X142496389Y-86000000D01*
X137000000Y-83501553D02*
X138296447Y-84798000D01*
X146250000Y-97250000D02*
X146000000Y-97000000D01*
X172000000Y-80499999D02*
X173000000Y-80500000D01*
X139003226Y-84798000D02*
X140205226Y-86000000D01*
X138354400Y-80895600D02*
X137792355Y-81457645D01*
%TO.N,Net-(U11-VCAP2)*%
X170728202Y-88600000D02*
X168971500Y-86843298D01*
X171500000Y-88600000D02*
X170728202Y-88600000D01*
X168971500Y-86843298D02*
X168971500Y-86028499D01*
%TO.N,/USB-C circuit/USB_D+*%
X90000000Y-73152500D02*
X90000000Y-75032499D01*
X90000000Y-75032499D02*
X89555000Y-75477499D01*
X91000000Y-72325500D02*
X91000000Y-73152500D01*
X89555000Y-75477499D02*
X89555000Y-76865000D01*
X90049000Y-72276500D02*
X90951000Y-72276500D01*
X90951000Y-72276500D02*
X91000000Y-72325500D01*
X90000000Y-72325500D02*
X90049000Y-72276500D01*
X90000000Y-73152500D02*
X90000000Y-72325500D01*
%TO.N,/USB-C circuit/USB_D-*%
X91500000Y-74279500D02*
X91229500Y-74550000D01*
X90700000Y-74550000D02*
X90500000Y-74750000D01*
X90825000Y-76865000D02*
X90825000Y-75477499D01*
X90825000Y-76865000D02*
X91000000Y-76690000D01*
X91500000Y-73152500D02*
X91500000Y-74279500D01*
X90500000Y-75152499D02*
X90500000Y-74750000D01*
X90500000Y-74750000D02*
X90500000Y-74550000D01*
X90500000Y-73152500D02*
X90500000Y-74550000D01*
X90825000Y-75477499D02*
X90500000Y-75152499D01*
X91229500Y-74550000D02*
X90700000Y-74550000D01*
%TO.N,Net-(U10-VCAP3)*%
X135921501Y-72521501D02*
X135449001Y-72994001D01*
X136012416Y-72612416D02*
X135921501Y-72521501D01*
X136037588Y-72612416D02*
X136000002Y-72650002D01*
X135449001Y-72994001D02*
X135449001Y-74867100D01*
X136871501Y-72612416D02*
X136012416Y-72612416D01*
%TO.N,/USART2_TX_CONN*%
X86000000Y-120800000D02*
X85985000Y-120815000D01*
X86600000Y-120800000D02*
X86000000Y-120800000D01*
X85985000Y-120815000D02*
X82425000Y-120815000D01*
%TO.N,/USART2_RX_CONN*%
X82470000Y-123400000D02*
X82425000Y-123355000D01*
X86590000Y-123400000D02*
X82470000Y-123400000D01*
%TO.N,/GPIO_OUT*%
X110660000Y-77600000D02*
X110760000Y-77500000D01*
X110760000Y-77500000D02*
X113000000Y-77500000D01*
X147745838Y-93899000D02*
X143601000Y-93899000D01*
X141000000Y-96500000D02*
X127000000Y-96500000D01*
X143601000Y-93899000D02*
X141000000Y-96500000D01*
X148061000Y-94214162D02*
X147745838Y-93899000D01*
X113000000Y-82500000D02*
X113000000Y-77500000D01*
X148749685Y-96150000D02*
X148061000Y-95461315D01*
X148061000Y-95461315D02*
X148061000Y-94214162D01*
X148749685Y-96625000D02*
X148749685Y-96150000D01*
X127000000Y-96500000D02*
X113000000Y-82500000D01*
%TO.N,/GPIO_IN*%
X150250063Y-96000063D02*
X150250063Y-96625000D01*
D80*
X129091000Y-95051000D02*
X136319280Y-95051000D01*
X138571280Y-92799000D02*
X144500000Y-92799000D01*
X136319280Y-95051000D02*
X138571280Y-92799000D01*
X114000000Y-79960000D02*
X129091000Y-95051000D01*
D77*
%TO.N,Net-(U11-VCAP3)*%
X167624674Y-72945226D02*
X166971501Y-73598399D01*
X166971501Y-73598399D02*
X166971501Y-74471499D01*
X167624674Y-72911184D02*
X168001316Y-72911184D01*
X168001316Y-72911184D02*
X168912500Y-72000000D01*
X167624674Y-72911184D02*
X167624674Y-72945226D01*
D76*
%TO.N,Net-(D3-A)*%
X113564000Y-118544000D02*
X113645000Y-118625000D01*
X113645000Y-110625000D02*
X113645000Y-118625000D01*
X109595000Y-118544000D02*
X113564000Y-118544000D01*
%TO.N,Net-(U2-FB)*%
X94350000Y-121450000D02*
X94850000Y-121950000D01*
X94850000Y-121950000D02*
X95700000Y-121950000D01*
X94350000Y-121450000D02*
X94350000Y-120130555D01*
X94350000Y-120130555D02*
X94650000Y-119830555D01*
X94650000Y-119830555D02*
X94650000Y-117512500D01*
%TO.N,Net-(Q2-D)*%
X85230000Y-77550000D02*
X83980000Y-77550000D01*
X83980000Y-76050000D02*
X83980000Y-77550000D01*
%TO.N,/USB-C circuit/R_LED*%
X98250000Y-88300000D02*
X98750000Y-88800000D01*
X97750000Y-89300000D02*
X98250000Y-89300000D01*
X97750000Y-88300000D02*
X98250000Y-88300000D01*
X98760000Y-88790000D02*
X100750000Y-88790000D01*
X98250000Y-89300000D02*
X98750000Y-88800000D01*
X98750000Y-88800000D02*
X98760000Y-88790000D01*
%TO.N,/USB-C circuit/RXLED*%
X94635000Y-87097000D02*
X95838000Y-88300000D01*
X95838000Y-88300000D02*
X96780000Y-88300000D01*
X94635000Y-86215000D02*
X94635000Y-87097000D01*
%TO.N,/USB-C circuit/TXLED*%
X93365000Y-86915000D02*
X95750000Y-89300000D01*
X93365000Y-86215000D02*
X93365000Y-86915000D01*
X95750000Y-89300000D02*
X96780000Y-89300000D01*
%TO.N,Net-(R8-Pad2)*%
X126250000Y-109150000D02*
X126000000Y-108900000D01*
X128140000Y-108900000D02*
X128390000Y-109150000D01*
D77*
X126050000Y-109150000D02*
X125900000Y-109000000D01*
D76*
X126000000Y-108900000D02*
X128140000Y-108900000D01*
%TO.N,/USB-C circuit/OSC1*%
X88315000Y-88540000D02*
X89555000Y-87300000D01*
X88315000Y-90225000D02*
X88315000Y-88540000D01*
X89555000Y-87300000D02*
X89555000Y-86215000D01*
X85000000Y-93540000D02*
X88315000Y-90225000D01*
%TO.N,/USB-C circuit/OSC2*%
X94500000Y-91200000D02*
X94500000Y-93540000D01*
X90825000Y-86215000D02*
X90825000Y-87180000D01*
X92185000Y-88885000D02*
X94500000Y-91200000D01*
X92185000Y-88540000D02*
X92185000Y-88885000D01*
X90825000Y-87180000D02*
X92185000Y-88540000D01*
%TO.N,Net-(D4-A)*%
X105770000Y-101250000D02*
X107265000Y-101250000D01*
D77*
%TO.N,Net-(U10-VCAP1)*%
X137100000Y-91275000D02*
X137100000Y-90425000D01*
X136219500Y-87468400D02*
X136448999Y-87238901D01*
X137100000Y-90425000D02*
X136219500Y-89544500D01*
X136219500Y-89544500D02*
X136219500Y-87468400D01*
X136448999Y-87238901D02*
X136448999Y-86424100D01*
%TO.N,Net-(U10-VCAP2)*%
X137449000Y-88367100D02*
X137449000Y-86424100D01*
X136920500Y-88895600D02*
X137449000Y-88367100D01*
%TO.N,Net-(U11-VCAP4)*%
X166971501Y-86721501D02*
X166971501Y-86028499D01*
X168812500Y-88550000D02*
X168262500Y-88000000D01*
X168250000Y-88000000D02*
X166971501Y-86721501D01*
X168262500Y-88000000D02*
X168250000Y-88000000D01*
%TO.N,Net-(U10-VCAP4)*%
X135320500Y-88895600D02*
X135449001Y-88767099D01*
X135449001Y-88767099D02*
X135449001Y-86424100D01*
D79*
%TO.N,Net-(U2-PG)*%
X95300000Y-119400000D02*
X95350000Y-119450000D01*
X95300000Y-117512500D02*
X95300000Y-119400000D01*
D77*
%TO.N,Net-(U10-IN1P)*%
X115050000Y-75350000D02*
X115700000Y-76000000D01*
X115449000Y-78678232D02*
X121166368Y-84395600D01*
X121166368Y-84395600D02*
X128920500Y-84395600D01*
X116000000Y-76000000D02*
X115449000Y-76551000D01*
X115449000Y-76551000D02*
X115449000Y-78678232D01*
X115700000Y-76000000D02*
X116000000Y-76000000D01*
D76*
%TO.N,unconnected-(SW2-Pad2)*%
X118400000Y-115000000D02*
X118800000Y-115400000D01*
D77*
%TO.N,Net-(U10-SRB1)*%
X144925000Y-83550000D02*
X144950000Y-83575000D01*
X144000000Y-84300000D02*
X144000000Y-84050000D01*
D80*
X130873100Y-86500000D02*
X130949000Y-86424100D01*
X132800000Y-83150000D02*
X129450000Y-86500000D01*
X134200000Y-83150000D02*
X132800000Y-83150000D01*
X134636091Y-83586091D02*
X134200000Y-83150000D01*
X129450000Y-86500000D02*
X130873100Y-86500000D01*
D77*
X142000000Y-85000000D02*
X140500000Y-85000000D01*
X144000000Y-84050000D02*
X144500000Y-83550000D01*
X144500000Y-83550000D02*
X144925000Y-83550000D01*
%TO.N,Net-(U10-IN2P)*%
X118500000Y-77200000D02*
X118500000Y-75650000D01*
X123395600Y-83395600D02*
X128920500Y-83395600D01*
X118500000Y-81000000D02*
X121000000Y-81000000D01*
X118500000Y-75650000D02*
X119000000Y-75150000D01*
X118050000Y-75500000D02*
X118650000Y-75500000D01*
X118050000Y-77650000D02*
X118500000Y-77200000D01*
X116500000Y-79000000D02*
X118500000Y-81000000D01*
X118650000Y-75500000D02*
X119000000Y-75150000D01*
X121000000Y-81000000D02*
X123395600Y-83395600D01*
%TO.N,Net-(U10-IN3P)*%
X116050000Y-78500000D02*
X116000000Y-78450000D01*
X121500000Y-80500000D02*
X123395599Y-82395599D01*
X123395599Y-82395599D02*
X128920500Y-82395599D01*
X117500000Y-78500000D02*
X119500000Y-80500000D01*
X119500000Y-80500000D02*
X121500000Y-80500000D01*
X117500000Y-78500000D02*
X116050000Y-78500000D01*
%TO.N,Net-(U10-IN4P)*%
X121048447Y-77617839D02*
X121500000Y-77166286D01*
X121500000Y-77166286D02*
X121500000Y-75150000D01*
X119872812Y-80000000D02*
X122000000Y-80000000D01*
X121048447Y-77998275D02*
X121048447Y-77617839D01*
X119297812Y-79425000D02*
X119872812Y-80000000D01*
X120850000Y-75150000D02*
X121500000Y-75150000D01*
X120550000Y-75450000D02*
X120850000Y-75150000D01*
X123395601Y-81395601D02*
X128920500Y-81395601D01*
X122000000Y-80000000D02*
X123395601Y-81395601D01*
%TO.N,Net-(U10-IN5P)*%
X119975000Y-78650000D02*
X120000000Y-78675000D01*
X121000000Y-79500000D02*
X122500000Y-79500000D01*
X122500000Y-79500000D02*
X123395600Y-80395600D01*
X123395600Y-80395600D02*
X128920500Y-80395600D01*
X120150000Y-78650000D02*
X121000000Y-79500000D01*
X120025000Y-78650000D02*
X120150000Y-78650000D01*
X120000000Y-78675000D02*
X120025000Y-78650000D01*
X118500000Y-78650000D02*
X119975000Y-78650000D01*
%TO.N,Net-(U10-IN6P)*%
X124000000Y-75150000D02*
X123474794Y-75675206D01*
X123500000Y-79500000D02*
X123604400Y-79395600D01*
X123604400Y-79395600D02*
X128920500Y-79395600D01*
X123474794Y-75675206D02*
X123474794Y-78501460D01*
X123050000Y-75150000D02*
X124000000Y-75150000D01*
%TO.N,Net-(U10-IN7P)*%
X122500000Y-78500000D02*
X123000000Y-79000000D01*
X121500000Y-78500000D02*
X122500000Y-78500000D01*
X123000000Y-79000000D02*
X127442999Y-79000000D01*
X128047400Y-78395599D02*
X128920500Y-78395599D01*
X127442999Y-79000000D02*
X128047400Y-78395599D01*
%TO.N,Net-(U10-IN8P)*%
X128829805Y-77486294D02*
X128920500Y-77395599D01*
X127986749Y-77486294D02*
X128829805Y-77486294D01*
X124500000Y-78150000D02*
X125500000Y-78150000D01*
%TO.N,Net-(U11-SRB1)*%
X162175003Y-85732002D02*
X162471500Y-86028499D01*
X162175003Y-85000000D02*
X162175003Y-85732002D01*
X148150000Y-82000000D02*
X149000000Y-82000000D01*
%TO.N,Net-(U11-IN1P)*%
X148000000Y-79673166D02*
X152326833Y-83999999D01*
X148350000Y-74650000D02*
X148000000Y-75000000D01*
X148000000Y-75000000D02*
X148000000Y-79673166D01*
X152326833Y-83999999D02*
X160443000Y-83999999D01*
X149000000Y-74650000D02*
X148350000Y-74650000D01*
%TO.N,Net-(U11-IN2P)*%
X151587755Y-75312245D02*
X151587755Y-76450000D01*
X152122047Y-74777953D02*
X151627953Y-74777953D01*
X152000000Y-83000000D02*
X160443000Y-82999999D01*
X151500000Y-82500000D02*
X152000000Y-83000000D01*
X151627953Y-74777953D02*
X151500000Y-74650000D01*
X152300000Y-74600000D02*
X151587755Y-75312245D01*
X152300000Y-74600000D02*
X152122047Y-74777953D01*
X151587755Y-76450000D02*
X151610876Y-76473121D01*
X151610876Y-76473121D02*
X151610876Y-81389124D01*
%TO.N,Net-(U11-IN3P)*%
X149100000Y-79150000D02*
X149100000Y-78850000D01*
X149950000Y-78000000D02*
X150500000Y-78000000D01*
X149100000Y-79600000D02*
X151499998Y-81999998D01*
X149100000Y-79150000D02*
X149100000Y-79600000D01*
X151499998Y-81999998D02*
X160443000Y-81999998D01*
X149100000Y-78850000D02*
X149950000Y-78000000D01*
%TO.N,Net-(U11-IN4P)*%
X154000000Y-80474999D02*
X154525001Y-81000000D01*
X154525001Y-81000000D02*
X160443000Y-81000000D01*
X154024000Y-75900000D02*
X154024000Y-79352248D01*
X154024000Y-75900000D02*
X154024000Y-74674000D01*
X154024000Y-74674000D02*
X154000000Y-74650000D01*
X154024000Y-79352248D02*
X154085876Y-79414124D01*
%TO.N,Net-(U11-IN5P)*%
X153549000Y-78850000D02*
X152925000Y-78226000D01*
X153549000Y-78850000D02*
X153549000Y-79549000D01*
X152925000Y-77725000D02*
X153000000Y-77650000D01*
X153999999Y-79999999D02*
X160443000Y-79999999D01*
X153549000Y-79549000D02*
X153999999Y-79999999D01*
X152925000Y-78226000D02*
X152925000Y-77725000D01*
%TO.N,Net-(U11-IN6P)*%
X156000000Y-75500000D02*
X157075000Y-74425000D01*
X156025000Y-78975000D02*
X156049999Y-78999999D01*
X156049999Y-78999999D02*
X160443000Y-78999999D01*
X156000000Y-75500000D02*
X156000000Y-78000000D01*
X157075000Y-74425000D02*
X159350000Y-74425000D01*
%TO.N,Net-(U11-IN7P)*%
X159569900Y-77999998D02*
X160443000Y-77999998D01*
X155525000Y-78500000D02*
X159069898Y-78500000D01*
X155000000Y-78000000D02*
X155000000Y-77650000D01*
X155525000Y-78500000D02*
X155500000Y-78500000D01*
X155500000Y-78500000D02*
X155000000Y-78000000D01*
X159069898Y-78500000D02*
X159569900Y-77999998D01*
%TO.N,Net-(U11-IN8P)*%
X159000002Y-76999998D02*
X160443000Y-76999998D01*
X158500000Y-77500000D02*
X159000002Y-76999998D01*
X157500000Y-77500000D02*
X158500000Y-77500000D01*
%TO.N,Net-(U10-BIASIN)*%
X133400000Y-71250000D02*
X131949000Y-72701000D01*
X146525000Y-73150000D02*
X144100000Y-73150000D01*
X131949000Y-72701000D02*
X131949000Y-74867100D01*
X141750000Y-71250000D02*
X133400000Y-71250000D01*
X146600000Y-73075000D02*
X146525000Y-73150000D01*
X144100000Y-73150000D02*
X144000000Y-73050000D01*
X143650000Y-73150000D02*
X141750000Y-71250000D01*
%TO.N,/ADC/BIAS_DRV*%
X144000000Y-71500000D02*
X144000000Y-70000000D01*
X146600000Y-71425000D02*
X146600000Y-71100000D01*
X131474000Y-73500000D02*
X131474000Y-74842099D01*
X146500000Y-70725000D02*
X148250000Y-68975000D01*
X146600000Y-71100000D02*
X146500000Y-71000000D01*
X146600000Y-71425000D02*
X146525000Y-71500000D01*
X146500000Y-71000000D02*
X146500000Y-70725000D01*
X131474000Y-74842099D02*
X131448999Y-74867100D01*
X146525000Y-71500000D02*
X144000000Y-71500000D01*
D83*
%TO.N,/ADC/IN7P*%
X133140288Y-70623000D02*
X132212288Y-71551000D01*
X122500000Y-74956123D02*
X122500000Y-76850000D01*
X127599000Y-71551000D02*
X125024000Y-74126000D01*
X125024000Y-74126000D02*
X123330123Y-74126000D01*
X123330123Y-74126000D02*
X122500000Y-74956123D01*
X132212288Y-71551000D02*
X127599000Y-71551000D01*
X139457000Y-70623000D02*
X133140288Y-70623000D01*
X141580000Y-68500000D02*
X139457000Y-70623000D01*
%TO.N,/ADC/IN3P*%
X130400000Y-69520000D02*
X130400000Y-69650000D01*
X131420000Y-68500000D02*
X130400000Y-69520000D01*
X117100000Y-76450000D02*
X117500000Y-76850000D01*
X117100000Y-75950000D02*
X117100000Y-76450000D01*
%TO.N,/ADC/IN1P*%
X124950000Y-69890000D02*
X126340000Y-68500000D01*
X124300000Y-69900000D02*
X124310000Y-69890000D01*
X116750000Y-73550000D02*
X116750000Y-73600000D01*
X124310000Y-69890000D02*
X124950000Y-69890000D01*
X126340000Y-68500000D02*
X125600000Y-69240000D01*
X116750000Y-73600000D02*
X116000000Y-74350000D01*
%TO.N,/ADC/IN6P*%
X124000000Y-72900000D02*
X124000000Y-73500000D01*
X133015610Y-70322000D02*
X132087610Y-71250000D01*
X137218000Y-70322000D02*
X133015610Y-70322000D01*
X125650000Y-71250000D02*
X124000000Y-72900000D01*
X132087610Y-71250000D02*
X125650000Y-71250000D01*
X139040000Y-68500000D02*
X137218000Y-70322000D01*
%TO.N,/ADC/IN2P*%
X120100000Y-73000000D02*
X119500000Y-73000000D01*
X128880000Y-68500000D02*
X127950000Y-69430000D01*
X127950000Y-69430000D02*
X127950000Y-69700000D01*
X119500000Y-73000000D02*
X119000000Y-73500000D01*
%TO.N,/ADC/IN5P*%
X125500000Y-70800000D02*
X122000000Y-74300000D01*
X119800000Y-75456123D02*
X119800000Y-76700000D01*
X136500000Y-68500000D02*
X135050000Y-69950000D01*
X120000000Y-76900000D02*
X120000000Y-77025000D01*
X132600000Y-69950000D02*
X131750000Y-70800000D01*
X131750000Y-70800000D02*
X125500000Y-70800000D01*
X122000000Y-74300000D02*
X120956123Y-74300000D01*
X120956123Y-74300000D02*
X119800000Y-75456123D01*
X135050000Y-69950000D02*
X132600000Y-69950000D01*
X119800000Y-76700000D02*
X120000000Y-76900000D01*
%TO.N,/ADC/IN4P*%
X133960000Y-68500000D02*
X133150000Y-68500000D01*
X131224000Y-70426000D02*
X124574000Y-70426000D01*
X133150000Y-68500000D02*
X131224000Y-70426000D01*
X124574000Y-70426000D02*
X121500000Y-73500000D01*
%TO.N,/ADC/IN8P*%
X144120000Y-68500000D02*
X141696000Y-70924000D01*
X125500000Y-75150000D02*
X125500000Y-76500000D01*
X133264966Y-70924000D02*
X132336966Y-71852000D01*
X141696000Y-70924000D02*
X133264966Y-70924000D01*
X128798000Y-71852000D02*
X125500000Y-75150000D01*
X132336966Y-71852000D02*
X128798000Y-71852000D01*
D80*
%TO.N,/ADC/SRB1*%
X150790000Y-70038708D02*
X150790000Y-68975000D01*
D77*
X150790000Y-70091648D02*
X150790000Y-68975000D01*
X145025000Y-82000000D02*
X144950000Y-81925000D01*
D80*
X144950000Y-75931648D02*
X144950000Y-74923292D01*
X147077708Y-73751000D02*
X150790000Y-70038708D01*
X144950000Y-74923292D02*
X146122292Y-73751000D01*
D77*
X144950000Y-81925000D02*
X144950000Y-75931648D01*
X146500000Y-82000000D02*
X145025000Y-82000000D01*
D80*
X146122292Y-73751000D02*
X147077708Y-73751000D01*
D77*
%TO.N,/SPI_CS1*%
X127114401Y-92414401D02*
X127114401Y-88035599D01*
X129250000Y-94550000D02*
X127114401Y-92414401D01*
X139604400Y-81395601D02*
X139429398Y-81570603D01*
X139429398Y-81570603D02*
X139429398Y-82000000D01*
X139389124Y-97560876D02*
X139450000Y-97500000D01*
X140477500Y-81395601D02*
X139604400Y-81395601D01*
X131050000Y-94550000D02*
X129250000Y-94550000D01*
X143900000Y-97500000D02*
X146150000Y-99750000D01*
X139450000Y-97500000D02*
X143900000Y-97500000D01*
X127114401Y-88035599D02*
X133150000Y-82000000D01*
X146150000Y-99750000D02*
X146625000Y-99750000D01*
X133150000Y-82000000D02*
X134100000Y-82000000D01*
%TO.N,/ADC/RESET*%
X154250000Y-97000000D02*
X154202859Y-97000000D01*
X153952859Y-97250000D02*
X154202859Y-97000000D01*
X141895601Y-82895601D02*
X142000000Y-83000000D01*
X157464125Y-89864122D02*
X157464125Y-89855199D01*
X171000000Y-82500000D02*
X172000000Y-82500000D01*
X157464125Y-89855199D02*
X158912983Y-88406341D01*
X152000000Y-87503612D02*
X149996388Y-85500000D01*
X152625000Y-89125000D02*
X152000000Y-88500000D01*
X149996388Y-85500000D02*
X147000000Y-85500000D01*
X152000000Y-88500000D02*
X152000000Y-87503612D01*
X140477500Y-82895601D02*
X141895601Y-82895601D01*
X153375000Y-97250000D02*
X153952859Y-97250000D01*
X154500000Y-91000000D02*
X155414124Y-91914124D01*
X160664124Y-86664124D02*
X161500000Y-87500000D01*
%TO.N,/ADC_DRDY*%
X147148307Y-96524000D02*
X145597751Y-96524000D01*
X136150000Y-82650000D02*
X136150000Y-81200000D01*
X169464124Y-76964124D02*
X170290958Y-76964124D01*
X136450000Y-82950000D02*
X136150000Y-82650000D01*
X170709042Y-76964124D02*
X170964128Y-76964124D01*
X170697166Y-76976000D02*
X170709042Y-76964124D01*
X170302834Y-76976000D02*
X170697166Y-76976000D01*
X162493946Y-83476000D02*
X163005474Y-83476000D01*
X138857838Y-85149000D02*
X137649000Y-85149000D01*
X147249307Y-96625000D02*
X147148307Y-96524000D01*
X144000000Y-88000000D02*
X144000000Y-91500000D01*
X159394898Y-82474998D02*
X159369896Y-82500000D01*
X139254401Y-77395599D02*
X139200000Y-77450000D01*
X144000000Y-91500000D02*
X144500000Y-92000000D01*
X161949758Y-82931812D02*
X162493946Y-83476000D01*
X142825223Y-86825223D02*
X144000000Y-88000000D01*
X137649000Y-85149000D02*
X136450000Y-83950000D01*
X171000002Y-76999998D02*
X172000000Y-76999998D01*
X142500000Y-86500000D02*
X140208838Y-86500000D01*
X136450000Y-83950000D02*
X136450000Y-82950000D01*
X161896436Y-82931812D02*
X161949758Y-82931812D01*
X159369896Y-82500000D02*
X157000000Y-82500000D01*
X145597751Y-96524000D02*
X145475000Y-96646751D01*
X170964128Y-76964124D02*
X171000002Y-76999998D01*
X143249638Y-87249638D02*
X142825223Y-86825223D01*
X143249638Y-87425001D02*
X143249638Y-87249638D01*
X170290958Y-76964124D02*
X170302834Y-76976000D01*
X140477500Y-77395599D02*
X139254401Y-77395599D01*
X140208838Y-86500000D02*
X138857838Y-85149000D01*
X142825223Y-86825223D02*
X142500000Y-86500000D01*
%TO.N,/ADC_CLK*%
X166914124Y-81914124D02*
X166975000Y-81975000D01*
X156992061Y-89493772D02*
X156992061Y-88834773D01*
X166975000Y-81975000D02*
X166914124Y-81975000D01*
X150300000Y-92500000D02*
X150300000Y-90802834D01*
X150602834Y-90500000D02*
X151500000Y-90500000D01*
X140557901Y-82476000D02*
X142149166Y-82476000D01*
X147500000Y-92500000D02*
X145500000Y-90500000D01*
X150300000Y-92500000D02*
X147500000Y-92500000D01*
X143300000Y-83626834D02*
X143300000Y-86300000D01*
X145500000Y-90500000D02*
X145500000Y-88500000D01*
X140477500Y-82395599D02*
X140557901Y-82476000D01*
X142149166Y-82476000D02*
X143300000Y-83626834D01*
X156992061Y-88834773D02*
X161392787Y-84434047D01*
X150750189Y-96625000D02*
X150750189Y-95001650D01*
X170500000Y-82000000D02*
X171999998Y-82000000D01*
X161392787Y-84434047D02*
X162542869Y-84434047D01*
X164739124Y-82525000D02*
X165350000Y-81914124D01*
X145500000Y-88500000D02*
X143300000Y-86300000D01*
X165350000Y-81914124D02*
X166914124Y-81914124D01*
X150300000Y-90802834D02*
X150602834Y-90500000D01*
X151500000Y-90500000D02*
X153000000Y-92000000D01*
X171999998Y-82000000D02*
X172000000Y-81999998D01*
X150750189Y-95001650D02*
X150751839Y-95000000D01*
%TO.N,/ADC/START*%
X159000000Y-89000000D02*
X157500000Y-90500000D01*
X141895600Y-81895600D02*
X142000000Y-82000000D01*
X150000000Y-86000000D02*
X148500000Y-86000000D01*
X140477500Y-81895600D02*
X141895600Y-81895600D01*
X171000000Y-81500000D02*
X172000000Y-81499999D01*
X154250000Y-97750000D02*
X154250000Y-97680620D01*
X151000000Y-89100000D02*
X151000000Y-87000000D01*
X154250000Y-97680620D02*
X154240380Y-97671000D01*
X153375000Y-97749999D02*
X154250000Y-97750000D01*
X151000000Y-87000000D02*
X150000000Y-86000000D01*
%TO.N,/SPI_CS2*%
X145724000Y-98776000D02*
X145000000Y-98052000D01*
X161500000Y-85000000D02*
X160000000Y-86500000D01*
X145976000Y-94612654D02*
X145737346Y-94374000D01*
X146599000Y-98776000D02*
X146000000Y-98776000D01*
X145000000Y-98052000D02*
X145000000Y-96173166D01*
X164573582Y-81000000D02*
X164425000Y-81000000D01*
X145976000Y-95197166D02*
X145976000Y-94612654D01*
X164575000Y-80998582D02*
X164573582Y-81000000D01*
X170000000Y-81000000D02*
X172000000Y-81000000D01*
X164425000Y-81000000D02*
X162900000Y-82525000D01*
X150000000Y-89000000D02*
X150000000Y-87000000D01*
X146625000Y-98750000D02*
X146599000Y-98776000D01*
X145000000Y-96173166D02*
X145976000Y-95197166D01*
X146000000Y-98776000D02*
X145724000Y-98776000D01*
%TO.N,/ADC/PWDN*%
X163097166Y-83001000D02*
X163098166Y-83000000D01*
X162702834Y-83001000D02*
X163097166Y-83001000D01*
X163098166Y-83000000D02*
X166500000Y-83000000D01*
X144150000Y-83225000D02*
X143900000Y-83475000D01*
X154224998Y-81500000D02*
X158500000Y-81500000D01*
X162424000Y-82722166D02*
X162702834Y-83001000D01*
X143325000Y-81875000D02*
X144150000Y-82700000D01*
X141104904Y-83504901D02*
X141100004Y-83500001D01*
X141100004Y-83500001D02*
X140657000Y-83500001D01*
X144150000Y-82700000D02*
X144150000Y-83225000D01*
X154200000Y-81524998D02*
X154224998Y-81500000D01*
X162424000Y-82574000D02*
X162424000Y-82722166D01*
X141999000Y-83600000D02*
X141903901Y-83504901D01*
X141903901Y-83504901D02*
X141104904Y-83504901D01*
X172000000Y-82999999D02*
X170500000Y-83000000D01*
X162250000Y-82400000D02*
X162424000Y-82574000D01*
X143325000Y-80450000D02*
X143325000Y-81875000D01*
%TO.N,Net-(U10-BIASINV)*%
X164013812Y-74429186D02*
X163971499Y-74471499D01*
X164447775Y-72672979D02*
X164013812Y-73106942D01*
X132448999Y-73051001D02*
X132500000Y-73000000D01*
X132448999Y-74867100D02*
X132448999Y-73051001D01*
X164013812Y-73106942D02*
X164013812Y-74429186D01*
%TO.N,/ADC/IN14P*%
X165482000Y-70398000D02*
X167080000Y-68800000D01*
X161860422Y-72775000D02*
X164237421Y-70398000D01*
X164237421Y-70398000D02*
X165482000Y-70398000D01*
X159350000Y-72775000D02*
X161860422Y-72775000D01*
%TO.N,/ADC/IN12P*%
X156807223Y-73000000D02*
X158308223Y-71499000D01*
X159301000Y-71499000D02*
X162000000Y-68800000D01*
X162000000Y-68800000D02*
X162000000Y-69000000D01*
X158308223Y-71499000D02*
X159301000Y-71499000D01*
X154000000Y-73000000D02*
X156807223Y-73000000D01*
%TO.N,/ADC/IN15P*%
X169620000Y-68800000D02*
X167671000Y-70749000D01*
X164382810Y-70749000D02*
X161431810Y-73700000D01*
X155000000Y-75800000D02*
X155000000Y-76000000D01*
X161431810Y-73700000D02*
X157100000Y-73700000D01*
X157100000Y-73700000D02*
X155000000Y-75800000D01*
X167671000Y-70749000D02*
X164382810Y-70749000D01*
%TO.N,/ADC/IN16P*%
X157500000Y-75850000D02*
X159778199Y-75850000D01*
X159778199Y-75850000D02*
X164528199Y-71100000D01*
X164528199Y-71100000D02*
X169860000Y-71100000D01*
X169860000Y-71100000D02*
X172160000Y-68800000D01*
%TO.N,/ADC/IN13P*%
X163195484Y-70144516D02*
X163195484Y-70154516D01*
X158453611Y-71850000D02*
X156304611Y-73999000D01*
X153000000Y-74531648D02*
X153000000Y-76000000D01*
X164540000Y-68800000D02*
X163195484Y-70144516D01*
X153532648Y-73999000D02*
X153000000Y-74531648D01*
X156304611Y-73999000D02*
X153532648Y-73999000D01*
X163195484Y-70154516D02*
X161500000Y-71850000D01*
X161500000Y-71850000D02*
X158453611Y-71850000D01*
%TO.N,/ADC/IN10P*%
X152385260Y-73000000D02*
X151500000Y-73000000D01*
X156920000Y-68800000D02*
X156585260Y-68800000D01*
X156585260Y-68800000D02*
X152385260Y-73000000D01*
%TO.N,/ADC/IN9P*%
X154380000Y-68800000D02*
X153200000Y-68800000D01*
X153200000Y-68800000D02*
X149000000Y-73000000D01*
%TO.N,/ADC/IN11P*%
X153532648Y-72349000D02*
X152097593Y-73784055D01*
X150500000Y-74531648D02*
X150500000Y-76350000D01*
X159460000Y-68800000D02*
X155911000Y-72349000D01*
X152097593Y-73784055D02*
X151247593Y-73784055D01*
X151247593Y-73784055D02*
X150500000Y-74531648D01*
X155911000Y-72349000D02*
X153532648Y-72349000D01*
%TO.N,Net-(U11-VREFP)*%
X166175000Y-91000000D02*
X165971500Y-90796500D01*
X166175000Y-92000000D02*
X166175000Y-91000000D01*
X165971500Y-90796500D02*
X165971500Y-86028499D01*
%TO.N,Net-(U10-VREFP)*%
X133800000Y-91275000D02*
X133800000Y-90825000D01*
X135350000Y-91225000D02*
X135469500Y-91105500D01*
X134444500Y-89550000D02*
X134444500Y-86428600D01*
X135469500Y-90575000D02*
X134444500Y-89550000D01*
X133800000Y-90825000D02*
X134444500Y-90180500D01*
X134444500Y-90180500D02*
X134444500Y-89550000D01*
X135469500Y-91105500D02*
X135469500Y-90575000D01*
X134444500Y-86428600D02*
X134449000Y-86424100D01*
D76*
%TO.N,/Power switching and voltage adaptation/+5V*%
X95700000Y-120650000D02*
X97550000Y-118800000D01*
X105700000Y-120100000D02*
X105700000Y-118426000D01*
X93350000Y-117512500D02*
X93350000Y-119340000D01*
X95700000Y-120850000D02*
X95700000Y-121299000D01*
X93350000Y-119340000D02*
X92310000Y-119340000D01*
X95700000Y-120615000D02*
X95700000Y-120850000D01*
X92310000Y-119340000D02*
X92300000Y-119350000D01*
X95700000Y-120850000D02*
X95700000Y-120650000D01*
X105750000Y-118376000D02*
X105750000Y-118509000D01*
X105750000Y-118509000D02*
X105784500Y-118543500D01*
X92287500Y-116739500D02*
X93060500Y-117512500D01*
X93060500Y-117512500D02*
X93350000Y-117512500D01*
X105700000Y-118426000D02*
X105750000Y-118376000D01*
X95350000Y-120265000D02*
X95700000Y-120615000D01*
X92287500Y-115800000D02*
X92287500Y-116739500D01*
%TD*%
%TA.AperFunction,Conductor*%
%TO.N,+3.3V*%
G36*
X94742407Y-105993610D02*
G01*
X94809217Y-106014053D01*
X94854371Y-106067372D01*
X94865000Y-106117602D01*
X94865000Y-109000000D01*
X99100000Y-109025000D01*
X99052339Y-106451296D01*
X99070779Y-106383903D01*
X99122727Y-106337179D01*
X99176318Y-106325000D01*
X101126000Y-106325000D01*
X101193039Y-106344685D01*
X101238794Y-106397489D01*
X101250000Y-106449000D01*
X101250000Y-109850618D01*
X101230315Y-109917657D01*
X101177511Y-109963412D01*
X101125618Y-109974617D01*
X93247843Y-109950377D01*
X93180865Y-109930487D01*
X93135273Y-109877542D01*
X93124227Y-109827158D01*
X93119025Y-108999999D01*
X93100793Y-106101198D01*
X93120056Y-106034039D01*
X93172571Y-105987953D01*
X93226191Y-105976429D01*
X94742407Y-105993610D01*
G37*
%TD.AperFunction*%
%TD*%
%TA.AperFunction,Conductor*%
%TO.N,+3.3V*%
G36*
X102533039Y-98619685D02*
G01*
X102578794Y-98672489D01*
X102590000Y-98724000D01*
X102590000Y-100600000D01*
X104966000Y-100600000D01*
X105033039Y-100619685D01*
X105078794Y-100672489D01*
X105090000Y-100724000D01*
X105090000Y-101476000D01*
X105070315Y-101543039D01*
X105017511Y-101588794D01*
X104966000Y-101600000D01*
X102590000Y-101600000D01*
X102590000Y-102226000D01*
X102570315Y-102293039D01*
X102517511Y-102338794D01*
X102466000Y-102350000D01*
X98464000Y-102350000D01*
X98396961Y-102330315D01*
X98351206Y-102277511D01*
X98340000Y-102226000D01*
X98340000Y-98724000D01*
X98359685Y-98656961D01*
X98412489Y-98611206D01*
X98464000Y-98600000D01*
X102466000Y-98600000D01*
X102533039Y-98619685D01*
G37*
%TD.AperFunction*%
%TD*%
%TA.AperFunction,Conductor*%
%TO.N,+5V*%
G36*
X105268368Y-106504225D02*
G01*
X105329108Y-106520500D01*
X105329110Y-106520500D01*
X105460890Y-106520500D01*
X105460892Y-106520500D01*
X105521632Y-106504225D01*
X105553725Y-106500000D01*
X114626000Y-106500000D01*
X114693039Y-106519685D01*
X114738794Y-106572489D01*
X114750000Y-106624000D01*
X114750000Y-109626000D01*
X114730315Y-109693039D01*
X114677511Y-109738794D01*
X114626000Y-109750000D01*
X109981999Y-109750000D01*
X109937890Y-110632192D01*
X109914883Y-110698165D01*
X109859860Y-110741226D01*
X109814045Y-110750000D01*
X107124000Y-110750000D01*
X107056961Y-110730315D01*
X107011206Y-110677511D01*
X107000000Y-110626000D01*
X107000000Y-108750000D01*
X101624000Y-108750000D01*
X101556961Y-108730315D01*
X101511206Y-108677511D01*
X101500000Y-108626000D01*
X101500000Y-106624000D01*
X101519685Y-106556961D01*
X101572489Y-106511206D01*
X101624000Y-106500000D01*
X105236275Y-106500000D01*
X105268368Y-106504225D01*
G37*
%TD.AperFunction*%
%TD*%
%TA.AperFunction,Conductor*%
%TO.N,GND*%
G36*
X98738039Y-106462185D02*
G01*
X98783794Y-106514989D01*
X98795000Y-106566500D01*
X98795000Y-108418500D01*
X98775315Y-108485539D01*
X98722511Y-108531294D01*
X98671000Y-108542500D01*
X95619000Y-108542500D01*
X95551961Y-108522815D01*
X95506206Y-108470011D01*
X95495000Y-108418500D01*
X95495000Y-106566500D01*
X95514685Y-106499461D01*
X95567489Y-106453706D01*
X95619000Y-106442500D01*
X98671000Y-106442500D01*
X98738039Y-106462185D01*
G37*
%TD.AperFunction*%
%TD*%
%TA.AperFunction,Conductor*%
%TO.N,GND*%
G36*
X90083039Y-106424685D02*
G01*
X90128794Y-106477489D01*
X90140000Y-106529000D01*
X90140000Y-108381000D01*
X90120315Y-108448039D01*
X90067511Y-108493794D01*
X90016000Y-108505000D01*
X86964000Y-108505000D01*
X86896961Y-108485315D01*
X86851206Y-108432511D01*
X86840000Y-108381000D01*
X86840000Y-106529000D01*
X86859685Y-106461961D01*
X86912489Y-106416206D01*
X86964000Y-106405000D01*
X90016000Y-106405000D01*
X90083039Y-106424685D01*
G37*
%TD.AperFunction*%
%TD*%
%TA.AperFunction,Conductor*%
%TO.N,GND*%
G36*
X158652826Y-102271674D02*
G01*
X158674500Y-102323999D01*
X158674500Y-102465463D01*
X158674501Y-102465476D01*
X158677416Y-102496576D01*
X158677417Y-102496582D01*
X158721224Y-102621772D01*
X158723266Y-102627608D01*
X158805699Y-102739301D01*
X158917392Y-102821734D01*
X158968682Y-102839681D01*
X159048414Y-102867581D01*
X159048416Y-102867581D01*
X159048421Y-102867583D01*
X159079527Y-102870500D01*
X159625472Y-102870499D01*
X159656579Y-102867583D01*
X159736318Y-102839681D01*
X159785198Y-102839681D01*
X159863510Y-102867085D01*
X159894595Y-102869999D01*
X159894597Y-102870000D01*
X160042500Y-102870000D01*
X160292500Y-102870000D01*
X160440403Y-102870000D01*
X160440404Y-102869999D01*
X160471486Y-102867085D01*
X160471491Y-102867084D01*
X160602369Y-102821287D01*
X160713942Y-102738943D01*
X160713943Y-102738942D01*
X160796287Y-102627369D01*
X160842084Y-102496491D01*
X160842085Y-102496486D01*
X160844999Y-102465404D01*
X160845000Y-102465403D01*
X160845000Y-102435000D01*
X160292500Y-102435000D01*
X160292500Y-102870000D01*
X160042500Y-102870000D01*
X160042500Y-102384000D01*
X160064174Y-102331674D01*
X160116500Y-102310000D01*
X160167500Y-102310000D01*
X160167500Y-102259000D01*
X160171228Y-102250000D01*
X160925000Y-102250000D01*
X173725500Y-102250000D01*
X173777826Y-102271674D01*
X173799500Y-102324000D01*
X173799500Y-104176000D01*
X173777826Y-104228326D01*
X173725500Y-104250000D01*
X168500000Y-104250000D01*
X168500000Y-119475500D01*
X168478326Y-119527826D01*
X168426000Y-119549500D01*
X158655518Y-119549500D01*
X158468884Y-119579059D01*
X158468871Y-119579062D01*
X158289175Y-119637449D01*
X158120801Y-119723239D01*
X157967931Y-119834306D01*
X157876326Y-119925911D01*
X157824000Y-119947585D01*
X157771674Y-119925911D01*
X157750000Y-119873585D01*
X157750000Y-118328742D01*
X152232836Y-118294863D01*
X152180644Y-118272868D01*
X152166809Y-118253364D01*
X152147037Y-118212920D01*
X152062079Y-118127962D01*
X151954142Y-118075195D01*
X151884171Y-118065000D01*
X151075000Y-118065000D01*
X151075000Y-118926000D01*
X151053326Y-118978326D01*
X151001000Y-119000000D01*
X150899000Y-119000000D01*
X150846674Y-118978326D01*
X150825000Y-118926000D01*
X150825000Y-118065000D01*
X150015833Y-118065000D01*
X149945864Y-118075193D01*
X149945857Y-118075195D01*
X149837920Y-118127962D01*
X149752962Y-118212921D01*
X149752961Y-118212922D01*
X149732923Y-118253909D01*
X149690470Y-118291398D01*
X149666878Y-118295406D01*
X144000000Y-118328742D01*
X144000000Y-127725500D01*
X143978326Y-127777826D01*
X143926000Y-127799500D01*
X139832105Y-127799500D01*
X139779779Y-127777826D01*
X139758105Y-127725500D01*
X139758136Y-127723360D01*
X139989237Y-119865945D01*
X140104932Y-115932324D01*
X140128135Y-115880658D01*
X140178900Y-115860500D01*
X141060624Y-115860500D01*
X141060626Y-115860500D01*
X141177747Y-115829118D01*
X141282754Y-115768492D01*
X141368492Y-115682754D01*
X144395842Y-112655404D01*
X149457500Y-112655404D01*
X149460414Y-112686486D01*
X149460415Y-112686491D01*
X149506212Y-112817369D01*
X149588556Y-112928942D01*
X149588557Y-112928943D01*
X149700130Y-113011287D01*
X149831008Y-113057084D01*
X149831013Y-113057085D01*
X149862095Y-113059999D01*
X149862097Y-113060000D01*
X150010000Y-113060000D01*
X150010000Y-112625000D01*
X149457500Y-112625000D01*
X149457500Y-112655404D01*
X144395842Y-112655404D01*
X144706651Y-112344595D01*
X149457500Y-112344595D01*
X149457500Y-112375000D01*
X150010000Y-112375000D01*
X150010000Y-111940000D01*
X149862095Y-111940000D01*
X149831013Y-111942914D01*
X149831008Y-111942915D01*
X149700130Y-111988712D01*
X149588557Y-112071056D01*
X149588556Y-112071057D01*
X149506212Y-112182630D01*
X149460415Y-112313508D01*
X149460414Y-112313513D01*
X149457500Y-112344595D01*
X144706651Y-112344595D01*
X149212999Y-107838246D01*
X152089651Y-107838246D01*
X152092565Y-107869328D01*
X152092566Y-107869333D01*
X152138363Y-108000211D01*
X152220707Y-108111784D01*
X152220708Y-108111785D01*
X152332281Y-108194129D01*
X152463159Y-108239926D01*
X152463164Y-108239927D01*
X152494246Y-108242841D01*
X152494248Y-108242842D01*
X152642151Y-108242842D01*
X152642151Y-107807842D01*
X152089651Y-107807842D01*
X152089651Y-107838246D01*
X149212999Y-107838246D01*
X149523808Y-107527437D01*
X152089651Y-107527437D01*
X152089651Y-107557842D01*
X152642151Y-107557842D01*
X152642151Y-107122842D01*
X152494246Y-107122842D01*
X152463164Y-107125756D01*
X152463159Y-107125757D01*
X152332281Y-107171554D01*
X152220708Y-107253898D01*
X152220707Y-107253899D01*
X152138363Y-107365472D01*
X152092566Y-107496350D01*
X152092565Y-107496355D01*
X152089651Y-107527437D01*
X149523808Y-107527437D01*
X150047577Y-107003668D01*
X150080748Y-106984518D01*
X150225990Y-106945600D01*
X150225989Y-106945600D01*
X150225994Y-106945599D01*
X150359505Y-106868516D01*
X150468516Y-106759505D01*
X150545599Y-106625994D01*
X150585499Y-106477085D01*
X150585500Y-106477085D01*
X150585500Y-106322915D01*
X150585499Y-106322914D01*
X150545600Y-106174009D01*
X150545598Y-106174004D01*
X150468518Y-106040498D01*
X150468517Y-106040497D01*
X150468516Y-106040495D01*
X150359505Y-105931484D01*
X150359502Y-105931482D01*
X150359501Y-105931481D01*
X150225995Y-105854401D01*
X150225993Y-105854400D01*
X150208504Y-105849714D01*
X150163572Y-105815234D01*
X150156181Y-105759081D01*
X150175331Y-105725912D01*
X150596458Y-105304785D01*
X150648783Y-105283112D01*
X150701109Y-105304786D01*
X150717148Y-105328789D01*
X150720359Y-105336541D01*
X150720360Y-105336542D01*
X150720361Y-105336544D01*
X150720363Y-105336548D01*
X150798118Y-105452917D01*
X150897083Y-105551882D01*
X151013452Y-105629637D01*
X151142755Y-105683196D01*
X151280022Y-105710500D01*
X151280023Y-105710500D01*
X151419977Y-105710500D01*
X151419978Y-105710500D01*
X151557245Y-105683196D01*
X151590850Y-105669275D01*
X151647484Y-105669275D01*
X151687534Y-105709323D01*
X151691941Y-105727093D01*
X151691955Y-105727091D01*
X151692056Y-105727557D01*
X151692844Y-105730731D01*
X151692914Y-105731487D01*
X151692915Y-105731491D01*
X151738712Y-105862369D01*
X151821056Y-105973942D01*
X151821057Y-105973943D01*
X151932630Y-106056287D01*
X152063508Y-106102084D01*
X152063513Y-106102085D01*
X152094595Y-106104999D01*
X152094597Y-106105000D01*
X152125000Y-106105000D01*
X152125000Y-105501500D01*
X152146674Y-105449174D01*
X152199000Y-105427500D01*
X152301000Y-105427500D01*
X152353326Y-105449174D01*
X152375000Y-105501500D01*
X152375000Y-106105000D01*
X152405403Y-106105000D01*
X152405404Y-106104999D01*
X152436486Y-106102085D01*
X152436491Y-106102084D01*
X152567369Y-106056287D01*
X152678942Y-105973943D01*
X152678943Y-105973942D01*
X152761288Y-105862368D01*
X152780304Y-105808025D01*
X152818043Y-105765793D01*
X152874591Y-105762618D01*
X152916823Y-105800357D01*
X152924151Y-105832465D01*
X152924151Y-105878932D01*
X152930656Y-105939435D01*
X152930657Y-105939440D01*
X152981703Y-106076302D01*
X152981704Y-106076303D01*
X153017032Y-106123496D01*
X153031039Y-106178374D01*
X153017032Y-106212188D01*
X152981704Y-106259380D01*
X152981703Y-106259381D01*
X152930657Y-106396243D01*
X152930656Y-106396248D01*
X152924151Y-106456751D01*
X152924151Y-106848932D01*
X152930656Y-106909435D01*
X152930657Y-106909440D01*
X152973006Y-107022982D01*
X152970985Y-107079583D01*
X152929532Y-107118176D01*
X152903672Y-107122842D01*
X152892151Y-107122842D01*
X152892151Y-108242842D01*
X153040054Y-108242842D01*
X153040064Y-108242841D01*
X153052837Y-108241643D01*
X153106959Y-108258333D01*
X153133427Y-108308405D01*
X153133751Y-108315319D01*
X153133751Y-109423314D01*
X153112077Y-109475640D01*
X153092253Y-109489794D01*
X153088390Y-109491683D01*
X153012275Y-109528893D01*
X152927202Y-109613966D01*
X152874360Y-109722055D01*
X152864151Y-109792122D01*
X152864151Y-110135556D01*
X152874359Y-110205626D01*
X152874448Y-110205914D01*
X152874448Y-110206236D01*
X152875188Y-110211316D01*
X152874449Y-110211423D01*
X152874454Y-110240764D01*
X152876175Y-110241015D01*
X152865151Y-110316670D01*
X152865151Y-110453342D01*
X153126732Y-110453342D01*
X153127734Y-110453757D01*
X153137400Y-110454114D01*
X153190436Y-110461842D01*
X153273652Y-110461841D01*
X153295324Y-110470818D01*
X153325976Y-110483514D01*
X153325977Y-110483515D01*
X153326175Y-110483994D01*
X153347491Y-110535455D01*
X153347651Y-110535841D01*
X153347651Y-110572622D01*
X153325977Y-110624948D01*
X153301972Y-110640988D01*
X153285472Y-110647823D01*
X153239751Y-110678372D01*
X153198647Y-110690842D01*
X153190438Y-110690842D01*
X153144267Y-110697569D01*
X153139278Y-110697930D01*
X153138825Y-110698157D01*
X153138348Y-110697997D01*
X153133599Y-110698342D01*
X152865152Y-110698342D01*
X152865152Y-110835000D01*
X152865153Y-110835016D01*
X152876174Y-110910671D01*
X152874605Y-110910899D01*
X152874605Y-110941284D01*
X152875189Y-110941369D01*
X152874605Y-110945370D01*
X152874606Y-110946258D01*
X152874361Y-110947050D01*
X152864151Y-111017122D01*
X152864151Y-111360556D01*
X152874358Y-111430622D01*
X152874359Y-111430626D01*
X152927202Y-111538717D01*
X152942477Y-111553992D01*
X152964151Y-111606318D01*
X152964151Y-113709779D01*
X152986940Y-113824352D01*
X152975890Y-113879901D01*
X152928798Y-113911366D01*
X152873249Y-113900316D01*
X152862036Y-113891114D01*
X151649673Y-112678751D01*
X151627999Y-112626427D01*
X151627999Y-112344528D01*
X151625083Y-112313421D01*
X151617074Y-112290534D01*
X151579234Y-112182393D01*
X151579234Y-112182392D01*
X151496801Y-112070699D01*
X151385108Y-111988266D01*
X151385106Y-111988265D01*
X151254085Y-111942418D01*
X151254080Y-111942417D01*
X151248894Y-111941930D01*
X151222973Y-111939500D01*
X151222968Y-111939500D01*
X151206867Y-111939500D01*
X151178549Y-111933867D01*
X151128080Y-111912962D01*
X151128069Y-111912959D01*
X151039215Y-111895285D01*
X151010129Y-111889500D01*
X150889871Y-111889500D01*
X150860585Y-111895325D01*
X150771926Y-111912960D01*
X150771923Y-111912961D01*
X150721446Y-111933868D01*
X150693133Y-111939500D01*
X150677039Y-111939500D01*
X150677023Y-111939501D01*
X150645923Y-111942416D01*
X150645921Y-111942416D01*
X150566181Y-111970318D01*
X150517300Y-111970317D01*
X150438992Y-111942915D01*
X150438986Y-111942914D01*
X150407904Y-111940000D01*
X150260000Y-111940000D01*
X150260000Y-113060000D01*
X150281447Y-113081447D01*
X150281995Y-113081674D01*
X150303669Y-113134000D01*
X150302630Y-113142922D01*
X150302997Y-113142962D01*
X150295997Y-113208067D01*
X150295997Y-113600248D01*
X150302502Y-113660751D01*
X150302503Y-113660756D01*
X150353549Y-113797618D01*
X150353550Y-113797619D01*
X150388878Y-113844812D01*
X150402885Y-113899690D01*
X150388878Y-113933504D01*
X150353550Y-113980696D01*
X150353549Y-113980697D01*
X150302503Y-114117559D01*
X150302502Y-114117564D01*
X150295997Y-114178067D01*
X150295997Y-114570248D01*
X150302502Y-114630751D01*
X150302503Y-114630756D01*
X150353549Y-114767618D01*
X150356086Y-114772263D01*
X150354155Y-114773317D01*
X150365997Y-114808875D01*
X150365997Y-114990500D01*
X150344323Y-115042826D01*
X150291997Y-115064500D01*
X150015785Y-115064500D01*
X149945719Y-115074707D01*
X149945715Y-115074708D01*
X149837624Y-115127551D01*
X149752551Y-115212624D01*
X149699709Y-115320713D01*
X149689500Y-115390780D01*
X149689500Y-116609206D01*
X149689502Y-116609222D01*
X149699707Y-116679280D01*
X149699708Y-116679284D01*
X149699709Y-116679286D01*
X149752551Y-116787375D01*
X149837625Y-116872449D01*
X149945714Y-116925291D01*
X150015785Y-116935500D01*
X151884214Y-116935499D01*
X151945094Y-116926629D01*
X151954280Y-116925292D01*
X151954281Y-116925291D01*
X151954286Y-116925291D01*
X152062375Y-116872449D01*
X152147449Y-116787375D01*
X152200291Y-116679286D01*
X152210500Y-116609215D01*
X152210499Y-115390786D01*
X152201153Y-115326632D01*
X152200292Y-115320719D01*
X152200291Y-115320715D01*
X152200291Y-115320714D01*
X152147449Y-115212625D01*
X152062375Y-115127551D01*
X151954286Y-115074709D01*
X151954272Y-115074707D01*
X151884219Y-115064500D01*
X151884215Y-115064500D01*
X151660997Y-115064500D01*
X151608671Y-115042826D01*
X151586997Y-114990500D01*
X151586997Y-114808875D01*
X151598838Y-114773317D01*
X151596908Y-114772263D01*
X151599444Y-114767618D01*
X151627059Y-114693578D01*
X151650492Y-114630752D01*
X151655744Y-114581893D01*
X151682887Y-114532185D01*
X151737229Y-114516228D01*
X151781646Y-114537478D01*
X153642826Y-116398658D01*
X153664500Y-116450978D01*
X153664500Y-116461738D01*
X153678925Y-116571317D01*
X153678926Y-116571321D01*
X153735403Y-116707668D01*
X153825243Y-116824751D01*
X153825248Y-116824756D01*
X153887402Y-116872448D01*
X153942331Y-116914596D01*
X154078680Y-116971074D01*
X154188259Y-116985500D01*
X154811740Y-116985499D01*
X154921320Y-116971074D01*
X155057669Y-116914596D01*
X155174754Y-116824754D01*
X155201842Y-116789451D01*
X155250891Y-116761133D01*
X155260550Y-116760500D01*
X155514132Y-116760500D01*
X155559179Y-116775791D01*
X155642331Y-116839596D01*
X155778680Y-116896074D01*
X155888259Y-116910500D01*
X156511740Y-116910499D01*
X156621320Y-116896074D01*
X156757669Y-116839596D01*
X156874754Y-116749754D01*
X156964596Y-116632669D01*
X157021074Y-116496320D01*
X157035500Y-116386741D01*
X157035499Y-115913260D01*
X157021074Y-115803680D01*
X156964596Y-115667331D01*
X156874756Y-115550248D01*
X156874751Y-115550243D01*
X156757669Y-115460404D01*
X156621319Y-115403925D01*
X156579091Y-115398366D01*
X156530042Y-115370047D01*
X156515383Y-115315340D01*
X156543702Y-115266291D01*
X156579090Y-115251633D01*
X156621320Y-115246074D01*
X156757669Y-115189596D01*
X156874754Y-115099754D01*
X156964596Y-114982669D01*
X157021074Y-114846320D01*
X157035500Y-114736741D01*
X157035499Y-114309020D01*
X157057172Y-114256696D01*
X158255854Y-113058015D01*
X158308180Y-113036341D01*
X158833858Y-113036341D01*
X158833865Y-113036341D01*
X158894745Y-113027471D01*
X158903931Y-113026134D01*
X158903932Y-113026133D01*
X158903937Y-113026133D01*
X159012026Y-112973291D01*
X159097100Y-112888217D01*
X159149942Y-112780128D01*
X159160151Y-112710057D01*
X159160150Y-112159839D01*
X159181824Y-112107515D01*
X159234150Y-112085841D01*
X159649651Y-112085841D01*
X159899651Y-112085841D01*
X160333810Y-112085841D01*
X160333825Y-112085839D01*
X160403786Y-112075648D01*
X160403793Y-112075646D01*
X160511730Y-112022879D01*
X160596688Y-111937921D01*
X160649455Y-111829984D01*
X160649455Y-111829983D01*
X160659650Y-111760013D01*
X160659651Y-111760002D01*
X160659651Y-110750842D01*
X159899651Y-110750842D01*
X159899651Y-112085841D01*
X159649651Y-112085841D01*
X159649651Y-110750842D01*
X158889651Y-110750842D01*
X158889651Y-111191342D01*
X158867977Y-111243668D01*
X158815651Y-111265342D01*
X157783650Y-111265342D01*
X157731324Y-111243668D01*
X157709650Y-111191342D01*
X157709650Y-110750842D01*
X156949651Y-110750842D01*
X156949651Y-112085841D01*
X157322622Y-112085841D01*
X157374948Y-112107515D01*
X157396622Y-112159841D01*
X157374948Y-112212167D01*
X155859215Y-113727899D01*
X155816549Y-113748940D01*
X155778680Y-113753925D01*
X155642330Y-113810404D01*
X155525248Y-113900243D01*
X155525243Y-113900248D01*
X155435404Y-114017330D01*
X155402833Y-114095961D01*
X155362784Y-114136009D01*
X155306147Y-114136009D01*
X155266099Y-114095960D01*
X155264596Y-114092331D01*
X155264595Y-114092330D01*
X155264595Y-114092329D01*
X155174756Y-113975248D01*
X155174751Y-113975243D01*
X155057669Y-113885404D01*
X154921319Y-113828925D01*
X154837234Y-113817856D01*
X154811741Y-113814500D01*
X154811739Y-113814500D01*
X154633529Y-113814500D01*
X154581203Y-113792826D01*
X154206825Y-113418448D01*
X154185151Y-113366122D01*
X154185151Y-111760000D01*
X155939652Y-111760000D01*
X155939653Y-111760016D01*
X155949844Y-111829977D01*
X155949846Y-111829984D01*
X156002613Y-111937921D01*
X156087571Y-112022879D01*
X156195508Y-112075646D01*
X156265484Y-112085841D01*
X156699651Y-112085841D01*
X156699651Y-110750842D01*
X155939652Y-110750842D01*
X155939652Y-111760000D01*
X154185151Y-111760000D01*
X154185151Y-111606318D01*
X154206825Y-111553992D01*
X154222100Y-111538717D01*
X154274942Y-111430628D01*
X154285151Y-111360557D01*
X154285150Y-111017128D01*
X154274942Y-110947056D01*
X154274939Y-110947050D01*
X154274699Y-110946271D01*
X154274699Y-110945392D01*
X154274113Y-110941369D01*
X154274699Y-110941283D01*
X154274705Y-110910900D01*
X154273127Y-110910671D01*
X154284150Y-110835013D01*
X154284151Y-110835002D01*
X154284151Y-110698342D01*
X154015706Y-110698342D01*
X154007230Y-110697855D01*
X154006131Y-110697728D01*
X153958866Y-110690842D01*
X153946407Y-110690842D01*
X153942183Y-110690355D01*
X153933936Y-110685769D01*
X153909547Y-110678371D01*
X153863828Y-110647822D01*
X153847330Y-110640988D01*
X153836923Y-110630580D01*
X153823325Y-110624948D01*
X153817691Y-110611347D01*
X153807283Y-110600938D01*
X153801651Y-110572622D01*
X153801651Y-110535841D01*
X153823325Y-110483515D01*
X153875651Y-110461841D01*
X153958858Y-110461841D01*
X153958865Y-110461841D01*
X154000952Y-110455709D01*
X154011901Y-110454115D01*
X154022568Y-110453342D01*
X154284150Y-110453342D01*
X154284150Y-110316683D01*
X154284148Y-110316667D01*
X154273128Y-110241013D01*
X154274856Y-110240761D01*
X154274856Y-110211423D01*
X154274113Y-110211315D01*
X154274856Y-110206215D01*
X154274856Y-110205902D01*
X154274937Y-110205638D01*
X154274942Y-110205628D01*
X154285151Y-110135557D01*
X154285150Y-109792128D01*
X154274942Y-109722056D01*
X154222100Y-109613967D01*
X154197225Y-109589092D01*
X154175551Y-109536766D01*
X154175551Y-109491670D01*
X155939651Y-109491670D01*
X155939651Y-110500842D01*
X156699651Y-110500842D01*
X156949651Y-110500842D01*
X157709650Y-110500842D01*
X157709650Y-110059841D01*
X157731324Y-110007515D01*
X157783650Y-109985841D01*
X158174651Y-109985841D01*
X158174651Y-109225842D01*
X158424651Y-109225842D01*
X158424651Y-109985841D01*
X158815651Y-109985841D01*
X158867977Y-110007515D01*
X158889651Y-110059841D01*
X158889651Y-110500842D01*
X159649651Y-110500842D01*
X159899651Y-110500842D01*
X160659650Y-110500842D01*
X160659650Y-109491683D01*
X160659648Y-109491667D01*
X160649457Y-109421706D01*
X160649455Y-109421699D01*
X160596688Y-109313762D01*
X160511730Y-109228804D01*
X160403793Y-109176037D01*
X160333822Y-109165842D01*
X159899651Y-109165842D01*
X159899651Y-110500842D01*
X159649651Y-110500842D01*
X159649651Y-109165842D01*
X159239651Y-109165842D01*
X159229751Y-109175741D01*
X159217977Y-109204168D01*
X159165651Y-109225842D01*
X158424651Y-109225842D01*
X158174651Y-109225842D01*
X157433651Y-109225842D01*
X157381325Y-109204168D01*
X157369550Y-109175741D01*
X157359651Y-109165842D01*
X156949651Y-109165842D01*
X156949651Y-110500842D01*
X156699651Y-110500842D01*
X156699651Y-109165842D01*
X156265484Y-109165842D01*
X156195515Y-109176035D01*
X156195508Y-109176037D01*
X156087571Y-109228804D01*
X156002613Y-109313762D01*
X155949846Y-109421699D01*
X155949846Y-109421700D01*
X155939651Y-109491670D01*
X154175551Y-109491670D01*
X154175551Y-108541670D01*
X157439651Y-108541670D01*
X157439651Y-108975842D01*
X158174651Y-108975842D01*
X158424651Y-108975842D01*
X159159650Y-108975842D01*
X159159650Y-108541683D01*
X159159648Y-108541667D01*
X159149457Y-108471706D01*
X159149455Y-108471699D01*
X159096688Y-108363762D01*
X159011730Y-108278804D01*
X158903793Y-108226037D01*
X158833822Y-108215842D01*
X158424651Y-108215842D01*
X158424651Y-108975842D01*
X158174651Y-108975842D01*
X158174651Y-108215842D01*
X157765484Y-108215842D01*
X157695515Y-108226035D01*
X157695508Y-108226037D01*
X157587571Y-108278804D01*
X157502613Y-108363762D01*
X157449846Y-108471699D01*
X157449846Y-108471700D01*
X157439651Y-108541670D01*
X154175551Y-108541670D01*
X154175551Y-108073353D01*
X154190011Y-108029410D01*
X154211386Y-108000448D01*
X154257232Y-107869427D01*
X154257232Y-107869426D01*
X154257234Y-107869421D01*
X154260151Y-107838315D01*
X154260150Y-107527370D01*
X154257234Y-107496263D01*
X154211385Y-107365234D01*
X154211384Y-107365232D01*
X154140011Y-107268524D01*
X154125551Y-107224582D01*
X154125551Y-107207250D01*
X154140310Y-107162904D01*
X154227597Y-107046304D01*
X154278646Y-106909436D01*
X154285151Y-106848932D01*
X154285151Y-106456752D01*
X154278646Y-106396248D01*
X154251295Y-106322917D01*
X154227598Y-106259381D01*
X154227597Y-106259380D01*
X154192270Y-106212189D01*
X154178263Y-106157311D01*
X154192270Y-106123495D01*
X154208298Y-106102084D01*
X154227597Y-106076304D01*
X154278646Y-105939436D01*
X154285151Y-105878932D01*
X154285151Y-105486752D01*
X154278646Y-105426248D01*
X154257788Y-105370325D01*
X154253139Y-105357860D01*
X154255160Y-105301259D01*
X154296613Y-105262666D01*
X154322473Y-105258000D01*
X154387500Y-105258000D01*
X154637500Y-105258000D01*
X154785403Y-105258000D01*
X154785404Y-105257999D01*
X154816486Y-105255085D01*
X154816491Y-105255084D01*
X154947369Y-105209287D01*
X155058942Y-105126943D01*
X155058943Y-105126942D01*
X155141287Y-105015369D01*
X155187084Y-104884491D01*
X155187085Y-104884486D01*
X155189999Y-104853404D01*
X155190000Y-104853403D01*
X155190000Y-104823000D01*
X154637500Y-104823000D01*
X154637500Y-105258000D01*
X154387500Y-105258000D01*
X154387500Y-104573000D01*
X154637500Y-104573000D01*
X155190000Y-104573000D01*
X155190000Y-104542597D01*
X155189999Y-104542595D01*
X155187085Y-104511513D01*
X155187084Y-104511508D01*
X155141287Y-104380630D01*
X155058943Y-104269057D01*
X155058942Y-104269056D01*
X154947369Y-104186712D01*
X154816491Y-104140915D01*
X154816486Y-104140914D01*
X154785404Y-104138000D01*
X154637500Y-104138000D01*
X154637500Y-104573000D01*
X154387500Y-104573000D01*
X154387500Y-104138000D01*
X154239592Y-104138000D01*
X154226808Y-104139199D01*
X154172688Y-104122504D01*
X154146223Y-104072430D01*
X154145900Y-104065522D01*
X154145900Y-103205472D01*
X154167574Y-103153146D01*
X154219900Y-103131472D01*
X154256898Y-103141385D01*
X154322253Y-103179118D01*
X154439374Y-103210500D01*
X154560626Y-103210500D01*
X155583622Y-103210500D01*
X155627564Y-103224959D01*
X155677392Y-103261734D01*
X155728682Y-103279681D01*
X155808414Y-103307581D01*
X155808416Y-103307581D01*
X155808421Y-103307583D01*
X155839527Y-103310500D01*
X156385472Y-103310499D01*
X156416579Y-103307583D01*
X156496318Y-103279681D01*
X156545198Y-103279681D01*
X156623510Y-103307085D01*
X156654595Y-103309999D01*
X156654597Y-103310000D01*
X156802500Y-103310000D01*
X157052500Y-103310000D01*
X157200403Y-103310000D01*
X157200404Y-103309999D01*
X157231486Y-103307085D01*
X157231491Y-103307084D01*
X157362369Y-103261287D01*
X157473942Y-103178943D01*
X157473943Y-103178942D01*
X157556287Y-103067369D01*
X157602084Y-102936491D01*
X157602085Y-102936486D01*
X157604999Y-102905404D01*
X157605000Y-102905403D01*
X157605000Y-102875000D01*
X157052500Y-102875000D01*
X157052500Y-103310000D01*
X156802500Y-103310000D01*
X156802500Y-102824000D01*
X156824174Y-102771674D01*
X156876500Y-102750000D01*
X156927500Y-102750000D01*
X156927500Y-102699000D01*
X156949174Y-102646674D01*
X157001500Y-102625000D01*
X157605000Y-102625000D01*
X157605000Y-102594597D01*
X157604999Y-102594595D01*
X157602085Y-102563513D01*
X157602084Y-102563508D01*
X157556287Y-102432629D01*
X157556286Y-102432627D01*
X157508547Y-102367942D01*
X157494914Y-102312970D01*
X157524145Y-102264460D01*
X157568087Y-102250000D01*
X158600500Y-102250000D01*
X158652826Y-102271674D01*
G37*
%TD.AperFunction*%
%TD*%
%TA.AperFunction,Conductor*%
%TO.N,GND*%
G36*
X100643039Y-119019685D02*
G01*
X100688794Y-119072489D01*
X100700000Y-119124000D01*
X100700000Y-120976000D01*
X100680315Y-121043039D01*
X100627511Y-121088794D01*
X100576000Y-121100000D01*
X97524000Y-121100000D01*
X97456961Y-121080315D01*
X97411206Y-121027511D01*
X97400000Y-120976000D01*
X97400000Y-119567754D01*
X97419685Y-119500715D01*
X97436319Y-119480073D01*
X97663110Y-119253281D01*
X97718704Y-119221187D01*
X97723886Y-119219799D01*
X97826613Y-119160489D01*
X97910489Y-119076613D01*
X97918927Y-119061997D01*
X97969494Y-119013784D01*
X98026313Y-119000000D01*
X100576000Y-119000000D01*
X100643039Y-119019685D01*
G37*
%TD.AperFunction*%
%TD*%
M02*
