%TF.GenerationSoftware,KiCad,Pcbnew,9.0.5*%
%TF.CreationDate,2026-03-10T15:38:56+01:00*%
%TF.ProjectId,Processing_board,50726f63-6573-4736-996e-675f626f6172,rev?*%
%TF.SameCoordinates,Original*%
%TF.FileFunction,Soldermask,Bot*%
%TF.FilePolarity,Negative*%
%FSLAX46Y46*%
G04 Gerber Fmt 4.6, Leading zero omitted, Abs format (unit mm)*
G04 Created by KiCad (PCBNEW 9.0.5) date 2026-03-10 15:38:56*
%MOMM*%
%LPD*%
G01*
G04 APERTURE LIST*
G04 Aperture macros list*
%AMRoundRect*
0 Rectangle with rounded corners*
0 $1 Rounding radius*
0 $2 $3 $4 $5 $6 $7 $8 $9 X,Y pos of 4 corners*
0 Add a 4 corners polygon primitive as box body*
4,1,4,$2,$3,$4,$5,$6,$7,$8,$9,$2,$3,0*
0 Add four circle primitives for the rounded corners*
1,1,$1+$1,$2,$3*
1,1,$1+$1,$4,$5*
1,1,$1+$1,$6,$7*
1,1,$1+$1,$8,$9*
0 Add four rect primitives between the rounded corners*
20,1,$1+$1,$2,$3,$4,$5,0*
20,1,$1+$1,$4,$5,$6,$7,0*
20,1,$1+$1,$6,$7,$8,$9,0*
20,1,$1+$1,$8,$9,$2,$3,0*%
%AMFreePoly0*
4,1,23,0.500000,-0.750000,0.000000,-0.750000,0.000000,-0.745722,-0.065263,-0.745722,-0.191342,-0.711940,-0.304381,-0.646677,-0.396677,-0.554381,-0.461940,-0.441342,-0.495722,-0.315263,-0.495722,-0.250000,-0.500000,-0.250000,-0.500000,0.250000,-0.495722,0.250000,-0.495722,0.315263,-0.461940,0.441342,-0.396677,0.554381,-0.304381,0.646677,-0.191342,0.711940,-0.065263,0.745722,0.000000,0.745722,
0.000000,0.750000,0.500000,0.750000,0.500000,-0.750000,0.500000,-0.750000,$1*%
%AMFreePoly1*
4,1,23,0.000000,0.745722,0.065263,0.745722,0.191342,0.711940,0.304381,0.646677,0.396677,0.554381,0.461940,0.441342,0.495722,0.315263,0.495722,0.250000,0.500000,0.250000,0.500000,-0.250000,0.495722,-0.250000,0.495722,-0.315263,0.461940,-0.441342,0.396677,-0.554381,0.304381,-0.646677,0.191342,-0.711940,0.065263,-0.745722,0.000000,-0.745722,0.000000,-0.750000,-0.500000,-0.750000,
-0.500000,0.750000,0.000000,0.750000,0.000000,0.745722,0.000000,0.745722,$1*%
G04 Aperture macros list end*
%ADD10C,0.010000*%
%ADD11R,1.700000X1.700000*%
%ADD12O,1.700000X1.700000*%
%ADD13C,1.734000*%
%ADD14O,1.204000X2.004000*%
%ADD15C,1.700000*%
%ADD16RoundRect,0.237500X0.237500X-0.300000X0.237500X0.300000X-0.237500X0.300000X-0.237500X-0.300000X0*%
%ADD17RoundRect,0.237500X0.300000X0.237500X-0.300000X0.237500X-0.300000X-0.237500X0.300000X-0.237500X0*%
%ADD18FreePoly0,270.000000*%
%ADD19FreePoly1,270.000000*%
G04 APERTURE END LIST*
D10*
%TO.C,J11*%
X86461000Y-67378500D02*
X86493000Y-67380500D01*
X86524000Y-67384500D01*
X86555000Y-67390500D01*
X86585000Y-67397500D01*
X86615000Y-67406500D01*
X86645000Y-67417500D01*
X86674000Y-67429500D01*
X86702000Y-67442500D01*
X86730000Y-67457500D01*
X86757000Y-67474500D01*
X86783000Y-67492500D01*
X86808000Y-67511500D01*
X86831000Y-67531500D01*
X86854000Y-67553500D01*
X86876000Y-67576500D01*
X86896000Y-67599500D01*
X86915000Y-67624500D01*
X86933000Y-67650500D01*
X86950000Y-67677500D01*
X86965000Y-67705500D01*
X86978000Y-67733500D01*
X86990000Y-67762500D01*
X87001000Y-67792500D01*
X87010000Y-67822500D01*
X87017000Y-67852500D01*
X87023000Y-67883500D01*
X87027000Y-67914500D01*
X87029000Y-67946500D01*
X87030000Y-67977500D01*
X87030000Y-68577500D01*
X87030000Y-69177500D01*
X87029000Y-69208500D01*
X87027000Y-69240500D01*
X87023000Y-69271500D01*
X87017000Y-69302500D01*
X87010000Y-69332500D01*
X87001000Y-69362500D01*
X86990000Y-69392500D01*
X86978000Y-69421500D01*
X86965000Y-69449500D01*
X86950000Y-69477500D01*
X86933000Y-69504500D01*
X86915000Y-69530500D01*
X86896000Y-69555500D01*
X86876000Y-69578500D01*
X86854000Y-69601500D01*
X86831000Y-69623500D01*
X86808000Y-69643500D01*
X86783000Y-69662500D01*
X86757000Y-69680500D01*
X86730000Y-69697500D01*
X86702000Y-69712500D01*
X86674000Y-69725500D01*
X86645000Y-69737500D01*
X86615000Y-69748500D01*
X86585000Y-69757500D01*
X86555000Y-69764500D01*
X86524000Y-69770500D01*
X86493000Y-69774500D01*
X86461000Y-69776500D01*
X86430000Y-69777500D01*
X86399000Y-69776500D01*
X86367000Y-69774500D01*
X86336000Y-69770500D01*
X86305000Y-69764500D01*
X86275000Y-69757500D01*
X86245000Y-69748500D01*
X86215000Y-69737500D01*
X86186000Y-69725500D01*
X86158000Y-69712500D01*
X86130000Y-69697500D01*
X86103000Y-69680500D01*
X86077000Y-69662500D01*
X86052000Y-69643500D01*
X86029000Y-69623500D01*
X86006000Y-69601500D01*
X85984000Y-69578500D01*
X85964000Y-69555500D01*
X85945000Y-69530500D01*
X85927000Y-69504500D01*
X85910000Y-69477500D01*
X85895000Y-69449500D01*
X85882000Y-69421500D01*
X85870000Y-69392500D01*
X85859000Y-69362500D01*
X85850000Y-69332500D01*
X85843000Y-69302500D01*
X85837000Y-69271500D01*
X85833000Y-69240500D01*
X85831000Y-69208500D01*
X85830000Y-69177500D01*
X85830000Y-68577500D01*
X85830000Y-67977500D01*
X85831000Y-67946500D01*
X85833000Y-67914500D01*
X85837000Y-67883500D01*
X85843000Y-67852500D01*
X85850000Y-67822500D01*
X85859000Y-67792500D01*
X85870000Y-67762500D01*
X85882000Y-67733500D01*
X85895000Y-67705500D01*
X85910000Y-67677500D01*
X85927000Y-67650500D01*
X85945000Y-67624500D01*
X85964000Y-67599500D01*
X85984000Y-67576500D01*
X86006000Y-67553500D01*
X86029000Y-67531500D01*
X86052000Y-67511500D01*
X86077000Y-67492500D01*
X86103000Y-67474500D01*
X86130000Y-67457500D01*
X86158000Y-67442500D01*
X86186000Y-67429500D01*
X86215000Y-67417500D01*
X86245000Y-67406500D01*
X86275000Y-67397500D01*
X86305000Y-67390500D01*
X86336000Y-67384500D01*
X86367000Y-67380500D01*
X86399000Y-67378500D01*
X86430000Y-67377500D01*
X86461000Y-67378500D01*
G36*
X86461000Y-67378500D02*
G01*
X86493000Y-67380500D01*
X86524000Y-67384500D01*
X86555000Y-67390500D01*
X86585000Y-67397500D01*
X86615000Y-67406500D01*
X86645000Y-67417500D01*
X86674000Y-67429500D01*
X86702000Y-67442500D01*
X86730000Y-67457500D01*
X86757000Y-67474500D01*
X86783000Y-67492500D01*
X86808000Y-67511500D01*
X86831000Y-67531500D01*
X86854000Y-67553500D01*
X86876000Y-67576500D01*
X86896000Y-67599500D01*
X86915000Y-67624500D01*
X86933000Y-67650500D01*
X86950000Y-67677500D01*
X86965000Y-67705500D01*
X86978000Y-67733500D01*
X86990000Y-67762500D01*
X87001000Y-67792500D01*
X87010000Y-67822500D01*
X87017000Y-67852500D01*
X87023000Y-67883500D01*
X87027000Y-67914500D01*
X87029000Y-67946500D01*
X87030000Y-67977500D01*
X87030000Y-68577500D01*
X87030000Y-69177500D01*
X87029000Y-69208500D01*
X87027000Y-69240500D01*
X87023000Y-69271500D01*
X87017000Y-69302500D01*
X87010000Y-69332500D01*
X87001000Y-69362500D01*
X86990000Y-69392500D01*
X86978000Y-69421500D01*
X86965000Y-69449500D01*
X86950000Y-69477500D01*
X86933000Y-69504500D01*
X86915000Y-69530500D01*
X86896000Y-69555500D01*
X86876000Y-69578500D01*
X86854000Y-69601500D01*
X86831000Y-69623500D01*
X86808000Y-69643500D01*
X86783000Y-69662500D01*
X86757000Y-69680500D01*
X86730000Y-69697500D01*
X86702000Y-69712500D01*
X86674000Y-69725500D01*
X86645000Y-69737500D01*
X86615000Y-69748500D01*
X86585000Y-69757500D01*
X86555000Y-69764500D01*
X86524000Y-69770500D01*
X86493000Y-69774500D01*
X86461000Y-69776500D01*
X86430000Y-69777500D01*
X86399000Y-69776500D01*
X86367000Y-69774500D01*
X86336000Y-69770500D01*
X86305000Y-69764500D01*
X86275000Y-69757500D01*
X86245000Y-69748500D01*
X86215000Y-69737500D01*
X86186000Y-69725500D01*
X86158000Y-69712500D01*
X86130000Y-69697500D01*
X86103000Y-69680500D01*
X86077000Y-69662500D01*
X86052000Y-69643500D01*
X86029000Y-69623500D01*
X86006000Y-69601500D01*
X85984000Y-69578500D01*
X85964000Y-69555500D01*
X85945000Y-69530500D01*
X85927000Y-69504500D01*
X85910000Y-69477500D01*
X85895000Y-69449500D01*
X85882000Y-69421500D01*
X85870000Y-69392500D01*
X85859000Y-69362500D01*
X85850000Y-69332500D01*
X85843000Y-69302500D01*
X85837000Y-69271500D01*
X85833000Y-69240500D01*
X85831000Y-69208500D01*
X85830000Y-69177500D01*
X85830000Y-68577500D01*
X85830000Y-67977500D01*
X85831000Y-67946500D01*
X85833000Y-67914500D01*
X85837000Y-67883500D01*
X85843000Y-67852500D01*
X85850000Y-67822500D01*
X85859000Y-67792500D01*
X85870000Y-67762500D01*
X85882000Y-67733500D01*
X85895000Y-67705500D01*
X85910000Y-67677500D01*
X85927000Y-67650500D01*
X85945000Y-67624500D01*
X85964000Y-67599500D01*
X85984000Y-67576500D01*
X86006000Y-67553500D01*
X86029000Y-67531500D01*
X86052000Y-67511500D01*
X86077000Y-67492500D01*
X86103000Y-67474500D01*
X86130000Y-67457500D01*
X86158000Y-67442500D01*
X86186000Y-67429500D01*
X86215000Y-67417500D01*
X86245000Y-67406500D01*
X86275000Y-67397500D01*
X86305000Y-67390500D01*
X86336000Y-67384500D01*
X86367000Y-67380500D01*
X86399000Y-67378500D01*
X86430000Y-67377500D01*
X86461000Y-67378500D01*
G37*
X95101000Y-67378500D02*
X95133000Y-67380500D01*
X95164000Y-67384500D01*
X95195000Y-67390500D01*
X95225000Y-67397500D01*
X95255000Y-67406500D01*
X95285000Y-67417500D01*
X95314000Y-67429500D01*
X95342000Y-67442500D01*
X95370000Y-67457500D01*
X95397000Y-67474500D01*
X95423000Y-67492500D01*
X95448000Y-67511500D01*
X95471000Y-67531500D01*
X95494000Y-67553500D01*
X95516000Y-67576500D01*
X95536000Y-67599500D01*
X95555000Y-67624500D01*
X95573000Y-67650500D01*
X95590000Y-67677500D01*
X95605000Y-67705500D01*
X95618000Y-67733500D01*
X95630000Y-67762500D01*
X95641000Y-67792500D01*
X95650000Y-67822500D01*
X95657000Y-67852500D01*
X95663000Y-67883500D01*
X95667000Y-67914500D01*
X95669000Y-67946500D01*
X95670000Y-67977500D01*
X95670000Y-68577500D01*
X95670000Y-69177500D01*
X95669000Y-69208500D01*
X95667000Y-69240500D01*
X95663000Y-69271500D01*
X95657000Y-69302500D01*
X95650000Y-69332500D01*
X95641000Y-69362500D01*
X95630000Y-69392500D01*
X95618000Y-69421500D01*
X95605000Y-69449500D01*
X95590000Y-69477500D01*
X95573000Y-69504500D01*
X95555000Y-69530500D01*
X95536000Y-69555500D01*
X95516000Y-69578500D01*
X95494000Y-69601500D01*
X95471000Y-69623500D01*
X95448000Y-69643500D01*
X95423000Y-69662500D01*
X95397000Y-69680500D01*
X95370000Y-69697500D01*
X95342000Y-69712500D01*
X95314000Y-69725500D01*
X95285000Y-69737500D01*
X95255000Y-69748500D01*
X95225000Y-69757500D01*
X95195000Y-69764500D01*
X95164000Y-69770500D01*
X95133000Y-69774500D01*
X95101000Y-69776500D01*
X95070000Y-69777500D01*
X95039000Y-69776500D01*
X95007000Y-69774500D01*
X94976000Y-69770500D01*
X94945000Y-69764500D01*
X94915000Y-69757500D01*
X94885000Y-69748500D01*
X94855000Y-69737500D01*
X94826000Y-69725500D01*
X94798000Y-69712500D01*
X94770000Y-69697500D01*
X94743000Y-69680500D01*
X94717000Y-69662500D01*
X94692000Y-69643500D01*
X94669000Y-69623500D01*
X94646000Y-69601500D01*
X94624000Y-69578500D01*
X94604000Y-69555500D01*
X94585000Y-69530500D01*
X94567000Y-69504500D01*
X94550000Y-69477500D01*
X94535000Y-69449500D01*
X94522000Y-69421500D01*
X94510000Y-69392500D01*
X94499000Y-69362500D01*
X94490000Y-69332500D01*
X94483000Y-69302500D01*
X94477000Y-69271500D01*
X94473000Y-69240500D01*
X94471000Y-69208500D01*
X94470000Y-69177500D01*
X94470000Y-68577500D01*
X94470000Y-67977500D01*
X94471000Y-67946500D01*
X94473000Y-67914500D01*
X94477000Y-67883500D01*
X94483000Y-67852500D01*
X94490000Y-67822500D01*
X94499000Y-67792500D01*
X94510000Y-67762500D01*
X94522000Y-67733500D01*
X94535000Y-67705500D01*
X94550000Y-67677500D01*
X94567000Y-67650500D01*
X94585000Y-67624500D01*
X94604000Y-67599500D01*
X94624000Y-67576500D01*
X94646000Y-67553500D01*
X94669000Y-67531500D01*
X94692000Y-67511500D01*
X94717000Y-67492500D01*
X94743000Y-67474500D01*
X94770000Y-67457500D01*
X94798000Y-67442500D01*
X94826000Y-67429500D01*
X94855000Y-67417500D01*
X94885000Y-67406500D01*
X94915000Y-67397500D01*
X94945000Y-67390500D01*
X94976000Y-67384500D01*
X95007000Y-67380500D01*
X95039000Y-67378500D01*
X95070000Y-67377500D01*
X95101000Y-67378500D01*
G36*
X95101000Y-67378500D02*
G01*
X95133000Y-67380500D01*
X95164000Y-67384500D01*
X95195000Y-67390500D01*
X95225000Y-67397500D01*
X95255000Y-67406500D01*
X95285000Y-67417500D01*
X95314000Y-67429500D01*
X95342000Y-67442500D01*
X95370000Y-67457500D01*
X95397000Y-67474500D01*
X95423000Y-67492500D01*
X95448000Y-67511500D01*
X95471000Y-67531500D01*
X95494000Y-67553500D01*
X95516000Y-67576500D01*
X95536000Y-67599500D01*
X95555000Y-67624500D01*
X95573000Y-67650500D01*
X95590000Y-67677500D01*
X95605000Y-67705500D01*
X95618000Y-67733500D01*
X95630000Y-67762500D01*
X95641000Y-67792500D01*
X95650000Y-67822500D01*
X95657000Y-67852500D01*
X95663000Y-67883500D01*
X95667000Y-67914500D01*
X95669000Y-67946500D01*
X95670000Y-67977500D01*
X95670000Y-68577500D01*
X95670000Y-69177500D01*
X95669000Y-69208500D01*
X95667000Y-69240500D01*
X95663000Y-69271500D01*
X95657000Y-69302500D01*
X95650000Y-69332500D01*
X95641000Y-69362500D01*
X95630000Y-69392500D01*
X95618000Y-69421500D01*
X95605000Y-69449500D01*
X95590000Y-69477500D01*
X95573000Y-69504500D01*
X95555000Y-69530500D01*
X95536000Y-69555500D01*
X95516000Y-69578500D01*
X95494000Y-69601500D01*
X95471000Y-69623500D01*
X95448000Y-69643500D01*
X95423000Y-69662500D01*
X95397000Y-69680500D01*
X95370000Y-69697500D01*
X95342000Y-69712500D01*
X95314000Y-69725500D01*
X95285000Y-69737500D01*
X95255000Y-69748500D01*
X95225000Y-69757500D01*
X95195000Y-69764500D01*
X95164000Y-69770500D01*
X95133000Y-69774500D01*
X95101000Y-69776500D01*
X95070000Y-69777500D01*
X95039000Y-69776500D01*
X95007000Y-69774500D01*
X94976000Y-69770500D01*
X94945000Y-69764500D01*
X94915000Y-69757500D01*
X94885000Y-69748500D01*
X94855000Y-69737500D01*
X94826000Y-69725500D01*
X94798000Y-69712500D01*
X94770000Y-69697500D01*
X94743000Y-69680500D01*
X94717000Y-69662500D01*
X94692000Y-69643500D01*
X94669000Y-69623500D01*
X94646000Y-69601500D01*
X94624000Y-69578500D01*
X94604000Y-69555500D01*
X94585000Y-69530500D01*
X94567000Y-69504500D01*
X94550000Y-69477500D01*
X94535000Y-69449500D01*
X94522000Y-69421500D01*
X94510000Y-69392500D01*
X94499000Y-69362500D01*
X94490000Y-69332500D01*
X94483000Y-69302500D01*
X94477000Y-69271500D01*
X94473000Y-69240500D01*
X94471000Y-69208500D01*
X94470000Y-69177500D01*
X94470000Y-68577500D01*
X94470000Y-67977500D01*
X94471000Y-67946500D01*
X94473000Y-67914500D01*
X94477000Y-67883500D01*
X94483000Y-67852500D01*
X94490000Y-67822500D01*
X94499000Y-67792500D01*
X94510000Y-67762500D01*
X94522000Y-67733500D01*
X94535000Y-67705500D01*
X94550000Y-67677500D01*
X94567000Y-67650500D01*
X94585000Y-67624500D01*
X94604000Y-67599500D01*
X94624000Y-67576500D01*
X94646000Y-67553500D01*
X94669000Y-67531500D01*
X94692000Y-67511500D01*
X94717000Y-67492500D01*
X94743000Y-67474500D01*
X94770000Y-67457500D01*
X94798000Y-67442500D01*
X94826000Y-67429500D01*
X94855000Y-67417500D01*
X94885000Y-67406500D01*
X94915000Y-67397500D01*
X94945000Y-67390500D01*
X94976000Y-67384500D01*
X95007000Y-67380500D01*
X95039000Y-67378500D01*
X95070000Y-67377500D01*
X95101000Y-67378500D01*
G37*
%TO.C,JP2*%
G36*
X157250000Y-93700000D02*
G01*
X158750000Y-93700000D01*
X158750000Y-94000000D01*
X157250000Y-94000000D01*
X157250000Y-93700000D01*
G37*
%TD*%
D11*
%TO.C,J1*%
X126325000Y-68725000D03*
D12*
X128865000Y-68725000D03*
X131405000Y-68725000D03*
X133945000Y-68725000D03*
X136485000Y-68725000D03*
X139025000Y-68725000D03*
X141565000Y-68725000D03*
X144105000Y-68725000D03*
%TD*%
D11*
%TO.C,J4*%
X82425000Y-118275000D03*
D12*
X82425000Y-120815000D03*
X82425000Y-123355000D03*
%TD*%
D13*
%TO.C,TP13*%
X116500000Y-96000000D03*
%TD*%
D14*
%TO.C,J11*%
X95070000Y-72577500D03*
X86430000Y-72577500D03*
%TD*%
D11*
%TO.C,J2*%
X154380000Y-68800000D03*
D12*
X156920000Y-68800000D03*
X159460000Y-68800000D03*
X162000000Y-68800000D03*
X164540000Y-68800000D03*
X167080000Y-68800000D03*
X169620000Y-68800000D03*
X172160000Y-68800000D03*
%TD*%
D11*
%TO.C,J5*%
X116475000Y-68975000D03*
D12*
X119015000Y-68975000D03*
X121555000Y-68975000D03*
%TD*%
D11*
%TO.C,J6*%
X82000000Y-112000000D03*
D12*
X82000000Y-114540000D03*
%TD*%
D11*
%TO.C,J12*%
X148250000Y-68975000D03*
D15*
X150790000Y-68975000D03*
%TD*%
D13*
%TO.C,TP12*%
X109500000Y-96000000D03*
%TD*%
D11*
%TO.C,J3*%
X112340000Y-68800000D03*
D12*
X109800000Y-68800000D03*
X107260000Y-68800000D03*
X104720000Y-68800000D03*
X102180000Y-68800000D03*
X99640000Y-68800000D03*
%TD*%
D16*
%TO.C,C26*%
X119300000Y-76725000D03*
X119300000Y-75000000D03*
%TD*%
%TO.C,C62*%
X151300000Y-77012500D03*
X151300000Y-75287500D03*
%TD*%
%TO.C,C57*%
X120000000Y-80137500D03*
X120000000Y-78412500D03*
%TD*%
%TO.C,C18*%
X169000000Y-79912500D03*
X169000000Y-78187500D03*
%TD*%
D17*
%TO.C,C9*%
X135587500Y-73000000D03*
X133862500Y-73000000D03*
%TD*%
D16*
%TO.C,C25*%
X116200000Y-76850000D03*
X116200000Y-75125000D03*
%TD*%
%TO.C,C59*%
X122500000Y-80137500D03*
X122500000Y-78412500D03*
%TD*%
%TO.C,C58*%
X124100000Y-77062500D03*
X124100000Y-75337500D03*
%TD*%
%TO.C,C61*%
X148850000Y-77062500D03*
X148850000Y-75337500D03*
%TD*%
%TO.C,C56*%
X121550000Y-76712500D03*
X121550000Y-74987500D03*
%TD*%
%TO.C,C21*%
X140500000Y-74412500D03*
X140500000Y-72687500D03*
%TD*%
%TO.C,C63*%
X150000000Y-80537500D03*
X150000000Y-78812500D03*
%TD*%
%TO.C,C24*%
X160550000Y-78200000D03*
X160550000Y-76475000D03*
%TD*%
%TO.C,C27*%
X117500000Y-80375000D03*
X117500000Y-78650000D03*
%TD*%
%TO.C,C65*%
X152500000Y-80587500D03*
X152500000Y-78862500D03*
%TD*%
D17*
%TO.C,C11*%
X167100000Y-71700000D03*
X165375000Y-71700000D03*
%TD*%
D16*
%TO.C,C64*%
X154000000Y-77087500D03*
X154000000Y-75362500D03*
%TD*%
D18*
%TO.C,JP2*%
X158000000Y-93200000D03*
D19*
X158000000Y-94500000D03*
%TD*%
D16*
%TO.C,C23*%
X162150000Y-78175000D03*
X162150000Y-76450000D03*
%TD*%
%TO.C,C67*%
X155000000Y-80587500D03*
X155000000Y-78862500D03*
%TD*%
%TO.C,C60*%
X125700000Y-79637500D03*
X125700000Y-77912500D03*
%TD*%
%TO.C,C66*%
X156500000Y-77137500D03*
X156500000Y-75412500D03*
%TD*%
%TO.C,C68*%
X157500000Y-80587500D03*
X157500000Y-78862500D03*
%TD*%
M02*
