M48
; DRILL file {KiCad 9.0.0} date 2025-05-06T12:07:44+0200
; FORMAT={-:-/ absolute / metric / decimal}
; #@! TF.CreationDate,2025-05-06T12:07:44+02:00
; #@! TF.GenerationSoftware,Kicad,Pcbnew,9.0.0
; #@! TF.FileFunction,Plated,1,4,PTH
FMAT,2
METRIC
; #@! TA.AperFunction,Plated,PTH,ViaDrill
T1C0.200
; #@! TA.AperFunction,Plated,PTH,ViaDrill
T2C0.300
; #@! TA.AperFunction,Plated,PTH,ComponentDrill
T3C0.300
; #@! TA.AperFunction,Plated,PTH,ComponentDrill
T4C0.600
; #@! TA.AperFunction,Plated,PTH,ComponentDrill
T5C1.000
; #@! TA.AperFunction,Plated,PTH,ComponentDrill
T6C1.020
%
G90
G05
T1
X89.4Y-123.4
X91.5Y-121.7
X102.5Y-71.9
X102.5Y-77.4
X105.0Y-73.9
X105.0Y-80.7
X107.56Y-73.74
X114.3Y-93.75
X116.9Y-96.001
X130.38Y-113.03
X135.5Y-89.0
X135.5Y-91.0
X136.3Y-110.1
X140.5Y-98.0
X143.2Y-84.275
X144.0Y-98.25
X145.5Y-102.75
X146.9Y-84.275
X148.233Y-105.432
X148.25Y-90.25
X148.345Y-86.97
X148.465Y-83.179
X149.25Y-104.543
X150.0Y-106.4
X150.068Y-95.839
X150.454Y-95.351
X150.654Y-94.499
X152.824Y-104.05
X154.203Y-97.0
X154.24Y-97.671
X154.418Y-116.095
X154.579Y-98.321
X155.0Y-115.9
X155.5Y-101.5
X155.615Y-88.635
X157.0Y-88.75
T2
X80.75Y-88.5
X80.75Y-103.0
X80.75Y-112.0
X80.8Y-118.2
X81.48Y-75.55
X81.48Y-78.05
X85.2Y-68.6
X85.25Y-70.25
X85.25Y-72.75
X85.6Y-87.0
X85.75Y-85.8
X86.25Y-75.8
X86.5Y-74.05
X86.795Y-77.55
X86.795Y-78.55
X87.0Y-76.5
X87.347Y-107.002
X87.347Y-108.002
X87.48Y-100.02
X87.5Y-87.75
X88.25Y-79.0
X88.285Y-83.4
X88.35Y-72.0
X89.5Y-120.0
X89.75Y-124.75
X90.0Y-81.32
X91.25Y-120.5
X91.425Y-109.35
X93.0Y-72.0
X93.0Y-87.75
X93.238Y-116.447
X93.95Y-74.611
X94.0Y-81.54
X94.7Y-109.45
X96.095Y-107.093
X96.095Y-108.093
X96.25Y-68.75
X96.488Y-116.447
X96.5Y-72.5
X96.65Y-109.475
X98.0Y-70.25
X98.84Y-99.1
X99.425Y-109.525
X99.59Y-99.85
X99.988Y-119.697
X99.988Y-120.697
X100.34Y-99.1
X100.75Y-90.8
X101.09Y-99.85
X101.5Y-84.25
X101.84Y-99.1
X102.05Y-124.0
X102.75Y-109.375
X102.8Y-84.25
X103.5Y-73.75
X103.5Y-76.75
X103.5Y-80.5
X104.5Y-95.0
X105.395Y-106.02
X105.9Y-122.3
X106.25Y-74.5
X106.25Y-88.75
X108.5Y-74.5
X109.0Y-101.5
X109.8Y-70.6
X110.0Y-83.25
X111.0Y-100.5
X111.295Y-112.295
X111.5Y-125.5
X111.75Y-76.75
X112.2Y-71.0
X113.59Y-120.6
X114.75Y-78.75
X115.5Y-94.75
X116.25Y-89.5
X116.4Y-71.2
X117.0Y-78.0
X117.15Y-115.0
X117.25Y-108.65
X117.5Y-99.75
X117.75Y-97.5
X118.0Y-122.5
X119.25Y-125.5
X119.5Y-83.75
X120.2Y-74.0
X121.75Y-95.0
X122.75Y-103.75
X124.25Y-87.0
X124.75Y-98.0
X127.0Y-91.25
X127.75Y-77.0
X129.0Y-119.0
X129.15Y-113.65
X130.6Y-110.895
X131.25Y-94.75
X131.5Y-113.0
X131.9Y-110.9
X132.75Y-120.75
X133.25Y-97.5
X133.5Y-114.25
X134.0Y-73.2
X134.225Y-100.25
X134.5Y-104.5
X134.75Y-83.25
X135.25Y-109.25
X135.5Y-124.75
X136.5Y-90.0
X136.5Y-116.75
X136.6Y-73.2
X138.75Y-92.5
X138.75Y-121.0
X139.0Y-126.0
X139.2Y-73.2
X139.75Y-80.25
X140.25Y-111.0
X140.75Y-90.0
X141.0Y-94.75
X141.6Y-73.0
X141.75Y-99.0
X142.736Y-126.906
X142.75Y-118.75
X142.75Y-120.75
X142.75Y-123.0
X142.75Y-125.0
X142.78Y-101.0
X143.0Y-95.0
X143.0Y-109.0
X143.4Y-85.2
X143.57Y-102.77
X143.8Y-117.35
X144.2Y-73.2
X144.5Y-102.829
X145.25Y-115.0
X146.0Y-104.5
X146.25Y-92.25
X146.4Y-117.4
X146.54Y-81.54
X146.565Y-82.57
X146.575Y-95.4
X146.7Y-94.5
X147.0Y-73.2
X147.24Y-85.12
X147.265Y-86.145
X147.75Y-115.0
X147.825Y-102.2
X147.9Y-100.0
X148.025Y-97.95
X148.25Y-117.5
X148.5Y-111.25
X149.02Y-92.5
X149.025Y-101.075
X149.1Y-99.175
X149.27Y-89.994
X149.5Y-113.8
X149.6Y-73.2
X149.975Y-98.075
X150.02Y-92.5
X150.02Y-94.0
X150.075Y-102.15
X150.25Y-115.45
X151.075Y-99.2
X151.15Y-101.1
X151.25Y-112.7
X151.35Y-105.0
X151.5Y-106.0
X151.5Y-110.326
X151.815Y-79.87
X151.865Y-77.82
X151.865Y-82.92
X151.905Y-107.781
X152.1Y-102.225
X152.125Y-98.025
X152.175Y-99.975
X152.5Y-116.0
X152.528Y-95.6
X152.6Y-74.32
X153.0Y-117.5
X153.365Y-77.82
X153.4Y-115.6
X153.5Y-96.55
X153.515Y-79.72
X153.55Y-95.7
X153.765Y-82.97
X155.0Y-106.5
X155.15Y-108.75
X155.2Y-73.2
X155.25Y-117.5
X155.3Y-110.626
X155.395Y-104.6
X155.7Y-94.51
X156.75Y-98.5
X156.75Y-108.5
X157.265Y-81.87
X157.5Y-117.0
X157.695Y-96.16
X157.75Y-115.75
X157.8Y-73.2
X157.839Y-101.129
X157.86Y-101.91
X157.86Y-102.71
X157.96Y-99.41
X158.0Y-87.234
X158.0Y-91.25
X158.0Y-93.0
X158.25Y-89.0
X158.25Y-118.5
X158.3Y-107.576
X158.7Y-96.1
X159.365Y-98.11
X159.75Y-83.75
X159.75Y-84.75
X159.75Y-105.5
X159.75Y-108.5
X159.75Y-113.0
X160.25Y-116.0
X160.25Y-118.5
X160.4Y-73.2
X160.818Y-96.648
X161.0Y-85.25
X161.3Y-110.626
X161.4Y-100.6
X161.525Y-102.31
X161.7Y-101.3
X161.768Y-96.528
X162.5Y-78.25
X162.5Y-85.75
X162.5Y-117.25
X162.5Y-118.5
X162.75Y-104.75
X163.0Y-73.2
X163.25Y-114.3
X163.418Y-95.673
X163.75Y-110.75
X164.25Y-108.0
X165.0Y-115.25
X165.0Y-117.75
X165.5Y-104.75
X165.8Y-73.2
X166.0Y-85.25
X167.0Y-85.25
X167.0Y-106.25
X167.0Y-108.5
X167.0Y-110.75
X167.0Y-113.0
X167.0Y-115.25
X167.25Y-117.75
X168.25Y-84.25
X168.4Y-73.2
X169.25Y-79.25
X169.525Y-94.716
X170.5Y-85.293
X171.2Y-73.2
X172.5Y-87.5
X173.2Y-73.0
T3
X168.25Y-118.6
T5
X82.0Y-102.96
X82.0Y-105.5
X82.0Y-112.0
X82.0Y-114.54
X82.425Y-118.275
X82.425Y-120.815
X82.425Y-123.355
X90.2Y-112.0
X90.2Y-114.54
X90.2Y-117.08
X98.975Y-112.045
X98.975Y-114.585
X98.975Y-117.125
X99.64Y-68.8
X102.18Y-68.8
X104.72Y-68.8
X107.26Y-68.8
X109.8Y-68.8
X112.34Y-68.8
X116.475Y-68.975
X119.015Y-68.975
X121.555Y-68.975
X132.64Y-68.8
X135.18Y-68.8
X137.72Y-68.8
X140.26Y-68.8
X142.8Y-68.8
X145.34Y-68.8
X147.88Y-68.8
X150.42Y-68.8
X154.38Y-68.8
X156.92Y-68.8
X159.46Y-68.8
X162.0Y-68.8
X164.54Y-68.8
X167.08Y-68.8
X169.62Y-68.8
X172.16Y-68.8
T6
X84.0Y-98.75
X106.0Y-93.75
X111.75Y-93.75
X138.75Y-97.75
X143.25Y-92.5
X172.05Y-83.9
T4
G00X86.43Y-69.177
M15
G01X86.43Y-67.977
M16
G05
G00X86.43Y-72.977
M15
G01X86.43Y-72.177
M16
G05
G00X95.07Y-69.177
M15
G01X95.07Y-67.977
M16
G05
G00X95.07Y-72.977
M15
G01X95.07Y-72.177
M16
G05
M30
