%TF.GenerationSoftware,KiCad,Pcbnew,9.0.0*%
%TF.CreationDate,2025-05-06T12:07:41+02:00*%
%TF.ProjectId,Processing_board,50726f63-6573-4736-996e-675f626f6172,rev?*%
%TF.SameCoordinates,Original*%
%TF.FileFunction,Soldermask,Top*%
%TF.FilePolarity,Negative*%
%FSLAX46Y46*%
G04 Gerber Fmt 4.6, Leading zero omitted, Abs format (unit mm)*
G04 Created by KiCad (PCBNEW 9.0.0) date 2025-05-06 12:07:41*
%MOMM*%
%LPD*%
G01*
G04 APERTURE LIST*
G04 Aperture macros list*
%AMRoundRect*
0 Rectangle with rounded corners*
0 $1 Rounding radius*
0 $2 $3 $4 $5 $6 $7 $8 $9 X,Y pos of 4 corners*
0 Add a 4 corners polygon primitive as box body*
4,1,4,$2,$3,$4,$5,$6,$7,$8,$9,$2,$3,0*
0 Add four circle primitives for the rounded corners*
1,1,$1+$1,$2,$3*
1,1,$1+$1,$4,$5*
1,1,$1+$1,$6,$7*
1,1,$1+$1,$8,$9*
0 Add four rect primitives between the rounded corners*
20,1,$1+$1,$2,$3,$4,$5,0*
20,1,$1+$1,$4,$5,$6,$7,0*
20,1,$1+$1,$6,$7,$8,$9,0*
20,1,$1+$1,$8,$9,$2,$3,0*%
%AMFreePoly0*
4,1,23,0.500000,-0.750000,0.000000,-0.750000,0.000000,-0.745722,-0.065263,-0.745722,-0.191342,-0.711940,-0.304381,-0.646677,-0.396677,-0.554381,-0.461940,-0.441342,-0.495722,-0.315263,-0.495722,-0.250000,-0.500000,-0.250000,-0.500000,0.250000,-0.495722,0.250000,-0.495722,0.315263,-0.461940,0.441342,-0.396677,0.554381,-0.304381,0.646677,-0.191342,0.711940,-0.065263,0.745722,0.000000,0.745722,
0.000000,0.750000,0.500000,0.750000,0.500000,-0.750000,0.500000,-0.750000,$1*%
%AMFreePoly1*
4,1,23,0.000000,0.745722,0.065263,0.745722,0.191342,0.711940,0.304381,0.646677,0.396677,0.554381,0.461940,0.441342,0.495722,0.315263,0.495722,0.250000,0.500000,0.250000,0.500000,-0.250000,0.495722,-0.250000,0.495722,-0.315263,0.461940,-0.441342,0.396677,-0.554381,0.304381,-0.646677,0.191342,-0.711940,0.065263,-0.745722,0.000000,-0.745722,0.000000,-0.750000,-0.500000,-0.750000,
-0.500000,0.750000,0.000000,0.750000,0.000000,0.745722,0.000000,0.745722,$1*%
G04 Aperture macros list end*
%ADD10C,0.010000*%
%ADD11RoundRect,0.140000X-0.140000X-0.170000X0.140000X-0.170000X0.140000X0.170000X-0.140000X0.170000X0*%
%ADD12R,0.650000X1.528000*%
%ADD13C,1.000000*%
%ADD14RoundRect,0.140000X0.140000X0.170000X-0.140000X0.170000X-0.140000X-0.170000X0.140000X-0.170000X0*%
%ADD15RoundRect,0.140000X0.170000X-0.140000X0.170000X0.140000X-0.170000X0.140000X-0.170000X-0.140000X0*%
%ADD16R,1.700000X1.700000*%
%ADD17O,1.700000X1.700000*%
%ADD18RoundRect,0.135000X0.135000X0.185000X-0.135000X0.185000X-0.135000X-0.185000X0.135000X-0.185000X0*%
%ADD19C,1.734000*%
%ADD20RoundRect,0.135000X0.185000X-0.135000X0.185000X0.135000X-0.185000X0.135000X-0.185000X-0.135000X0*%
%ADD21RoundRect,0.147500X-0.172500X0.147500X-0.172500X-0.147500X0.172500X-0.147500X0.172500X0.147500X0*%
%ADD22RoundRect,0.135000X-0.135000X-0.185000X0.135000X-0.185000X0.135000X0.185000X-0.135000X0.185000X0*%
%ADD23RoundRect,0.375000X-0.375000X0.625000X-0.375000X-0.625000X0.375000X-0.625000X0.375000X0.625000X0*%
%ADD24RoundRect,0.500000X-1.400000X0.500000X-1.400000X-0.500000X1.400000X-0.500000X1.400000X0.500000X0*%
%ADD25R,1.000000X0.400000*%
%ADD26RoundRect,0.225000X0.225000X0.250000X-0.225000X0.250000X-0.225000X-0.250000X0.225000X-0.250000X0*%
%ADD27R,1.404099X0.279400*%
%ADD28R,1.000000X2.100000*%
%ADD29R,4.900000X5.850000*%
%ADD30RoundRect,0.140000X-0.170000X0.140000X-0.170000X-0.140000X0.170000X-0.140000X0.170000X0.140000X0*%
%ADD31RoundRect,0.090000X0.300000X0.575000X-0.300000X0.575000X-0.300000X-0.575000X0.300000X-0.575000X0*%
%ADD32RoundRect,0.090000X0.150000X0.575000X-0.150000X0.575000X-0.150000X-0.575000X0.150000X-0.575000X0*%
%ADD33O,1.204000X2.004000*%
%ADD34R,0.300000X0.550000*%
%ADD35R,0.550000X0.300000*%
%ADD36R,5.599999X5.599999*%
%ADD37R,0.700000X0.275000*%
%ADD38R,0.245000X0.450000*%
%ADD39R,0.650000X1.525000*%
%ADD40RoundRect,0.135000X-0.185000X0.135000X-0.185000X-0.135000X0.185000X-0.135000X0.185000X0.135000X0*%
%ADD41R,1.600000X1.400000*%
%ADD42R,1.000000X1.050000*%
%ADD43R,1.050000X2.200000*%
%ADD44RoundRect,0.218750X0.218750X0.381250X-0.218750X0.381250X-0.218750X-0.381250X0.218750X-0.381250X0*%
%ADD45C,2.200000*%
%ADD46R,1.200000X1.000000*%
%ADD47R,1.200000X1.150000*%
%ADD48R,1.500000X1.550000*%
%ADD49R,0.250000X0.250000*%
%ADD50RoundRect,0.375000X0.375000X-0.625000X0.375000X0.625000X-0.375000X0.625000X-0.375000X-0.625000X0*%
%ADD51RoundRect,0.500000X1.400000X-0.500000X1.400000X0.500000X-1.400000X0.500000X-1.400000X-0.500000X0*%
%ADD52FreePoly0,0.000000*%
%ADD53FreePoly1,0.000000*%
%ADD54RoundRect,0.147500X-0.147500X-0.172500X0.147500X-0.172500X0.147500X0.172500X-0.147500X0.172500X0*%
%ADD55R,1.800000X1.150000*%
%ADD56RoundRect,0.250000X0.250000X0.475000X-0.250000X0.475000X-0.250000X-0.475000X0.250000X-0.475000X0*%
%ADD57RoundRect,0.250000X-0.250000X-0.475000X0.250000X-0.475000X0.250000X0.475000X-0.250000X0.475000X0*%
%ADD58RoundRect,0.147500X0.147500X0.172500X-0.147500X0.172500X-0.147500X-0.172500X0.147500X-0.172500X0*%
%ADD59R,0.889000X0.812800*%
%ADD60R,1.000000X1.200000*%
%ADD61R,1.150000X1.200000*%
%ADD62R,1.550000X1.500000*%
%ADD63RoundRect,0.225000X-0.250000X0.225000X-0.250000X-0.225000X0.250000X-0.225000X0.250000X0.225000X0*%
%ADD64R,5.500000X2.000000*%
%ADD65R,0.650000X1.850000*%
G04 APERTURE END LIST*
D10*
%TO.C,J11*%
X86461000Y-67378500D02*
X86493000Y-67380500D01*
X86524000Y-67384500D01*
X86555000Y-67390500D01*
X86585000Y-67397500D01*
X86615000Y-67406500D01*
X86645000Y-67417500D01*
X86674000Y-67429500D01*
X86702000Y-67442500D01*
X86730000Y-67457500D01*
X86757000Y-67474500D01*
X86783000Y-67492500D01*
X86808000Y-67511500D01*
X86831000Y-67531500D01*
X86854000Y-67553500D01*
X86876000Y-67576500D01*
X86896000Y-67599500D01*
X86915000Y-67624500D01*
X86933000Y-67650500D01*
X86950000Y-67677500D01*
X86965000Y-67705500D01*
X86978000Y-67733500D01*
X86990000Y-67762500D01*
X87001000Y-67792500D01*
X87010000Y-67822500D01*
X87017000Y-67852500D01*
X87023000Y-67883500D01*
X87027000Y-67914500D01*
X87029000Y-67946500D01*
X87030000Y-67977500D01*
X87030000Y-68577500D01*
X87030000Y-69177500D01*
X87029000Y-69208500D01*
X87027000Y-69240500D01*
X87023000Y-69271500D01*
X87017000Y-69302500D01*
X87010000Y-69332500D01*
X87001000Y-69362500D01*
X86990000Y-69392500D01*
X86978000Y-69421500D01*
X86965000Y-69449500D01*
X86950000Y-69477500D01*
X86933000Y-69504500D01*
X86915000Y-69530500D01*
X86896000Y-69555500D01*
X86876000Y-69578500D01*
X86854000Y-69601500D01*
X86831000Y-69623500D01*
X86808000Y-69643500D01*
X86783000Y-69662500D01*
X86757000Y-69680500D01*
X86730000Y-69697500D01*
X86702000Y-69712500D01*
X86674000Y-69725500D01*
X86645000Y-69737500D01*
X86615000Y-69748500D01*
X86585000Y-69757500D01*
X86555000Y-69764500D01*
X86524000Y-69770500D01*
X86493000Y-69774500D01*
X86461000Y-69776500D01*
X86430000Y-69777500D01*
X86399000Y-69776500D01*
X86367000Y-69774500D01*
X86336000Y-69770500D01*
X86305000Y-69764500D01*
X86275000Y-69757500D01*
X86245000Y-69748500D01*
X86215000Y-69737500D01*
X86186000Y-69725500D01*
X86158000Y-69712500D01*
X86130000Y-69697500D01*
X86103000Y-69680500D01*
X86077000Y-69662500D01*
X86052000Y-69643500D01*
X86029000Y-69623500D01*
X86006000Y-69601500D01*
X85984000Y-69578500D01*
X85964000Y-69555500D01*
X85945000Y-69530500D01*
X85927000Y-69504500D01*
X85910000Y-69477500D01*
X85895000Y-69449500D01*
X85882000Y-69421500D01*
X85870000Y-69392500D01*
X85859000Y-69362500D01*
X85850000Y-69332500D01*
X85843000Y-69302500D01*
X85837000Y-69271500D01*
X85833000Y-69240500D01*
X85831000Y-69208500D01*
X85830000Y-69177500D01*
X85830000Y-68577500D01*
X85830000Y-67977500D01*
X85831000Y-67946500D01*
X85833000Y-67914500D01*
X85837000Y-67883500D01*
X85843000Y-67852500D01*
X85850000Y-67822500D01*
X85859000Y-67792500D01*
X85870000Y-67762500D01*
X85882000Y-67733500D01*
X85895000Y-67705500D01*
X85910000Y-67677500D01*
X85927000Y-67650500D01*
X85945000Y-67624500D01*
X85964000Y-67599500D01*
X85984000Y-67576500D01*
X86006000Y-67553500D01*
X86029000Y-67531500D01*
X86052000Y-67511500D01*
X86077000Y-67492500D01*
X86103000Y-67474500D01*
X86130000Y-67457500D01*
X86158000Y-67442500D01*
X86186000Y-67429500D01*
X86215000Y-67417500D01*
X86245000Y-67406500D01*
X86275000Y-67397500D01*
X86305000Y-67390500D01*
X86336000Y-67384500D01*
X86367000Y-67380500D01*
X86399000Y-67378500D01*
X86430000Y-67377500D01*
X86461000Y-67378500D01*
G36*
X86461000Y-67378500D02*
G01*
X86493000Y-67380500D01*
X86524000Y-67384500D01*
X86555000Y-67390500D01*
X86585000Y-67397500D01*
X86615000Y-67406500D01*
X86645000Y-67417500D01*
X86674000Y-67429500D01*
X86702000Y-67442500D01*
X86730000Y-67457500D01*
X86757000Y-67474500D01*
X86783000Y-67492500D01*
X86808000Y-67511500D01*
X86831000Y-67531500D01*
X86854000Y-67553500D01*
X86876000Y-67576500D01*
X86896000Y-67599500D01*
X86915000Y-67624500D01*
X86933000Y-67650500D01*
X86950000Y-67677500D01*
X86965000Y-67705500D01*
X86978000Y-67733500D01*
X86990000Y-67762500D01*
X87001000Y-67792500D01*
X87010000Y-67822500D01*
X87017000Y-67852500D01*
X87023000Y-67883500D01*
X87027000Y-67914500D01*
X87029000Y-67946500D01*
X87030000Y-67977500D01*
X87030000Y-68577500D01*
X87030000Y-69177500D01*
X87029000Y-69208500D01*
X87027000Y-69240500D01*
X87023000Y-69271500D01*
X87017000Y-69302500D01*
X87010000Y-69332500D01*
X87001000Y-69362500D01*
X86990000Y-69392500D01*
X86978000Y-69421500D01*
X86965000Y-69449500D01*
X86950000Y-69477500D01*
X86933000Y-69504500D01*
X86915000Y-69530500D01*
X86896000Y-69555500D01*
X86876000Y-69578500D01*
X86854000Y-69601500D01*
X86831000Y-69623500D01*
X86808000Y-69643500D01*
X86783000Y-69662500D01*
X86757000Y-69680500D01*
X86730000Y-69697500D01*
X86702000Y-69712500D01*
X86674000Y-69725500D01*
X86645000Y-69737500D01*
X86615000Y-69748500D01*
X86585000Y-69757500D01*
X86555000Y-69764500D01*
X86524000Y-69770500D01*
X86493000Y-69774500D01*
X86461000Y-69776500D01*
X86430000Y-69777500D01*
X86399000Y-69776500D01*
X86367000Y-69774500D01*
X86336000Y-69770500D01*
X86305000Y-69764500D01*
X86275000Y-69757500D01*
X86245000Y-69748500D01*
X86215000Y-69737500D01*
X86186000Y-69725500D01*
X86158000Y-69712500D01*
X86130000Y-69697500D01*
X86103000Y-69680500D01*
X86077000Y-69662500D01*
X86052000Y-69643500D01*
X86029000Y-69623500D01*
X86006000Y-69601500D01*
X85984000Y-69578500D01*
X85964000Y-69555500D01*
X85945000Y-69530500D01*
X85927000Y-69504500D01*
X85910000Y-69477500D01*
X85895000Y-69449500D01*
X85882000Y-69421500D01*
X85870000Y-69392500D01*
X85859000Y-69362500D01*
X85850000Y-69332500D01*
X85843000Y-69302500D01*
X85837000Y-69271500D01*
X85833000Y-69240500D01*
X85831000Y-69208500D01*
X85830000Y-69177500D01*
X85830000Y-68577500D01*
X85830000Y-67977500D01*
X85831000Y-67946500D01*
X85833000Y-67914500D01*
X85837000Y-67883500D01*
X85843000Y-67852500D01*
X85850000Y-67822500D01*
X85859000Y-67792500D01*
X85870000Y-67762500D01*
X85882000Y-67733500D01*
X85895000Y-67705500D01*
X85910000Y-67677500D01*
X85927000Y-67650500D01*
X85945000Y-67624500D01*
X85964000Y-67599500D01*
X85984000Y-67576500D01*
X86006000Y-67553500D01*
X86029000Y-67531500D01*
X86052000Y-67511500D01*
X86077000Y-67492500D01*
X86103000Y-67474500D01*
X86130000Y-67457500D01*
X86158000Y-67442500D01*
X86186000Y-67429500D01*
X86215000Y-67417500D01*
X86245000Y-67406500D01*
X86275000Y-67397500D01*
X86305000Y-67390500D01*
X86336000Y-67384500D01*
X86367000Y-67380500D01*
X86399000Y-67378500D01*
X86430000Y-67377500D01*
X86461000Y-67378500D01*
G37*
X95101000Y-67378500D02*
X95133000Y-67380500D01*
X95164000Y-67384500D01*
X95195000Y-67390500D01*
X95225000Y-67397500D01*
X95255000Y-67406500D01*
X95285000Y-67417500D01*
X95314000Y-67429500D01*
X95342000Y-67442500D01*
X95370000Y-67457500D01*
X95397000Y-67474500D01*
X95423000Y-67492500D01*
X95448000Y-67511500D01*
X95471000Y-67531500D01*
X95494000Y-67553500D01*
X95516000Y-67576500D01*
X95536000Y-67599500D01*
X95555000Y-67624500D01*
X95573000Y-67650500D01*
X95590000Y-67677500D01*
X95605000Y-67705500D01*
X95618000Y-67733500D01*
X95630000Y-67762500D01*
X95641000Y-67792500D01*
X95650000Y-67822500D01*
X95657000Y-67852500D01*
X95663000Y-67883500D01*
X95667000Y-67914500D01*
X95669000Y-67946500D01*
X95670000Y-67977500D01*
X95670000Y-68577500D01*
X95670000Y-69177500D01*
X95669000Y-69208500D01*
X95667000Y-69240500D01*
X95663000Y-69271500D01*
X95657000Y-69302500D01*
X95650000Y-69332500D01*
X95641000Y-69362500D01*
X95630000Y-69392500D01*
X95618000Y-69421500D01*
X95605000Y-69449500D01*
X95590000Y-69477500D01*
X95573000Y-69504500D01*
X95555000Y-69530500D01*
X95536000Y-69555500D01*
X95516000Y-69578500D01*
X95494000Y-69601500D01*
X95471000Y-69623500D01*
X95448000Y-69643500D01*
X95423000Y-69662500D01*
X95397000Y-69680500D01*
X95370000Y-69697500D01*
X95342000Y-69712500D01*
X95314000Y-69725500D01*
X95285000Y-69737500D01*
X95255000Y-69748500D01*
X95225000Y-69757500D01*
X95195000Y-69764500D01*
X95164000Y-69770500D01*
X95133000Y-69774500D01*
X95101000Y-69776500D01*
X95070000Y-69777500D01*
X95039000Y-69776500D01*
X95007000Y-69774500D01*
X94976000Y-69770500D01*
X94945000Y-69764500D01*
X94915000Y-69757500D01*
X94885000Y-69748500D01*
X94855000Y-69737500D01*
X94826000Y-69725500D01*
X94798000Y-69712500D01*
X94770000Y-69697500D01*
X94743000Y-69680500D01*
X94717000Y-69662500D01*
X94692000Y-69643500D01*
X94669000Y-69623500D01*
X94646000Y-69601500D01*
X94624000Y-69578500D01*
X94604000Y-69555500D01*
X94585000Y-69530500D01*
X94567000Y-69504500D01*
X94550000Y-69477500D01*
X94535000Y-69449500D01*
X94522000Y-69421500D01*
X94510000Y-69392500D01*
X94499000Y-69362500D01*
X94490000Y-69332500D01*
X94483000Y-69302500D01*
X94477000Y-69271500D01*
X94473000Y-69240500D01*
X94471000Y-69208500D01*
X94470000Y-69177500D01*
X94470000Y-68577500D01*
X94470000Y-67977500D01*
X94471000Y-67946500D01*
X94473000Y-67914500D01*
X94477000Y-67883500D01*
X94483000Y-67852500D01*
X94490000Y-67822500D01*
X94499000Y-67792500D01*
X94510000Y-67762500D01*
X94522000Y-67733500D01*
X94535000Y-67705500D01*
X94550000Y-67677500D01*
X94567000Y-67650500D01*
X94585000Y-67624500D01*
X94604000Y-67599500D01*
X94624000Y-67576500D01*
X94646000Y-67553500D01*
X94669000Y-67531500D01*
X94692000Y-67511500D01*
X94717000Y-67492500D01*
X94743000Y-67474500D01*
X94770000Y-67457500D01*
X94798000Y-67442500D01*
X94826000Y-67429500D01*
X94855000Y-67417500D01*
X94885000Y-67406500D01*
X94915000Y-67397500D01*
X94945000Y-67390500D01*
X94976000Y-67384500D01*
X95007000Y-67380500D01*
X95039000Y-67378500D01*
X95070000Y-67377500D01*
X95101000Y-67378500D01*
G36*
X95101000Y-67378500D02*
G01*
X95133000Y-67380500D01*
X95164000Y-67384500D01*
X95195000Y-67390500D01*
X95225000Y-67397500D01*
X95255000Y-67406500D01*
X95285000Y-67417500D01*
X95314000Y-67429500D01*
X95342000Y-67442500D01*
X95370000Y-67457500D01*
X95397000Y-67474500D01*
X95423000Y-67492500D01*
X95448000Y-67511500D01*
X95471000Y-67531500D01*
X95494000Y-67553500D01*
X95516000Y-67576500D01*
X95536000Y-67599500D01*
X95555000Y-67624500D01*
X95573000Y-67650500D01*
X95590000Y-67677500D01*
X95605000Y-67705500D01*
X95618000Y-67733500D01*
X95630000Y-67762500D01*
X95641000Y-67792500D01*
X95650000Y-67822500D01*
X95657000Y-67852500D01*
X95663000Y-67883500D01*
X95667000Y-67914500D01*
X95669000Y-67946500D01*
X95670000Y-67977500D01*
X95670000Y-68577500D01*
X95670000Y-69177500D01*
X95669000Y-69208500D01*
X95667000Y-69240500D01*
X95663000Y-69271500D01*
X95657000Y-69302500D01*
X95650000Y-69332500D01*
X95641000Y-69362500D01*
X95630000Y-69392500D01*
X95618000Y-69421500D01*
X95605000Y-69449500D01*
X95590000Y-69477500D01*
X95573000Y-69504500D01*
X95555000Y-69530500D01*
X95536000Y-69555500D01*
X95516000Y-69578500D01*
X95494000Y-69601500D01*
X95471000Y-69623500D01*
X95448000Y-69643500D01*
X95423000Y-69662500D01*
X95397000Y-69680500D01*
X95370000Y-69697500D01*
X95342000Y-69712500D01*
X95314000Y-69725500D01*
X95285000Y-69737500D01*
X95255000Y-69748500D01*
X95225000Y-69757500D01*
X95195000Y-69764500D01*
X95164000Y-69770500D01*
X95133000Y-69774500D01*
X95101000Y-69776500D01*
X95070000Y-69777500D01*
X95039000Y-69776500D01*
X95007000Y-69774500D01*
X94976000Y-69770500D01*
X94945000Y-69764500D01*
X94915000Y-69757500D01*
X94885000Y-69748500D01*
X94855000Y-69737500D01*
X94826000Y-69725500D01*
X94798000Y-69712500D01*
X94770000Y-69697500D01*
X94743000Y-69680500D01*
X94717000Y-69662500D01*
X94692000Y-69643500D01*
X94669000Y-69623500D01*
X94646000Y-69601500D01*
X94624000Y-69578500D01*
X94604000Y-69555500D01*
X94585000Y-69530500D01*
X94567000Y-69504500D01*
X94550000Y-69477500D01*
X94535000Y-69449500D01*
X94522000Y-69421500D01*
X94510000Y-69392500D01*
X94499000Y-69362500D01*
X94490000Y-69332500D01*
X94483000Y-69302500D01*
X94477000Y-69271500D01*
X94473000Y-69240500D01*
X94471000Y-69208500D01*
X94470000Y-69177500D01*
X94470000Y-68577500D01*
X94470000Y-67977500D01*
X94471000Y-67946500D01*
X94473000Y-67914500D01*
X94477000Y-67883500D01*
X94483000Y-67852500D01*
X94490000Y-67822500D01*
X94499000Y-67792500D01*
X94510000Y-67762500D01*
X94522000Y-67733500D01*
X94535000Y-67705500D01*
X94550000Y-67677500D01*
X94567000Y-67650500D01*
X94585000Y-67624500D01*
X94604000Y-67599500D01*
X94624000Y-67576500D01*
X94646000Y-67553500D01*
X94669000Y-67531500D01*
X94692000Y-67511500D01*
X94717000Y-67492500D01*
X94743000Y-67474500D01*
X94770000Y-67457500D01*
X94798000Y-67442500D01*
X94826000Y-67429500D01*
X94855000Y-67417500D01*
X94885000Y-67406500D01*
X94915000Y-67397500D01*
X94945000Y-67390500D01*
X94976000Y-67384500D01*
X95007000Y-67380500D01*
X95039000Y-67378500D01*
X95070000Y-67377500D01*
X95101000Y-67378500D01*
G37*
%TO.C,JP1*%
G36*
X112645000Y-113451000D02*
G01*
X112945000Y-113451000D01*
X112945000Y-114951000D01*
X112645000Y-114951000D01*
X112645000Y-113451000D01*
G37*
%TD*%
D11*
%TO.C,C26*%
X135100017Y-74319503D03*
X136060017Y-74319503D03*
%TD*%
D12*
%TO.C,U2*%
X165720000Y-93352000D03*
X166990000Y-93352000D03*
X168260000Y-93352000D03*
X169530000Y-93352000D03*
X169530000Y-87930000D03*
X168260000Y-87930000D03*
X166990000Y-87930000D03*
X165720000Y-87930000D03*
%TD*%
D13*
%TO.C,TP4*%
X164750000Y-83750000D03*
%TD*%
D14*
%TO.C,C57*%
X166980000Y-86250000D03*
X166020000Y-86250000D03*
%TD*%
D15*
%TO.C,C2*%
X129150000Y-115400000D03*
X129150000Y-114440000D03*
%TD*%
D16*
%TO.C,J1*%
X132640000Y-68800000D03*
D17*
X135180000Y-68800000D03*
X137720000Y-68800000D03*
X140260000Y-68800000D03*
X142800000Y-68800000D03*
X145340000Y-68800000D03*
X147880000Y-68800000D03*
X150420000Y-68800000D03*
%TD*%
D18*
%TO.C,R8*%
X129410000Y-109150000D03*
X128390000Y-109150000D03*
%TD*%
D14*
%TO.C,C16*%
X158865017Y-86250000D03*
X157905017Y-86250000D03*
%TD*%
%TO.C,C35*%
X153654651Y-107682842D03*
X152694651Y-107682842D03*
%TD*%
D19*
%TO.C,TP1*%
X84000000Y-98750000D03*
%TD*%
D20*
%TO.C,R16*%
X84400000Y-71250000D03*
X84400000Y-70230000D03*
%TD*%
D21*
%TO.C,L2*%
X151466003Y-114810842D03*
X151466003Y-115780842D03*
%TD*%
D22*
%TO.C,R11*%
X168240000Y-86250000D03*
X169260000Y-86250000D03*
%TD*%
D11*
%TO.C,C18*%
X150675017Y-74319503D03*
X151635017Y-74319503D03*
%TD*%
D23*
%TO.C,U5*%
X98133000Y-120197500D03*
X95833000Y-120197500D03*
D24*
X95833000Y-126497500D03*
D23*
X93533000Y-120197500D03*
%TD*%
D13*
%TO.C,TP7*%
X142500000Y-86500000D03*
%TD*%
D25*
%TO.C,Q3*%
X83980000Y-78550000D03*
X83980000Y-77550000D03*
X82480000Y-78050000D03*
%TD*%
D16*
%TO.C,J4*%
X82425000Y-118275000D03*
D17*
X82425000Y-120815000D03*
X82425000Y-123355000D03*
%TD*%
D11*
%TO.C,C9*%
X162520000Y-87000000D03*
X163480000Y-87000000D03*
%TD*%
%TO.C,C25*%
X137720017Y-74319503D03*
X138680017Y-74319503D03*
%TD*%
%TO.C,C5*%
X153825017Y-74319503D03*
X154785017Y-74319503D03*
%TD*%
D14*
%TO.C,C43*%
X144530466Y-102000000D03*
X143570466Y-102000000D03*
%TD*%
D11*
%TO.C,C8*%
X159075017Y-74319503D03*
X160035017Y-74319503D03*
%TD*%
%TO.C,C34*%
X153625000Y-104698000D03*
X154585000Y-104698000D03*
%TD*%
D19*
%TO.C,TP13*%
X111750000Y-93750000D03*
%TD*%
D26*
%TO.C,C4*%
X160535000Y-102310000D03*
X158985000Y-102310000D03*
%TD*%
D11*
%TO.C,C15*%
X169575017Y-74319503D03*
X170535017Y-74319503D03*
%TD*%
D27*
%TO.C,U4*%
X155615017Y-86119501D03*
X155615017Y-85619502D03*
X155615017Y-85119503D03*
X155615017Y-84619501D03*
X155615017Y-84119502D03*
X155615017Y-83619503D03*
X155615017Y-83119502D03*
X155615017Y-82619503D03*
X155615017Y-82119501D03*
X155615017Y-81619502D03*
X155615017Y-81119503D03*
X155615017Y-80619501D03*
X155615017Y-80119502D03*
X155615017Y-79619501D03*
X155615017Y-79119502D03*
X155615017Y-78619503D03*
X155615017Y-78119501D03*
X155615017Y-77619502D03*
X155615017Y-77119501D03*
X149715121Y-77119503D03*
X149715121Y-77619502D03*
X149715121Y-78119501D03*
X149715121Y-78619503D03*
X149715121Y-79119502D03*
X149715121Y-79619503D03*
X149715121Y-80119502D03*
X149715121Y-80619501D03*
X149715121Y-81119503D03*
X149715121Y-81619502D03*
X149715121Y-82119504D03*
X149715121Y-82619503D03*
X149715121Y-83119502D03*
X149715121Y-83619503D03*
X149715121Y-84119502D03*
X149715121Y-84619501D03*
X149715121Y-85119503D03*
X149715121Y-85619502D03*
X149715121Y-86119503D03*
%TD*%
D28*
%TO.C,U7*%
X89335000Y-107395000D03*
X93895000Y-107395000D03*
D29*
X91615000Y-100595000D03*
%TD*%
D11*
%TO.C,C39*%
X150516003Y-116795842D03*
X151476003Y-116795842D03*
%TD*%
D30*
%TO.C,C29*%
X95488000Y-116467500D03*
X95488000Y-117427500D03*
%TD*%
D14*
%TO.C,C14*%
X169230000Y-85250000D03*
X168270000Y-85250000D03*
%TD*%
D31*
%TO.C,J11*%
X93950000Y-73152500D03*
X93150000Y-73152500D03*
D32*
X92000000Y-73152500D03*
X91000000Y-73152500D03*
X90500000Y-73152500D03*
X89500000Y-73152500D03*
D31*
X87550000Y-73152500D03*
X88350000Y-73152500D03*
D32*
X89000000Y-73152500D03*
X90000000Y-73152500D03*
X91500000Y-73152500D03*
X92500000Y-73152500D03*
D33*
X95070000Y-72577500D03*
X86430000Y-72577500D03*
%TD*%
D34*
%TO.C,U1*%
X152750693Y-96625000D03*
X152250567Y-96625000D03*
X151750441Y-96625000D03*
X151250315Y-96625000D03*
X150750189Y-96625000D03*
X150250063Y-96625000D03*
X149749937Y-96625000D03*
X149249811Y-96625000D03*
X148749685Y-96625000D03*
X148249559Y-96625000D03*
X147749433Y-96625000D03*
X147249307Y-96625000D03*
D35*
X146625000Y-97250000D03*
X146625000Y-97749999D03*
X146625000Y-98250001D03*
X146625000Y-98750000D03*
X146625000Y-99249999D03*
X146625000Y-99750000D03*
X146625000Y-100250000D03*
X146625000Y-100750001D03*
X146625000Y-101250000D03*
X146625000Y-101749999D03*
X146625000Y-102250001D03*
X146625000Y-102750000D03*
D34*
X147249307Y-103375000D03*
X147749433Y-103375000D03*
X148249559Y-103375000D03*
X148749685Y-103375000D03*
X149249811Y-103375000D03*
X149749937Y-103375000D03*
X150250063Y-103375000D03*
X150750189Y-103375000D03*
X151250315Y-103375000D03*
X151750441Y-103375000D03*
X152250567Y-103375000D03*
X152750693Y-103375000D03*
D35*
X153375000Y-102750000D03*
X153375000Y-102250001D03*
X153375000Y-101749999D03*
X153375000Y-101250000D03*
X153375000Y-100750001D03*
X153375000Y-100250000D03*
X153375000Y-99750000D03*
X153375000Y-99249999D03*
X153375000Y-98750000D03*
X153375000Y-98250001D03*
X153375000Y-97749999D03*
X153375000Y-97250000D03*
D36*
X150000000Y-100000000D03*
%TD*%
D16*
%TO.C,J8*%
X90200000Y-117080000D03*
D17*
X90200000Y-114540000D03*
X90200000Y-112000000D03*
%TD*%
D30*
%TO.C,C45*%
X152250000Y-104540000D03*
X152250000Y-105500000D03*
%TD*%
D37*
%TO.C,FL1*%
X153574651Y-109963842D03*
D38*
X153347651Y-110575842D03*
D37*
X153574651Y-111188842D03*
D38*
X153801651Y-110575842D03*
%TD*%
D14*
%TO.C,C38*%
X151496003Y-113795842D03*
X150536003Y-113795842D03*
%TD*%
D39*
%TO.C,Q1*%
X105750000Y-118376000D03*
X107020000Y-118376000D03*
X108290000Y-118376000D03*
X109560000Y-118376000D03*
X109560000Y-113000000D03*
X108290000Y-113000000D03*
X107020000Y-113000000D03*
X105750000Y-113000000D03*
%TD*%
D14*
%TO.C,C46*%
X158690000Y-98110000D03*
X157730000Y-98110000D03*
%TD*%
D40*
%TO.C,R17*%
X85480000Y-74780000D03*
X85480000Y-75800000D03*
%TD*%
D15*
%TO.C,C21*%
X148157617Y-86145503D03*
X148157617Y-85185503D03*
%TD*%
D14*
%TO.C,C44*%
X149980000Y-94750000D03*
X149020000Y-94750000D03*
%TD*%
D41*
%TO.C,SW1*%
X118800000Y-111900000D03*
X126000000Y-111900000D03*
X118800000Y-108900000D03*
X126000000Y-108900000D03*
%TD*%
D40*
%TO.C,R22*%
X146200000Y-85090000D03*
X146200000Y-86110000D03*
%TD*%
D11*
%TO.C,C50*%
X143590466Y-101000000D03*
X144550466Y-101000000D03*
%TD*%
D16*
%TO.C,J2*%
X154380000Y-68800000D03*
D17*
X156920000Y-68800000D03*
X159460000Y-68800000D03*
X162000000Y-68800000D03*
X164540000Y-68800000D03*
X167080000Y-68800000D03*
X169620000Y-68800000D03*
X172160000Y-68800000D03*
%TD*%
D16*
%TO.C,J5*%
X116475000Y-68975000D03*
D17*
X119015000Y-68975000D03*
X121555000Y-68975000D03*
%TD*%
D20*
%TO.C,R9*%
X131900000Y-110130000D03*
X131900000Y-109110000D03*
%TD*%
D42*
%TO.C,J10*%
X158299651Y-112150842D03*
D43*
X159774651Y-110625842D03*
D42*
X158299651Y-109100842D03*
D43*
X156824651Y-110625842D03*
%TD*%
D15*
%TO.C,C1*%
X130600000Y-110105000D03*
X130600000Y-109145000D03*
%TD*%
D11*
%TO.C,C24*%
X140270017Y-74319503D03*
X141230017Y-74319503D03*
%TD*%
D40*
%TO.C,R3*%
X119000000Y-75723338D03*
X119000000Y-76743338D03*
%TD*%
D11*
%TO.C,C10*%
X161715017Y-74319503D03*
X162675017Y-74319503D03*
%TD*%
D44*
%TO.C,L3*%
X153962500Y-93450000D03*
X151837500Y-93450000D03*
%TD*%
D14*
%TO.C,C51*%
X157050000Y-100510000D03*
X156090000Y-100510000D03*
%TD*%
%TO.C,C48*%
X157050000Y-102510000D03*
X156090000Y-102510000D03*
%TD*%
D15*
%TO.C,C12*%
X158750000Y-84480000D03*
X158750000Y-83520000D03*
%TD*%
D11*
%TO.C,C27*%
X132495000Y-74320000D03*
X133455000Y-74320000D03*
%TD*%
D40*
%TO.C,R12*%
X145665017Y-81534503D03*
X145665017Y-82554503D03*
%TD*%
D45*
%TO.C,H2*%
X127000000Y-125000000D03*
%TD*%
D46*
%TO.C,D3*%
X113695000Y-107545000D03*
D47*
X113695000Y-110719000D03*
D48*
X113695000Y-108795000D03*
%TD*%
D14*
%TO.C,C47*%
X158280000Y-97010000D03*
X157320000Y-97010000D03*
%TD*%
D40*
%TO.C,R13*%
X113645000Y-118625000D03*
X113645000Y-119645000D03*
%TD*%
D30*
%TO.C,C36*%
X156500000Y-114520000D03*
X156500000Y-115480000D03*
%TD*%
D11*
%TO.C,C22*%
X145490017Y-74319503D03*
X146450017Y-74319503D03*
%TD*%
D40*
%TO.C,R4*%
X121410688Y-75578338D03*
X121410688Y-76598338D03*
%TD*%
D25*
%TO.C,Q2*%
X83980000Y-76050000D03*
X83980000Y-75050000D03*
X82480000Y-75550000D03*
%TD*%
D18*
%TO.C,R18*%
X86250000Y-77550000D03*
X85230000Y-77550000D03*
%TD*%
D40*
%TO.C,R21*%
X101500000Y-85250000D03*
X101500000Y-86270000D03*
%TD*%
D13*
%TO.C,TP11*%
X99500000Y-93540000D03*
%TD*%
D14*
%TO.C,C32*%
X93425000Y-109350000D03*
X92465000Y-109350000D03*
%TD*%
D11*
%TO.C,C11*%
X164315017Y-74319503D03*
X165275017Y-74319503D03*
%TD*%
D14*
%TO.C,C52*%
X153460000Y-95000000D03*
X152500000Y-95000000D03*
%TD*%
D18*
%TO.C,R14*%
X105770000Y-101250000D03*
X104750000Y-101250000D03*
%TD*%
D49*
%TO.C,U8*%
X153174651Y-114575842D03*
X153574651Y-114575842D03*
X153974651Y-114575842D03*
X153974651Y-114175842D03*
X153974651Y-113775842D03*
X153574651Y-113775842D03*
X153174651Y-113775842D03*
X153174651Y-114175842D03*
%TD*%
D50*
%TO.C,U6*%
X97895000Y-107545000D03*
X100195000Y-107545000D03*
D51*
X100195000Y-101245000D03*
D50*
X102495000Y-107545000D03*
%TD*%
D11*
%TO.C,C20*%
X148070017Y-74319503D03*
X149030017Y-74319503D03*
%TD*%
D19*
%TO.C,TP5*%
X138750000Y-97750000D03*
%TD*%
D11*
%TO.C,C6*%
X160838000Y-95673000D03*
X161798000Y-95673000D03*
%TD*%
D30*
%TO.C,C40*%
X147500000Y-94520000D03*
X147500000Y-95480000D03*
%TD*%
D11*
%TO.C,C31*%
X100905000Y-109375000D03*
X101865000Y-109375000D03*
%TD*%
D30*
%TO.C,C19*%
X147318066Y-81569502D03*
X147318066Y-82529502D03*
%TD*%
D21*
%TO.C,L1*%
X153604651Y-105682842D03*
X153604651Y-106652842D03*
%TD*%
D52*
%TO.C,JP1*%
X112145000Y-114201000D03*
D53*
X113445000Y-114201000D03*
%TD*%
D11*
%TO.C,C17*%
X172175017Y-74319503D03*
X173135017Y-74319503D03*
%TD*%
D16*
%TO.C,J6*%
X82000000Y-112000000D03*
D17*
X82000000Y-114540000D03*
%TD*%
D13*
%TO.C,TP8*%
X148100000Y-88650000D03*
%TD*%
D19*
%TO.C,TP6*%
X143250000Y-92500000D03*
%TD*%
D15*
%TO.C,C30*%
X104595000Y-106980000D03*
X104595000Y-106020000D03*
%TD*%
D14*
%TO.C,C42*%
X157050000Y-101510000D03*
X156090000Y-101510000D03*
%TD*%
D16*
%TO.C,J7*%
X82000000Y-102960000D03*
D17*
X82000000Y-105500000D03*
%TD*%
D11*
%TO.C,C13*%
X166925017Y-74319503D03*
X167885017Y-74319503D03*
%TD*%
D54*
%TO.C,D5*%
X96780000Y-88300000D03*
X97750000Y-88300000D03*
%TD*%
D11*
%TO.C,C23*%
X142900017Y-74319503D03*
X143860017Y-74319503D03*
%TD*%
D13*
%TO.C,TP2*%
X164900000Y-99700000D03*
%TD*%
D54*
%TO.C,D6*%
X96780000Y-89300000D03*
X97750000Y-89300000D03*
%TD*%
D18*
%TO.C,R6*%
X119010000Y-78000000D03*
X117990000Y-78000000D03*
%TD*%
D19*
%TO.C,TP3*%
X172050000Y-83900000D03*
%TD*%
D22*
%TO.C,R2*%
X86590000Y-123400000D03*
X87610000Y-123400000D03*
%TD*%
D20*
%TO.C,R15*%
X96900000Y-71250000D03*
X96900000Y-70230000D03*
%TD*%
D22*
%TO.C,R7*%
X134980000Y-100250000D03*
X136000000Y-100250000D03*
%TD*%
D11*
%TO.C,C7*%
X156420017Y-74319503D03*
X157380017Y-74319503D03*
%TD*%
D55*
%TO.C,AE2*%
X150950000Y-119174584D03*
X150950000Y-122174584D03*
%TD*%
D22*
%TO.C,R10*%
X130380000Y-115400000D03*
X131400000Y-115400000D03*
%TD*%
D41*
%TO.C,SW2*%
X126000000Y-115400000D03*
X118800000Y-115400000D03*
X126000000Y-118400000D03*
X118800000Y-118400000D03*
%TD*%
D13*
%TO.C,TP10*%
X110100000Y-107000000D03*
%TD*%
D40*
%TO.C,R20*%
X100750000Y-88790000D03*
X100750000Y-89810000D03*
%TD*%
D12*
%TO.C,U3*%
X159608000Y-94063000D03*
X160878000Y-94063000D03*
X162148000Y-94063000D03*
X163418000Y-94063000D03*
X163418000Y-88641000D03*
X162148000Y-88641000D03*
X160878000Y-88641000D03*
X159608000Y-88641000D03*
%TD*%
D56*
%TO.C,C54*%
X92950000Y-89040000D03*
X91050000Y-89040000D03*
%TD*%
D57*
%TO.C,C53*%
X87550000Y-89040000D03*
X89450000Y-89040000D03*
%TD*%
D58*
%TO.C,D4*%
X108235000Y-101250000D03*
X107265000Y-101250000D03*
%TD*%
D40*
%TO.C,R5*%
X89500000Y-120740000D03*
X89500000Y-121760000D03*
%TD*%
D30*
%TO.C,C55*%
X86750000Y-85800000D03*
X86750000Y-86760000D03*
%TD*%
D59*
%TO.C,XTAL1*%
X160360001Y-99700501D03*
X158959999Y-99700501D03*
X158959999Y-100800499D03*
X160360001Y-100800499D03*
%TD*%
D60*
%TO.C,D2*%
X109119000Y-109951000D03*
D61*
X105945000Y-109951000D03*
D62*
X107869000Y-109951000D03*
%TD*%
D54*
%TO.C,D1*%
X137780000Y-100250000D03*
X138750000Y-100250000D03*
%TD*%
D16*
%TO.C,J9*%
X98975000Y-117125000D03*
D17*
X98975000Y-114585000D03*
X98975000Y-112045000D03*
%TD*%
D19*
%TO.C,TP12*%
X106000000Y-93750000D03*
%TD*%
D13*
%TO.C,TP9*%
X101000000Y-126550000D03*
%TD*%
D30*
%TO.C,C37*%
X159750000Y-114520000D03*
X159750000Y-115480000D03*
%TD*%
D16*
%TO.C,J3*%
X112340000Y-68800000D03*
D17*
X109800000Y-68800000D03*
X107260000Y-68800000D03*
X104720000Y-68800000D03*
X102180000Y-68800000D03*
X99640000Y-68800000D03*
%TD*%
D63*
%TO.C,C3*%
X162750000Y-99700000D03*
X162750000Y-101250000D03*
%TD*%
D14*
%TO.C,C41*%
X149960000Y-93250000D03*
X149000000Y-93250000D03*
%TD*%
D22*
%TO.C,R1*%
X86600000Y-120800000D03*
X87620000Y-120800000D03*
%TD*%
D18*
%TO.C,R19*%
X86250000Y-78550000D03*
X85230000Y-78550000D03*
%TD*%
D30*
%TO.C,C33*%
X87395000Y-100895000D03*
X87395000Y-101855000D03*
%TD*%
D45*
%TO.C,H1*%
X127000000Y-69000000D03*
%TD*%
D64*
%TO.C,XTAL2*%
X85000000Y-93540000D03*
X94500000Y-93540000D03*
%TD*%
D30*
%TO.C,C28*%
X94238000Y-116467500D03*
X94238000Y-117427500D03*
%TD*%
D14*
%TO.C,C49*%
X155680000Y-95300000D03*
X154720000Y-95300000D03*
%TD*%
D65*
%TO.C,U9*%
X88285000Y-86215000D03*
X89555000Y-86215000D03*
X90825000Y-86215000D03*
X92095000Y-86215000D03*
X93365000Y-86215000D03*
X94635000Y-86215000D03*
X95905000Y-86215000D03*
X97175000Y-86215000D03*
X98445000Y-86215000D03*
X99715000Y-86215000D03*
X99715000Y-76865000D03*
X98445000Y-76865000D03*
X97175000Y-76865000D03*
X95905000Y-76865000D03*
X94635000Y-76865000D03*
X93365000Y-76865000D03*
X92095000Y-76865000D03*
X90825000Y-76865000D03*
X89555000Y-76865000D03*
X88285000Y-76865000D03*
%TD*%
M02*
