%TF.GenerationSoftware,KiCad,Pcbnew,9.0.0-rc3*%
%TF.CreationDate,2025-05-17T15:27:25+02:00*%
%TF.ProjectId,Processing_board,50726f63-6573-4736-996e-675f626f6172,rev?*%
%TF.SameCoordinates,Original*%
%TF.FileFunction,Drillmap*%
%TF.FilePolarity,Positive*%
%FSLAX45Y45*%
G04 Gerber Fmt 4.5, Leading zero omitted, Abs format (unit mm)*
G04 Created by KiCad (PCBNEW 9.0.0-rc3) date 2025-05-17 15:27:25*
%MOMM*%
%LPD*%
G01*
G04 APERTURE LIST*
%ADD10C,0.050000*%
%ADD11C,0.200000*%
%ADD12C,0.220000*%
G04 APERTURE END LIST*
D10*
X17300000Y-11975000D02*
X15875000Y-11975000D01*
X15775000Y-12700000D02*
G75*
G02*
X15675000Y-12800000I-100000J0D01*
G01*
X17300000Y-6600000D02*
G75*
G02*
X17400000Y-6700000I0J-100000D01*
G01*
X17400000Y-6700000D02*
X17400000Y-11875000D01*
X15775000Y-12075000D02*
X15775000Y-12700000D01*
X17400000Y-11875000D02*
G75*
G02*
X17300000Y-11975000I-100000J0D01*
G01*
X7875000Y-6700000D02*
G75*
G02*
X7975000Y-6600000I100000J0D01*
G01*
X7875000Y-12700000D02*
X7875000Y-6700000D01*
X7975000Y-6600000D02*
X17300000Y-6600000D01*
X7975000Y-12800000D02*
G75*
G02*
X7875000Y-12700000I0J100000D01*
G01*
X15775000Y-12075000D02*
G75*
G02*
X15875000Y-11975000I100000J0D01*
G01*
X15675000Y-12800000D02*
X7975000Y-12800000D01*
D11*
D12*
X12590000Y-6790000D02*
X12810000Y-7010000D01*
X12810000Y-6790000D02*
X12590000Y-7010000D01*
X12590000Y-12390000D02*
X12810000Y-12610000D01*
X12810000Y-12390000D02*
X12590000Y-12610000D01*
D11*
X8133277Y-13113984D02*
X8133277Y-12913984D01*
X8133277Y-12913984D02*
X8180896Y-12913984D01*
X8180896Y-12913984D02*
X8209467Y-12923508D01*
X8209467Y-12923508D02*
X8228515Y-12942555D01*
X8228515Y-12942555D02*
X8238039Y-12961603D01*
X8238039Y-12961603D02*
X8247562Y-12999698D01*
X8247562Y-12999698D02*
X8247562Y-13028269D01*
X8247562Y-13028269D02*
X8238039Y-13066365D01*
X8238039Y-13066365D02*
X8228515Y-13085412D01*
X8228515Y-13085412D02*
X8209467Y-13104460D01*
X8209467Y-13104460D02*
X8180896Y-13113984D01*
X8180896Y-13113984D02*
X8133277Y-13113984D01*
X8333277Y-13113984D02*
X8333277Y-12980650D01*
X8333277Y-13018746D02*
X8342801Y-12999698D01*
X8342801Y-12999698D02*
X8352324Y-12990174D01*
X8352324Y-12990174D02*
X8371372Y-12980650D01*
X8371372Y-12980650D02*
X8390420Y-12980650D01*
X8457086Y-13113984D02*
X8457086Y-12980650D01*
X8457086Y-12913984D02*
X8447563Y-12923508D01*
X8447563Y-12923508D02*
X8457086Y-12933031D01*
X8457086Y-12933031D02*
X8466610Y-12923508D01*
X8466610Y-12923508D02*
X8457086Y-12913984D01*
X8457086Y-12913984D02*
X8457086Y-12933031D01*
X8580896Y-13113984D02*
X8561848Y-13104460D01*
X8561848Y-13104460D02*
X8552324Y-13085412D01*
X8552324Y-13085412D02*
X8552324Y-12913984D01*
X8685658Y-13113984D02*
X8666610Y-13104460D01*
X8666610Y-13104460D02*
X8657086Y-13085412D01*
X8657086Y-13085412D02*
X8657086Y-12913984D01*
X8914229Y-13113984D02*
X8914229Y-12913984D01*
X8914229Y-12913984D02*
X8980896Y-13056841D01*
X8980896Y-13056841D02*
X9047563Y-12913984D01*
X9047563Y-12913984D02*
X9047563Y-13113984D01*
X9228515Y-13113984D02*
X9228515Y-13009222D01*
X9228515Y-13009222D02*
X9218991Y-12990174D01*
X9218991Y-12990174D02*
X9199944Y-12980650D01*
X9199944Y-12980650D02*
X9161848Y-12980650D01*
X9161848Y-12980650D02*
X9142801Y-12990174D01*
X9228515Y-13104460D02*
X9209467Y-13113984D01*
X9209467Y-13113984D02*
X9161848Y-13113984D01*
X9161848Y-13113984D02*
X9142801Y-13104460D01*
X9142801Y-13104460D02*
X9133277Y-13085412D01*
X9133277Y-13085412D02*
X9133277Y-13066365D01*
X9133277Y-13066365D02*
X9142801Y-13047317D01*
X9142801Y-13047317D02*
X9161848Y-13037793D01*
X9161848Y-13037793D02*
X9209467Y-13037793D01*
X9209467Y-13037793D02*
X9228515Y-13028269D01*
X9323753Y-12980650D02*
X9323753Y-13180650D01*
X9323753Y-12990174D02*
X9342801Y-12980650D01*
X9342801Y-12980650D02*
X9380896Y-12980650D01*
X9380896Y-12980650D02*
X9399944Y-12990174D01*
X9399944Y-12990174D02*
X9409467Y-12999698D01*
X9409467Y-12999698D02*
X9418991Y-13018746D01*
X9418991Y-13018746D02*
X9418991Y-13075888D01*
X9418991Y-13075888D02*
X9409467Y-13094936D01*
X9409467Y-13094936D02*
X9399944Y-13104460D01*
X9399944Y-13104460D02*
X9380896Y-13113984D01*
X9380896Y-13113984D02*
X9342801Y-13113984D01*
X9342801Y-13113984D02*
X9323753Y-13104460D01*
X9504705Y-13094936D02*
X9514229Y-13104460D01*
X9514229Y-13104460D02*
X9504705Y-13113984D01*
X9504705Y-13113984D02*
X9495182Y-13104460D01*
X9495182Y-13104460D02*
X9504705Y-13094936D01*
X9504705Y-13094936D02*
X9504705Y-13113984D01*
X9504705Y-12990174D02*
X9514229Y-12999698D01*
X9514229Y-12999698D02*
X9504705Y-13009222D01*
X9504705Y-13009222D02*
X9495182Y-12999698D01*
X9495182Y-12999698D02*
X9504705Y-12990174D01*
X9504705Y-12990174D02*
X9504705Y-13009222D01*
X7672500Y-13342500D02*
X7872500Y-13542500D01*
X7872500Y-13342500D02*
X7672500Y-13542500D01*
X8123753Y-13353031D02*
X8133277Y-13343508D01*
X8133277Y-13343508D02*
X8152324Y-13333984D01*
X8152324Y-13333984D02*
X8199943Y-13333984D01*
X8199943Y-13333984D02*
X8218991Y-13343508D01*
X8218991Y-13343508D02*
X8228515Y-13353031D01*
X8228515Y-13353031D02*
X8238039Y-13372079D01*
X8238039Y-13372079D02*
X8238039Y-13391127D01*
X8238039Y-13391127D02*
X8228515Y-13419698D01*
X8228515Y-13419698D02*
X8114229Y-13533984D01*
X8114229Y-13533984D02*
X8238039Y-13533984D01*
X8323753Y-13514936D02*
X8333277Y-13524460D01*
X8333277Y-13524460D02*
X8323753Y-13533984D01*
X8323753Y-13533984D02*
X8314229Y-13524460D01*
X8314229Y-13524460D02*
X8323753Y-13514936D01*
X8323753Y-13514936D02*
X8323753Y-13533984D01*
X8409467Y-13353031D02*
X8418991Y-13343508D01*
X8418991Y-13343508D02*
X8438039Y-13333984D01*
X8438039Y-13333984D02*
X8485658Y-13333984D01*
X8485658Y-13333984D02*
X8504705Y-13343508D01*
X8504705Y-13343508D02*
X8514229Y-13353031D01*
X8514229Y-13353031D02*
X8523753Y-13372079D01*
X8523753Y-13372079D02*
X8523753Y-13391127D01*
X8523753Y-13391127D02*
X8514229Y-13419698D01*
X8514229Y-13419698D02*
X8399944Y-13533984D01*
X8399944Y-13533984D02*
X8523753Y-13533984D01*
X8647563Y-13333984D02*
X8666610Y-13333984D01*
X8666610Y-13333984D02*
X8685658Y-13343508D01*
X8685658Y-13343508D02*
X8695182Y-13353031D01*
X8695182Y-13353031D02*
X8704705Y-13372079D01*
X8704705Y-13372079D02*
X8714229Y-13410174D01*
X8714229Y-13410174D02*
X8714229Y-13457793D01*
X8714229Y-13457793D02*
X8704705Y-13495888D01*
X8704705Y-13495888D02*
X8695182Y-13514936D01*
X8695182Y-13514936D02*
X8685658Y-13524460D01*
X8685658Y-13524460D02*
X8666610Y-13533984D01*
X8666610Y-13533984D02*
X8647563Y-13533984D01*
X8647563Y-13533984D02*
X8628515Y-13524460D01*
X8628515Y-13524460D02*
X8618991Y-13514936D01*
X8618991Y-13514936D02*
X8609467Y-13495888D01*
X8609467Y-13495888D02*
X8599944Y-13457793D01*
X8599944Y-13457793D02*
X8599944Y-13410174D01*
X8599944Y-13410174D02*
X8609467Y-13372079D01*
X8609467Y-13372079D02*
X8618991Y-13353031D01*
X8618991Y-13353031D02*
X8628515Y-13343508D01*
X8628515Y-13343508D02*
X8647563Y-13333984D01*
X8838039Y-13333984D02*
X8857086Y-13333984D01*
X8857086Y-13333984D02*
X8876134Y-13343508D01*
X8876134Y-13343508D02*
X8885658Y-13353031D01*
X8885658Y-13353031D02*
X8895182Y-13372079D01*
X8895182Y-13372079D02*
X8904705Y-13410174D01*
X8904705Y-13410174D02*
X8904705Y-13457793D01*
X8904705Y-13457793D02*
X8895182Y-13495888D01*
X8895182Y-13495888D02*
X8885658Y-13514936D01*
X8885658Y-13514936D02*
X8876134Y-13524460D01*
X8876134Y-13524460D02*
X8857086Y-13533984D01*
X8857086Y-13533984D02*
X8838039Y-13533984D01*
X8838039Y-13533984D02*
X8818991Y-13524460D01*
X8818991Y-13524460D02*
X8809467Y-13514936D01*
X8809467Y-13514936D02*
X8799944Y-13495888D01*
X8799944Y-13495888D02*
X8790420Y-13457793D01*
X8790420Y-13457793D02*
X8790420Y-13410174D01*
X8790420Y-13410174D02*
X8799944Y-13372079D01*
X8799944Y-13372079D02*
X8809467Y-13353031D01*
X8809467Y-13353031D02*
X8818991Y-13343508D01*
X8818991Y-13343508D02*
X8838039Y-13333984D01*
X8990420Y-13533984D02*
X8990420Y-13400650D01*
X8990420Y-13419698D02*
X8999944Y-13410174D01*
X8999944Y-13410174D02*
X9018991Y-13400650D01*
X9018991Y-13400650D02*
X9047563Y-13400650D01*
X9047563Y-13400650D02*
X9066610Y-13410174D01*
X9066610Y-13410174D02*
X9076134Y-13429222D01*
X9076134Y-13429222D02*
X9076134Y-13533984D01*
X9076134Y-13429222D02*
X9085658Y-13410174D01*
X9085658Y-13410174D02*
X9104705Y-13400650D01*
X9104705Y-13400650D02*
X9133277Y-13400650D01*
X9133277Y-13400650D02*
X9152325Y-13410174D01*
X9152325Y-13410174D02*
X9161848Y-13429222D01*
X9161848Y-13429222D02*
X9161848Y-13533984D01*
X9257086Y-13533984D02*
X9257086Y-13400650D01*
X9257086Y-13419698D02*
X9266610Y-13410174D01*
X9266610Y-13410174D02*
X9285658Y-13400650D01*
X9285658Y-13400650D02*
X9314229Y-13400650D01*
X9314229Y-13400650D02*
X9333277Y-13410174D01*
X9333277Y-13410174D02*
X9342801Y-13429222D01*
X9342801Y-13429222D02*
X9342801Y-13533984D01*
X9342801Y-13429222D02*
X9352325Y-13410174D01*
X9352325Y-13410174D02*
X9371372Y-13400650D01*
X9371372Y-13400650D02*
X9399944Y-13400650D01*
X9399944Y-13400650D02*
X9418991Y-13410174D01*
X9418991Y-13410174D02*
X9428515Y-13429222D01*
X9428515Y-13429222D02*
X9428515Y-13533984D01*
X9818991Y-13324460D02*
X9647563Y-13581603D01*
X10076134Y-13333984D02*
X10095182Y-13333984D01*
X10095182Y-13333984D02*
X10114229Y-13343508D01*
X10114229Y-13343508D02*
X10123753Y-13353031D01*
X10123753Y-13353031D02*
X10133277Y-13372079D01*
X10133277Y-13372079D02*
X10142801Y-13410174D01*
X10142801Y-13410174D02*
X10142801Y-13457793D01*
X10142801Y-13457793D02*
X10133277Y-13495888D01*
X10133277Y-13495888D02*
X10123753Y-13514936D01*
X10123753Y-13514936D02*
X10114229Y-13524460D01*
X10114229Y-13524460D02*
X10095182Y-13533984D01*
X10095182Y-13533984D02*
X10076134Y-13533984D01*
X10076134Y-13533984D02*
X10057087Y-13524460D01*
X10057087Y-13524460D02*
X10047563Y-13514936D01*
X10047563Y-13514936D02*
X10038039Y-13495888D01*
X10038039Y-13495888D02*
X10028515Y-13457793D01*
X10028515Y-13457793D02*
X10028515Y-13410174D01*
X10028515Y-13410174D02*
X10038039Y-13372079D01*
X10038039Y-13372079D02*
X10047563Y-13353031D01*
X10047563Y-13353031D02*
X10057087Y-13343508D01*
X10057087Y-13343508D02*
X10076134Y-13333984D01*
X10228515Y-13514936D02*
X10238039Y-13524460D01*
X10238039Y-13524460D02*
X10228515Y-13533984D01*
X10228515Y-13533984D02*
X10218991Y-13524460D01*
X10218991Y-13524460D02*
X10228515Y-13514936D01*
X10228515Y-13514936D02*
X10228515Y-13533984D01*
X10361848Y-13333984D02*
X10380896Y-13333984D01*
X10380896Y-13333984D02*
X10399944Y-13343508D01*
X10399944Y-13343508D02*
X10409468Y-13353031D01*
X10409468Y-13353031D02*
X10418991Y-13372079D01*
X10418991Y-13372079D02*
X10428515Y-13410174D01*
X10428515Y-13410174D02*
X10428515Y-13457793D01*
X10428515Y-13457793D02*
X10418991Y-13495888D01*
X10418991Y-13495888D02*
X10409468Y-13514936D01*
X10409468Y-13514936D02*
X10399944Y-13524460D01*
X10399944Y-13524460D02*
X10380896Y-13533984D01*
X10380896Y-13533984D02*
X10361848Y-13533984D01*
X10361848Y-13533984D02*
X10342801Y-13524460D01*
X10342801Y-13524460D02*
X10333277Y-13514936D01*
X10333277Y-13514936D02*
X10323753Y-13495888D01*
X10323753Y-13495888D02*
X10314229Y-13457793D01*
X10314229Y-13457793D02*
X10314229Y-13410174D01*
X10314229Y-13410174D02*
X10323753Y-13372079D01*
X10323753Y-13372079D02*
X10333277Y-13353031D01*
X10333277Y-13353031D02*
X10342801Y-13343508D01*
X10342801Y-13343508D02*
X10361848Y-13333984D01*
X10542801Y-13419698D02*
X10523753Y-13410174D01*
X10523753Y-13410174D02*
X10514229Y-13400650D01*
X10514229Y-13400650D02*
X10504706Y-13381603D01*
X10504706Y-13381603D02*
X10504706Y-13372079D01*
X10504706Y-13372079D02*
X10514229Y-13353031D01*
X10514229Y-13353031D02*
X10523753Y-13343508D01*
X10523753Y-13343508D02*
X10542801Y-13333984D01*
X10542801Y-13333984D02*
X10580896Y-13333984D01*
X10580896Y-13333984D02*
X10599944Y-13343508D01*
X10599944Y-13343508D02*
X10609468Y-13353031D01*
X10609468Y-13353031D02*
X10618991Y-13372079D01*
X10618991Y-13372079D02*
X10618991Y-13381603D01*
X10618991Y-13381603D02*
X10609468Y-13400650D01*
X10609468Y-13400650D02*
X10599944Y-13410174D01*
X10599944Y-13410174D02*
X10580896Y-13419698D01*
X10580896Y-13419698D02*
X10542801Y-13419698D01*
X10542801Y-13419698D02*
X10523753Y-13429222D01*
X10523753Y-13429222D02*
X10514229Y-13438746D01*
X10514229Y-13438746D02*
X10504706Y-13457793D01*
X10504706Y-13457793D02*
X10504706Y-13495888D01*
X10504706Y-13495888D02*
X10514229Y-13514936D01*
X10514229Y-13514936D02*
X10523753Y-13524460D01*
X10523753Y-13524460D02*
X10542801Y-13533984D01*
X10542801Y-13533984D02*
X10580896Y-13533984D01*
X10580896Y-13533984D02*
X10599944Y-13524460D01*
X10599944Y-13524460D02*
X10609468Y-13514936D01*
X10609468Y-13514936D02*
X10618991Y-13495888D01*
X10618991Y-13495888D02*
X10618991Y-13457793D01*
X10618991Y-13457793D02*
X10609468Y-13438746D01*
X10609468Y-13438746D02*
X10599944Y-13429222D01*
X10599944Y-13429222D02*
X10580896Y-13419698D01*
X10790420Y-13333984D02*
X10752325Y-13333984D01*
X10752325Y-13333984D02*
X10733277Y-13343508D01*
X10733277Y-13343508D02*
X10723753Y-13353031D01*
X10723753Y-13353031D02*
X10704706Y-13381603D01*
X10704706Y-13381603D02*
X10695182Y-13419698D01*
X10695182Y-13419698D02*
X10695182Y-13495888D01*
X10695182Y-13495888D02*
X10704706Y-13514936D01*
X10704706Y-13514936D02*
X10714229Y-13524460D01*
X10714229Y-13524460D02*
X10733277Y-13533984D01*
X10733277Y-13533984D02*
X10771372Y-13533984D01*
X10771372Y-13533984D02*
X10790420Y-13524460D01*
X10790420Y-13524460D02*
X10799944Y-13514936D01*
X10799944Y-13514936D02*
X10809468Y-13495888D01*
X10809468Y-13495888D02*
X10809468Y-13448269D01*
X10809468Y-13448269D02*
X10799944Y-13429222D01*
X10799944Y-13429222D02*
X10790420Y-13419698D01*
X10790420Y-13419698D02*
X10771372Y-13410174D01*
X10771372Y-13410174D02*
X10733277Y-13410174D01*
X10733277Y-13410174D02*
X10714229Y-13419698D01*
X10714229Y-13419698D02*
X10704706Y-13429222D01*
X10704706Y-13429222D02*
X10695182Y-13448269D01*
X10980896Y-13333984D02*
X10942801Y-13333984D01*
X10942801Y-13333984D02*
X10923753Y-13343508D01*
X10923753Y-13343508D02*
X10914229Y-13353031D01*
X10914229Y-13353031D02*
X10895182Y-13381603D01*
X10895182Y-13381603D02*
X10885658Y-13419698D01*
X10885658Y-13419698D02*
X10885658Y-13495888D01*
X10885658Y-13495888D02*
X10895182Y-13514936D01*
X10895182Y-13514936D02*
X10904706Y-13524460D01*
X10904706Y-13524460D02*
X10923753Y-13533984D01*
X10923753Y-13533984D02*
X10961849Y-13533984D01*
X10961849Y-13533984D02*
X10980896Y-13524460D01*
X10980896Y-13524460D02*
X10990420Y-13514936D01*
X10990420Y-13514936D02*
X10999944Y-13495888D01*
X10999944Y-13495888D02*
X10999944Y-13448269D01*
X10999944Y-13448269D02*
X10990420Y-13429222D01*
X10990420Y-13429222D02*
X10980896Y-13419698D01*
X10980896Y-13419698D02*
X10961849Y-13410174D01*
X10961849Y-13410174D02*
X10923753Y-13410174D01*
X10923753Y-13410174D02*
X10904706Y-13419698D01*
X10904706Y-13419698D02*
X10895182Y-13429222D01*
X10895182Y-13429222D02*
X10885658Y-13448269D01*
X11076134Y-13333984D02*
X11076134Y-13372079D01*
X11152325Y-13333984D02*
X11152325Y-13372079D01*
X11447563Y-13610174D02*
X11438039Y-13600650D01*
X11438039Y-13600650D02*
X11418991Y-13572079D01*
X11418991Y-13572079D02*
X11409468Y-13553031D01*
X11409468Y-13553031D02*
X11399944Y-13524460D01*
X11399944Y-13524460D02*
X11390420Y-13476841D01*
X11390420Y-13476841D02*
X11390420Y-13438746D01*
X11390420Y-13438746D02*
X11399944Y-13391127D01*
X11399944Y-13391127D02*
X11409468Y-13362555D01*
X11409468Y-13362555D02*
X11418991Y-13343508D01*
X11418991Y-13343508D02*
X11438039Y-13314936D01*
X11438039Y-13314936D02*
X11447563Y-13305412D01*
X11514229Y-13353031D02*
X11523753Y-13343508D01*
X11523753Y-13343508D02*
X11542801Y-13333984D01*
X11542801Y-13333984D02*
X11590420Y-13333984D01*
X11590420Y-13333984D02*
X11609468Y-13343508D01*
X11609468Y-13343508D02*
X11618991Y-13353031D01*
X11618991Y-13353031D02*
X11628515Y-13372079D01*
X11628515Y-13372079D02*
X11628515Y-13391127D01*
X11628515Y-13391127D02*
X11618991Y-13419698D01*
X11618991Y-13419698D02*
X11504706Y-13533984D01*
X11504706Y-13533984D02*
X11628515Y-13533984D01*
X11866610Y-13533984D02*
X11866610Y-13333984D01*
X11952325Y-13533984D02*
X11952325Y-13429222D01*
X11952325Y-13429222D02*
X11942801Y-13410174D01*
X11942801Y-13410174D02*
X11923753Y-13400650D01*
X11923753Y-13400650D02*
X11895182Y-13400650D01*
X11895182Y-13400650D02*
X11876134Y-13410174D01*
X11876134Y-13410174D02*
X11866610Y-13419698D01*
X12076134Y-13533984D02*
X12057087Y-13524460D01*
X12057087Y-13524460D02*
X12047563Y-13514936D01*
X12047563Y-13514936D02*
X12038039Y-13495888D01*
X12038039Y-13495888D02*
X12038039Y-13438746D01*
X12038039Y-13438746D02*
X12047563Y-13419698D01*
X12047563Y-13419698D02*
X12057087Y-13410174D01*
X12057087Y-13410174D02*
X12076134Y-13400650D01*
X12076134Y-13400650D02*
X12104706Y-13400650D01*
X12104706Y-13400650D02*
X12123753Y-13410174D01*
X12123753Y-13410174D02*
X12133277Y-13419698D01*
X12133277Y-13419698D02*
X12142801Y-13438746D01*
X12142801Y-13438746D02*
X12142801Y-13495888D01*
X12142801Y-13495888D02*
X12133277Y-13514936D01*
X12133277Y-13514936D02*
X12123753Y-13524460D01*
X12123753Y-13524460D02*
X12104706Y-13533984D01*
X12104706Y-13533984D02*
X12076134Y-13533984D01*
X12257087Y-13533984D02*
X12238039Y-13524460D01*
X12238039Y-13524460D02*
X12228515Y-13505412D01*
X12228515Y-13505412D02*
X12228515Y-13333984D01*
X12409468Y-13524460D02*
X12390420Y-13533984D01*
X12390420Y-13533984D02*
X12352325Y-13533984D01*
X12352325Y-13533984D02*
X12333277Y-13524460D01*
X12333277Y-13524460D02*
X12323753Y-13505412D01*
X12323753Y-13505412D02*
X12323753Y-13429222D01*
X12323753Y-13429222D02*
X12333277Y-13410174D01*
X12333277Y-13410174D02*
X12352325Y-13400650D01*
X12352325Y-13400650D02*
X12390420Y-13400650D01*
X12390420Y-13400650D02*
X12409468Y-13410174D01*
X12409468Y-13410174D02*
X12418991Y-13429222D01*
X12418991Y-13429222D02*
X12418991Y-13448269D01*
X12418991Y-13448269D02*
X12323753Y-13467317D01*
X12495182Y-13524460D02*
X12514230Y-13533984D01*
X12514230Y-13533984D02*
X12552325Y-13533984D01*
X12552325Y-13533984D02*
X12571372Y-13524460D01*
X12571372Y-13524460D02*
X12580896Y-13505412D01*
X12580896Y-13505412D02*
X12580896Y-13495888D01*
X12580896Y-13495888D02*
X12571372Y-13476841D01*
X12571372Y-13476841D02*
X12552325Y-13467317D01*
X12552325Y-13467317D02*
X12523753Y-13467317D01*
X12523753Y-13467317D02*
X12504706Y-13457793D01*
X12504706Y-13457793D02*
X12495182Y-13438746D01*
X12495182Y-13438746D02*
X12495182Y-13429222D01*
X12495182Y-13429222D02*
X12504706Y-13410174D01*
X12504706Y-13410174D02*
X12523753Y-13400650D01*
X12523753Y-13400650D02*
X12552325Y-13400650D01*
X12552325Y-13400650D02*
X12571372Y-13410174D01*
X12647563Y-13610174D02*
X12657087Y-13600650D01*
X12657087Y-13600650D02*
X12676134Y-13572079D01*
X12676134Y-13572079D02*
X12685658Y-13553031D01*
X12685658Y-13553031D02*
X12695182Y-13524460D01*
X12695182Y-13524460D02*
X12704706Y-13476841D01*
X12704706Y-13476841D02*
X12704706Y-13438746D01*
X12704706Y-13438746D02*
X12695182Y-13391127D01*
X12695182Y-13391127D02*
X12685658Y-13362555D01*
X12685658Y-13362555D02*
X12676134Y-13343508D01*
X12676134Y-13343508D02*
X12657087Y-13314936D01*
X12657087Y-13314936D02*
X12647563Y-13305412D01*
X13009468Y-13610174D02*
X12999944Y-13600650D01*
X12999944Y-13600650D02*
X12980896Y-13572079D01*
X12980896Y-13572079D02*
X12971372Y-13553031D01*
X12971372Y-13553031D02*
X12961849Y-13524460D01*
X12961849Y-13524460D02*
X12952325Y-13476841D01*
X12952325Y-13476841D02*
X12952325Y-13438746D01*
X12952325Y-13438746D02*
X12961849Y-13391127D01*
X12961849Y-13391127D02*
X12971372Y-13362555D01*
X12971372Y-13362555D02*
X12980896Y-13343508D01*
X12980896Y-13343508D02*
X12999944Y-13314936D01*
X12999944Y-13314936D02*
X13009468Y-13305412D01*
X13085658Y-13400650D02*
X13085658Y-13533984D01*
X13085658Y-13419698D02*
X13095182Y-13410174D01*
X13095182Y-13410174D02*
X13114230Y-13400650D01*
X13114230Y-13400650D02*
X13142801Y-13400650D01*
X13142801Y-13400650D02*
X13161849Y-13410174D01*
X13161849Y-13410174D02*
X13171372Y-13429222D01*
X13171372Y-13429222D02*
X13171372Y-13533984D01*
X13295182Y-13533984D02*
X13276134Y-13524460D01*
X13276134Y-13524460D02*
X13266611Y-13514936D01*
X13266611Y-13514936D02*
X13257087Y-13495888D01*
X13257087Y-13495888D02*
X13257087Y-13438746D01*
X13257087Y-13438746D02*
X13266611Y-13419698D01*
X13266611Y-13419698D02*
X13276134Y-13410174D01*
X13276134Y-13410174D02*
X13295182Y-13400650D01*
X13295182Y-13400650D02*
X13323753Y-13400650D01*
X13323753Y-13400650D02*
X13342801Y-13410174D01*
X13342801Y-13410174D02*
X13352325Y-13419698D01*
X13352325Y-13419698D02*
X13361849Y-13438746D01*
X13361849Y-13438746D02*
X13361849Y-13495888D01*
X13361849Y-13495888D02*
X13352325Y-13514936D01*
X13352325Y-13514936D02*
X13342801Y-13524460D01*
X13342801Y-13524460D02*
X13323753Y-13533984D01*
X13323753Y-13533984D02*
X13295182Y-13533984D01*
X13418992Y-13400650D02*
X13495182Y-13400650D01*
X13447563Y-13333984D02*
X13447563Y-13505412D01*
X13447563Y-13505412D02*
X13457087Y-13524460D01*
X13457087Y-13524460D02*
X13476134Y-13533984D01*
X13476134Y-13533984D02*
X13495182Y-13533984D01*
X13714230Y-13400650D02*
X13714230Y-13600650D01*
X13714230Y-13410174D02*
X13733277Y-13400650D01*
X13733277Y-13400650D02*
X13771373Y-13400650D01*
X13771373Y-13400650D02*
X13790420Y-13410174D01*
X13790420Y-13410174D02*
X13799944Y-13419698D01*
X13799944Y-13419698D02*
X13809468Y-13438746D01*
X13809468Y-13438746D02*
X13809468Y-13495888D01*
X13809468Y-13495888D02*
X13799944Y-13514936D01*
X13799944Y-13514936D02*
X13790420Y-13524460D01*
X13790420Y-13524460D02*
X13771373Y-13533984D01*
X13771373Y-13533984D02*
X13733277Y-13533984D01*
X13733277Y-13533984D02*
X13714230Y-13524460D01*
X13923753Y-13533984D02*
X13904706Y-13524460D01*
X13904706Y-13524460D02*
X13895182Y-13505412D01*
X13895182Y-13505412D02*
X13895182Y-13333984D01*
X14085658Y-13533984D02*
X14085658Y-13429222D01*
X14085658Y-13429222D02*
X14076134Y-13410174D01*
X14076134Y-13410174D02*
X14057087Y-13400650D01*
X14057087Y-13400650D02*
X14018992Y-13400650D01*
X14018992Y-13400650D02*
X13999944Y-13410174D01*
X14085658Y-13524460D02*
X14066611Y-13533984D01*
X14066611Y-13533984D02*
X14018992Y-13533984D01*
X14018992Y-13533984D02*
X13999944Y-13524460D01*
X13999944Y-13524460D02*
X13990420Y-13505412D01*
X13990420Y-13505412D02*
X13990420Y-13486365D01*
X13990420Y-13486365D02*
X13999944Y-13467317D01*
X13999944Y-13467317D02*
X14018992Y-13457793D01*
X14018992Y-13457793D02*
X14066611Y-13457793D01*
X14066611Y-13457793D02*
X14085658Y-13448269D01*
X14152325Y-13400650D02*
X14228515Y-13400650D01*
X14180896Y-13333984D02*
X14180896Y-13505412D01*
X14180896Y-13505412D02*
X14190420Y-13524460D01*
X14190420Y-13524460D02*
X14209468Y-13533984D01*
X14209468Y-13533984D02*
X14228515Y-13533984D01*
X14371373Y-13524460D02*
X14352325Y-13533984D01*
X14352325Y-13533984D02*
X14314230Y-13533984D01*
X14314230Y-13533984D02*
X14295182Y-13524460D01*
X14295182Y-13524460D02*
X14285658Y-13505412D01*
X14285658Y-13505412D02*
X14285658Y-13429222D01*
X14285658Y-13429222D02*
X14295182Y-13410174D01*
X14295182Y-13410174D02*
X14314230Y-13400650D01*
X14314230Y-13400650D02*
X14352325Y-13400650D01*
X14352325Y-13400650D02*
X14371373Y-13410174D01*
X14371373Y-13410174D02*
X14380896Y-13429222D01*
X14380896Y-13429222D02*
X14380896Y-13448269D01*
X14380896Y-13448269D02*
X14285658Y-13467317D01*
X14552325Y-13533984D02*
X14552325Y-13333984D01*
X14552325Y-13524460D02*
X14533277Y-13533984D01*
X14533277Y-13533984D02*
X14495182Y-13533984D01*
X14495182Y-13533984D02*
X14476134Y-13524460D01*
X14476134Y-13524460D02*
X14466611Y-13514936D01*
X14466611Y-13514936D02*
X14457087Y-13495888D01*
X14457087Y-13495888D02*
X14457087Y-13438746D01*
X14457087Y-13438746D02*
X14466611Y-13419698D01*
X14466611Y-13419698D02*
X14476134Y-13410174D01*
X14476134Y-13410174D02*
X14495182Y-13400650D01*
X14495182Y-13400650D02*
X14533277Y-13400650D01*
X14533277Y-13400650D02*
X14552325Y-13410174D01*
X14628515Y-13610174D02*
X14638039Y-13600650D01*
X14638039Y-13600650D02*
X14657087Y-13572079D01*
X14657087Y-13572079D02*
X14666611Y-13553031D01*
X14666611Y-13553031D02*
X14676134Y-13524460D01*
X14676134Y-13524460D02*
X14685658Y-13476841D01*
X14685658Y-13476841D02*
X14685658Y-13438746D01*
X14685658Y-13438746D02*
X14676134Y-13391127D01*
X14676134Y-13391127D02*
X14666611Y-13362555D01*
X14666611Y-13362555D02*
X14657087Y-13343508D01*
X14657087Y-13343508D02*
X14638039Y-13314936D01*
X14638039Y-13314936D02*
X14628515Y-13305412D01*
M02*
