%TF.GenerationSoftware,KiCad,Pcbnew,9.0.0*%
%TF.CreationDate,2025-05-06T12:07:41+02:00*%
%TF.ProjectId,Processing_board,50726f63-6573-4736-996e-675f626f6172,rev?*%
%TF.SameCoordinates,Original*%
%TF.FileFunction,Paste,Top*%
%TF.FilePolarity,Positive*%
%FSLAX46Y46*%
G04 Gerber Fmt 4.6, Leading zero omitted, Abs format (unit mm)*
G04 Created by KiCad (PCBNEW 9.0.0) date 2025-05-06 12:07:41*
%MOMM*%
%LPD*%
G01*
G04 APERTURE LIST*
G04 Aperture macros list*
%AMRoundRect*
0 Rectangle with rounded corners*
0 $1 Rounding radius*
0 $2 $3 $4 $5 $6 $7 $8 $9 X,Y pos of 4 corners*
0 Add a 4 corners polygon primitive as box body*
4,1,4,$2,$3,$4,$5,$6,$7,$8,$9,$2,$3,0*
0 Add four circle primitives for the rounded corners*
1,1,$1+$1,$2,$3*
1,1,$1+$1,$4,$5*
1,1,$1+$1,$6,$7*
1,1,$1+$1,$8,$9*
0 Add four rect primitives between the rounded corners*
20,1,$1+$1,$2,$3,$4,$5,0*
20,1,$1+$1,$4,$5,$6,$7,0*
20,1,$1+$1,$6,$7,$8,$9,0*
20,1,$1+$1,$8,$9,$2,$3,0*%
G04 Aperture macros list end*
%ADD10C,0.000000*%
%ADD11RoundRect,0.140000X-0.140000X-0.170000X0.140000X-0.170000X0.140000X0.170000X-0.140000X0.170000X0*%
%ADD12R,0.650000X1.528000*%
%ADD13RoundRect,0.140000X0.140000X0.170000X-0.140000X0.170000X-0.140000X-0.170000X0.140000X-0.170000X0*%
%ADD14RoundRect,0.140000X0.170000X-0.140000X0.170000X0.140000X-0.170000X0.140000X-0.170000X-0.140000X0*%
%ADD15RoundRect,0.135000X0.135000X0.185000X-0.135000X0.185000X-0.135000X-0.185000X0.135000X-0.185000X0*%
%ADD16RoundRect,0.135000X0.185000X-0.135000X0.185000X0.135000X-0.185000X0.135000X-0.185000X-0.135000X0*%
%ADD17RoundRect,0.147500X-0.172500X0.147500X-0.172500X-0.147500X0.172500X-0.147500X0.172500X0.147500X0*%
%ADD18RoundRect,0.135000X-0.135000X-0.185000X0.135000X-0.185000X0.135000X0.185000X-0.135000X0.185000X0*%
%ADD19RoundRect,0.375000X-0.375000X0.625000X-0.375000X-0.625000X0.375000X-0.625000X0.375000X0.625000X0*%
%ADD20RoundRect,0.500000X-1.400000X0.500000X-1.400000X-0.500000X1.400000X-0.500000X1.400000X0.500000X0*%
%ADD21R,1.000000X0.400000*%
%ADD22RoundRect,0.225000X0.225000X0.250000X-0.225000X0.250000X-0.225000X-0.250000X0.225000X-0.250000X0*%
%ADD23R,1.404099X0.279400*%
%ADD24R,1.000000X2.100000*%
%ADD25R,4.900000X5.850000*%
%ADD26RoundRect,0.140000X-0.170000X0.140000X-0.170000X-0.140000X0.170000X-0.140000X0.170000X0.140000X0*%
%ADD27R,0.600000X1.150000*%
%ADD28R,0.300000X1.150000*%
%ADD29R,0.300000X0.550000*%
%ADD30R,0.550000X0.300000*%
%ADD31R,0.700000X0.275000*%
%ADD32R,0.245000X0.450000*%
%ADD33R,0.650000X1.525000*%
%ADD34RoundRect,0.135000X-0.185000X0.135000X-0.185000X-0.135000X0.185000X-0.135000X0.185000X0.135000X0*%
%ADD35R,1.600000X1.400000*%
%ADD36R,1.000000X1.050000*%
%ADD37R,1.050000X2.200000*%
%ADD38RoundRect,0.218750X0.218750X0.381250X-0.218750X0.381250X-0.218750X-0.381250X0.218750X-0.381250X0*%
%ADD39R,1.200000X1.000000*%
%ADD40R,1.200000X1.150000*%
%ADD41R,1.500000X1.550000*%
%ADD42R,0.250000X0.250000*%
%ADD43RoundRect,0.375000X0.375000X-0.625000X0.375000X0.625000X-0.375000X0.625000X-0.375000X-0.625000X0*%
%ADD44RoundRect,0.500000X1.400000X-0.500000X1.400000X0.500000X-1.400000X0.500000X-1.400000X-0.500000X0*%
%ADD45RoundRect,0.147500X-0.147500X-0.172500X0.147500X-0.172500X0.147500X0.172500X-0.147500X0.172500X0*%
%ADD46R,1.800000X1.150000*%
%ADD47RoundRect,0.250000X0.250000X0.475000X-0.250000X0.475000X-0.250000X-0.475000X0.250000X-0.475000X0*%
%ADD48RoundRect,0.250000X-0.250000X-0.475000X0.250000X-0.475000X0.250000X0.475000X-0.250000X0.475000X0*%
%ADD49RoundRect,0.147500X0.147500X0.172500X-0.147500X0.172500X-0.147500X-0.172500X0.147500X-0.172500X0*%
%ADD50R,0.889000X0.812800*%
%ADD51R,1.000000X1.200000*%
%ADD52R,1.150000X1.200000*%
%ADD53R,1.550000X1.500000*%
%ADD54RoundRect,0.225000X-0.250000X0.225000X-0.250000X-0.225000X0.250000X-0.225000X0.250000X0.225000X0*%
%ADD55R,5.500000X2.000000*%
%ADD56R,0.650000X1.850000*%
G04 APERTURE END LIST*
D10*
%TO.C,U1*%
G36*
X148500000Y-98500000D02*
G01*
X147300000Y-98500000D01*
X147300000Y-97300000D01*
X148500000Y-97300000D01*
X148500000Y-98500000D01*
G37*
G36*
X148500000Y-99900000D02*
G01*
X147300000Y-99900000D01*
X147300000Y-98700000D01*
X148500000Y-98700000D01*
X148500000Y-99900000D01*
G37*
G36*
X148500000Y-101300000D02*
G01*
X147300000Y-101300000D01*
X147300000Y-100100000D01*
X148500000Y-100100000D01*
X148500000Y-101300000D01*
G37*
G36*
X148500000Y-102700000D02*
G01*
X147300000Y-102700000D01*
X147300000Y-101500000D01*
X148500000Y-101500000D01*
X148500000Y-102700000D01*
G37*
G36*
X149900000Y-98500000D02*
G01*
X148700000Y-98500000D01*
X148700000Y-97300000D01*
X149900000Y-97300000D01*
X149900000Y-98500000D01*
G37*
G36*
X149900000Y-99900000D02*
G01*
X148700000Y-99900000D01*
X148700000Y-98700000D01*
X149900000Y-98700000D01*
X149900000Y-99900000D01*
G37*
G36*
X149900000Y-101300000D02*
G01*
X148700000Y-101300000D01*
X148700000Y-100100000D01*
X149900000Y-100100000D01*
X149900000Y-101300000D01*
G37*
G36*
X149900000Y-102700000D02*
G01*
X148700000Y-102700000D01*
X148700000Y-101500000D01*
X149900000Y-101500000D01*
X149900000Y-102700000D01*
G37*
G36*
X151300000Y-98500000D02*
G01*
X150100000Y-98500000D01*
X150100000Y-97300000D01*
X151300000Y-97300000D01*
X151300000Y-98500000D01*
G37*
G36*
X151300000Y-99900000D02*
G01*
X150100000Y-99900000D01*
X150100000Y-98700000D01*
X151300000Y-98700000D01*
X151300000Y-99900000D01*
G37*
G36*
X151300000Y-101300000D02*
G01*
X150100000Y-101300000D01*
X150100000Y-100100000D01*
X151300000Y-100100000D01*
X151300000Y-101300000D01*
G37*
G36*
X151300000Y-102700000D02*
G01*
X150100000Y-102700000D01*
X150100000Y-101500000D01*
X151300000Y-101500000D01*
X151300000Y-102700000D01*
G37*
G36*
X152700000Y-98500000D02*
G01*
X151500000Y-98500000D01*
X151500000Y-97300000D01*
X152700000Y-97300000D01*
X152700000Y-98500000D01*
G37*
G36*
X152700000Y-99900000D02*
G01*
X151500000Y-99900000D01*
X151500000Y-98700000D01*
X152700000Y-98700000D01*
X152700000Y-99900000D01*
G37*
G36*
X152700000Y-101300000D02*
G01*
X151500000Y-101300000D01*
X151500000Y-100100000D01*
X152700000Y-100100000D01*
X152700000Y-101300000D01*
G37*
G36*
X152700000Y-102700000D02*
G01*
X151500000Y-102700000D01*
X151500000Y-101500000D01*
X152700000Y-101500000D01*
X152700000Y-102700000D01*
G37*
%TD*%
D11*
%TO.C,C26*%
X135100017Y-74319503D03*
X136060017Y-74319503D03*
%TD*%
D12*
%TO.C,U2*%
X165720000Y-93352000D03*
X166990000Y-93352000D03*
X168260000Y-93352000D03*
X169530000Y-93352000D03*
X169530000Y-87930000D03*
X168260000Y-87930000D03*
X166990000Y-87930000D03*
X165720000Y-87930000D03*
%TD*%
D13*
%TO.C,C57*%
X166980000Y-86250000D03*
X166020000Y-86250000D03*
%TD*%
D14*
%TO.C,C2*%
X129150000Y-115400000D03*
X129150000Y-114440000D03*
%TD*%
D15*
%TO.C,R8*%
X129410000Y-109150000D03*
X128390000Y-109150000D03*
%TD*%
D13*
%TO.C,C16*%
X158865017Y-86250000D03*
X157905017Y-86250000D03*
%TD*%
%TO.C,C35*%
X153654651Y-107682842D03*
X152694651Y-107682842D03*
%TD*%
D16*
%TO.C,R16*%
X84400000Y-71250000D03*
X84400000Y-70230000D03*
%TD*%
D17*
%TO.C,L2*%
X151466003Y-114810842D03*
X151466003Y-115780842D03*
%TD*%
D18*
%TO.C,R11*%
X168240000Y-86250000D03*
X169260000Y-86250000D03*
%TD*%
D11*
%TO.C,C18*%
X150675017Y-74319503D03*
X151635017Y-74319503D03*
%TD*%
D19*
%TO.C,U5*%
X98133000Y-120197500D03*
X95833000Y-120197500D03*
D20*
X95833000Y-126497500D03*
D19*
X93533000Y-120197500D03*
%TD*%
D21*
%TO.C,Q3*%
X83980000Y-78550000D03*
X83980000Y-77550000D03*
X82480000Y-78050000D03*
%TD*%
D11*
%TO.C,C9*%
X162520000Y-87000000D03*
X163480000Y-87000000D03*
%TD*%
%TO.C,C25*%
X137720017Y-74319503D03*
X138680017Y-74319503D03*
%TD*%
%TO.C,C5*%
X153825017Y-74319503D03*
X154785017Y-74319503D03*
%TD*%
D13*
%TO.C,C43*%
X144530466Y-102000000D03*
X143570466Y-102000000D03*
%TD*%
D11*
%TO.C,C8*%
X159075017Y-74319503D03*
X160035017Y-74319503D03*
%TD*%
%TO.C,C34*%
X153625000Y-104698000D03*
X154585000Y-104698000D03*
%TD*%
D22*
%TO.C,C4*%
X160535000Y-102310000D03*
X158985000Y-102310000D03*
%TD*%
D11*
%TO.C,C15*%
X169575017Y-74319503D03*
X170535017Y-74319503D03*
%TD*%
D23*
%TO.C,U4*%
X155615017Y-86119501D03*
X155615017Y-85619502D03*
X155615017Y-85119503D03*
X155615017Y-84619501D03*
X155615017Y-84119502D03*
X155615017Y-83619503D03*
X155615017Y-83119502D03*
X155615017Y-82619503D03*
X155615017Y-82119501D03*
X155615017Y-81619502D03*
X155615017Y-81119503D03*
X155615017Y-80619501D03*
X155615017Y-80119502D03*
X155615017Y-79619501D03*
X155615017Y-79119502D03*
X155615017Y-78619503D03*
X155615017Y-78119501D03*
X155615017Y-77619502D03*
X155615017Y-77119501D03*
X149715121Y-77119503D03*
X149715121Y-77619502D03*
X149715121Y-78119501D03*
X149715121Y-78619503D03*
X149715121Y-79119502D03*
X149715121Y-79619503D03*
X149715121Y-80119502D03*
X149715121Y-80619501D03*
X149715121Y-81119503D03*
X149715121Y-81619502D03*
X149715121Y-82119504D03*
X149715121Y-82619503D03*
X149715121Y-83119502D03*
X149715121Y-83619503D03*
X149715121Y-84119502D03*
X149715121Y-84619501D03*
X149715121Y-85119503D03*
X149715121Y-85619502D03*
X149715121Y-86119503D03*
%TD*%
D24*
%TO.C,U7*%
X89335000Y-107395000D03*
X93895000Y-107395000D03*
D25*
X91615000Y-100595000D03*
%TD*%
D11*
%TO.C,C39*%
X150516003Y-116795842D03*
X151476003Y-116795842D03*
%TD*%
D26*
%TO.C,C29*%
X95488000Y-116467500D03*
X95488000Y-117427500D03*
%TD*%
D13*
%TO.C,C14*%
X169230000Y-85250000D03*
X168270000Y-85250000D03*
%TD*%
D27*
%TO.C,J11*%
X93950000Y-73152500D03*
X93150000Y-73152500D03*
D28*
X92000000Y-73152500D03*
X91000000Y-73152500D03*
X90500000Y-73152500D03*
X89500000Y-73152500D03*
D27*
X87550000Y-73152500D03*
X88350000Y-73152500D03*
D28*
X89000000Y-73152500D03*
X90000000Y-73152500D03*
X91500000Y-73152500D03*
X92500000Y-73152500D03*
%TD*%
D29*
%TO.C,U1*%
X152750693Y-96625000D03*
X152250567Y-96625000D03*
X151750441Y-96625000D03*
X151250315Y-96625000D03*
X150750189Y-96625000D03*
X150250063Y-96625000D03*
X149749937Y-96625000D03*
X149249811Y-96625000D03*
X148749685Y-96625000D03*
X148249559Y-96625000D03*
X147749433Y-96625000D03*
X147249307Y-96625000D03*
D30*
X146625000Y-97250000D03*
X146625000Y-97749999D03*
X146625000Y-98250001D03*
X146625000Y-98750000D03*
X146625000Y-99249999D03*
X146625000Y-99750000D03*
X146625000Y-100250000D03*
X146625000Y-100750001D03*
X146625000Y-101250000D03*
X146625000Y-101749999D03*
X146625000Y-102250001D03*
X146625000Y-102750000D03*
D29*
X147249307Y-103375000D03*
X147749433Y-103375000D03*
X148249559Y-103375000D03*
X148749685Y-103375000D03*
X149249811Y-103375000D03*
X149749937Y-103375000D03*
X150250063Y-103375000D03*
X150750189Y-103375000D03*
X151250315Y-103375000D03*
X151750441Y-103375000D03*
X152250567Y-103375000D03*
X152750693Y-103375000D03*
D30*
X153375000Y-102750000D03*
X153375000Y-102250001D03*
X153375000Y-101749999D03*
X153375000Y-101250000D03*
X153375000Y-100750001D03*
X153375000Y-100250000D03*
X153375000Y-99750000D03*
X153375000Y-99249999D03*
X153375000Y-98750000D03*
X153375000Y-98250001D03*
X153375000Y-97749999D03*
X153375000Y-97250000D03*
%TD*%
D26*
%TO.C,C45*%
X152250000Y-104540000D03*
X152250000Y-105500000D03*
%TD*%
D31*
%TO.C,FL1*%
X153574651Y-109963842D03*
D32*
X153347651Y-110575842D03*
D31*
X153574651Y-111188842D03*
D32*
X153801651Y-110575842D03*
%TD*%
D13*
%TO.C,C38*%
X151496003Y-113795842D03*
X150536003Y-113795842D03*
%TD*%
D33*
%TO.C,Q1*%
X105750000Y-118376000D03*
X107020000Y-118376000D03*
X108290000Y-118376000D03*
X109560000Y-118376000D03*
X109560000Y-113000000D03*
X108290000Y-113000000D03*
X107020000Y-113000000D03*
X105750000Y-113000000D03*
%TD*%
D13*
%TO.C,C46*%
X158690000Y-98110000D03*
X157730000Y-98110000D03*
%TD*%
D34*
%TO.C,R17*%
X85480000Y-74780000D03*
X85480000Y-75800000D03*
%TD*%
D14*
%TO.C,C21*%
X148157617Y-86145503D03*
X148157617Y-85185503D03*
%TD*%
D13*
%TO.C,C44*%
X149980000Y-94750000D03*
X149020000Y-94750000D03*
%TD*%
D35*
%TO.C,SW1*%
X118800000Y-111900000D03*
X126000000Y-111900000D03*
X118800000Y-108900000D03*
X126000000Y-108900000D03*
%TD*%
D34*
%TO.C,R22*%
X146200000Y-85090000D03*
X146200000Y-86110000D03*
%TD*%
D11*
%TO.C,C50*%
X143590466Y-101000000D03*
X144550466Y-101000000D03*
%TD*%
D16*
%TO.C,R9*%
X131900000Y-110130000D03*
X131900000Y-109110000D03*
%TD*%
D36*
%TO.C,J10*%
X158299651Y-112150842D03*
D37*
X159774651Y-110625842D03*
D36*
X158299651Y-109100842D03*
D37*
X156824651Y-110625842D03*
%TD*%
D14*
%TO.C,C1*%
X130600000Y-110105000D03*
X130600000Y-109145000D03*
%TD*%
D11*
%TO.C,C24*%
X140270017Y-74319503D03*
X141230017Y-74319503D03*
%TD*%
D34*
%TO.C,R3*%
X119000000Y-75723338D03*
X119000000Y-76743338D03*
%TD*%
D11*
%TO.C,C10*%
X161715017Y-74319503D03*
X162675017Y-74319503D03*
%TD*%
D38*
%TO.C,L3*%
X153962500Y-93450000D03*
X151837500Y-93450000D03*
%TD*%
D13*
%TO.C,C51*%
X157050000Y-100510000D03*
X156090000Y-100510000D03*
%TD*%
%TO.C,C48*%
X157050000Y-102510000D03*
X156090000Y-102510000D03*
%TD*%
D14*
%TO.C,C12*%
X158750000Y-84480000D03*
X158750000Y-83520000D03*
%TD*%
D11*
%TO.C,C27*%
X132495000Y-74320000D03*
X133455000Y-74320000D03*
%TD*%
D34*
%TO.C,R12*%
X145665017Y-81534503D03*
X145665017Y-82554503D03*
%TD*%
D39*
%TO.C,D3*%
X113695000Y-107545000D03*
D40*
X113695000Y-110719000D03*
D41*
X113695000Y-108795000D03*
%TD*%
D13*
%TO.C,C47*%
X158280000Y-97010000D03*
X157320000Y-97010000D03*
%TD*%
D34*
%TO.C,R13*%
X113645000Y-118625000D03*
X113645000Y-119645000D03*
%TD*%
D26*
%TO.C,C36*%
X156500000Y-114520000D03*
X156500000Y-115480000D03*
%TD*%
D11*
%TO.C,C22*%
X145490017Y-74319503D03*
X146450017Y-74319503D03*
%TD*%
D34*
%TO.C,R4*%
X121410688Y-75578338D03*
X121410688Y-76598338D03*
%TD*%
D21*
%TO.C,Q2*%
X83980000Y-76050000D03*
X83980000Y-75050000D03*
X82480000Y-75550000D03*
%TD*%
D15*
%TO.C,R18*%
X86250000Y-77550000D03*
X85230000Y-77550000D03*
%TD*%
D34*
%TO.C,R21*%
X101500000Y-85250000D03*
X101500000Y-86270000D03*
%TD*%
D13*
%TO.C,C32*%
X93425000Y-109350000D03*
X92465000Y-109350000D03*
%TD*%
D11*
%TO.C,C11*%
X164315017Y-74319503D03*
X165275017Y-74319503D03*
%TD*%
D13*
%TO.C,C52*%
X153460000Y-95000000D03*
X152500000Y-95000000D03*
%TD*%
D15*
%TO.C,R14*%
X105770000Y-101250000D03*
X104750000Y-101250000D03*
%TD*%
D42*
%TO.C,U8*%
X153174651Y-114575842D03*
X153574651Y-114575842D03*
X153974651Y-114575842D03*
X153974651Y-114175842D03*
X153974651Y-113775842D03*
X153574651Y-113775842D03*
X153174651Y-113775842D03*
X153174651Y-114175842D03*
%TD*%
D43*
%TO.C,U6*%
X97895000Y-107545000D03*
X100195000Y-107545000D03*
D44*
X100195000Y-101245000D03*
D43*
X102495000Y-107545000D03*
%TD*%
D11*
%TO.C,C20*%
X148070017Y-74319503D03*
X149030017Y-74319503D03*
%TD*%
%TO.C,C6*%
X160838000Y-95673000D03*
X161798000Y-95673000D03*
%TD*%
D26*
%TO.C,C40*%
X147500000Y-94520000D03*
X147500000Y-95480000D03*
%TD*%
D11*
%TO.C,C31*%
X100905000Y-109375000D03*
X101865000Y-109375000D03*
%TD*%
D26*
%TO.C,C19*%
X147318066Y-81569502D03*
X147318066Y-82529502D03*
%TD*%
D17*
%TO.C,L1*%
X153604651Y-105682842D03*
X153604651Y-106652842D03*
%TD*%
D11*
%TO.C,C17*%
X172175017Y-74319503D03*
X173135017Y-74319503D03*
%TD*%
D14*
%TO.C,C30*%
X104595000Y-106980000D03*
X104595000Y-106020000D03*
%TD*%
D13*
%TO.C,C42*%
X157050000Y-101510000D03*
X156090000Y-101510000D03*
%TD*%
D11*
%TO.C,C13*%
X166925017Y-74319503D03*
X167885017Y-74319503D03*
%TD*%
D45*
%TO.C,D5*%
X96780000Y-88300000D03*
X97750000Y-88300000D03*
%TD*%
D11*
%TO.C,C23*%
X142900017Y-74319503D03*
X143860017Y-74319503D03*
%TD*%
D45*
%TO.C,D6*%
X96780000Y-89300000D03*
X97750000Y-89300000D03*
%TD*%
D15*
%TO.C,R6*%
X119010000Y-78000000D03*
X117990000Y-78000000D03*
%TD*%
D18*
%TO.C,R2*%
X86590000Y-123400000D03*
X87610000Y-123400000D03*
%TD*%
D16*
%TO.C,R15*%
X96900000Y-71250000D03*
X96900000Y-70230000D03*
%TD*%
D18*
%TO.C,R7*%
X134980000Y-100250000D03*
X136000000Y-100250000D03*
%TD*%
D11*
%TO.C,C7*%
X156420017Y-74319503D03*
X157380017Y-74319503D03*
%TD*%
D46*
%TO.C,AE2*%
X150950000Y-119174584D03*
X150950000Y-122174584D03*
%TD*%
D18*
%TO.C,R10*%
X130380000Y-115400000D03*
X131400000Y-115400000D03*
%TD*%
D35*
%TO.C,SW2*%
X126000000Y-115400000D03*
X118800000Y-115400000D03*
X126000000Y-118400000D03*
X118800000Y-118400000D03*
%TD*%
D34*
%TO.C,R20*%
X100750000Y-88790000D03*
X100750000Y-89810000D03*
%TD*%
D12*
%TO.C,U3*%
X159608000Y-94063000D03*
X160878000Y-94063000D03*
X162148000Y-94063000D03*
X163418000Y-94063000D03*
X163418000Y-88641000D03*
X162148000Y-88641000D03*
X160878000Y-88641000D03*
X159608000Y-88641000D03*
%TD*%
D47*
%TO.C,C54*%
X92950000Y-89040000D03*
X91050000Y-89040000D03*
%TD*%
D48*
%TO.C,C53*%
X87550000Y-89040000D03*
X89450000Y-89040000D03*
%TD*%
D49*
%TO.C,D4*%
X108235000Y-101250000D03*
X107265000Y-101250000D03*
%TD*%
D34*
%TO.C,R5*%
X89500000Y-120740000D03*
X89500000Y-121760000D03*
%TD*%
D26*
%TO.C,C55*%
X86750000Y-85800000D03*
X86750000Y-86760000D03*
%TD*%
D50*
%TO.C,XTAL1*%
X160360001Y-99700501D03*
X158959999Y-99700501D03*
X158959999Y-100800499D03*
X160360001Y-100800499D03*
%TD*%
D51*
%TO.C,D2*%
X109119000Y-109951000D03*
D52*
X105945000Y-109951000D03*
D53*
X107869000Y-109951000D03*
%TD*%
D45*
%TO.C,D1*%
X137780000Y-100250000D03*
X138750000Y-100250000D03*
%TD*%
D26*
%TO.C,C37*%
X159750000Y-114520000D03*
X159750000Y-115480000D03*
%TD*%
D54*
%TO.C,C3*%
X162750000Y-99700000D03*
X162750000Y-101250000D03*
%TD*%
D13*
%TO.C,C41*%
X149960000Y-93250000D03*
X149000000Y-93250000D03*
%TD*%
D18*
%TO.C,R1*%
X86600000Y-120800000D03*
X87620000Y-120800000D03*
%TD*%
D15*
%TO.C,R19*%
X86250000Y-78550000D03*
X85230000Y-78550000D03*
%TD*%
D26*
%TO.C,C33*%
X87395000Y-100895000D03*
X87395000Y-101855000D03*
%TD*%
D55*
%TO.C,XTAL2*%
X85000000Y-93540000D03*
X94500000Y-93540000D03*
%TD*%
D26*
%TO.C,C28*%
X94238000Y-116467500D03*
X94238000Y-117427500D03*
%TD*%
D13*
%TO.C,C49*%
X155680000Y-95300000D03*
X154720000Y-95300000D03*
%TD*%
D56*
%TO.C,U9*%
X88285000Y-86215000D03*
X89555000Y-86215000D03*
X90825000Y-86215000D03*
X92095000Y-86215000D03*
X93365000Y-86215000D03*
X94635000Y-86215000D03*
X95905000Y-86215000D03*
X97175000Y-86215000D03*
X98445000Y-86215000D03*
X99715000Y-86215000D03*
X99715000Y-76865000D03*
X98445000Y-76865000D03*
X97175000Y-76865000D03*
X95905000Y-76865000D03*
X94635000Y-76865000D03*
X93365000Y-76865000D03*
X92095000Y-76865000D03*
X90825000Y-76865000D03*
X89555000Y-76865000D03*
X88285000Y-76865000D03*
%TD*%
M02*
