%TF.GenerationSoftware,KiCad,Pcbnew,9.0.0-rc3*%
%TF.CreationDate,2025-05-17T15:27:16+02:00*%
%TF.ProjectId,Processing_board,50726f63-6573-4736-996e-675f626f6172,rev?*%
%TF.SameCoordinates,Original*%
%TF.FileFunction,Copper,L4,Bot*%
%TF.FilePolarity,Positive*%
%FSLAX46Y46*%
G04 Gerber Fmt 4.6, Leading zero omitted, Abs format (unit mm)*
G04 Created by KiCad (PCBNEW 9.0.0-rc3) date 2025-05-17 15:27:16*
%MOMM*%
%LPD*%
G01*
G04 APERTURE LIST*
G04 Aperture macros list*
%AMFreePoly0*
4,1,23,0.500000,-0.750000,0.000000,-0.750000,0.000000,-0.745722,-0.065263,-0.745722,-0.191342,-0.711940,-0.304381,-0.646677,-0.396677,-0.554381,-0.461940,-0.441342,-0.495722,-0.315263,-0.495722,-0.250000,-0.500000,-0.250000,-0.500000,0.250000,-0.495722,0.250000,-0.495722,0.315263,-0.461940,0.441342,-0.396677,0.554381,-0.304381,0.646677,-0.191342,0.711940,-0.065263,0.745722,0.000000,0.745722,
0.000000,0.750000,0.500000,0.750000,0.500000,-0.750000,0.500000,-0.750000,$1*%
%AMFreePoly1*
4,1,23,0.000000,0.745722,0.065263,0.745722,0.191342,0.711940,0.304381,0.646677,0.396677,0.554381,0.461940,0.441342,0.495722,0.315263,0.495722,0.250000,0.500000,0.250000,0.500000,-0.250000,0.495722,-0.250000,0.495722,-0.315263,0.461940,-0.441342,0.396677,-0.554381,0.304381,-0.646677,0.191342,-0.711940,0.065263,-0.745722,0.000000,-0.745722,0.000000,-0.750000,-0.500000,-0.750000,
-0.500000,0.750000,0.000000,0.750000,0.000000,0.745722,0.000000,0.745722,$1*%
G04 Aperture macros list end*
%TA.AperFunction,ComponentPad*%
%ADD10R,0.500000X0.900000*%
%TD*%
%TA.AperFunction,ComponentPad*%
%ADD11R,1.700000X1.700000*%
%TD*%
%TA.AperFunction,ComponentPad*%
%ADD12O,1.700000X1.700000*%
%TD*%
%TA.AperFunction,ComponentPad*%
%ADD13C,1.530000*%
%TD*%
%TA.AperFunction,ComponentPad*%
%ADD14O,1.000000X1.800000*%
%TD*%
%TA.AperFunction,ComponentPad*%
%ADD15O,1.000000X2.200000*%
%TD*%
%TA.AperFunction,SMDPad,CuDef*%
%ADD16FreePoly0,270.000000*%
%TD*%
%TA.AperFunction,SMDPad,CuDef*%
%ADD17FreePoly1,270.000000*%
%TD*%
%TA.AperFunction,ViaPad*%
%ADD18C,0.700000*%
%TD*%
%TA.AperFunction,ViaPad*%
%ADD19C,0.600000*%
%TD*%
%TA.AperFunction,ViaPad*%
%ADD20C,0.450000*%
%TD*%
%TA.AperFunction,Conductor*%
%ADD21C,0.200000*%
%TD*%
%TA.AperFunction,Conductor*%
%ADD22C,0.500000*%
%TD*%
%TA.AperFunction,Conductor*%
%ADD23C,0.150000*%
%TD*%
G04 APERTURE END LIST*
D10*
%TO.P,AE1,2,PCB_Trace*%
%TO.N,GND*%
X168250000Y-118600000D03*
%TD*%
D11*
%TO.P,J1,1,Pin_1*%
%TO.N,/ADC/CH0*%
X132640000Y-68800000D03*
D12*
%TO.P,J1,2,Pin_2*%
%TO.N,/ADC/CH1*%
X135180000Y-68800000D03*
%TO.P,J1,3,Pin_3*%
%TO.N,/ADC/CH2*%
X137720000Y-68800000D03*
%TO.P,J1,4,Pin_4*%
%TO.N,/ADC/CH3*%
X140260000Y-68800000D03*
%TO.P,J1,5,Pin_5*%
%TO.N,/ADC/CH4*%
X142800000Y-68800000D03*
%TO.P,J1,6,Pin_6*%
%TO.N,/ADC/CH5*%
X145340000Y-68800000D03*
%TO.P,J1,7,Pin_7*%
%TO.N,/ADC/CH6*%
X147880000Y-68800000D03*
%TO.P,J1,8,Pin_8*%
%TO.N,/ADC/CH7*%
X150420000Y-68800000D03*
%TD*%
D13*
%TO.P,TP1,1*%
%TO.N,GND*%
X84000000Y-98750000D03*
%TD*%
D11*
%TO.P,J4,1,Pin_1*%
%TO.N,GND*%
X82425000Y-118275000D03*
D12*
%TO.P,J4,2,Pin_2*%
%TO.N,/USART2_TX_CONN*%
X82425000Y-120815000D03*
%TO.P,J4,3,Pin_3*%
%TO.N,/USART2_RX_CONN*%
X82425000Y-123355000D03*
%TD*%
D13*
%TO.P,TP13,1*%
%TO.N,/USART1_TX*%
X111750000Y-93750000D03*
%TD*%
D14*
%TO.P,J11,SH1,SHIELD*%
%TO.N,GND*%
X95070000Y-72577500D03*
%TO.P,J11,SH2,SHIELD*%
X86430000Y-72577500D03*
D15*
%TO.P,J11,SH3,SHIELD*%
X95070000Y-68577500D03*
%TO.P,J11,SH4,SHIELD*%
X86430000Y-68577500D03*
%TD*%
D11*
%TO.P,J8,1,Pin_1*%
%TO.N,/Power switching and voltage adaptation/Pre_LDO5V*%
X90200000Y-117080000D03*
D12*
%TO.P,J8,2,Pin_2*%
%TO.N,/Power*%
X90200000Y-114540000D03*
%TO.P,J8,3,Pin_3*%
%TO.N,/Power switching and voltage adaptation/Skip_LDO5V*%
X90200000Y-112000000D03*
%TD*%
D11*
%TO.P,J2,1,Pin_1*%
%TO.N,/ADC/CH8*%
X154380000Y-68800000D03*
D12*
%TO.P,J2,2,Pin_2*%
%TO.N,/ADC/CH9*%
X156920000Y-68800000D03*
%TO.P,J2,3,Pin_3*%
%TO.N,/ADC/CH10*%
X159460000Y-68800000D03*
%TO.P,J2,4,Pin_4*%
%TO.N,/ADC/CH11*%
X162000000Y-68800000D03*
%TO.P,J2,5,Pin_5*%
%TO.N,/ADC/CH12*%
X164540000Y-68800000D03*
%TO.P,J2,6,Pin_6*%
%TO.N,/ADC/CH13*%
X167080000Y-68800000D03*
%TO.P,J2,7,Pin_7*%
%TO.N,/ADC/CH14*%
X169620000Y-68800000D03*
%TO.P,J2,8,Pin_8*%
%TO.N,/ADC/CH15*%
X172160000Y-68800000D03*
%TD*%
D11*
%TO.P,J5,1,Pin_1*%
%TO.N,GND*%
X116475000Y-68975000D03*
D12*
%TO.P,J5,2,Pin_2*%
%TO.N,/USART3_TX_CONN*%
X119015000Y-68975000D03*
%TO.P,J5,3,Pin_3*%
%TO.N,/USART3_RX_CONN*%
X121555000Y-68975000D03*
%TD*%
D13*
%TO.P,TP5,1*%
%TO.N,/SPI3_MOSI*%
X138750000Y-97750000D03*
%TD*%
D11*
%TO.P,J6,1,Pin_1*%
%TO.N,GND*%
X82000000Y-112000000D03*
D12*
%TO.P,J6,2,Pin_2*%
%TO.N,/Power*%
X82000000Y-114540000D03*
%TD*%
D13*
%TO.P,TP6,1*%
%TO.N,/SPI3_MISO*%
X143250000Y-92500000D03*
%TD*%
D11*
%TO.P,J7,1,Pin_1*%
%TO.N,GND*%
X82000000Y-102960000D03*
D12*
%TO.P,J7,2,Pin_2*%
%TO.N,/EMG_modules_1.8V*%
X82000000Y-105500000D03*
%TD*%
D13*
%TO.P,TP3,1*%
%TO.N,GND*%
X172100000Y-84300000D03*
%TD*%
D11*
%TO.P,J9,1,Pin_1*%
%TO.N,/Power switching and voltage adaptation/Post_LDO5V*%
X98975000Y-117125000D03*
D12*
%TO.P,J9,2,Pin_2*%
%TO.N,/Power switching and voltage adaptation/5V_Pre_PMOS*%
X98975000Y-114585000D03*
%TO.P,J9,3,Pin_3*%
%TO.N,/Power switching and voltage adaptation/Skip_LDO5V*%
X98975000Y-112045000D03*
%TD*%
D13*
%TO.P,TP12,1*%
%TO.N,/USART1_RX*%
X106000000Y-93750000D03*
%TD*%
D11*
%TO.P,J3,1,Pin_1*%
%TO.N,+3.3V*%
X112340000Y-68800000D03*
D12*
%TO.P,J3,2,Pin_2*%
%TO.N,GND*%
X109800000Y-68800000D03*
%TO.P,J3,3,Pin_3*%
%TO.N,/SWD_NRST*%
X107260000Y-68800000D03*
%TO.P,J3,4,Pin_4*%
%TO.N,/SWDIO*%
X104720000Y-68800000D03*
%TO.P,J3,5,Pin_5*%
%TO.N,/SWCLK*%
X102180000Y-68800000D03*
%TO.P,J3,6,Pin_6*%
%TO.N,/SWD_Traces*%
X99640000Y-68800000D03*
%TD*%
D16*
%TO.P,JP2,1,A*%
%TO.N,/VDD11*%
X160000000Y-93000000D03*
D17*
%TO.P,JP2,2,B*%
X160000000Y-94300000D03*
%TD*%
D18*
%TO.N,GND*%
X131250000Y-94750000D03*
X149025000Y-101075000D03*
X94000000Y-81540000D03*
X141750000Y-99000000D03*
X131500000Y-113000000D03*
X167000000Y-108500000D03*
X164250000Y-108000000D03*
X152125000Y-98025000D03*
X157960000Y-99410000D03*
X165000000Y-117750000D03*
X120200000Y-74000000D03*
D19*
X151865017Y-82919503D03*
D18*
X162500000Y-117250000D03*
X102050000Y-124000000D03*
X151500000Y-106000000D03*
X124750000Y-98000000D03*
X147265017Y-86144503D03*
X134500000Y-104500000D03*
X162750000Y-104750000D03*
X158000000Y-91250000D03*
X150020000Y-92500000D03*
D19*
X96095000Y-108092500D03*
D18*
X143800000Y-117350000D03*
X151500000Y-110325842D03*
X151904651Y-107780842D03*
X134750000Y-83250000D03*
X159365000Y-98110000D03*
X122750000Y-103750000D03*
X155200000Y-73200000D03*
X81480000Y-75550000D03*
X142750000Y-118750000D03*
X158299651Y-107575842D03*
X139200000Y-73200000D03*
X141600000Y-73000000D03*
X142736116Y-126906400D03*
X167000000Y-110750000D03*
X147000000Y-73200000D03*
X165000000Y-115250000D03*
X144200000Y-73200000D03*
X157860000Y-102710000D03*
X102750000Y-109375000D03*
X152600000Y-74319503D03*
X86500000Y-74050000D03*
X87000000Y-76500000D03*
X80750000Y-112000000D03*
X138750000Y-121000000D03*
X146400000Y-117400000D03*
X85600000Y-87000000D03*
X167000000Y-106250000D03*
X96250000Y-68750000D03*
X152175000Y-99975000D03*
X121750000Y-95000000D03*
X118000000Y-122500000D03*
X145250000Y-115000000D03*
X146250000Y-92250000D03*
X143000000Y-95000000D03*
X105900000Y-122300000D03*
X152500000Y-116000000D03*
D19*
X153365017Y-77819503D03*
D18*
X114750000Y-78750000D03*
D19*
X96095000Y-107092500D03*
D18*
X148500000Y-111250000D03*
X85200000Y-68600000D03*
X109800000Y-70600000D03*
X163418000Y-95673000D03*
X171200000Y-73200000D03*
X159750000Y-83750000D03*
X155250000Y-117500000D03*
X146700000Y-94500000D03*
X103500000Y-76750000D03*
X117750000Y-97500000D03*
X163750000Y-110750000D03*
X161000000Y-85250000D03*
X81480000Y-78050000D03*
X160400000Y-73200000D03*
D19*
X153515017Y-79719503D03*
D18*
X158250000Y-118500000D03*
X153000000Y-117500000D03*
X96500000Y-72500000D03*
X139750000Y-80250000D03*
X147825000Y-102200000D03*
X160250000Y-116000000D03*
X139000000Y-126000000D03*
X159750000Y-113000000D03*
X156750000Y-108500000D03*
X93000000Y-87750000D03*
X169525000Y-94716000D03*
X172500000Y-87500000D03*
X93950000Y-74610662D03*
X148025000Y-97950000D03*
X149100000Y-99175000D03*
X134225000Y-100250000D03*
X161767503Y-96527983D03*
X158000000Y-87233983D03*
X87500000Y-87750000D03*
X173200000Y-73000000D03*
X157800000Y-73200000D03*
X168400000Y-73200000D03*
X108500000Y-74500000D03*
X146000000Y-104500000D03*
X161700000Y-101300000D03*
X136600000Y-73200000D03*
D19*
X151815017Y-79869503D03*
D18*
X165800000Y-73200000D03*
X167000000Y-113000000D03*
X161400000Y-100600000D03*
X143400000Y-85200000D03*
X115500000Y-94750000D03*
X117150000Y-115000000D03*
X133250000Y-97500000D03*
X169250000Y-79250000D03*
X151150000Y-101100000D03*
X157839437Y-101129445D03*
X162500000Y-78250000D03*
X151075000Y-99200000D03*
X142780466Y-101000000D03*
X85250000Y-70250000D03*
X110000000Y-83250000D03*
X157265017Y-81869503D03*
X141000000Y-94750000D03*
X119250000Y-125500000D03*
X129000000Y-119000000D03*
D19*
X87347000Y-107002500D03*
D18*
X132750000Y-120750000D03*
X80750000Y-103000000D03*
X111500000Y-125500000D03*
X98000000Y-70250000D03*
X155395000Y-104600000D03*
X148250000Y-117500000D03*
D19*
X96488000Y-116447500D03*
D18*
X166000000Y-85250000D03*
D19*
X151865017Y-77819503D03*
D18*
X159750000Y-105500000D03*
X163000000Y-73200000D03*
X157750000Y-115750000D03*
X149270341Y-89994220D03*
X155700000Y-94510000D03*
X149600000Y-73200000D03*
X161299651Y-110625842D03*
X150250000Y-115450000D03*
X133500000Y-114250000D03*
X127000000Y-91250000D03*
X131900000Y-110900000D03*
X170500000Y-85293000D03*
X91425000Y-109350000D03*
X160250000Y-118500000D03*
X136500000Y-90000000D03*
X91250000Y-120500000D03*
X104500000Y-95000000D03*
X113590000Y-120600000D03*
X167250000Y-117750000D03*
X153500000Y-96549998D03*
X106250000Y-74500000D03*
X150075000Y-102150000D03*
X149975000Y-98075000D03*
X124250000Y-87000000D03*
X109000000Y-101500000D03*
X116250000Y-89500000D03*
X143570466Y-102770000D03*
X86250000Y-75800000D03*
X127750000Y-77000000D03*
X151250000Y-112700000D03*
X88250000Y-79000000D03*
X136500000Y-116750000D03*
X140250000Y-111000000D03*
X146565017Y-82569503D03*
X159750000Y-108500000D03*
X129150000Y-113650000D03*
X161525000Y-102310000D03*
X155299651Y-110625842D03*
X140750000Y-90000000D03*
X155000000Y-106500000D03*
X163250000Y-114300000D03*
X130600000Y-110895000D03*
X147900000Y-100000000D03*
D19*
X99988000Y-119697500D03*
D18*
X135250000Y-109250000D03*
X103500000Y-73750000D03*
X167000000Y-115250000D03*
X142750000Y-125000000D03*
X149500000Y-113800000D03*
X143000000Y-109000000D03*
X105395000Y-106020000D03*
X158700000Y-96100000D03*
X150020000Y-94000000D03*
X80800000Y-118200000D03*
X142750000Y-120750000D03*
X168250000Y-84250000D03*
X111000000Y-100500000D03*
D19*
X153765017Y-82969503D03*
D18*
X142750000Y-123000000D03*
X157860000Y-101910000D03*
X135500000Y-124750000D03*
X106250000Y-88750000D03*
X134000000Y-73200000D03*
X152100000Y-102225000D03*
X85250000Y-72750000D03*
X80750000Y-88500000D03*
X153550000Y-95700000D03*
D19*
X87347000Y-108002500D03*
D18*
X116400000Y-71200000D03*
X138750000Y-92500000D03*
X87480000Y-100020000D03*
X147750000Y-115000000D03*
X93238000Y-116447500D03*
X102800000Y-84250000D03*
X157500000Y-117000000D03*
X119500000Y-83750000D03*
X158250000Y-89000000D03*
X162500000Y-85750000D03*
D19*
X99988000Y-120697500D03*
D18*
X111750000Y-76750000D03*
X155150000Y-108750000D03*
X103500000Y-80500000D03*
X162500000Y-118500000D03*
X165500000Y-104750000D03*
X89750000Y-124750000D03*
D20*
%TO.N,/SWD_NRST*%
X107560000Y-73740000D03*
X130380000Y-113030000D03*
D18*
%TO.N,+3.3V*%
X100750000Y-90800000D03*
X146575000Y-95400000D03*
X101090000Y-99850000D03*
X146540015Y-81539504D03*
X86795000Y-77550000D03*
X157695000Y-96160000D03*
X147240017Y-85119503D03*
X101500000Y-84250000D03*
X90000000Y-81320000D03*
X99590000Y-99850000D03*
X99425000Y-109525000D03*
X153400000Y-115600000D03*
X159750000Y-84750000D03*
X144500000Y-102829017D03*
X112200000Y-71000000D03*
X98840000Y-99100000D03*
X89500000Y-120000000D03*
X151350000Y-105000000D03*
X94700000Y-109450000D03*
X96650000Y-109475000D03*
X149020000Y-92500000D03*
X88285000Y-83400000D03*
X117250000Y-108650000D03*
X86795000Y-78550000D03*
X85750000Y-85800000D03*
X100340000Y-99100000D03*
X101840000Y-99100000D03*
X117000000Y-78000000D03*
X160818000Y-96648000D03*
X152527839Y-95600000D03*
%TO.N,+5V*%
X117500000Y-99750000D03*
X167000000Y-85250000D03*
D19*
%TO.N,/VDD11*%
X156750000Y-98500000D03*
D20*
X154579000Y-98321000D03*
D19*
X158000000Y-93000000D03*
D20*
X155500000Y-101500000D03*
%TO.N,/SWDIO*%
X105000000Y-73900000D03*
X105000000Y-80700000D03*
%TO.N,/SWCLK*%
X102500000Y-71900000D03*
X102500000Y-77400000D03*
%TO.N,/USART2_RX*%
X145500000Y-102750000D03*
X89400000Y-123400000D03*
%TO.N,/USART2_TX*%
X91500000Y-121700000D03*
X136300000Y-110100000D03*
%TO.N,/USART3_RX*%
X148250000Y-90250000D03*
X135500000Y-89000000D03*
%TO.N,/USART3_TX*%
X150068319Y-95839309D03*
X135500000Y-91000000D03*
%TO.N,Net-(U1-NRST)*%
X150000000Y-106400000D03*
X152823775Y-104050000D03*
D18*
%TO.N,/USB-C circuit/USB_VBUS*%
X88350000Y-72000000D03*
X111295000Y-112295000D03*
X93000000Y-72000000D03*
D20*
%TO.N,/ANT_LOGIC_1*%
X155000000Y-115900000D03*
X149249684Y-104543209D03*
%TO.N,/USART1_RX*%
X116900000Y-96001000D03*
X150453955Y-95351469D03*
%TO.N,/USART1_TX*%
X114300000Y-93750000D03*
X150654362Y-94499294D03*
%TO.N,/ANT_LOGIC_2*%
X148233496Y-105432131D03*
X154417600Y-116095207D03*
%TO.N,/SPI3_MOSI*%
X144000000Y-98250000D03*
X143200000Y-84275000D03*
X146900000Y-84275000D03*
X140500000Y-98000000D03*
%TO.N,/SPI3_SCK*%
X148465103Y-83178803D03*
X148345000Y-86970000D03*
%TO.N,/ADC_GPIO2*%
X154202859Y-97000000D03*
X155615017Y-88634983D03*
%TO.N,/ADC_GPIO3*%
X157000000Y-88750000D03*
X154240380Y-97671000D03*
%TD*%
D21*
%TO.N,/SWD_NRST*%
X129199000Y-112999000D02*
X130349000Y-112999000D01*
X130349000Y-112999000D02*
X130380000Y-113030000D01*
X107560000Y-73740000D02*
X107560000Y-91360000D01*
X107560000Y-91360000D02*
X129199000Y-112999000D01*
D22*
%TO.N,+3.3V*%
X88285000Y-83035000D02*
X88285000Y-83400000D01*
X90000000Y-81320000D02*
X88285000Y-83035000D01*
%TO.N,+5V*%
X113500000Y-92250000D02*
X114750000Y-91000000D01*
X120000000Y-91000000D02*
X123016017Y-87983983D01*
X164682017Y-87983983D02*
X167000000Y-85666000D01*
X114750000Y-91000000D02*
X120000000Y-91000000D01*
X167000000Y-85666000D02*
X167000000Y-85250000D01*
X117500000Y-99750000D02*
X113500000Y-95750000D01*
X113500000Y-95750000D02*
X113500000Y-92250000D01*
X123016017Y-87983983D02*
X164682017Y-87983983D01*
%TO.N,/VDD11*%
X157362075Y-98500000D02*
X156750000Y-98500000D01*
D21*
X156750000Y-98500000D02*
X157149943Y-98500000D01*
D22*
X158000000Y-93000000D02*
X160000000Y-93000000D01*
D21*
X155500000Y-101500000D02*
X154579000Y-100579000D01*
D22*
X157362075Y-98500000D02*
X160000000Y-95862075D01*
X160000000Y-94300000D02*
X160000000Y-95862075D01*
D21*
X154579000Y-100579000D02*
X154579000Y-98321000D01*
%TO.N,/SWDIO*%
X105000000Y-80700000D02*
X105000000Y-73900000D01*
%TO.N,/SWCLK*%
X102500000Y-77400000D02*
X102500000Y-71900000D01*
%TO.N,/USART2_RX*%
X125800000Y-123400000D02*
X89400000Y-123400000D01*
X145500000Y-102750000D02*
X145500000Y-103700000D01*
X145500000Y-103700000D02*
X125800000Y-123400000D01*
%TO.N,/USART2_TX*%
X91500000Y-121700000D02*
X124700000Y-121700000D01*
X124700000Y-121700000D02*
X136300000Y-110100000D01*
%TO.N,/USART3_RX*%
X135500000Y-89000000D02*
X147000000Y-89000000D01*
X147000000Y-89000000D02*
X148250000Y-90250000D01*
%TO.N,/USART3_TX*%
X150233274Y-95839309D02*
X150068319Y-95839309D01*
X135500000Y-91000000D02*
X149750000Y-91000000D01*
X151250000Y-95263945D02*
X150661476Y-95852469D01*
X151250000Y-92500000D02*
X151250000Y-95263945D01*
X150246434Y-95852469D02*
X150233274Y-95839309D01*
X149750000Y-91000000D02*
X151250000Y-92500000D01*
X150661476Y-95852469D02*
X150246434Y-95852469D01*
%TO.N,Net-(U1-NRST)*%
X152724022Y-104149753D02*
X151279593Y-104149753D01*
X151279593Y-104149753D02*
X150000000Y-105429346D01*
X150000000Y-105429346D02*
X150000000Y-106400000D01*
X152823775Y-104050000D02*
X152724022Y-104149753D01*
D22*
%TO.N,/USB-C circuit/USB_VBUS*%
X93000000Y-72600000D02*
X96200000Y-75800000D01*
X93000000Y-72000000D02*
X88350000Y-72000000D01*
X96200000Y-75800000D02*
X96200000Y-91249000D01*
X96200000Y-91249000D02*
X111295000Y-106344000D01*
X111295000Y-106344000D02*
X111295000Y-112295000D01*
X93000000Y-72000000D02*
X93000000Y-72600000D01*
D23*
%TO.N,/ANT_LOGIC_1*%
X154890000Y-111963166D02*
X149260000Y-106333166D01*
X149260000Y-104553525D02*
X149249684Y-104543209D01*
X155000000Y-115900000D02*
X154890000Y-115790000D01*
X149260000Y-106333166D02*
X149260000Y-104553525D01*
X154890000Y-115790000D02*
X154890000Y-111963166D01*
D21*
%TO.N,/USART1_RX*%
X146894654Y-96001000D02*
X147815308Y-95080346D01*
X147815308Y-95080346D02*
X150182832Y-95080346D01*
X116900000Y-96001000D02*
X146894654Y-96001000D01*
X150182832Y-95080346D02*
X150453955Y-95351469D01*
%TO.N,/USART1_TX*%
X150502656Y-94651000D02*
X150654362Y-94499294D01*
X148244654Y-94651000D02*
X150502656Y-94651000D01*
X147343654Y-93750000D02*
X148244654Y-94651000D01*
X114300000Y-93750000D02*
X147343654Y-93750000D01*
%TO.N,/ANT_LOGIC_2*%
X150750000Y-112000000D02*
X151750000Y-112000000D01*
X148233496Y-109483496D02*
X150735327Y-111985327D01*
X152610327Y-112860327D02*
X152610327Y-113889673D01*
X152610327Y-113889673D02*
X154389000Y-115668346D01*
X154389000Y-115668346D02*
X154389000Y-116095207D01*
X148233496Y-105432131D02*
X148233496Y-109483496D01*
X151750000Y-112000000D02*
X152610327Y-112860327D01*
%TO.N,/SPI3_MOSI*%
X140500000Y-98000000D02*
X140750000Y-98250000D01*
X140750000Y-98250000D02*
X144000000Y-98250000D01*
X143200000Y-84275000D02*
X146900000Y-84275000D01*
%TO.N,/SPI3_SCK*%
X148423906Y-83220000D02*
X148465103Y-83178803D01*
X148345000Y-86970000D02*
X148345000Y-83220000D01*
X148345000Y-83220000D02*
X148423906Y-83220000D01*
%TO.N,/ADC_GPIO2*%
X156351000Y-95899000D02*
X156351000Y-93851000D01*
X156351000Y-93851000D02*
X155615017Y-93115017D01*
X154202859Y-97000000D02*
X155250000Y-97000000D01*
X155250000Y-97000000D02*
X156351000Y-95899000D01*
X155615017Y-93115017D02*
X155615017Y-88634983D01*
%TO.N,/ADC_GPIO3*%
X157000000Y-96500000D02*
X157000000Y-94250000D01*
X155829000Y-97671000D02*
X157000000Y-96500000D01*
X157000000Y-94250000D02*
X157000000Y-89000000D01*
X157000000Y-89000000D02*
X157000000Y-88750000D01*
X154240380Y-97671000D02*
X155829000Y-97671000D01*
%TD*%
%TA.AperFunction,Conductor*%
%TO.N,GND*%
G36*
X148837152Y-105720864D02*
G01*
X148877680Y-105777778D01*
X148884500Y-105818334D01*
X148884500Y-106382601D01*
X148910090Y-106478104D01*
X148910091Y-106478105D01*
X148910091Y-106478106D01*
X148959526Y-106563729D01*
X154478181Y-112082384D01*
X154511666Y-112143707D01*
X154514500Y-112170065D01*
X154514500Y-114928091D01*
X154494815Y-114995130D01*
X154442011Y-115040885D01*
X154372853Y-115050829D01*
X154309297Y-115021804D01*
X154302819Y-115015772D01*
X153047146Y-113760099D01*
X153013661Y-113698776D01*
X153010827Y-113672418D01*
X153010827Y-112807603D01*
X153010826Y-112807596D01*
X152996571Y-112754394D01*
X152983534Y-112705739D01*
X152930807Y-112614414D01*
X151995913Y-111679520D01*
X151950250Y-111653156D01*
X151904589Y-111626793D01*
X151853657Y-111613146D01*
X151802727Y-111599500D01*
X151802726Y-111599500D01*
X150967255Y-111599500D01*
X150900216Y-111579815D01*
X150879574Y-111563181D01*
X148670315Y-109353922D01*
X148636830Y-109292599D01*
X148633996Y-109266241D01*
X148633996Y-105822671D01*
X148638146Y-105807180D01*
X148637492Y-105793436D01*
X148650609Y-105760670D01*
X148653113Y-105756333D01*
X148703681Y-105708118D01*
X148772288Y-105694896D01*
X148837152Y-105720864D01*
G37*
%TD.AperFunction*%
%TA.AperFunction,Conductor*%
G36*
X157528814Y-93428276D02*
G01*
X157542147Y-93426360D01*
X157562290Y-93435559D01*
X157583927Y-93440266D01*
X157601652Y-93453534D01*
X157605703Y-93455385D01*
X157612181Y-93461417D01*
X157631284Y-93480520D01*
X157631286Y-93480521D01*
X157631290Y-93480524D01*
X157752494Y-93550500D01*
X157768216Y-93559577D01*
X157920943Y-93600500D01*
X157920945Y-93600500D01*
X158079055Y-93600500D01*
X158079057Y-93600500D01*
X158231784Y-93559577D01*
X158231785Y-93559576D01*
X158239635Y-93557473D01*
X158239820Y-93558165D01*
X158278363Y-93550500D01*
X158841813Y-93550500D01*
X158908852Y-93570185D01*
X158954607Y-93622989D01*
X158964551Y-93692147D01*
X158963701Y-93697286D01*
X158944500Y-93799995D01*
X158944500Y-94365833D01*
X158954909Y-94444893D01*
X158988986Y-94572067D01*
X159019499Y-94645734D01*
X159019507Y-94645750D01*
X159085325Y-94759749D01*
X159085337Y-94759767D01*
X159133880Y-94823028D01*
X159133888Y-94823037D01*
X159226963Y-94916112D01*
X159226971Y-94916119D01*
X159290232Y-94964662D01*
X159290235Y-94964664D01*
X159290243Y-94964670D01*
X159387500Y-95020821D01*
X159435715Y-95071388D01*
X159449500Y-95128208D01*
X159449500Y-95582688D01*
X159429815Y-95649727D01*
X159413181Y-95670369D01*
X158467604Y-96615945D01*
X158406281Y-96649430D01*
X158336589Y-96644446D01*
X158280656Y-96602574D01*
X158256239Y-96537110D01*
X158269678Y-96473980D01*
X158269134Y-96473755D01*
X158270354Y-96470809D01*
X158270568Y-96469805D01*
X158271459Y-96468134D01*
X158271465Y-96468127D01*
X158320501Y-96349744D01*
X158336447Y-96269582D01*
X158345500Y-96224071D01*
X158345500Y-96095928D01*
X158320502Y-95970261D01*
X158320501Y-95970260D01*
X158320501Y-95970256D01*
X158271465Y-95851873D01*
X158271464Y-95851872D01*
X158271461Y-95851866D01*
X158200276Y-95745331D01*
X158200273Y-95745327D01*
X158109672Y-95654726D01*
X158109668Y-95654723D01*
X158003133Y-95583538D01*
X158003124Y-95583533D01*
X157884744Y-95534499D01*
X157884738Y-95534497D01*
X157759071Y-95509500D01*
X157759069Y-95509500D01*
X157630931Y-95509500D01*
X157630928Y-95509500D01*
X157548691Y-95525858D01*
X157479100Y-95519631D01*
X157423922Y-95476768D01*
X157400678Y-95410878D01*
X157400500Y-95404241D01*
X157400500Y-93549098D01*
X157406738Y-93527852D01*
X157408318Y-93505764D01*
X157416390Y-93494980D01*
X157420185Y-93482059D01*
X157436918Y-93467559D01*
X157450190Y-93449831D01*
X157462810Y-93445123D01*
X157472989Y-93436304D01*
X157494906Y-93433152D01*
X157515654Y-93425414D01*
X157528814Y-93428276D01*
G37*
%TD.AperFunction*%
%TA.AperFunction,Conductor*%
G36*
X149599784Y-91420185D02*
G01*
X149620426Y-91436819D01*
X150813181Y-92629574D01*
X150846666Y-92690897D01*
X150849500Y-92717255D01*
X150849500Y-93849794D01*
X150829815Y-93916833D01*
X150777011Y-93962588D01*
X150725500Y-93973794D01*
X150585179Y-93973794D01*
X150451526Y-94009606D01*
X150451523Y-94009607D01*
X150331700Y-94078786D01*
X150331695Y-94078790D01*
X150233858Y-94176627D01*
X150233854Y-94176632D01*
X150227003Y-94188500D01*
X150176437Y-94236715D01*
X150119616Y-94250500D01*
X148461909Y-94250500D01*
X148394870Y-94230815D01*
X148374228Y-94214181D01*
X147589569Y-93429522D01*
X147589567Y-93429520D01*
X147543904Y-93403156D01*
X147498243Y-93376793D01*
X147439039Y-93360930D01*
X147396381Y-93349500D01*
X147396380Y-93349500D01*
X144195836Y-93349500D01*
X144128797Y-93329815D01*
X144083042Y-93277011D01*
X144073098Y-93207853D01*
X144092733Y-93156610D01*
X144123064Y-93111216D01*
X144194233Y-93004703D01*
X144274553Y-92810795D01*
X144291530Y-92725445D01*
X144315500Y-92604945D01*
X144315500Y-92564071D01*
X148369499Y-92564071D01*
X148394497Y-92689738D01*
X148394499Y-92689744D01*
X148443533Y-92808124D01*
X148443538Y-92808133D01*
X148514723Y-92914668D01*
X148514726Y-92914672D01*
X148605327Y-93005273D01*
X148605331Y-93005276D01*
X148711866Y-93076461D01*
X148711872Y-93076464D01*
X148711873Y-93076465D01*
X148830256Y-93125501D01*
X148830260Y-93125501D01*
X148830261Y-93125502D01*
X148955928Y-93150500D01*
X148955931Y-93150500D01*
X149084071Y-93150500D01*
X149168615Y-93133682D01*
X149209744Y-93125501D01*
X149328127Y-93076465D01*
X149434669Y-93005276D01*
X149525276Y-92914669D01*
X149596465Y-92808127D01*
X149645501Y-92689744D01*
X149662369Y-92604945D01*
X149670500Y-92564071D01*
X149670500Y-92435928D01*
X149645502Y-92310261D01*
X149645501Y-92310260D01*
X149645501Y-92310256D01*
X149596465Y-92191873D01*
X149596464Y-92191872D01*
X149596461Y-92191866D01*
X149525276Y-92085331D01*
X149525273Y-92085327D01*
X149434672Y-91994726D01*
X149434668Y-91994723D01*
X149328133Y-91923538D01*
X149328124Y-91923533D01*
X149209744Y-91874499D01*
X149209738Y-91874497D01*
X149084071Y-91849500D01*
X149084069Y-91849500D01*
X148955931Y-91849500D01*
X148955929Y-91849500D01*
X148830261Y-91874497D01*
X148830255Y-91874499D01*
X148711875Y-91923533D01*
X148711866Y-91923538D01*
X148605331Y-91994723D01*
X148605327Y-91994726D01*
X148514726Y-92085327D01*
X148514723Y-92085331D01*
X148443538Y-92191866D01*
X148443533Y-92191875D01*
X148394499Y-92310255D01*
X148394497Y-92310261D01*
X148369500Y-92435928D01*
X148369500Y-92435931D01*
X148369500Y-92564069D01*
X148369500Y-92564071D01*
X148369499Y-92564071D01*
X144315500Y-92564071D01*
X144315500Y-92395054D01*
X144274554Y-92189210D01*
X144274553Y-92189209D01*
X144274553Y-92189205D01*
X144231525Y-92085327D01*
X144194234Y-91995298D01*
X144077626Y-91820781D01*
X143929219Y-91672374D01*
X143929211Y-91672368D01*
X143862214Y-91627602D01*
X143817408Y-91573990D01*
X143808701Y-91504665D01*
X143838855Y-91441638D01*
X143898298Y-91404918D01*
X143931104Y-91400500D01*
X149532745Y-91400500D01*
X149599784Y-91420185D01*
G37*
%TD.AperFunction*%
%TA.AperFunction,Conductor*%
G36*
X135014235Y-88554168D02*
G01*
X135059990Y-88606972D01*
X135069934Y-88676130D01*
X135054584Y-88720482D01*
X135010312Y-88797163D01*
X135010312Y-88797164D01*
X134974500Y-88930817D01*
X134974500Y-89069183D01*
X134980794Y-89092670D01*
X135010312Y-89202835D01*
X135010313Y-89202838D01*
X135079492Y-89322661D01*
X135079494Y-89322664D01*
X135079495Y-89322665D01*
X135177335Y-89420505D01*
X135297164Y-89489688D01*
X135430817Y-89525500D01*
X135430819Y-89525500D01*
X135569181Y-89525500D01*
X135569183Y-89525500D01*
X135702836Y-89489688D01*
X135822662Y-89420507D01*
X135828541Y-89417113D01*
X135890541Y-89400500D01*
X146782745Y-89400500D01*
X146849784Y-89420185D01*
X146870426Y-89436819D01*
X147690651Y-90257044D01*
X147698668Y-90270930D01*
X147708851Y-90280187D01*
X147722745Y-90312631D01*
X147724500Y-90319180D01*
X147724500Y-90319183D01*
X147757786Y-90443407D01*
X147756123Y-90513256D01*
X147716961Y-90571119D01*
X147652732Y-90598623D01*
X147638011Y-90599500D01*
X135890541Y-90599500D01*
X135828541Y-90582887D01*
X135702838Y-90510313D01*
X135702837Y-90510312D01*
X135702836Y-90510312D01*
X135569183Y-90474500D01*
X135430817Y-90474500D01*
X135297164Y-90510312D01*
X135297161Y-90510313D01*
X135177338Y-90579492D01*
X135177333Y-90579496D01*
X135079496Y-90677333D01*
X135079492Y-90677338D01*
X135010313Y-90797161D01*
X135010312Y-90797164D01*
X134974500Y-90930817D01*
X134974500Y-91069183D01*
X135003263Y-91176526D01*
X135010312Y-91202835D01*
X135010313Y-91202838D01*
X135079492Y-91322661D01*
X135079494Y-91322664D01*
X135079495Y-91322665D01*
X135177335Y-91420505D01*
X135177336Y-91420506D01*
X135177338Y-91420507D01*
X135229288Y-91450500D01*
X135297164Y-91489688D01*
X135430817Y-91525500D01*
X135430819Y-91525500D01*
X135569181Y-91525500D01*
X135569183Y-91525500D01*
X135702836Y-91489688D01*
X135814012Y-91425501D01*
X135828541Y-91417113D01*
X135890541Y-91400500D01*
X142568896Y-91400500D01*
X142635935Y-91420185D01*
X142681690Y-91472989D01*
X142691634Y-91542147D01*
X142662609Y-91605703D01*
X142637786Y-91627602D01*
X142570788Y-91672368D01*
X142570780Y-91672374D01*
X142422373Y-91820781D01*
X142305765Y-91995298D01*
X142225447Y-92189204D01*
X142225445Y-92189210D01*
X142184500Y-92395054D01*
X142184500Y-92395057D01*
X142184500Y-92604943D01*
X142184500Y-92604945D01*
X142184499Y-92604945D01*
X142225445Y-92810789D01*
X142225447Y-92810795D01*
X142271664Y-92922373D01*
X142305767Y-93004703D01*
X142353717Y-93076466D01*
X142407267Y-93156610D01*
X142428144Y-93223287D01*
X142409659Y-93290667D01*
X142357680Y-93337357D01*
X142304164Y-93349500D01*
X114690541Y-93349500D01*
X114628541Y-93332887D01*
X114502838Y-93260313D01*
X114502837Y-93260312D01*
X114502836Y-93260312D01*
X114369183Y-93224500D01*
X114230817Y-93224500D01*
X114206592Y-93230990D01*
X114136743Y-93229328D01*
X114078881Y-93190165D01*
X114051377Y-93125936D01*
X114050500Y-93111216D01*
X114050500Y-92529387D01*
X114070185Y-92462348D01*
X114086819Y-92441706D01*
X114941706Y-91586819D01*
X115003029Y-91553334D01*
X115029387Y-91550500D01*
X120072472Y-91550500D01*
X120072474Y-91550500D01*
X120072475Y-91550500D01*
X120212485Y-91512984D01*
X120252835Y-91489688D01*
X120252839Y-91489686D01*
X120338008Y-91440514D01*
X120338007Y-91440514D01*
X120338015Y-91440510D01*
X123207723Y-88570802D01*
X123269046Y-88537317D01*
X123295404Y-88534483D01*
X134947196Y-88534483D01*
X135014235Y-88554168D01*
G37*
%TD.AperFunction*%
%TA.AperFunction,Conductor*%
G36*
X173006061Y-66201097D02*
G01*
X173016051Y-66202080D01*
X173143824Y-66214665D01*
X173167652Y-66219404D01*
X173294277Y-66257815D01*
X173316725Y-66267114D01*
X173433406Y-66329482D01*
X173453616Y-66342986D01*
X173555891Y-66426920D01*
X173573079Y-66444108D01*
X173657012Y-66546381D01*
X173670517Y-66566593D01*
X173732883Y-66683271D01*
X173742186Y-66705728D01*
X173780593Y-66832338D01*
X173785335Y-66856180D01*
X173798903Y-66993938D01*
X173799500Y-67006092D01*
X173799500Y-104126000D01*
X173779815Y-104193039D01*
X173727011Y-104238794D01*
X173675500Y-104250000D01*
X168500000Y-104250000D01*
X168500000Y-119425500D01*
X168480315Y-119492539D01*
X168427511Y-119538294D01*
X168376000Y-119549500D01*
X158655514Y-119549500D01*
X158468881Y-119579059D01*
X158289163Y-119637454D01*
X158120798Y-119723241D01*
X158116567Y-119726316D01*
X158096520Y-119733469D01*
X158078614Y-119744977D01*
X158054592Y-119748430D01*
X158050761Y-119749798D01*
X158043679Y-119750000D01*
X157874000Y-119750000D01*
X157806961Y-119730315D01*
X157761206Y-119677511D01*
X157750000Y-119626000D01*
X157750000Y-118328742D01*
X157749999Y-118328741D01*
X152050000Y-118293741D01*
X152049999Y-118293742D01*
X152028725Y-119111897D01*
X152020375Y-119433042D01*
X152020291Y-119436265D01*
X151998871Y-119502770D01*
X151944895Y-119547137D01*
X151896333Y-119557042D01*
X150074000Y-119557042D01*
X150006961Y-119537357D01*
X149961206Y-119484553D01*
X149950000Y-119433042D01*
X149950000Y-118293742D01*
X149949999Y-118293742D01*
X144000000Y-118328742D01*
X144000000Y-127675500D01*
X143980315Y-127742539D01*
X143927511Y-127788294D01*
X143876000Y-127799500D01*
X79756092Y-127799500D01*
X79743938Y-127798903D01*
X79606180Y-127785335D01*
X79582340Y-127780593D01*
X79455728Y-127742186D01*
X79433271Y-127732883D01*
X79316593Y-127670517D01*
X79296381Y-127657012D01*
X79194108Y-127573079D01*
X79176920Y-127555891D01*
X79092986Y-127453616D01*
X79079482Y-127433406D01*
X79017116Y-127316728D01*
X79007815Y-127294277D01*
X78969404Y-127167652D01*
X78964665Y-127143824D01*
X78951097Y-127006060D01*
X78950500Y-126993907D01*
X78950500Y-124897648D01*
X125699500Y-124897648D01*
X125699500Y-125102351D01*
X125731522Y-125304534D01*
X125794781Y-125499223D01*
X125887715Y-125681613D01*
X126008028Y-125847213D01*
X126152786Y-125991971D01*
X126307749Y-126104556D01*
X126318390Y-126112287D01*
X126434607Y-126171503D01*
X126500776Y-126205218D01*
X126500778Y-126205218D01*
X126500781Y-126205220D01*
X126605137Y-126239127D01*
X126695465Y-126268477D01*
X126796557Y-126284488D01*
X126897648Y-126300500D01*
X126897649Y-126300500D01*
X127102351Y-126300500D01*
X127102352Y-126300500D01*
X127304534Y-126268477D01*
X127499219Y-126205220D01*
X127681610Y-126112287D01*
X127774590Y-126044732D01*
X127847213Y-125991971D01*
X127847215Y-125991968D01*
X127847219Y-125991966D01*
X127991966Y-125847219D01*
X127991968Y-125847215D01*
X127991971Y-125847213D01*
X128044732Y-125774590D01*
X128112287Y-125681610D01*
X128205220Y-125499219D01*
X128268477Y-125304534D01*
X128300500Y-125102352D01*
X128300500Y-124897648D01*
X128268477Y-124695466D01*
X128205220Y-124500781D01*
X128205218Y-124500778D01*
X128205218Y-124500776D01*
X128171503Y-124434607D01*
X128112287Y-124318390D01*
X128104556Y-124307749D01*
X127991971Y-124152786D01*
X127847213Y-124008028D01*
X127681613Y-123887715D01*
X127681612Y-123887714D01*
X127681610Y-123887713D01*
X127624653Y-123858691D01*
X127499223Y-123794781D01*
X127304534Y-123731522D01*
X127129995Y-123703878D01*
X127102352Y-123699500D01*
X126897648Y-123699500D01*
X126873329Y-123703351D01*
X126695465Y-123731522D01*
X126500776Y-123794781D01*
X126318386Y-123887715D01*
X126152786Y-124008028D01*
X126008028Y-124152786D01*
X125887715Y-124318386D01*
X125794781Y-124500776D01*
X125731522Y-124695465D01*
X125699500Y-124897648D01*
X78950500Y-124897648D01*
X78950500Y-117377155D01*
X81075000Y-117377155D01*
X81075000Y-118025000D01*
X81991988Y-118025000D01*
X81959075Y-118082007D01*
X81925000Y-118209174D01*
X81925000Y-118340826D01*
X81959075Y-118467993D01*
X81991988Y-118525000D01*
X81075000Y-118525000D01*
X81075000Y-119172844D01*
X81081401Y-119232372D01*
X81081403Y-119232379D01*
X81131645Y-119367086D01*
X81131649Y-119367093D01*
X81217809Y-119482187D01*
X81217812Y-119482190D01*
X81332906Y-119568350D01*
X81332913Y-119568354D01*
X81467620Y-119618596D01*
X81467627Y-119618598D01*
X81527155Y-119624999D01*
X81527172Y-119625000D01*
X81723913Y-119625000D01*
X81790952Y-119644685D01*
X81836707Y-119697489D01*
X81846651Y-119766647D01*
X81817626Y-119830203D01*
X81796798Y-119849318D01*
X81675504Y-119937441D01*
X81547445Y-120065500D01*
X81547441Y-120065505D01*
X81441006Y-120212002D01*
X81358788Y-120373360D01*
X81358787Y-120373363D01*
X81302829Y-120545589D01*
X81274500Y-120724448D01*
X81274500Y-120905551D01*
X81302829Y-121084410D01*
X81358787Y-121256636D01*
X81358788Y-121256639D01*
X81441006Y-121417997D01*
X81547441Y-121564494D01*
X81547445Y-121564499D01*
X81675500Y-121692554D01*
X81675505Y-121692558D01*
X81780970Y-121769182D01*
X81822006Y-121798996D01*
X81927484Y-121852740D01*
X81983360Y-121881211D01*
X81983363Y-121881212D01*
X82049914Y-121902835D01*
X82155591Y-121937171D01*
X82228639Y-121948740D01*
X82315678Y-121962527D01*
X82378813Y-121992456D01*
X82415744Y-122051768D01*
X82414746Y-122121631D01*
X82376136Y-122179863D01*
X82315678Y-122207473D01*
X82155589Y-122232829D01*
X81983363Y-122288787D01*
X81983360Y-122288788D01*
X81822002Y-122371006D01*
X81675505Y-122477441D01*
X81675500Y-122477445D01*
X81547445Y-122605500D01*
X81547441Y-122605505D01*
X81441006Y-122752002D01*
X81358788Y-122913360D01*
X81358787Y-122913363D01*
X81302829Y-123085589D01*
X81274500Y-123264448D01*
X81274500Y-123445551D01*
X81302829Y-123624410D01*
X81358787Y-123796636D01*
X81358788Y-123796639D01*
X81406200Y-123889688D01*
X81424447Y-123925500D01*
X81441006Y-123957997D01*
X81547441Y-124104494D01*
X81547445Y-124104499D01*
X81675500Y-124232554D01*
X81675505Y-124232558D01*
X81793639Y-124318386D01*
X81822006Y-124338996D01*
X81927484Y-124392740D01*
X81983360Y-124421211D01*
X81983363Y-124421212D01*
X82069476Y-124449191D01*
X82155591Y-124477171D01*
X82238429Y-124490291D01*
X82334449Y-124505500D01*
X82334454Y-124505500D01*
X82515551Y-124505500D01*
X82602259Y-124491765D01*
X82694409Y-124477171D01*
X82866639Y-124421211D01*
X83027994Y-124338996D01*
X83174501Y-124232553D01*
X83302553Y-124104501D01*
X83408996Y-123957994D01*
X83491211Y-123796639D01*
X83547171Y-123624409D01*
X83561765Y-123532259D01*
X83575500Y-123445551D01*
X83575500Y-123330817D01*
X88874500Y-123330817D01*
X88874500Y-123469182D01*
X88910312Y-123602835D01*
X88910313Y-123602838D01*
X88979492Y-123722661D01*
X88979494Y-123722664D01*
X88979495Y-123722665D01*
X89077335Y-123820505D01*
X89197164Y-123889688D01*
X89330817Y-123925500D01*
X89330819Y-123925500D01*
X89469181Y-123925500D01*
X89469183Y-123925500D01*
X89602836Y-123889688D01*
X89722662Y-123820507D01*
X89728541Y-123817113D01*
X89790541Y-123800500D01*
X125852725Y-123800500D01*
X125852727Y-123800500D01*
X125954588Y-123773207D01*
X126045913Y-123720480D01*
X144403445Y-105362948D01*
X147707996Y-105362948D01*
X147707996Y-105501314D01*
X147741272Y-105625500D01*
X147743808Y-105634966D01*
X147743809Y-105634969D01*
X147816383Y-105760671D01*
X147832996Y-105822671D01*
X147832996Y-109536222D01*
X147860289Y-109638085D01*
X147861247Y-109639744D01*
X147913016Y-109729409D01*
X150429520Y-112245913D01*
X150504087Y-112320480D01*
X150595413Y-112373207D01*
X150697273Y-112400500D01*
X151532745Y-112400500D01*
X151599784Y-112420185D01*
X151620426Y-112436819D01*
X152173508Y-112989901D01*
X152206993Y-113051224D01*
X152209827Y-113077582D01*
X152209827Y-113942399D01*
X152237120Y-114044262D01*
X152263483Y-114089923D01*
X152289847Y-114135586D01*
X152289849Y-114135588D01*
X153036540Y-114882279D01*
X153070025Y-114943602D01*
X153065041Y-115013294D01*
X153023169Y-115069227D01*
X153017750Y-115073062D01*
X152985331Y-115094723D01*
X152985327Y-115094726D01*
X152894726Y-115185327D01*
X152894723Y-115185331D01*
X152823538Y-115291866D01*
X152823533Y-115291875D01*
X152774499Y-115410255D01*
X152774497Y-115410261D01*
X152749500Y-115535928D01*
X152749500Y-115535931D01*
X152749500Y-115664069D01*
X152749500Y-115664071D01*
X152749499Y-115664071D01*
X152774497Y-115789738D01*
X152774499Y-115789744D01*
X152823533Y-115908124D01*
X152823538Y-115908133D01*
X152894723Y-116014668D01*
X152894726Y-116014672D01*
X152985327Y-116105273D01*
X152985331Y-116105276D01*
X153091866Y-116176461D01*
X153091875Y-116176466D01*
X153112823Y-116185143D01*
X153210256Y-116225501D01*
X153210260Y-116225501D01*
X153210261Y-116225502D01*
X153335928Y-116250500D01*
X153335931Y-116250500D01*
X153464071Y-116250500D01*
X153548615Y-116233682D01*
X153589744Y-116225501D01*
X153708127Y-116176465D01*
X153723024Y-116166510D01*
X153789701Y-116145630D01*
X153857082Y-116164112D01*
X153903774Y-116216089D01*
X153911694Y-116237516D01*
X153927912Y-116298044D01*
X153927913Y-116298045D01*
X153997092Y-116417868D01*
X153997094Y-116417871D01*
X153997095Y-116417872D01*
X154094935Y-116515712D01*
X154214764Y-116584895D01*
X154348417Y-116620707D01*
X154348419Y-116620707D01*
X154486781Y-116620707D01*
X154486783Y-116620707D01*
X154620436Y-116584895D01*
X154740265Y-116515712D01*
X154801061Y-116454915D01*
X154862380Y-116421433D01*
X154920829Y-116422823D01*
X154930817Y-116425500D01*
X154930820Y-116425500D01*
X155069181Y-116425500D01*
X155069183Y-116425500D01*
X155202836Y-116389688D01*
X155322665Y-116320505D01*
X155420505Y-116222665D01*
X155489688Y-116102836D01*
X155525500Y-115969183D01*
X155525500Y-115830817D01*
X155489688Y-115697164D01*
X155437177Y-115606212D01*
X155420507Y-115577338D01*
X155420506Y-115577337D01*
X155420505Y-115577335D01*
X155322665Y-115479495D01*
X155322664Y-115479494D01*
X155322661Y-115479491D01*
X155316220Y-115474549D01*
X155317957Y-115472284D01*
X155279274Y-115431700D01*
X155265500Y-115374899D01*
X155265500Y-111913732D01*
X155265500Y-111913731D01*
X155256550Y-111880331D01*
X155247194Y-111845412D01*
X155239910Y-111818228D01*
X155190475Y-111732604D01*
X155120562Y-111662691D01*
X150388201Y-106930330D01*
X150354716Y-106869007D01*
X150359700Y-106799315D01*
X150388200Y-106754969D01*
X150420505Y-106722665D01*
X150489688Y-106602836D01*
X150525500Y-106469183D01*
X150525500Y-106330817D01*
X150489688Y-106197164D01*
X150451784Y-106131512D01*
X150417113Y-106071459D01*
X150400500Y-106009459D01*
X150400500Y-105646600D01*
X150420185Y-105579561D01*
X150436819Y-105558919D01*
X150494425Y-105501313D01*
X150632280Y-105363457D01*
X150693601Y-105329974D01*
X150763292Y-105334958D01*
X150819226Y-105376829D01*
X150823061Y-105382249D01*
X150844723Y-105414668D01*
X150844726Y-105414672D01*
X150935327Y-105505273D01*
X150935331Y-105505276D01*
X151041866Y-105576461D01*
X151041872Y-105576464D01*
X151041873Y-105576465D01*
X151160256Y-105625501D01*
X151160260Y-105625501D01*
X151160261Y-105625502D01*
X151285928Y-105650500D01*
X151285931Y-105650500D01*
X151414071Y-105650500D01*
X151498615Y-105633682D01*
X151539744Y-105625501D01*
X151658127Y-105576465D01*
X151764669Y-105505276D01*
X151855276Y-105414669D01*
X151926465Y-105308127D01*
X151975501Y-105189744D01*
X152000500Y-105064069D01*
X152000500Y-104935931D01*
X152000500Y-104935928D01*
X151975502Y-104810261D01*
X151975501Y-104810260D01*
X151975501Y-104810256D01*
X151938821Y-104721705D01*
X151931353Y-104652237D01*
X151962628Y-104589757D01*
X152022717Y-104554105D01*
X152053383Y-104550253D01*
X152644043Y-104550253D01*
X152676136Y-104554478D01*
X152754592Y-104575500D01*
X152754594Y-104575500D01*
X152892956Y-104575500D01*
X152892958Y-104575500D01*
X153026611Y-104539688D01*
X153146440Y-104470505D01*
X153244280Y-104372665D01*
X153313463Y-104252836D01*
X153349275Y-104119183D01*
X153349275Y-103980817D01*
X153313463Y-103847164D01*
X153258940Y-103752727D01*
X153244282Y-103727338D01*
X153244278Y-103727333D01*
X153146441Y-103629496D01*
X153146436Y-103629492D01*
X153026613Y-103560313D01*
X153026612Y-103560312D01*
X153026611Y-103560312D01*
X152892958Y-103524500D01*
X152754592Y-103524500D01*
X152620939Y-103560312D01*
X152620936Y-103560313D01*
X152501113Y-103629492D01*
X152501108Y-103629496D01*
X152417671Y-103712934D01*
X152356348Y-103746419D01*
X152329990Y-103749253D01*
X151226866Y-103749253D01*
X151125005Y-103776546D01*
X151125002Y-103776547D01*
X151079343Y-103802908D01*
X151079343Y-103802909D01*
X151033680Y-103829273D01*
X151033677Y-103829275D01*
X150959111Y-103903842D01*
X149889653Y-104973299D01*
X149828330Y-105006784D01*
X149758638Y-105001800D01*
X149702705Y-104959928D01*
X149678288Y-104894464D01*
X149693140Y-104826191D01*
X149694585Y-104823618D01*
X149702297Y-104810261D01*
X149739372Y-104746045D01*
X149775184Y-104612392D01*
X149775184Y-104474026D01*
X149739372Y-104340373D01*
X149689132Y-104253354D01*
X149670191Y-104220547D01*
X149670187Y-104220542D01*
X149572350Y-104122705D01*
X149572345Y-104122701D01*
X149452522Y-104053522D01*
X149452521Y-104053521D01*
X149452520Y-104053521D01*
X149318867Y-104017709D01*
X149180501Y-104017709D01*
X149046848Y-104053521D01*
X149046845Y-104053522D01*
X148927022Y-104122701D01*
X148927017Y-104122705D01*
X148829180Y-104220542D01*
X148829176Y-104220547D01*
X148759997Y-104340370D01*
X148759996Y-104340373D01*
X148724184Y-104474026D01*
X148724184Y-104612392D01*
X148753475Y-104721706D01*
X148759996Y-104746044D01*
X148759997Y-104746047D01*
X148829176Y-104865870D01*
X148829180Y-104865875D01*
X148848181Y-104884876D01*
X148862884Y-104911803D01*
X148879477Y-104937622D01*
X148880368Y-104943822D01*
X148881666Y-104946199D01*
X148884500Y-104972557D01*
X148884500Y-105045927D01*
X148864815Y-105112966D01*
X148812011Y-105158721D01*
X148742853Y-105168665D01*
X148679297Y-105139640D01*
X148659415Y-105115560D01*
X148658951Y-105115917D01*
X148653999Y-105109464D01*
X148556162Y-105011627D01*
X148556157Y-105011623D01*
X148436334Y-104942444D01*
X148436333Y-104942443D01*
X148436332Y-104942443D01*
X148302679Y-104906631D01*
X148164313Y-104906631D01*
X148030660Y-104942443D01*
X148030657Y-104942444D01*
X147910834Y-105011623D01*
X147910829Y-105011627D01*
X147812992Y-105109464D01*
X147812988Y-105109469D01*
X147743809Y-105229292D01*
X147743808Y-105229295D01*
X147707996Y-105362948D01*
X144403445Y-105362948D01*
X145820480Y-103945913D01*
X145873207Y-103854588D01*
X145900500Y-103752727D01*
X145900500Y-103647273D01*
X145900500Y-103140540D01*
X145917113Y-103078540D01*
X145951626Y-103018761D01*
X145989688Y-102952836D01*
X146025500Y-102819183D01*
X146025500Y-102680817D01*
X145989688Y-102547164D01*
X145920505Y-102427335D01*
X145822665Y-102329495D01*
X145822664Y-102329494D01*
X145822661Y-102329492D01*
X145702838Y-102260313D01*
X145702837Y-102260312D01*
X145702836Y-102260312D01*
X145569183Y-102224500D01*
X145430817Y-102224500D01*
X145297164Y-102260312D01*
X145297161Y-102260313D01*
X145177338Y-102329492D01*
X145177333Y-102329496D01*
X145136559Y-102370270D01*
X145075236Y-102403754D01*
X145005544Y-102398769D01*
X144961198Y-102370269D01*
X144914672Y-102323743D01*
X144914668Y-102323740D01*
X144808133Y-102252555D01*
X144808124Y-102252550D01*
X144689744Y-102203516D01*
X144689738Y-102203514D01*
X144564071Y-102178517D01*
X144564069Y-102178517D01*
X144435931Y-102178517D01*
X144435929Y-102178517D01*
X144310261Y-102203514D01*
X144310255Y-102203516D01*
X144191875Y-102252550D01*
X144191866Y-102252555D01*
X144085331Y-102323740D01*
X144085327Y-102323743D01*
X143994726Y-102414344D01*
X143994723Y-102414348D01*
X143923538Y-102520883D01*
X143923533Y-102520892D01*
X143874499Y-102639272D01*
X143874497Y-102639278D01*
X143849500Y-102764945D01*
X143849500Y-102764948D01*
X143849500Y-102893086D01*
X143849500Y-102893088D01*
X143849499Y-102893088D01*
X143874497Y-103018755D01*
X143874499Y-103018761D01*
X143923533Y-103137141D01*
X143923538Y-103137150D01*
X143994723Y-103243685D01*
X143994726Y-103243689D01*
X144085327Y-103334290D01*
X144085331Y-103334293D01*
X144191866Y-103405478D01*
X144191875Y-103405483D01*
X144218692Y-103416591D01*
X144310256Y-103454518D01*
X144310260Y-103454518D01*
X144310261Y-103454519D01*
X144435928Y-103479517D01*
X144435931Y-103479517D01*
X144564071Y-103479517D01*
X144662185Y-103460000D01*
X144689744Y-103454518D01*
X144808127Y-103405482D01*
X144906610Y-103339677D01*
X144916309Y-103336640D01*
X144923989Y-103329986D01*
X144949086Y-103326377D01*
X144973286Y-103318800D01*
X144983086Y-103321488D01*
X144993147Y-103320042D01*
X145016213Y-103330576D01*
X145040666Y-103337284D01*
X145047457Y-103344844D01*
X145056703Y-103349067D01*
X145070412Y-103370399D01*
X145087357Y-103389263D01*
X145089988Y-103400860D01*
X145094477Y-103407845D01*
X145099500Y-103442780D01*
X145099500Y-103482745D01*
X145079815Y-103549784D01*
X145063181Y-103570426D01*
X125670426Y-122963181D01*
X125609103Y-122996666D01*
X125582745Y-122999500D01*
X89790541Y-122999500D01*
X89728541Y-122982887D01*
X89602838Y-122910313D01*
X89602837Y-122910312D01*
X89602836Y-122910312D01*
X89469183Y-122874500D01*
X89330817Y-122874500D01*
X89197164Y-122910312D01*
X89197161Y-122910313D01*
X89077338Y-122979492D01*
X89077333Y-122979496D01*
X88979496Y-123077333D01*
X88979492Y-123077338D01*
X88910313Y-123197161D01*
X88910312Y-123197164D01*
X88874500Y-123330817D01*
X83575500Y-123330817D01*
X83575500Y-123264448D01*
X83559019Y-123160397D01*
X83547171Y-123085591D01*
X83491211Y-122913361D01*
X83491211Y-122913360D01*
X83462740Y-122857484D01*
X83408996Y-122752006D01*
X83395396Y-122733287D01*
X83302558Y-122605505D01*
X83302554Y-122605500D01*
X83174499Y-122477445D01*
X83174494Y-122477441D01*
X83027997Y-122371006D01*
X83027996Y-122371005D01*
X83027994Y-122371004D01*
X82976300Y-122344664D01*
X82866639Y-122288788D01*
X82866636Y-122288787D01*
X82694410Y-122232829D01*
X82534321Y-122207473D01*
X82471186Y-122177544D01*
X82434255Y-122118232D01*
X82435253Y-122048370D01*
X82473863Y-121990137D01*
X82534321Y-121962527D01*
X82604425Y-121951422D01*
X82694409Y-121937171D01*
X82866639Y-121881211D01*
X83027994Y-121798996D01*
X83174501Y-121692553D01*
X83236237Y-121630817D01*
X90974500Y-121630817D01*
X90974500Y-121769183D01*
X90982489Y-121798996D01*
X91010312Y-121902835D01*
X91010313Y-121902838D01*
X91079492Y-122022661D01*
X91079494Y-122022664D01*
X91079495Y-122022665D01*
X91177335Y-122120505D01*
X91297164Y-122189688D01*
X91430817Y-122225500D01*
X91430819Y-122225500D01*
X91569181Y-122225500D01*
X91569183Y-122225500D01*
X91702836Y-122189688D01*
X91822662Y-122120507D01*
X91828541Y-122117113D01*
X91890541Y-122100500D01*
X124752725Y-122100500D01*
X124752727Y-122100500D01*
X124854588Y-122073207D01*
X124945913Y-122020480D01*
X136307046Y-110659346D01*
X136362632Y-110627254D01*
X136369178Y-110625500D01*
X136369183Y-110625500D01*
X136502836Y-110589688D01*
X136622665Y-110520505D01*
X136720505Y-110422665D01*
X136789688Y-110302836D01*
X136825500Y-110169183D01*
X136825500Y-110030817D01*
X136789688Y-109897164D01*
X136752715Y-109833124D01*
X136720507Y-109777338D01*
X136720503Y-109777333D01*
X136622666Y-109679496D01*
X136622661Y-109679492D01*
X136502838Y-109610313D01*
X136502837Y-109610312D01*
X136502836Y-109610312D01*
X136369183Y-109574500D01*
X136230817Y-109574500D01*
X136097164Y-109610312D01*
X136097161Y-109610313D01*
X135977338Y-109679492D01*
X135977333Y-109679496D01*
X135879496Y-109777333D01*
X135879492Y-109777338D01*
X135810313Y-109897161D01*
X135810312Y-109897162D01*
X135772745Y-110037368D01*
X135740651Y-110092955D01*
X124570426Y-121263181D01*
X124509103Y-121296666D01*
X124482745Y-121299500D01*
X91890541Y-121299500D01*
X91828541Y-121282887D01*
X91702838Y-121210313D01*
X91702837Y-121210312D01*
X91702836Y-121210312D01*
X91569183Y-121174500D01*
X91430817Y-121174500D01*
X91297164Y-121210312D01*
X91297161Y-121210313D01*
X91177338Y-121279492D01*
X91177333Y-121279496D01*
X91079496Y-121377333D01*
X91079492Y-121377338D01*
X91010313Y-121497161D01*
X91010312Y-121497164D01*
X90974500Y-121630817D01*
X83236237Y-121630817D01*
X83302553Y-121564501D01*
X83302558Y-121564494D01*
X83313230Y-121549806D01*
X83313230Y-121549805D01*
X83408996Y-121417994D01*
X83491211Y-121256639D01*
X83547171Y-121084409D01*
X83561765Y-120992259D01*
X83575500Y-120905551D01*
X83575500Y-120724448D01*
X83552060Y-120576461D01*
X83547171Y-120545591D01*
X83491211Y-120373361D01*
X83491211Y-120373360D01*
X83456798Y-120305822D01*
X83408996Y-120212006D01*
X83316896Y-120085240D01*
X83302558Y-120065505D01*
X83302554Y-120065500D01*
X83301125Y-120064071D01*
X88849499Y-120064071D01*
X88874497Y-120189738D01*
X88874499Y-120189744D01*
X88923533Y-120308124D01*
X88923538Y-120308133D01*
X88994723Y-120414668D01*
X88994726Y-120414672D01*
X89085327Y-120505273D01*
X89085331Y-120505276D01*
X89191866Y-120576461D01*
X89191872Y-120576464D01*
X89191873Y-120576465D01*
X89310256Y-120625501D01*
X89310260Y-120625501D01*
X89310261Y-120625502D01*
X89435928Y-120650500D01*
X89435931Y-120650500D01*
X89564071Y-120650500D01*
X89648615Y-120633682D01*
X89689744Y-120625501D01*
X89808127Y-120576465D01*
X89914669Y-120505276D01*
X90005276Y-120414669D01*
X90076465Y-120308127D01*
X90125501Y-120189744D01*
X90146542Y-120083969D01*
X90150500Y-120064071D01*
X90150500Y-119935928D01*
X90125502Y-119810261D01*
X90125501Y-119810260D01*
X90125501Y-119810256D01*
X90076465Y-119691873D01*
X90076464Y-119691872D01*
X90076461Y-119691866D01*
X90005276Y-119585331D01*
X90005273Y-119585327D01*
X89914672Y-119494726D01*
X89914668Y-119494723D01*
X89808133Y-119423538D01*
X89808124Y-119423533D01*
X89689744Y-119374499D01*
X89689738Y-119374497D01*
X89564071Y-119349500D01*
X89564069Y-119349500D01*
X89435931Y-119349500D01*
X89435929Y-119349500D01*
X89310261Y-119374497D01*
X89310255Y-119374499D01*
X89191875Y-119423533D01*
X89191866Y-119423538D01*
X89085331Y-119494723D01*
X89085327Y-119494726D01*
X88994726Y-119585327D01*
X88994723Y-119585331D01*
X88923538Y-119691866D01*
X88923533Y-119691875D01*
X88874499Y-119810255D01*
X88874497Y-119810261D01*
X88849500Y-119935928D01*
X88849500Y-119935931D01*
X88849500Y-120064069D01*
X88849500Y-120064071D01*
X88849499Y-120064071D01*
X83301125Y-120064071D01*
X83174495Y-119937441D01*
X83053202Y-119849318D01*
X83010536Y-119793989D01*
X83004557Y-119724375D01*
X83037162Y-119662580D01*
X83098001Y-119628223D01*
X83126087Y-119625000D01*
X83322828Y-119625000D01*
X83322844Y-119624999D01*
X83382372Y-119618598D01*
X83382379Y-119618596D01*
X83517086Y-119568354D01*
X83517093Y-119568350D01*
X83632187Y-119482190D01*
X83632190Y-119482187D01*
X83718350Y-119367093D01*
X83718354Y-119367086D01*
X83768596Y-119232379D01*
X83768598Y-119232372D01*
X83774999Y-119172844D01*
X83775000Y-119172827D01*
X83775000Y-118525000D01*
X82858012Y-118525000D01*
X82890925Y-118467993D01*
X82925000Y-118340826D01*
X82925000Y-118209174D01*
X82890925Y-118082007D01*
X82858012Y-118025000D01*
X83775000Y-118025000D01*
X83775000Y-117377172D01*
X83774999Y-117377155D01*
X83768598Y-117317627D01*
X83768596Y-117317620D01*
X83718354Y-117182913D01*
X83718350Y-117182906D01*
X83632190Y-117067812D01*
X83632187Y-117067809D01*
X83517093Y-116981649D01*
X83517086Y-116981645D01*
X83382379Y-116931403D01*
X83382372Y-116931401D01*
X83322844Y-116925000D01*
X82675000Y-116925000D01*
X82675000Y-117841988D01*
X82617993Y-117809075D01*
X82490826Y-117775000D01*
X82359174Y-117775000D01*
X82232007Y-117809075D01*
X82175000Y-117841988D01*
X82175000Y-116925000D01*
X81527155Y-116925000D01*
X81467627Y-116931401D01*
X81467620Y-116931403D01*
X81332913Y-116981645D01*
X81332906Y-116981649D01*
X81217812Y-117067809D01*
X81217809Y-117067812D01*
X81131649Y-117182906D01*
X81131645Y-117182913D01*
X81081403Y-117317620D01*
X81081401Y-117317627D01*
X81075000Y-117377155D01*
X78950500Y-117377155D01*
X78950500Y-111102155D01*
X80650000Y-111102155D01*
X80650000Y-111750000D01*
X81566988Y-111750000D01*
X81534075Y-111807007D01*
X81500000Y-111934174D01*
X81500000Y-112065826D01*
X81534075Y-112192993D01*
X81566988Y-112250000D01*
X80650000Y-112250000D01*
X80650000Y-112897844D01*
X80656401Y-112957372D01*
X80656403Y-112957379D01*
X80706645Y-113092086D01*
X80706649Y-113092093D01*
X80792809Y-113207187D01*
X80792812Y-113207190D01*
X80907906Y-113293350D01*
X80907913Y-113293354D01*
X81042620Y-113343596D01*
X81042627Y-113343598D01*
X81102155Y-113349999D01*
X81102172Y-113350000D01*
X81298913Y-113350000D01*
X81365952Y-113369685D01*
X81411707Y-113422489D01*
X81421651Y-113491647D01*
X81392626Y-113555203D01*
X81371798Y-113574318D01*
X81250504Y-113662441D01*
X81122445Y-113790500D01*
X81122441Y-113790505D01*
X81016006Y-113937002D01*
X80933788Y-114098360D01*
X80933787Y-114098363D01*
X80877829Y-114270589D01*
X80849500Y-114449448D01*
X80849500Y-114630551D01*
X80877829Y-114809410D01*
X80933787Y-114981636D01*
X80933788Y-114981639D01*
X81016006Y-115142997D01*
X81122441Y-115289494D01*
X81122445Y-115289499D01*
X81250500Y-115417554D01*
X81250505Y-115417558D01*
X81335750Y-115479491D01*
X81397006Y-115523996D01*
X81485317Y-115568993D01*
X81558360Y-115606211D01*
X81558363Y-115606212D01*
X81644476Y-115634191D01*
X81730591Y-115662171D01*
X81813429Y-115675291D01*
X81909449Y-115690500D01*
X81909454Y-115690500D01*
X82090551Y-115690500D01*
X82177259Y-115676765D01*
X82269409Y-115662171D01*
X82441639Y-115606211D01*
X82602994Y-115523996D01*
X82749501Y-115417553D01*
X82877553Y-115289501D01*
X82983996Y-115142994D01*
X83066211Y-114981639D01*
X83122171Y-114809409D01*
X83143373Y-114675546D01*
X83150500Y-114630551D01*
X83150500Y-114449448D01*
X83129298Y-114315589D01*
X83122171Y-114270591D01*
X83066211Y-114098361D01*
X83066211Y-114098360D01*
X83037740Y-114042484D01*
X82983996Y-113937006D01*
X82910248Y-113835500D01*
X82877558Y-113790505D01*
X82877554Y-113790500D01*
X82749495Y-113662441D01*
X82628202Y-113574318D01*
X82585536Y-113518989D01*
X82579557Y-113449375D01*
X82612162Y-113387580D01*
X82673001Y-113353223D01*
X82701087Y-113350000D01*
X82897828Y-113350000D01*
X82897844Y-113349999D01*
X82957372Y-113343598D01*
X82957379Y-113343596D01*
X83092086Y-113293354D01*
X83092093Y-113293350D01*
X83207187Y-113207190D01*
X83207190Y-113207187D01*
X83293350Y-113092093D01*
X83293354Y-113092086D01*
X83343596Y-112957379D01*
X83343598Y-112957372D01*
X83349999Y-112897844D01*
X83350000Y-112897827D01*
X83350000Y-112250000D01*
X82433012Y-112250000D01*
X82465925Y-112192993D01*
X82500000Y-112065826D01*
X82500000Y-111934174D01*
X82493375Y-111909448D01*
X89049500Y-111909448D01*
X89049500Y-112090551D01*
X89077829Y-112269410D01*
X89133787Y-112441636D01*
X89133788Y-112441639D01*
X89165818Y-112504500D01*
X89213714Y-112598500D01*
X89216006Y-112602997D01*
X89322441Y-112749494D01*
X89322445Y-112749499D01*
X89450500Y-112877554D01*
X89450505Y-112877558D01*
X89560361Y-112957372D01*
X89597006Y-112983996D01*
X89679875Y-113026220D01*
X89758360Y-113066211D01*
X89758363Y-113066212D01*
X89837997Y-113092086D01*
X89930591Y-113122171D01*
X90003639Y-113133740D01*
X90090678Y-113147527D01*
X90153813Y-113177456D01*
X90190744Y-113236768D01*
X90189746Y-113306631D01*
X90151136Y-113364863D01*
X90090678Y-113392473D01*
X89930589Y-113417829D01*
X89758363Y-113473787D01*
X89758360Y-113473788D01*
X89597002Y-113556006D01*
X89450505Y-113662441D01*
X89450500Y-113662445D01*
X89322445Y-113790500D01*
X89322441Y-113790505D01*
X89216006Y-113937002D01*
X89133788Y-114098360D01*
X89133787Y-114098363D01*
X89077829Y-114270589D01*
X89049500Y-114449448D01*
X89049500Y-114630551D01*
X89077829Y-114809410D01*
X89133787Y-114981636D01*
X89133788Y-114981639D01*
X89216006Y-115142997D01*
X89322441Y-115289494D01*
X89322445Y-115289499D01*
X89450500Y-115417554D01*
X89450505Y-115417558D01*
X89535750Y-115479491D01*
X89597006Y-115523996D01*
X89685317Y-115568993D01*
X89758360Y-115606211D01*
X89758363Y-115606212D01*
X89844476Y-115634191D01*
X89930591Y-115662171D01*
X90034716Y-115678662D01*
X90062270Y-115683027D01*
X90125405Y-115712956D01*
X90162336Y-115772268D01*
X90161338Y-115842130D01*
X90122728Y-115900363D01*
X90058765Y-115928477D01*
X90042872Y-115929500D01*
X89305143Y-115929500D01*
X89305117Y-115929502D01*
X89280012Y-115932413D01*
X89280008Y-115932415D01*
X89177235Y-115977793D01*
X89097794Y-116057234D01*
X89052415Y-116160006D01*
X89052415Y-116160008D01*
X89049500Y-116185131D01*
X89049500Y-117974856D01*
X89049502Y-117974882D01*
X89052413Y-117999987D01*
X89052415Y-117999991D01*
X89097793Y-118102764D01*
X89097794Y-118102765D01*
X89177235Y-118182206D01*
X89280009Y-118227585D01*
X89305135Y-118230500D01*
X91094864Y-118230499D01*
X91094879Y-118230497D01*
X91094882Y-118230497D01*
X91119987Y-118227586D01*
X91119988Y-118227585D01*
X91119991Y-118227585D01*
X91222765Y-118182206D01*
X91302206Y-118102765D01*
X91347585Y-117999991D01*
X91350500Y-117974865D01*
X91350499Y-116185136D01*
X91349494Y-116176466D01*
X91347586Y-116160012D01*
X91347585Y-116160010D01*
X91347585Y-116160009D01*
X91302206Y-116057235D01*
X91222765Y-115977794D01*
X91203261Y-115969182D01*
X91119992Y-115932415D01*
X91094868Y-115929500D01*
X90357128Y-115929500D01*
X90290089Y-115909815D01*
X90244334Y-115857011D01*
X90234390Y-115787853D01*
X90263415Y-115724297D01*
X90322193Y-115686523D01*
X90337730Y-115683027D01*
X90361014Y-115679338D01*
X90469409Y-115662171D01*
X90641639Y-115606211D01*
X90802994Y-115523996D01*
X90949501Y-115417553D01*
X91077553Y-115289501D01*
X91183996Y-115142994D01*
X91266211Y-114981639D01*
X91322171Y-114809409D01*
X91343373Y-114675546D01*
X91350500Y-114630551D01*
X91350500Y-114449448D01*
X91329298Y-114315589D01*
X91322171Y-114270591D01*
X91266211Y-114098361D01*
X91266211Y-114098360D01*
X91237740Y-114042484D01*
X91183996Y-113937006D01*
X91110248Y-113835500D01*
X91077558Y-113790505D01*
X91077554Y-113790500D01*
X90949499Y-113662445D01*
X90949494Y-113662441D01*
X90802997Y-113556006D01*
X90802996Y-113556005D01*
X90802994Y-113556004D01*
X90751300Y-113529664D01*
X90641639Y-113473788D01*
X90641636Y-113473787D01*
X90469410Y-113417829D01*
X90309321Y-113392473D01*
X90246186Y-113362544D01*
X90209255Y-113303232D01*
X90210253Y-113233370D01*
X90248863Y-113175137D01*
X90309321Y-113147527D01*
X90379425Y-113136422D01*
X90469409Y-113122171D01*
X90641639Y-113066211D01*
X90802994Y-112983996D01*
X90949501Y-112877553D01*
X91077553Y-112749501D01*
X91183996Y-112602994D01*
X91266211Y-112441639D01*
X91322171Y-112269409D01*
X91336765Y-112177259D01*
X91350500Y-112090551D01*
X91350500Y-111954448D01*
X97824500Y-111954448D01*
X97824500Y-112135551D01*
X97852829Y-112314410D01*
X97908787Y-112486636D01*
X97908788Y-112486639D01*
X97964664Y-112596300D01*
X97973892Y-112614411D01*
X97991006Y-112647997D01*
X98097441Y-112794494D01*
X98097445Y-112794499D01*
X98225500Y-112922554D01*
X98225505Y-112922558D01*
X98310064Y-112983993D01*
X98372006Y-113028996D01*
X98467361Y-113077582D01*
X98533360Y-113111211D01*
X98533363Y-113111212D01*
X98619476Y-113139191D01*
X98705591Y-113167171D01*
X98778639Y-113178740D01*
X98865678Y-113192527D01*
X98928813Y-113222456D01*
X98965744Y-113281768D01*
X98964746Y-113351631D01*
X98926136Y-113409863D01*
X98865678Y-113437473D01*
X98705589Y-113462829D01*
X98533363Y-113518787D01*
X98533360Y-113518788D01*
X98372002Y-113601006D01*
X98225505Y-113707441D01*
X98225500Y-113707445D01*
X98097445Y-113835500D01*
X98097441Y-113835505D01*
X97991006Y-113982002D01*
X97908788Y-114143360D01*
X97908787Y-114143363D01*
X97852829Y-114315589D01*
X97824500Y-114494448D01*
X97824500Y-114675551D01*
X97852829Y-114854410D01*
X97908787Y-115026636D01*
X97908788Y-115026639D01*
X97943480Y-115094724D01*
X97989647Y-115185331D01*
X97991006Y-115187997D01*
X98097441Y-115334494D01*
X98097445Y-115334499D01*
X98225500Y-115462554D01*
X98225505Y-115462558D01*
X98326496Y-115535931D01*
X98372006Y-115568996D01*
X98477484Y-115622740D01*
X98533360Y-115651211D01*
X98533363Y-115651212D01*
X98619476Y-115679191D01*
X98705591Y-115707171D01*
X98809716Y-115723662D01*
X98837270Y-115728027D01*
X98900405Y-115757956D01*
X98937336Y-115817268D01*
X98936338Y-115887130D01*
X98897728Y-115945363D01*
X98833765Y-115973477D01*
X98817872Y-115974500D01*
X98080143Y-115974500D01*
X98080117Y-115974502D01*
X98055012Y-115977413D01*
X98055008Y-115977415D01*
X97952235Y-116022793D01*
X97872794Y-116102234D01*
X97827415Y-116205006D01*
X97827415Y-116205008D01*
X97824500Y-116230131D01*
X97824500Y-118019856D01*
X97824502Y-118019882D01*
X97827413Y-118044987D01*
X97827415Y-118044991D01*
X97872793Y-118147764D01*
X97872794Y-118147765D01*
X97952235Y-118227206D01*
X98055009Y-118272585D01*
X98080135Y-118275500D01*
X99869864Y-118275499D01*
X99869879Y-118275497D01*
X99869882Y-118275497D01*
X99894987Y-118272586D01*
X99894988Y-118272585D01*
X99894991Y-118272585D01*
X99997765Y-118227206D01*
X100077206Y-118147765D01*
X100122585Y-118044991D01*
X100125500Y-118019865D01*
X100125499Y-116230136D01*
X100124962Y-116225502D01*
X100122586Y-116205012D01*
X100122585Y-116205010D01*
X100122585Y-116205009D01*
X100077206Y-116102235D01*
X99997765Y-116022794D01*
X99997763Y-116022793D01*
X99894992Y-115977415D01*
X99869868Y-115974500D01*
X99132128Y-115974500D01*
X99065089Y-115954815D01*
X99019334Y-115902011D01*
X99009390Y-115832853D01*
X99038415Y-115769297D01*
X99097193Y-115731523D01*
X99112730Y-115728027D01*
X99136279Y-115724297D01*
X99244409Y-115707171D01*
X99416639Y-115651211D01*
X99577994Y-115568996D01*
X99724501Y-115462553D01*
X99852553Y-115334501D01*
X99958996Y-115187994D01*
X100041211Y-115026639D01*
X100097171Y-114854409D01*
X100111765Y-114762259D01*
X100125500Y-114675551D01*
X100125500Y-114494448D01*
X100109019Y-114390397D01*
X100097171Y-114315591D01*
X100041211Y-114143361D01*
X100041211Y-114143360D01*
X99990717Y-114044262D01*
X99958996Y-113982006D01*
X99926299Y-113937002D01*
X99852558Y-113835505D01*
X99852554Y-113835500D01*
X99724499Y-113707445D01*
X99724494Y-113707441D01*
X99577997Y-113601006D01*
X99577996Y-113601005D01*
X99577994Y-113601004D01*
X99525620Y-113574318D01*
X99416639Y-113518788D01*
X99416636Y-113518787D01*
X99244410Y-113462829D01*
X99084321Y-113437473D01*
X99021186Y-113407544D01*
X98984255Y-113348232D01*
X98985253Y-113278370D01*
X99023863Y-113220137D01*
X99084321Y-113192527D01*
X99154425Y-113181422D01*
X99244409Y-113167171D01*
X99416639Y-113111211D01*
X99577994Y-113028996D01*
X99724501Y-112922553D01*
X99852553Y-112794501D01*
X99958996Y-112647994D01*
X100041211Y-112486639D01*
X100097171Y-112314409D01*
X100111765Y-112222259D01*
X100125500Y-112135551D01*
X100125500Y-111954448D01*
X100109019Y-111850397D01*
X100097171Y-111775591D01*
X100060488Y-111662691D01*
X100041212Y-111603363D01*
X100041211Y-111603360D01*
X100005908Y-111534075D01*
X99958996Y-111442006D01*
X99926299Y-111397002D01*
X99852558Y-111295505D01*
X99852554Y-111295500D01*
X99724499Y-111167445D01*
X99724494Y-111167441D01*
X99577997Y-111061006D01*
X99577996Y-111061005D01*
X99577994Y-111061004D01*
X99526300Y-111034664D01*
X99416639Y-110978788D01*
X99416636Y-110978787D01*
X99244410Y-110922829D01*
X99065551Y-110894500D01*
X99065546Y-110894500D01*
X98884454Y-110894500D01*
X98884449Y-110894500D01*
X98705589Y-110922829D01*
X98533363Y-110978787D01*
X98533360Y-110978788D01*
X98372002Y-111061006D01*
X98225505Y-111167441D01*
X98225500Y-111167445D01*
X98097445Y-111295500D01*
X98097441Y-111295505D01*
X97991006Y-111442002D01*
X97908788Y-111603360D01*
X97908787Y-111603363D01*
X97852829Y-111775589D01*
X97824500Y-111954448D01*
X91350500Y-111954448D01*
X91350500Y-111909448D01*
X91325245Y-111750000D01*
X91322171Y-111730591D01*
X91266211Y-111558361D01*
X91266211Y-111558360D01*
X91236474Y-111500000D01*
X91183996Y-111397006D01*
X91110248Y-111295500D01*
X91077558Y-111250505D01*
X91077554Y-111250500D01*
X90949499Y-111122445D01*
X90949494Y-111122441D01*
X90802997Y-111016006D01*
X90802996Y-111016005D01*
X90802994Y-111016004D01*
X90729952Y-110978787D01*
X90641639Y-110933788D01*
X90641636Y-110933787D01*
X90469410Y-110877829D01*
X90290551Y-110849500D01*
X90290546Y-110849500D01*
X90109454Y-110849500D01*
X90109449Y-110849500D01*
X89930589Y-110877829D01*
X89758363Y-110933787D01*
X89758360Y-110933788D01*
X89597002Y-111016006D01*
X89450505Y-111122441D01*
X89450500Y-111122445D01*
X89322445Y-111250500D01*
X89322441Y-111250505D01*
X89216006Y-111397002D01*
X89133788Y-111558360D01*
X89133787Y-111558363D01*
X89077829Y-111730589D01*
X89049500Y-111909448D01*
X82493375Y-111909448D01*
X82465925Y-111807007D01*
X82433012Y-111750000D01*
X83350000Y-111750000D01*
X83350000Y-111102172D01*
X83349999Y-111102155D01*
X83343598Y-111042627D01*
X83343596Y-111042620D01*
X83293354Y-110907913D01*
X83293350Y-110907906D01*
X83207190Y-110792812D01*
X83207187Y-110792809D01*
X83092093Y-110706649D01*
X83092086Y-110706645D01*
X82957379Y-110656403D01*
X82957372Y-110656401D01*
X82897844Y-110650000D01*
X82250000Y-110650000D01*
X82250000Y-111566988D01*
X82192993Y-111534075D01*
X82065826Y-111500000D01*
X81934174Y-111500000D01*
X81807007Y-111534075D01*
X81750000Y-111566988D01*
X81750000Y-110650000D01*
X81102155Y-110650000D01*
X81042627Y-110656401D01*
X81042620Y-110656403D01*
X80907913Y-110706645D01*
X80907906Y-110706649D01*
X80792812Y-110792809D01*
X80792809Y-110792812D01*
X80706649Y-110907906D01*
X80706645Y-110907913D01*
X80656403Y-111042620D01*
X80656401Y-111042627D01*
X80650000Y-111102155D01*
X78950500Y-111102155D01*
X78950500Y-109514071D01*
X94049499Y-109514071D01*
X94074497Y-109639738D01*
X94074499Y-109639744D01*
X94123533Y-109758124D01*
X94123538Y-109758133D01*
X94194723Y-109864668D01*
X94194726Y-109864672D01*
X94285327Y-109955273D01*
X94285331Y-109955276D01*
X94391866Y-110026461D01*
X94391875Y-110026466D01*
X94402384Y-110030819D01*
X94510256Y-110075501D01*
X94510260Y-110075501D01*
X94510261Y-110075502D01*
X94635928Y-110100500D01*
X94635931Y-110100500D01*
X94764071Y-110100500D01*
X94848615Y-110083682D01*
X94889744Y-110075501D01*
X95008127Y-110026465D01*
X95114669Y-109955276D01*
X95205276Y-109864669D01*
X95276465Y-109758127D01*
X95325501Y-109639744D01*
X95345526Y-109539071D01*
X95999499Y-109539071D01*
X96024497Y-109664738D01*
X96024499Y-109664744D01*
X96073533Y-109783124D01*
X96073538Y-109783133D01*
X96144723Y-109889668D01*
X96144726Y-109889672D01*
X96235327Y-109980273D01*
X96235331Y-109980276D01*
X96341866Y-110051461D01*
X96341872Y-110051464D01*
X96341873Y-110051465D01*
X96460256Y-110100501D01*
X96460260Y-110100501D01*
X96460261Y-110100502D01*
X96585928Y-110125500D01*
X96585931Y-110125500D01*
X96714071Y-110125500D01*
X96798615Y-110108682D01*
X96839744Y-110100501D01*
X96958127Y-110051465D01*
X97064669Y-109980276D01*
X97155276Y-109889669D01*
X97226465Y-109783127D01*
X97275501Y-109664744D01*
X97286328Y-109610313D01*
X97290554Y-109589071D01*
X98774499Y-109589071D01*
X98799497Y-109714738D01*
X98799499Y-109714744D01*
X98848533Y-109833124D01*
X98848538Y-109833133D01*
X98919723Y-109939668D01*
X98919726Y-109939672D01*
X99010327Y-110030273D01*
X99010331Y-110030276D01*
X99116866Y-110101461D01*
X99116872Y-110101464D01*
X99116873Y-110101465D01*
X99235256Y-110150501D01*
X99235260Y-110150501D01*
X99235261Y-110150502D01*
X99360928Y-110175500D01*
X99360931Y-110175500D01*
X99489071Y-110175500D01*
X99573615Y-110158682D01*
X99614744Y-110150501D01*
X99733127Y-110101465D01*
X99839669Y-110030276D01*
X99930276Y-109939669D01*
X100001465Y-109833127D01*
X100050501Y-109714744D01*
X100071274Y-109610313D01*
X100075500Y-109589071D01*
X100075500Y-109460928D01*
X100050502Y-109335261D01*
X100050501Y-109335260D01*
X100050501Y-109335256D01*
X100005438Y-109226465D01*
X100001466Y-109216875D01*
X100001461Y-109216866D01*
X99930276Y-109110331D01*
X99930273Y-109110327D01*
X99839672Y-109019726D01*
X99839668Y-109019723D01*
X99733133Y-108948538D01*
X99733124Y-108948533D01*
X99614744Y-108899499D01*
X99614738Y-108899497D01*
X99489071Y-108874500D01*
X99489069Y-108874500D01*
X99360931Y-108874500D01*
X99360929Y-108874500D01*
X99235261Y-108899497D01*
X99235255Y-108899499D01*
X99116875Y-108948533D01*
X99116866Y-108948538D01*
X99010331Y-109019723D01*
X99010327Y-109019726D01*
X98919726Y-109110327D01*
X98919723Y-109110331D01*
X98848538Y-109216866D01*
X98848533Y-109216875D01*
X98799499Y-109335255D01*
X98799497Y-109335261D01*
X98774500Y-109460928D01*
X98774500Y-109460931D01*
X98774500Y-109589069D01*
X98774500Y-109589071D01*
X98774499Y-109589071D01*
X97290554Y-109589071D01*
X97300500Y-109539071D01*
X97300500Y-109410928D01*
X97275502Y-109285261D01*
X97275501Y-109285260D01*
X97275501Y-109285256D01*
X97226465Y-109166873D01*
X97226464Y-109166872D01*
X97226461Y-109166866D01*
X97155276Y-109060331D01*
X97155273Y-109060327D01*
X97064672Y-108969726D01*
X97064668Y-108969723D01*
X96958133Y-108898538D01*
X96958124Y-108898533D01*
X96839744Y-108849499D01*
X96839738Y-108849497D01*
X96714071Y-108824500D01*
X96714069Y-108824500D01*
X96585931Y-108824500D01*
X96585929Y-108824500D01*
X96460261Y-108849497D01*
X96460255Y-108849499D01*
X96341875Y-108898533D01*
X96341866Y-108898538D01*
X96235331Y-108969723D01*
X96235327Y-108969726D01*
X96144726Y-109060327D01*
X96144723Y-109060331D01*
X96073538Y-109166866D01*
X96073533Y-109166875D01*
X96024499Y-109285255D01*
X96024497Y-109285261D01*
X95999500Y-109410928D01*
X95999500Y-109410931D01*
X95999500Y-109539069D01*
X95999500Y-109539071D01*
X95999499Y-109539071D01*
X95345526Y-109539071D01*
X95346093Y-109536223D01*
X95350500Y-109514071D01*
X95350500Y-109385928D01*
X95325502Y-109260261D01*
X95325501Y-109260260D01*
X95325501Y-109260256D01*
X95282017Y-109155276D01*
X95276466Y-109141875D01*
X95276461Y-109141866D01*
X95205276Y-109035331D01*
X95205273Y-109035327D01*
X95114672Y-108944726D01*
X95114668Y-108944723D01*
X95008133Y-108873538D01*
X95008124Y-108873533D01*
X94889744Y-108824499D01*
X94889738Y-108824497D01*
X94764071Y-108799500D01*
X94764069Y-108799500D01*
X94635931Y-108799500D01*
X94635929Y-108799500D01*
X94510261Y-108824497D01*
X94510255Y-108824499D01*
X94391875Y-108873533D01*
X94391866Y-108873538D01*
X94285331Y-108944723D01*
X94285327Y-108944726D01*
X94194726Y-109035327D01*
X94194723Y-109035331D01*
X94123538Y-109141866D01*
X94123533Y-109141875D01*
X94074499Y-109260255D01*
X94074497Y-109260261D01*
X94049500Y-109385928D01*
X94049500Y-109385931D01*
X94049500Y-109514069D01*
X94049500Y-109514071D01*
X94049499Y-109514071D01*
X78950500Y-109514071D01*
X78950500Y-102062155D01*
X80650000Y-102062155D01*
X80650000Y-102710000D01*
X81566988Y-102710000D01*
X81534075Y-102767007D01*
X81500000Y-102894174D01*
X81500000Y-103025826D01*
X81534075Y-103152993D01*
X81566988Y-103210000D01*
X80650000Y-103210000D01*
X80650000Y-103857844D01*
X80656401Y-103917372D01*
X80656403Y-103917379D01*
X80706645Y-104052086D01*
X80706649Y-104052093D01*
X80792809Y-104167187D01*
X80792812Y-104167190D01*
X80907906Y-104253350D01*
X80907913Y-104253354D01*
X81042620Y-104303596D01*
X81042627Y-104303598D01*
X81102155Y-104309999D01*
X81102172Y-104310000D01*
X81298913Y-104310000D01*
X81365952Y-104329685D01*
X81411707Y-104382489D01*
X81421651Y-104451647D01*
X81392626Y-104515203D01*
X81371798Y-104534318D01*
X81250504Y-104622441D01*
X81122445Y-104750500D01*
X81122441Y-104750505D01*
X81016006Y-104897002D01*
X80933788Y-105058360D01*
X80933787Y-105058363D01*
X80877829Y-105230589D01*
X80849500Y-105409448D01*
X80849500Y-105590551D01*
X80877829Y-105769410D01*
X80933787Y-105941636D01*
X80933788Y-105941639D01*
X81016006Y-106102997D01*
X81122441Y-106249494D01*
X81122445Y-106249499D01*
X81250500Y-106377554D01*
X81250505Y-106377558D01*
X81376615Y-106469181D01*
X81397006Y-106483996D01*
X81498492Y-106535706D01*
X81558360Y-106566211D01*
X81558363Y-106566212D01*
X81644476Y-106594191D01*
X81730591Y-106622171D01*
X81813429Y-106635291D01*
X81909449Y-106650500D01*
X81909454Y-106650500D01*
X82090551Y-106650500D01*
X82177259Y-106636765D01*
X82269409Y-106622171D01*
X82441639Y-106566211D01*
X82602994Y-106483996D01*
X82749501Y-106377553D01*
X82877553Y-106249501D01*
X82983996Y-106102994D01*
X83066211Y-105941639D01*
X83122171Y-105769409D01*
X83136765Y-105677259D01*
X83150500Y-105590551D01*
X83150500Y-105409448D01*
X83134019Y-105305397D01*
X83122171Y-105230591D01*
X83082815Y-105109464D01*
X83066212Y-105058363D01*
X83066211Y-105058360D01*
X83022491Y-104972557D01*
X82983996Y-104897006D01*
X82961377Y-104865874D01*
X82877558Y-104750505D01*
X82877554Y-104750500D01*
X82749495Y-104622441D01*
X82628202Y-104534318D01*
X82585536Y-104478989D01*
X82579557Y-104409375D01*
X82612162Y-104347580D01*
X82673001Y-104313223D01*
X82701087Y-104310000D01*
X82897828Y-104310000D01*
X82897844Y-104309999D01*
X82957372Y-104303598D01*
X82957379Y-104303596D01*
X83092086Y-104253354D01*
X83092093Y-104253350D01*
X83207187Y-104167190D01*
X83207190Y-104167187D01*
X83293350Y-104052093D01*
X83293354Y-104052086D01*
X83343596Y-103917379D01*
X83343598Y-103917372D01*
X83349999Y-103857844D01*
X83350000Y-103857827D01*
X83350000Y-103210000D01*
X82433012Y-103210000D01*
X82465925Y-103152993D01*
X82500000Y-103025826D01*
X82500000Y-102894174D01*
X82465925Y-102767007D01*
X82433012Y-102710000D01*
X83350000Y-102710000D01*
X83350000Y-102062172D01*
X83349999Y-102062155D01*
X83343598Y-102002627D01*
X83343596Y-102002620D01*
X83293354Y-101867913D01*
X83293350Y-101867906D01*
X83207190Y-101752812D01*
X83207187Y-101752809D01*
X83092093Y-101666649D01*
X83092086Y-101666645D01*
X82957379Y-101616403D01*
X82957372Y-101616401D01*
X82897844Y-101610000D01*
X82250000Y-101610000D01*
X82250000Y-102526988D01*
X82192993Y-102494075D01*
X82065826Y-102460000D01*
X81934174Y-102460000D01*
X81807007Y-102494075D01*
X81750000Y-102526988D01*
X81750000Y-101610000D01*
X81102155Y-101610000D01*
X81042627Y-101616401D01*
X81042620Y-101616403D01*
X80907913Y-101666645D01*
X80907906Y-101666649D01*
X80792812Y-101752809D01*
X80792809Y-101752812D01*
X80706649Y-101867906D01*
X80706645Y-101867913D01*
X80656403Y-102002620D01*
X80656401Y-102002627D01*
X80650000Y-102062155D01*
X78950500Y-102062155D01*
X78950500Y-98650436D01*
X82735000Y-98650436D01*
X82735000Y-98849563D01*
X82766147Y-99046222D01*
X82827679Y-99235594D01*
X82918077Y-99413008D01*
X82945580Y-99450863D01*
X82945581Y-99450864D01*
X83508871Y-98887574D01*
X83524755Y-98946853D01*
X83591898Y-99063147D01*
X83686853Y-99158102D01*
X83803147Y-99225245D01*
X83862425Y-99241128D01*
X83299134Y-99804417D01*
X83336994Y-99831924D01*
X83514405Y-99922320D01*
X83703777Y-99983852D01*
X83900437Y-100015000D01*
X84099563Y-100015000D01*
X84296222Y-99983852D01*
X84485594Y-99922320D01*
X84663005Y-99831924D01*
X84700863Y-99804418D01*
X84700863Y-99804417D01*
X84137574Y-99241128D01*
X84196853Y-99225245D01*
X84313147Y-99158102D01*
X84408102Y-99063147D01*
X84475245Y-98946853D01*
X84491128Y-98887574D01*
X85054417Y-99450863D01*
X85054418Y-99450863D01*
X85081924Y-99413005D01*
X85172320Y-99235594D01*
X85195560Y-99164071D01*
X98189499Y-99164071D01*
X98214497Y-99289738D01*
X98214499Y-99289744D01*
X98263533Y-99408124D01*
X98263538Y-99408133D01*
X98334723Y-99514668D01*
X98334726Y-99514672D01*
X98425327Y-99605273D01*
X98425331Y-99605276D01*
X98531866Y-99676461D01*
X98531872Y-99676464D01*
X98531873Y-99676465D01*
X98650256Y-99725501D01*
X98650260Y-99725501D01*
X98650261Y-99725502D01*
X98775928Y-99750500D01*
X98815500Y-99750500D01*
X98882539Y-99770185D01*
X98928294Y-99822989D01*
X98939500Y-99874500D01*
X98939500Y-99914069D01*
X98939500Y-99914071D01*
X98939499Y-99914071D01*
X98964497Y-100039738D01*
X98964499Y-100039744D01*
X99013533Y-100158124D01*
X99013538Y-100158133D01*
X99084723Y-100264668D01*
X99084726Y-100264672D01*
X99175327Y-100355273D01*
X99175331Y-100355276D01*
X99281866Y-100426461D01*
X99281872Y-100426464D01*
X99281873Y-100426465D01*
X99400256Y-100475501D01*
X99400260Y-100475501D01*
X99400261Y-100475502D01*
X99525928Y-100500500D01*
X99525931Y-100500500D01*
X99654071Y-100500500D01*
X99751265Y-100481166D01*
X99779744Y-100475501D01*
X99898127Y-100426465D01*
X100004669Y-100355276D01*
X100095276Y-100264669D01*
X100166465Y-100158127D01*
X100215501Y-100039744D01*
X100218383Y-100025257D01*
X100250768Y-99963347D01*
X100311484Y-99928772D01*
X100381253Y-99932512D01*
X100437925Y-99973379D01*
X100461617Y-100025257D01*
X100464497Y-100039738D01*
X100464499Y-100039744D01*
X100513533Y-100158124D01*
X100513538Y-100158133D01*
X100584723Y-100264668D01*
X100584726Y-100264672D01*
X100675327Y-100355273D01*
X100675331Y-100355276D01*
X100781866Y-100426461D01*
X100781872Y-100426464D01*
X100781873Y-100426465D01*
X100900256Y-100475501D01*
X100900260Y-100475501D01*
X100900261Y-100475502D01*
X101025928Y-100500500D01*
X101025931Y-100500500D01*
X101154071Y-100500500D01*
X101251265Y-100481166D01*
X101279744Y-100475501D01*
X101398127Y-100426465D01*
X101504669Y-100355276D01*
X101595276Y-100264669D01*
X101666465Y-100158127D01*
X101715501Y-100039744D01*
X101735394Y-99939738D01*
X101740500Y-99914071D01*
X101740500Y-99874500D01*
X101760185Y-99807461D01*
X101812989Y-99761706D01*
X101864500Y-99750500D01*
X101904071Y-99750500D01*
X101988615Y-99733682D01*
X102029744Y-99725501D01*
X102148127Y-99676465D01*
X102254669Y-99605276D01*
X102345276Y-99514669D01*
X102416465Y-99408127D01*
X102465501Y-99289744D01*
X102483452Y-99199500D01*
X102490500Y-99164071D01*
X102490500Y-99035928D01*
X102465502Y-98910261D01*
X102465501Y-98910260D01*
X102465501Y-98910256D01*
X102416465Y-98791873D01*
X102416464Y-98791872D01*
X102416461Y-98791866D01*
X102345276Y-98685331D01*
X102345273Y-98685327D01*
X102254672Y-98594726D01*
X102254668Y-98594723D01*
X102148133Y-98523538D01*
X102148124Y-98523533D01*
X102029744Y-98474499D01*
X102029738Y-98474497D01*
X101904071Y-98449500D01*
X101904069Y-98449500D01*
X101775931Y-98449500D01*
X101775929Y-98449500D01*
X101650261Y-98474497D01*
X101650255Y-98474499D01*
X101531875Y-98523533D01*
X101531866Y-98523538D01*
X101425331Y-98594723D01*
X101425327Y-98594726D01*
X101334726Y-98685327D01*
X101334723Y-98685331D01*
X101263538Y-98791866D01*
X101263533Y-98791875D01*
X101214499Y-98910255D01*
X101214497Y-98910260D01*
X101211617Y-98924743D01*
X101179231Y-98986653D01*
X101118515Y-99021227D01*
X101048746Y-99017486D01*
X100992074Y-98976619D01*
X100968383Y-98924743D01*
X100965502Y-98910260D01*
X100965501Y-98910258D01*
X100965501Y-98910256D01*
X100916465Y-98791873D01*
X100916464Y-98791872D01*
X100916461Y-98791866D01*
X100845276Y-98685331D01*
X100845273Y-98685327D01*
X100754672Y-98594726D01*
X100754668Y-98594723D01*
X100648133Y-98523538D01*
X100648124Y-98523533D01*
X100529744Y-98474499D01*
X100529738Y-98474497D01*
X100404071Y-98449500D01*
X100404069Y-98449500D01*
X100275931Y-98449500D01*
X100275929Y-98449500D01*
X100150261Y-98474497D01*
X100150255Y-98474499D01*
X100031875Y-98523533D01*
X100031866Y-98523538D01*
X99925331Y-98594723D01*
X99925327Y-98594726D01*
X99834726Y-98685327D01*
X99834723Y-98685331D01*
X99763538Y-98791866D01*
X99763533Y-98791875D01*
X99714499Y-98910255D01*
X99714497Y-98910260D01*
X99711617Y-98924743D01*
X99679231Y-98986653D01*
X99618515Y-99021227D01*
X99548746Y-99017486D01*
X99492074Y-98976619D01*
X99468383Y-98924743D01*
X99465502Y-98910260D01*
X99465501Y-98910258D01*
X99465501Y-98910256D01*
X99416465Y-98791873D01*
X99416464Y-98791872D01*
X99416461Y-98791866D01*
X99345276Y-98685331D01*
X99345273Y-98685327D01*
X99254672Y-98594726D01*
X99254668Y-98594723D01*
X99148133Y-98523538D01*
X99148124Y-98523533D01*
X99029744Y-98474499D01*
X99029738Y-98474497D01*
X98904071Y-98449500D01*
X98904069Y-98449500D01*
X98775931Y-98449500D01*
X98775929Y-98449500D01*
X98650261Y-98474497D01*
X98650255Y-98474499D01*
X98531875Y-98523533D01*
X98531866Y-98523538D01*
X98425331Y-98594723D01*
X98425327Y-98594726D01*
X98334726Y-98685327D01*
X98334723Y-98685331D01*
X98263538Y-98791866D01*
X98263533Y-98791875D01*
X98214499Y-98910255D01*
X98214497Y-98910261D01*
X98189500Y-99035928D01*
X98189500Y-99035931D01*
X98189500Y-99164069D01*
X98189500Y-99164071D01*
X98189499Y-99164071D01*
X85195560Y-99164071D01*
X85233852Y-99046222D01*
X85239519Y-99010442D01*
X85239519Y-99010441D01*
X85265000Y-98849563D01*
X85265000Y-98650436D01*
X85233852Y-98453777D01*
X85172320Y-98264405D01*
X85081924Y-98086994D01*
X85054417Y-98049135D01*
X85054417Y-98049134D01*
X84491128Y-98612424D01*
X84475245Y-98553147D01*
X84408102Y-98436853D01*
X84313147Y-98341898D01*
X84196853Y-98274755D01*
X84137574Y-98258871D01*
X84700864Y-97695581D01*
X84700863Y-97695580D01*
X84663008Y-97668077D01*
X84485594Y-97577679D01*
X84296222Y-97516147D01*
X84099563Y-97485000D01*
X83900437Y-97485000D01*
X83703777Y-97516147D01*
X83514405Y-97577679D01*
X83336990Y-97668077D01*
X83299135Y-97695580D01*
X83299135Y-97695581D01*
X83862425Y-98258871D01*
X83803147Y-98274755D01*
X83686853Y-98341898D01*
X83591898Y-98436853D01*
X83524755Y-98553147D01*
X83508871Y-98612425D01*
X82945581Y-98049135D01*
X82945580Y-98049135D01*
X82918077Y-98086990D01*
X82827679Y-98264405D01*
X82766147Y-98453777D01*
X82735000Y-98650436D01*
X78950500Y-98650436D01*
X78950500Y-85864071D01*
X85099499Y-85864071D01*
X85124497Y-85989738D01*
X85124499Y-85989744D01*
X85173533Y-86108124D01*
X85173538Y-86108133D01*
X85244723Y-86214668D01*
X85244726Y-86214672D01*
X85335327Y-86305273D01*
X85335331Y-86305276D01*
X85441866Y-86376461D01*
X85441872Y-86376464D01*
X85441873Y-86376465D01*
X85560256Y-86425501D01*
X85560260Y-86425501D01*
X85560261Y-86425502D01*
X85685928Y-86450500D01*
X85685931Y-86450500D01*
X85814071Y-86450500D01*
X85898615Y-86433682D01*
X85939744Y-86425501D01*
X86058127Y-86376465D01*
X86164669Y-86305276D01*
X86255276Y-86214669D01*
X86326465Y-86108127D01*
X86375501Y-85989744D01*
X86383682Y-85948615D01*
X86400500Y-85864071D01*
X86400500Y-85735928D01*
X86375502Y-85610261D01*
X86375501Y-85610260D01*
X86375501Y-85610256D01*
X86326465Y-85491873D01*
X86326464Y-85491872D01*
X86326461Y-85491866D01*
X86255276Y-85385331D01*
X86255273Y-85385327D01*
X86164672Y-85294726D01*
X86164668Y-85294723D01*
X86058133Y-85223538D01*
X86058124Y-85223533D01*
X85939744Y-85174499D01*
X85939738Y-85174497D01*
X85814071Y-85149500D01*
X85814069Y-85149500D01*
X85685931Y-85149500D01*
X85685929Y-85149500D01*
X85560261Y-85174497D01*
X85560255Y-85174499D01*
X85441875Y-85223533D01*
X85441866Y-85223538D01*
X85335331Y-85294723D01*
X85335327Y-85294726D01*
X85244726Y-85385327D01*
X85244723Y-85385331D01*
X85173538Y-85491866D01*
X85173533Y-85491875D01*
X85124499Y-85610255D01*
X85124497Y-85610261D01*
X85099500Y-85735928D01*
X85099500Y-85735931D01*
X85099500Y-85864069D01*
X85099500Y-85864071D01*
X85099499Y-85864071D01*
X78950500Y-85864071D01*
X78950500Y-83464071D01*
X87634499Y-83464071D01*
X87659497Y-83589738D01*
X87659499Y-83589744D01*
X87708533Y-83708124D01*
X87708538Y-83708133D01*
X87779723Y-83814668D01*
X87779726Y-83814672D01*
X87870327Y-83905273D01*
X87870331Y-83905276D01*
X87976866Y-83976461D01*
X87976872Y-83976464D01*
X87976873Y-83976465D01*
X88095256Y-84025501D01*
X88095260Y-84025501D01*
X88095261Y-84025502D01*
X88220928Y-84050500D01*
X88220931Y-84050500D01*
X88349071Y-84050500D01*
X88433615Y-84033682D01*
X88474744Y-84025501D01*
X88593127Y-83976465D01*
X88699669Y-83905276D01*
X88790276Y-83814669D01*
X88861465Y-83708127D01*
X88910501Y-83589744D01*
X88918682Y-83548615D01*
X88935500Y-83464071D01*
X88935500Y-83335928D01*
X88919743Y-83256717D01*
X88925970Y-83187126D01*
X88953677Y-83144846D01*
X90117309Y-81981214D01*
X90178630Y-81947731D01*
X90180684Y-81947302D01*
X90189744Y-81945501D01*
X90308127Y-81896465D01*
X90414669Y-81825276D01*
X90505276Y-81734669D01*
X90576465Y-81628127D01*
X90625501Y-81509744D01*
X90650500Y-81384069D01*
X90650500Y-81255931D01*
X90650500Y-81255928D01*
X90625502Y-81130261D01*
X90625501Y-81130260D01*
X90625501Y-81130256D01*
X90576465Y-81011873D01*
X90576464Y-81011872D01*
X90576461Y-81011866D01*
X90505276Y-80905331D01*
X90505273Y-80905327D01*
X90414672Y-80814726D01*
X90414668Y-80814723D01*
X90308133Y-80743538D01*
X90308124Y-80743533D01*
X90189744Y-80694499D01*
X90189738Y-80694497D01*
X90064071Y-80669500D01*
X90064069Y-80669500D01*
X89935931Y-80669500D01*
X89935929Y-80669500D01*
X89810261Y-80694497D01*
X89810255Y-80694499D01*
X89691875Y-80743533D01*
X89691866Y-80743538D01*
X89585331Y-80814723D01*
X89585327Y-80814726D01*
X89494726Y-80905327D01*
X89494723Y-80905331D01*
X89423538Y-81011866D01*
X89423533Y-81011875D01*
X89374498Y-81130257D01*
X89374497Y-81130259D01*
X89372719Y-81139202D01*
X89340333Y-81201113D01*
X89338783Y-81202690D01*
X87844491Y-82696983D01*
X87844489Y-82696985D01*
X87813033Y-82751469D01*
X87809092Y-82758298D01*
X87799739Y-82774498D01*
X87799738Y-82774499D01*
X87772017Y-82822512D01*
X87772016Y-82822513D01*
X87763006Y-82856141D01*
X87734500Y-82962525D01*
X87734500Y-82962527D01*
X87734500Y-83015398D01*
X87714815Y-83082437D01*
X87713604Y-83084286D01*
X87708534Y-83091872D01*
X87659499Y-83210255D01*
X87659497Y-83210261D01*
X87634500Y-83335928D01*
X87634500Y-83335931D01*
X87634500Y-83464069D01*
X87634500Y-83464071D01*
X87634499Y-83464071D01*
X78950500Y-83464071D01*
X78950500Y-77614071D01*
X86144499Y-77614071D01*
X86169497Y-77739738D01*
X86169499Y-77739744D01*
X86218533Y-77858124D01*
X86218538Y-77858133D01*
X86289723Y-77964668D01*
X86293589Y-77969379D01*
X86291958Y-77970716D01*
X86320858Y-78023642D01*
X86315874Y-78093334D01*
X86292489Y-78129719D01*
X86293589Y-78130621D01*
X86289723Y-78135331D01*
X86218538Y-78241866D01*
X86218533Y-78241875D01*
X86169499Y-78360255D01*
X86169497Y-78360261D01*
X86144500Y-78485928D01*
X86144500Y-78485931D01*
X86144500Y-78614069D01*
X86144500Y-78614071D01*
X86144499Y-78614071D01*
X86169497Y-78739738D01*
X86169499Y-78739744D01*
X86218533Y-78858124D01*
X86218538Y-78858133D01*
X86289723Y-78964668D01*
X86289726Y-78964672D01*
X86380327Y-79055273D01*
X86380331Y-79055276D01*
X86486866Y-79126461D01*
X86486872Y-79126464D01*
X86486873Y-79126465D01*
X86605256Y-79175501D01*
X86605260Y-79175501D01*
X86605261Y-79175502D01*
X86730928Y-79200500D01*
X86730931Y-79200500D01*
X86859071Y-79200500D01*
X86943615Y-79183682D01*
X86984744Y-79175501D01*
X87103127Y-79126465D01*
X87209669Y-79055276D01*
X87300276Y-78964669D01*
X87371465Y-78858127D01*
X87420501Y-78739744D01*
X87443226Y-78625501D01*
X87445500Y-78614071D01*
X87445500Y-78485928D01*
X87420502Y-78360261D01*
X87420501Y-78360260D01*
X87420501Y-78360256D01*
X87371465Y-78241873D01*
X87371464Y-78241872D01*
X87371461Y-78241866D01*
X87300276Y-78135331D01*
X87296411Y-78130621D01*
X87298045Y-78129279D01*
X87269148Y-78076389D01*
X87274114Y-78006696D01*
X87297514Y-77970284D01*
X87296411Y-77969379D01*
X87300271Y-77964673D01*
X87300276Y-77964669D01*
X87371465Y-77858127D01*
X87420501Y-77739744D01*
X87445500Y-77614069D01*
X87445500Y-77485931D01*
X87445500Y-77485928D01*
X87420502Y-77360261D01*
X87420501Y-77360260D01*
X87420501Y-77360256D01*
X87371465Y-77241873D01*
X87371464Y-77241872D01*
X87371461Y-77241866D01*
X87300276Y-77135331D01*
X87300273Y-77135327D01*
X87209672Y-77044726D01*
X87209668Y-77044723D01*
X87103133Y-76973538D01*
X87103124Y-76973533D01*
X86984744Y-76924499D01*
X86984738Y-76924497D01*
X86859071Y-76899500D01*
X86859069Y-76899500D01*
X86730931Y-76899500D01*
X86730929Y-76899500D01*
X86605261Y-76924497D01*
X86605255Y-76924499D01*
X86486875Y-76973533D01*
X86486866Y-76973538D01*
X86380331Y-77044723D01*
X86380327Y-77044726D01*
X86289726Y-77135327D01*
X86289723Y-77135331D01*
X86218538Y-77241866D01*
X86218533Y-77241875D01*
X86169499Y-77360255D01*
X86169497Y-77360261D01*
X86144500Y-77485928D01*
X86144500Y-77485931D01*
X86144500Y-77614069D01*
X86144500Y-77614071D01*
X86144499Y-77614071D01*
X78950500Y-77614071D01*
X78950500Y-72079004D01*
X85430000Y-72079004D01*
X85430000Y-72327500D01*
X86130000Y-72327500D01*
X86130000Y-72827500D01*
X85430000Y-72827500D01*
X85430000Y-73075995D01*
X85468427Y-73269181D01*
X85468430Y-73269193D01*
X85543807Y-73451171D01*
X85543814Y-73451184D01*
X85653248Y-73614962D01*
X85653251Y-73614966D01*
X85792533Y-73754248D01*
X85792537Y-73754251D01*
X85956315Y-73863685D01*
X85956328Y-73863692D01*
X86138308Y-73939069D01*
X86180000Y-73947362D01*
X86180000Y-73144488D01*
X86189940Y-73161705D01*
X86245795Y-73217560D01*
X86314204Y-73257056D01*
X86390504Y-73277500D01*
X86469496Y-73277500D01*
X86545796Y-73257056D01*
X86614205Y-73217560D01*
X86670060Y-73161705D01*
X86680000Y-73144488D01*
X86680000Y-73947362D01*
X86721690Y-73939069D01*
X86721692Y-73939069D01*
X86903671Y-73863692D01*
X86903684Y-73863685D01*
X87067462Y-73754251D01*
X87067466Y-73754248D01*
X87206748Y-73614966D01*
X87206751Y-73614962D01*
X87316185Y-73451184D01*
X87316192Y-73451171D01*
X87391569Y-73269193D01*
X87391572Y-73269181D01*
X87429999Y-73075995D01*
X87430000Y-73075992D01*
X87430000Y-72827500D01*
X86730000Y-72827500D01*
X86730000Y-72327500D01*
X87430000Y-72327500D01*
X87430000Y-72079008D01*
X87429999Y-72079004D01*
X87427029Y-72064071D01*
X87699499Y-72064071D01*
X87724497Y-72189738D01*
X87724499Y-72189744D01*
X87773533Y-72308124D01*
X87773538Y-72308133D01*
X87844723Y-72414668D01*
X87844726Y-72414672D01*
X87935327Y-72505273D01*
X87935331Y-72505276D01*
X88041866Y-72576461D01*
X88041872Y-72576464D01*
X88041873Y-72576465D01*
X88160256Y-72625501D01*
X88160260Y-72625501D01*
X88160261Y-72625502D01*
X88285928Y-72650500D01*
X88285931Y-72650500D01*
X88414071Y-72650500D01*
X88498615Y-72633682D01*
X88539744Y-72625501D01*
X88658127Y-72576465D01*
X88665712Y-72571396D01*
X88732389Y-72550520D01*
X88734601Y-72550500D01*
X92325500Y-72550500D01*
X92392539Y-72570185D01*
X92438294Y-72622989D01*
X92447337Y-72664559D01*
X92448439Y-72664414D01*
X92449499Y-72672470D01*
X92487016Y-72812485D01*
X92559489Y-72938013D01*
X92559491Y-72938016D01*
X95613181Y-75991706D01*
X95646666Y-76053029D01*
X95649500Y-76079387D01*
X95649500Y-91176526D01*
X95649500Y-91321474D01*
X95687016Y-91461485D01*
X95740044Y-91553334D01*
X95759489Y-91587013D01*
X95759491Y-91587016D01*
X110708181Y-106535706D01*
X110741666Y-106597029D01*
X110744500Y-106623387D01*
X110744500Y-111910398D01*
X110724815Y-111977437D01*
X110723604Y-111979286D01*
X110718534Y-111986872D01*
X110669499Y-112105255D01*
X110669497Y-112105261D01*
X110644500Y-112230928D01*
X110644500Y-112230931D01*
X110644500Y-112359069D01*
X110644500Y-112359071D01*
X110644499Y-112359071D01*
X110669497Y-112484738D01*
X110669499Y-112484744D01*
X110718533Y-112603124D01*
X110718538Y-112603133D01*
X110789723Y-112709668D01*
X110789726Y-112709672D01*
X110880327Y-112800273D01*
X110880331Y-112800276D01*
X110986866Y-112871461D01*
X110986875Y-112871466D01*
X111001573Y-112877554D01*
X111105256Y-112920501D01*
X111105260Y-112920501D01*
X111105261Y-112920502D01*
X111230928Y-112945500D01*
X111230931Y-112945500D01*
X111359071Y-112945500D01*
X111443615Y-112928682D01*
X111484744Y-112920501D01*
X111603127Y-112871465D01*
X111709669Y-112800276D01*
X111800276Y-112709669D01*
X111871465Y-112603127D01*
X111920501Y-112484744D01*
X111937259Y-112400499D01*
X111945500Y-112359071D01*
X111945500Y-112230928D01*
X111920502Y-112105261D01*
X111920501Y-112105260D01*
X111920501Y-112105256D01*
X111871465Y-111986873D01*
X111871465Y-111986872D01*
X111866396Y-111979286D01*
X111845520Y-111912608D01*
X111845500Y-111910398D01*
X111845500Y-108714071D01*
X116599499Y-108714071D01*
X116624497Y-108839738D01*
X116624499Y-108839744D01*
X116673533Y-108958124D01*
X116673538Y-108958133D01*
X116744723Y-109064668D01*
X116744726Y-109064672D01*
X116835327Y-109155273D01*
X116835331Y-109155276D01*
X116941866Y-109226461D01*
X116941872Y-109226464D01*
X116941873Y-109226465D01*
X117060256Y-109275501D01*
X117060260Y-109275501D01*
X117060261Y-109275502D01*
X117185928Y-109300500D01*
X117185931Y-109300500D01*
X117314071Y-109300500D01*
X117398615Y-109283682D01*
X117439744Y-109275501D01*
X117558127Y-109226465D01*
X117664669Y-109155276D01*
X117755276Y-109064669D01*
X117826465Y-108958127D01*
X117875501Y-108839744D01*
X117900500Y-108714069D01*
X117900500Y-108585931D01*
X117900500Y-108585928D01*
X117875502Y-108460261D01*
X117875501Y-108460260D01*
X117875501Y-108460256D01*
X117826465Y-108341873D01*
X117826464Y-108341872D01*
X117826461Y-108341866D01*
X117755276Y-108235331D01*
X117755273Y-108235327D01*
X117664672Y-108144726D01*
X117664668Y-108144723D01*
X117558133Y-108073538D01*
X117558124Y-108073533D01*
X117439744Y-108024499D01*
X117439738Y-108024497D01*
X117314071Y-107999500D01*
X117314069Y-107999500D01*
X117185931Y-107999500D01*
X117185929Y-107999500D01*
X117060261Y-108024497D01*
X117060255Y-108024499D01*
X116941875Y-108073533D01*
X116941866Y-108073538D01*
X116835331Y-108144723D01*
X116835327Y-108144726D01*
X116744726Y-108235327D01*
X116744723Y-108235331D01*
X116673538Y-108341866D01*
X116673533Y-108341875D01*
X116624499Y-108460255D01*
X116624497Y-108460261D01*
X116599500Y-108585928D01*
X116599500Y-108585931D01*
X116599500Y-108714069D01*
X116599500Y-108714071D01*
X116599499Y-108714071D01*
X111845500Y-108714071D01*
X111845500Y-106271527D01*
X111845500Y-106271525D01*
X111807984Y-106131515D01*
X111802369Y-106121789D01*
X111802369Y-106121788D01*
X111735512Y-106005988D01*
X111735508Y-106005983D01*
X99584470Y-93854945D01*
X104934499Y-93854945D01*
X104975445Y-94060789D01*
X104975447Y-94060795D01*
X105055765Y-94254701D01*
X105172373Y-94429218D01*
X105320781Y-94577626D01*
X105495298Y-94694234D01*
X105592251Y-94734393D01*
X105689205Y-94774553D01*
X105689209Y-94774553D01*
X105689210Y-94774554D01*
X105895054Y-94815500D01*
X105895057Y-94815500D01*
X106104945Y-94815500D01*
X106243433Y-94787952D01*
X106310795Y-94774553D01*
X106504703Y-94694233D01*
X106679216Y-94577628D01*
X106827628Y-94429216D01*
X106944233Y-94254703D01*
X106950453Y-94239688D01*
X106971655Y-94188500D01*
X107024553Y-94060795D01*
X107065500Y-93854943D01*
X107065500Y-93645057D01*
X107065500Y-93645054D01*
X107024554Y-93439210D01*
X107024553Y-93439209D01*
X107024553Y-93439205D01*
X106980514Y-93332887D01*
X106944234Y-93245298D01*
X106827626Y-93070781D01*
X106679218Y-92922373D01*
X106504701Y-92805765D01*
X106310795Y-92725447D01*
X106310789Y-92725445D01*
X106104945Y-92684500D01*
X106104943Y-92684500D01*
X105895057Y-92684500D01*
X105895055Y-92684500D01*
X105689210Y-92725445D01*
X105689204Y-92725447D01*
X105495298Y-92805765D01*
X105320781Y-92922373D01*
X105172373Y-93070781D01*
X105055765Y-93245298D01*
X104975447Y-93439204D01*
X104975445Y-93439210D01*
X104934500Y-93645054D01*
X104934500Y-93645057D01*
X104934500Y-93854943D01*
X104934500Y-93854945D01*
X104934499Y-93854945D01*
X99584470Y-93854945D01*
X96786819Y-91057294D01*
X96772115Y-91030366D01*
X96755523Y-91004548D01*
X96754631Y-90998347D01*
X96753334Y-90995971D01*
X96750500Y-90969613D01*
X96750500Y-90864071D01*
X100099499Y-90864071D01*
X100124497Y-90989738D01*
X100124499Y-90989744D01*
X100173533Y-91108124D01*
X100173538Y-91108133D01*
X100244723Y-91214668D01*
X100244726Y-91214672D01*
X100335327Y-91305273D01*
X100335331Y-91305276D01*
X100441866Y-91376461D01*
X100441872Y-91376464D01*
X100441873Y-91376465D01*
X100560256Y-91425501D01*
X100560260Y-91425501D01*
X100560261Y-91425502D01*
X100685928Y-91450500D01*
X100685931Y-91450500D01*
X100814071Y-91450500D01*
X100898615Y-91433682D01*
X100939744Y-91425501D01*
X101058127Y-91376465D01*
X101164669Y-91305276D01*
X101255276Y-91214669D01*
X101326465Y-91108127D01*
X101375501Y-90989744D01*
X101400500Y-90864069D01*
X101400500Y-90735931D01*
X101400500Y-90735928D01*
X101375502Y-90610261D01*
X101375501Y-90610260D01*
X101375501Y-90610256D01*
X101326465Y-90491873D01*
X101326464Y-90491872D01*
X101326461Y-90491866D01*
X101255276Y-90385331D01*
X101255273Y-90385327D01*
X101164672Y-90294726D01*
X101164668Y-90294723D01*
X101058133Y-90223538D01*
X101058124Y-90223533D01*
X100939744Y-90174499D01*
X100939738Y-90174497D01*
X100814071Y-90149500D01*
X100814069Y-90149500D01*
X100685931Y-90149500D01*
X100685929Y-90149500D01*
X100560261Y-90174497D01*
X100560255Y-90174499D01*
X100441875Y-90223533D01*
X100441866Y-90223538D01*
X100335331Y-90294723D01*
X100335327Y-90294726D01*
X100244726Y-90385327D01*
X100244723Y-90385331D01*
X100173538Y-90491866D01*
X100173533Y-90491875D01*
X100124499Y-90610255D01*
X100124497Y-90610261D01*
X100099500Y-90735928D01*
X100099500Y-90735931D01*
X100099500Y-90864069D01*
X100099500Y-90864071D01*
X100099499Y-90864071D01*
X96750500Y-90864071D01*
X96750500Y-84314071D01*
X100849499Y-84314071D01*
X100874497Y-84439738D01*
X100874499Y-84439744D01*
X100923533Y-84558124D01*
X100923538Y-84558133D01*
X100994723Y-84664668D01*
X100994726Y-84664672D01*
X101085327Y-84755273D01*
X101085331Y-84755276D01*
X101191866Y-84826461D01*
X101191872Y-84826464D01*
X101191873Y-84826465D01*
X101310256Y-84875501D01*
X101310260Y-84875501D01*
X101310261Y-84875502D01*
X101435928Y-84900500D01*
X101435931Y-84900500D01*
X101564071Y-84900500D01*
X101648615Y-84883682D01*
X101689744Y-84875501D01*
X101808127Y-84826465D01*
X101914669Y-84755276D01*
X102005276Y-84664669D01*
X102076465Y-84558127D01*
X102125501Y-84439744D01*
X102144510Y-84344182D01*
X102150500Y-84314071D01*
X102150500Y-84185928D01*
X102125502Y-84060261D01*
X102125501Y-84060260D01*
X102125501Y-84060256D01*
X102076465Y-83941873D01*
X102076464Y-83941872D01*
X102076461Y-83941866D01*
X102005276Y-83835331D01*
X102005273Y-83835327D01*
X101914672Y-83744726D01*
X101914668Y-83744723D01*
X101808133Y-83673538D01*
X101808124Y-83673533D01*
X101689744Y-83624499D01*
X101689738Y-83624497D01*
X101564071Y-83599500D01*
X101564069Y-83599500D01*
X101435931Y-83599500D01*
X101435929Y-83599500D01*
X101310261Y-83624497D01*
X101310255Y-83624499D01*
X101191875Y-83673533D01*
X101191866Y-83673538D01*
X101085331Y-83744723D01*
X101085327Y-83744726D01*
X100994726Y-83835327D01*
X100994723Y-83835331D01*
X100923538Y-83941866D01*
X100923533Y-83941875D01*
X100874499Y-84060255D01*
X100874497Y-84060261D01*
X100849500Y-84185928D01*
X100849500Y-84185931D01*
X100849500Y-84314069D01*
X100849500Y-84314071D01*
X100849499Y-84314071D01*
X96750500Y-84314071D01*
X96750500Y-75727527D01*
X96750500Y-75727525D01*
X96712984Y-75587515D01*
X96640510Y-75461985D01*
X95320313Y-74141788D01*
X95286828Y-74080465D01*
X95291812Y-74010773D01*
X95333684Y-73954840D01*
X95360542Y-73939546D01*
X95543671Y-73863692D01*
X95543684Y-73863685D01*
X95707462Y-73754251D01*
X95707466Y-73754248D01*
X95846748Y-73614966D01*
X95846751Y-73614962D01*
X95956185Y-73451184D01*
X95956192Y-73451171D01*
X96031569Y-73269193D01*
X96031572Y-73269181D01*
X96069999Y-73075995D01*
X96070000Y-73075992D01*
X96070000Y-72827500D01*
X95370000Y-72827500D01*
X95370000Y-72327500D01*
X96070000Y-72327500D01*
X96070000Y-72079008D01*
X96069999Y-72079004D01*
X96031572Y-71885818D01*
X96031569Y-71885806D01*
X96025081Y-71870142D01*
X96008792Y-71830817D01*
X101974500Y-71830817D01*
X101974500Y-71969183D01*
X102003928Y-72079008D01*
X102010312Y-72102835D01*
X102010313Y-72102838D01*
X102082887Y-72228540D01*
X102099500Y-72290540D01*
X102099500Y-77009459D01*
X102082887Y-77071459D01*
X102010313Y-77197161D01*
X102010312Y-77197164D01*
X101974500Y-77330817D01*
X101974500Y-77469183D01*
X101981344Y-77494723D01*
X102010312Y-77602835D01*
X102010313Y-77602838D01*
X102079492Y-77722661D01*
X102079494Y-77722664D01*
X102079495Y-77722665D01*
X102177335Y-77820505D01*
X102297164Y-77889688D01*
X102430817Y-77925500D01*
X102430819Y-77925500D01*
X102569181Y-77925500D01*
X102569183Y-77925500D01*
X102702836Y-77889688D01*
X102822665Y-77820505D01*
X102920505Y-77722665D01*
X102989688Y-77602836D01*
X103025500Y-77469183D01*
X103025500Y-77330817D01*
X102989688Y-77197164D01*
X102920505Y-77077335D01*
X102917113Y-77071459D01*
X102900500Y-77009459D01*
X102900500Y-73830817D01*
X104474500Y-73830817D01*
X104474500Y-73969183D01*
X104501123Y-74068540D01*
X104510312Y-74102835D01*
X104510313Y-74102838D01*
X104582887Y-74228540D01*
X104599500Y-74290540D01*
X104599500Y-80309459D01*
X104582887Y-80371459D01*
X104510313Y-80497161D01*
X104510312Y-80497164D01*
X104474500Y-80630817D01*
X104474500Y-80769183D01*
X104486703Y-80814723D01*
X104510312Y-80902835D01*
X104510313Y-80902838D01*
X104579492Y-81022661D01*
X104579494Y-81022664D01*
X104579495Y-81022665D01*
X104677335Y-81120505D01*
X104677336Y-81120506D01*
X104677338Y-81120507D01*
X104694224Y-81130256D01*
X104797164Y-81189688D01*
X104930817Y-81225500D01*
X104930819Y-81225500D01*
X105069181Y-81225500D01*
X105069183Y-81225500D01*
X105202836Y-81189688D01*
X105322665Y-81120505D01*
X105420505Y-81022665D01*
X105489688Y-80902836D01*
X105525500Y-80769183D01*
X105525500Y-80630817D01*
X105489688Y-80497164D01*
X105420505Y-80377335D01*
X105417113Y-80371459D01*
X105400500Y-80309459D01*
X105400500Y-74290540D01*
X105417113Y-74228540D01*
X105467199Y-74141788D01*
X105489688Y-74102836D01*
X105525500Y-73969183D01*
X105525500Y-73830817D01*
X105489688Y-73697164D01*
X105474477Y-73670817D01*
X107034500Y-73670817D01*
X107034500Y-73809183D01*
X107069431Y-73939546D01*
X107070312Y-73942835D01*
X107070313Y-73942838D01*
X107142887Y-74068540D01*
X107159500Y-74130540D01*
X107159500Y-91307273D01*
X107159500Y-91412727D01*
X107162923Y-91425501D01*
X107186793Y-91514589D01*
X107193093Y-91525500D01*
X107239520Y-91605913D01*
X128953087Y-113319480D01*
X129044412Y-113372207D01*
X129146273Y-113399500D01*
X129251727Y-113399500D01*
X129954968Y-113399500D01*
X130022007Y-113419185D01*
X130042649Y-113435819D01*
X130057335Y-113450505D01*
X130057336Y-113450506D01*
X130057338Y-113450507D01*
X130097664Y-113473789D01*
X130177164Y-113519688D01*
X130310817Y-113555500D01*
X130310819Y-113555500D01*
X130449181Y-113555500D01*
X130449183Y-113555500D01*
X130582836Y-113519688D01*
X130702665Y-113450505D01*
X130800505Y-113352665D01*
X130869688Y-113232836D01*
X130905500Y-113099183D01*
X130905500Y-112960817D01*
X130869688Y-112827164D01*
X130827674Y-112754394D01*
X130800507Y-112707338D01*
X130800503Y-112707333D01*
X130702666Y-112609496D01*
X130702661Y-112609492D01*
X130582838Y-112540313D01*
X130582837Y-112540312D01*
X130582836Y-112540312D01*
X130449183Y-112504500D01*
X130310817Y-112504500D01*
X130177164Y-112540312D01*
X130177161Y-112540313D01*
X130105154Y-112581887D01*
X130043154Y-112598500D01*
X129416255Y-112598500D01*
X129349216Y-112578815D01*
X129328574Y-112562181D01*
X117378574Y-100612181D01*
X117345089Y-100550858D01*
X117350073Y-100481166D01*
X117391945Y-100425233D01*
X117457409Y-100400816D01*
X117466255Y-100400500D01*
X117564071Y-100400500D01*
X117648615Y-100383682D01*
X117689744Y-100375501D01*
X117808127Y-100326465D01*
X117914669Y-100255276D01*
X118005276Y-100164669D01*
X118076465Y-100058127D01*
X118125501Y-99939744D01*
X118138479Y-99874500D01*
X118150500Y-99814071D01*
X118150500Y-99685928D01*
X118125502Y-99560261D01*
X118125501Y-99560260D01*
X118125501Y-99560256D01*
X118076465Y-99441873D01*
X118076464Y-99441872D01*
X118076461Y-99441866D01*
X118005276Y-99335331D01*
X118005273Y-99335327D01*
X117914672Y-99244726D01*
X117914668Y-99244723D01*
X117808133Y-99173538D01*
X117808124Y-99173533D01*
X117689744Y-99124499D01*
X117689736Y-99124497D01*
X117680798Y-99122719D01*
X117618887Y-99090334D01*
X117617308Y-99088783D01*
X116383470Y-97854945D01*
X137684499Y-97854945D01*
X137725445Y-98060789D01*
X137725447Y-98060795D01*
X137805765Y-98254701D01*
X137922373Y-98429218D01*
X138070781Y-98577626D01*
X138245298Y-98694234D01*
X138287079Y-98711540D01*
X138439205Y-98774553D01*
X138439209Y-98774553D01*
X138439210Y-98774554D01*
X138645054Y-98815500D01*
X138645057Y-98815500D01*
X138854945Y-98815500D01*
X138993433Y-98787952D01*
X139060795Y-98774553D01*
X139254703Y-98694233D01*
X139429216Y-98577628D01*
X139577628Y-98429216D01*
X139694233Y-98254703D01*
X139754806Y-98108465D01*
X139798647Y-98054064D01*
X139864941Y-98031999D01*
X139932640Y-98049278D01*
X139980251Y-98100415D01*
X139989141Y-98123824D01*
X139999019Y-98160688D01*
X140010312Y-98202835D01*
X140010313Y-98202838D01*
X140079492Y-98322661D01*
X140079494Y-98322664D01*
X140079495Y-98322665D01*
X140177335Y-98420505D01*
X140177336Y-98420506D01*
X140177338Y-98420507D01*
X140227556Y-98449500D01*
X140297164Y-98489688D01*
X140430817Y-98525500D01*
X140430821Y-98525500D01*
X140437367Y-98527254D01*
X140492955Y-98559348D01*
X140504087Y-98570480D01*
X140595413Y-98623207D01*
X140697273Y-98650500D01*
X143609459Y-98650500D01*
X143671459Y-98667113D01*
X143703014Y-98685331D01*
X143797164Y-98739688D01*
X143930817Y-98775500D01*
X143930819Y-98775500D01*
X144069181Y-98775500D01*
X144069183Y-98775500D01*
X144202836Y-98739688D01*
X144322665Y-98670505D01*
X144420505Y-98572665D01*
X144489688Y-98452836D01*
X144525500Y-98319183D01*
X144525500Y-98180817D01*
X144489688Y-98047164D01*
X144431666Y-97946666D01*
X144420507Y-97927338D01*
X144420503Y-97927333D01*
X144322666Y-97829496D01*
X144322661Y-97829492D01*
X144202838Y-97760313D01*
X144202837Y-97760312D01*
X144202836Y-97760312D01*
X144069183Y-97724500D01*
X143930817Y-97724500D01*
X143797164Y-97760312D01*
X143797161Y-97760313D01*
X143671459Y-97832887D01*
X143609459Y-97849500D01*
X141091496Y-97849500D01*
X141024457Y-97829815D01*
X140984109Y-97787500D01*
X140920507Y-97677338D01*
X140920503Y-97677333D01*
X140822666Y-97579496D01*
X140822661Y-97579492D01*
X140702838Y-97510313D01*
X140702837Y-97510312D01*
X140702836Y-97510312D01*
X140569183Y-97474500D01*
X140430817Y-97474500D01*
X140297164Y-97510312D01*
X140297161Y-97510313D01*
X140177338Y-97579492D01*
X140177333Y-97579496D01*
X140079496Y-97677333D01*
X140079492Y-97677338D01*
X140046887Y-97733813D01*
X139996320Y-97782029D01*
X139927713Y-97795252D01*
X139862848Y-97769284D01*
X139822320Y-97712369D01*
X139815500Y-97671813D01*
X139815500Y-97645054D01*
X139774554Y-97439210D01*
X139774553Y-97439209D01*
X139774553Y-97439205D01*
X139705916Y-97273501D01*
X139694234Y-97245298D01*
X139577626Y-97070781D01*
X139429218Y-96922373D01*
X139254701Y-96805765D01*
X139060795Y-96725447D01*
X139060789Y-96725445D01*
X138854945Y-96684500D01*
X138854943Y-96684500D01*
X138645057Y-96684500D01*
X138645055Y-96684500D01*
X138439210Y-96725445D01*
X138439204Y-96725447D01*
X138245298Y-96805765D01*
X138070781Y-96922373D01*
X137922373Y-97070781D01*
X137805765Y-97245298D01*
X137725447Y-97439204D01*
X137725445Y-97439210D01*
X137684500Y-97645054D01*
X137684500Y-97645057D01*
X137684500Y-97854943D01*
X137684500Y-97854945D01*
X137684499Y-97854945D01*
X116383470Y-97854945D01*
X114086819Y-95558294D01*
X114053334Y-95496971D01*
X114050500Y-95470613D01*
X114050500Y-94388783D01*
X114070185Y-94321744D01*
X114122989Y-94275989D01*
X114192147Y-94266045D01*
X114206579Y-94269005D01*
X114230817Y-94275500D01*
X114230819Y-94275500D01*
X114369181Y-94275500D01*
X114369183Y-94275500D01*
X114502836Y-94239688D01*
X114612058Y-94176629D01*
X114628541Y-94167113D01*
X114690541Y-94150500D01*
X147126399Y-94150500D01*
X147193438Y-94170185D01*
X147214080Y-94186819D01*
X147593162Y-94565901D01*
X147626647Y-94627224D01*
X147621663Y-94696916D01*
X147579791Y-94752849D01*
X147570906Y-94758707D01*
X147569388Y-94759871D01*
X147292720Y-95036539D01*
X147231397Y-95070024D01*
X147161705Y-95065040D01*
X147105772Y-95023168D01*
X147101936Y-95017748D01*
X147080274Y-94985328D01*
X146989672Y-94894726D01*
X146989668Y-94894723D01*
X146883133Y-94823538D01*
X146883124Y-94823533D01*
X146764744Y-94774499D01*
X146764738Y-94774497D01*
X146639071Y-94749500D01*
X146639069Y-94749500D01*
X146510931Y-94749500D01*
X146510929Y-94749500D01*
X146385261Y-94774497D01*
X146385255Y-94774499D01*
X146266875Y-94823533D01*
X146266866Y-94823538D01*
X146160331Y-94894723D01*
X146160327Y-94894726D01*
X146069726Y-94985327D01*
X146069723Y-94985331D01*
X145998538Y-95091866D01*
X145998533Y-95091875D01*
X145949499Y-95210255D01*
X145949497Y-95210261D01*
X145924500Y-95335928D01*
X145924500Y-95464067D01*
X145924528Y-95464352D01*
X145924500Y-95464499D01*
X145924500Y-95470161D01*
X145923426Y-95470161D01*
X145911505Y-95532998D01*
X145863438Y-95583706D01*
X145801124Y-95600500D01*
X117290541Y-95600500D01*
X117228541Y-95583887D01*
X117102838Y-95511313D01*
X117102837Y-95511312D01*
X117102836Y-95511312D01*
X116969183Y-95475500D01*
X116830817Y-95475500D01*
X116697164Y-95511312D01*
X116697161Y-95511313D01*
X116577338Y-95580492D01*
X116577333Y-95580496D01*
X116479496Y-95678333D01*
X116479492Y-95678338D01*
X116410313Y-95798161D01*
X116410312Y-95798164D01*
X116374500Y-95931817D01*
X116374500Y-96070183D01*
X116402979Y-96176466D01*
X116410312Y-96203835D01*
X116410313Y-96203838D01*
X116479492Y-96323661D01*
X116479494Y-96323664D01*
X116479495Y-96323665D01*
X116577335Y-96421505D01*
X116697164Y-96490688D01*
X116830817Y-96526500D01*
X116830819Y-96526500D01*
X116969181Y-96526500D01*
X116969183Y-96526500D01*
X117102836Y-96490688D01*
X117222662Y-96421507D01*
X117228541Y-96418113D01*
X117290541Y-96401500D01*
X146947379Y-96401500D01*
X146947381Y-96401500D01*
X147049242Y-96374207D01*
X147140567Y-96321480D01*
X147944882Y-95517165D01*
X148006205Y-95483680D01*
X148032563Y-95480846D01*
X149458731Y-95480846D01*
X149525770Y-95500531D01*
X149571525Y-95553335D01*
X149581469Y-95622493D01*
X149578506Y-95636939D01*
X149573741Y-95654723D01*
X149542819Y-95770126D01*
X149542819Y-95908492D01*
X149573367Y-96022497D01*
X149578631Y-96042144D01*
X149578632Y-96042147D01*
X149647811Y-96161970D01*
X149647813Y-96161973D01*
X149647814Y-96161974D01*
X149745654Y-96259814D01*
X149745655Y-96259815D01*
X149745657Y-96259816D01*
X149805568Y-96294405D01*
X149865483Y-96328997D01*
X149999136Y-96364809D01*
X149999138Y-96364809D01*
X150137500Y-96364809D01*
X150137502Y-96364809D01*
X150271155Y-96328997D01*
X150339300Y-96289653D01*
X150374066Y-96269582D01*
X150436066Y-96252969D01*
X150714201Y-96252969D01*
X150714203Y-96252969D01*
X150816064Y-96225676D01*
X150907389Y-96172949D01*
X151416265Y-95664071D01*
X151877338Y-95664071D01*
X151902336Y-95789738D01*
X151902338Y-95789744D01*
X151951372Y-95908124D01*
X151951377Y-95908133D01*
X152022562Y-96014668D01*
X152022565Y-96014672D01*
X152113166Y-96105273D01*
X152113170Y-96105276D01*
X152219705Y-96176461D01*
X152219711Y-96176464D01*
X152219712Y-96176465D01*
X152338095Y-96225501D01*
X152338099Y-96225501D01*
X152338100Y-96225502D01*
X152463767Y-96250500D01*
X152463770Y-96250500D01*
X152591910Y-96250500D01*
X152678240Y-96233327D01*
X152717583Y-96225501D01*
X152835966Y-96176465D01*
X152942508Y-96105276D01*
X153033115Y-96014669D01*
X153104304Y-95908127D01*
X153153340Y-95789744D01*
X153175501Y-95678338D01*
X153178339Y-95664071D01*
X153178339Y-95535928D01*
X153153341Y-95410261D01*
X153153340Y-95410260D01*
X153153340Y-95410256D01*
X153104304Y-95291873D01*
X153104303Y-95291872D01*
X153104300Y-95291866D01*
X153033115Y-95185331D01*
X153033112Y-95185327D01*
X152942511Y-95094726D01*
X152942507Y-95094723D01*
X152835972Y-95023538D01*
X152835963Y-95023533D01*
X152717583Y-94974499D01*
X152717577Y-94974497D01*
X152591910Y-94949500D01*
X152591908Y-94949500D01*
X152463770Y-94949500D01*
X152463768Y-94949500D01*
X152338100Y-94974497D01*
X152338094Y-94974499D01*
X152219714Y-95023533D01*
X152219705Y-95023538D01*
X152113170Y-95094723D01*
X152113166Y-95094726D01*
X152022565Y-95185327D01*
X152022562Y-95185331D01*
X151951377Y-95291866D01*
X151951372Y-95291875D01*
X151902338Y-95410255D01*
X151902336Y-95410261D01*
X151877339Y-95535928D01*
X151877339Y-95535931D01*
X151877339Y-95664069D01*
X151877339Y-95664071D01*
X151877338Y-95664071D01*
X151416265Y-95664071D01*
X151495910Y-95584426D01*
X151495913Y-95584425D01*
X151570480Y-95509858D01*
X151623207Y-95418532D01*
X151627951Y-95400826D01*
X151650501Y-95316672D01*
X151650501Y-95211218D01*
X151650501Y-95203623D01*
X151650500Y-95203605D01*
X151650500Y-92447275D01*
X151650500Y-92447273D01*
X151623207Y-92345413D01*
X151570480Y-92254087D01*
X151495913Y-92179520D01*
X149995913Y-90679520D01*
X149950250Y-90653156D01*
X149904589Y-90626793D01*
X149842866Y-90610255D01*
X149802727Y-90599500D01*
X149802726Y-90599500D01*
X148861989Y-90599500D01*
X148794950Y-90579815D01*
X148749195Y-90527011D01*
X148739251Y-90457853D01*
X148742214Y-90443407D01*
X148775500Y-90319183D01*
X148775500Y-90180817D01*
X148739688Y-90047164D01*
X148670505Y-89927335D01*
X148572665Y-89829495D01*
X148572664Y-89829494D01*
X148572661Y-89829492D01*
X148452838Y-89760313D01*
X148452837Y-89760312D01*
X148452836Y-89760312D01*
X148319183Y-89724500D01*
X148319182Y-89724500D01*
X148312632Y-89722745D01*
X148257044Y-89690651D01*
X147312557Y-88746164D01*
X147279072Y-88684841D01*
X147284056Y-88615149D01*
X147325928Y-88559216D01*
X147391392Y-88534799D01*
X147400238Y-88534483D01*
X154965517Y-88534483D01*
X155032556Y-88554168D01*
X155078311Y-88606972D01*
X155089517Y-88658483D01*
X155089517Y-88704166D01*
X155120336Y-88819182D01*
X155125329Y-88837818D01*
X155125330Y-88837821D01*
X155197904Y-88963523D01*
X155214517Y-89025523D01*
X155214517Y-93167743D01*
X155241810Y-93269606D01*
X155251061Y-93285628D01*
X155294537Y-93360930D01*
X155294539Y-93360932D01*
X155914181Y-93980574D01*
X155947666Y-94041897D01*
X155950500Y-94068255D01*
X155950500Y-95681745D01*
X155930815Y-95748784D01*
X155914181Y-95769426D01*
X155120426Y-96563181D01*
X155059103Y-96596666D01*
X155032745Y-96599500D01*
X154593400Y-96599500D01*
X154531400Y-96582887D01*
X154405697Y-96510313D01*
X154405696Y-96510312D01*
X154405695Y-96510312D01*
X154272042Y-96474500D01*
X154133676Y-96474500D01*
X154000023Y-96510312D01*
X154000020Y-96510313D01*
X153880197Y-96579492D01*
X153880192Y-96579496D01*
X153782355Y-96677333D01*
X153782351Y-96677338D01*
X153713172Y-96797161D01*
X153713171Y-96797164D01*
X153677359Y-96930817D01*
X153677359Y-97069182D01*
X153713171Y-97202835D01*
X153713171Y-97202836D01*
X153772729Y-97305995D01*
X153789200Y-97373895D01*
X153772730Y-97429991D01*
X153750693Y-97468161D01*
X153750692Y-97468164D01*
X153714880Y-97601817D01*
X153714880Y-97740183D01*
X153734216Y-97812344D01*
X153750692Y-97873835D01*
X153750693Y-97873838D01*
X153819872Y-97993661D01*
X153819874Y-97993664D01*
X153819875Y-97993665D01*
X153917715Y-98091505D01*
X153917716Y-98091506D01*
X153917718Y-98091507D01*
X153991768Y-98134260D01*
X154039984Y-98184827D01*
X154051329Y-98243690D01*
X154053500Y-98243690D01*
X154053500Y-98251817D01*
X154053500Y-98390183D01*
X154089232Y-98523535D01*
X154089312Y-98523835D01*
X154089313Y-98523838D01*
X154161887Y-98649540D01*
X154178500Y-98711540D01*
X154178500Y-100631726D01*
X154205793Y-100733589D01*
X154232156Y-100779250D01*
X154258520Y-100824913D01*
X154610945Y-101177338D01*
X154940650Y-101507042D01*
X154972744Y-101562629D01*
X155010312Y-101702837D01*
X155010313Y-101702838D01*
X155079492Y-101822661D01*
X155079494Y-101822664D01*
X155079495Y-101822665D01*
X155177335Y-101920505D01*
X155297164Y-101989688D01*
X155430817Y-102025500D01*
X155430819Y-102025500D01*
X155569181Y-102025500D01*
X155569183Y-102025500D01*
X155702836Y-101989688D01*
X155822665Y-101920505D01*
X155920505Y-101822665D01*
X155989688Y-101702836D01*
X156025500Y-101569183D01*
X156025500Y-101430817D01*
X155989688Y-101297164D01*
X155920505Y-101177335D01*
X155822665Y-101079495D01*
X155822664Y-101079494D01*
X155822661Y-101079492D01*
X155702838Y-101010313D01*
X155702837Y-101010312D01*
X155562629Y-100972744D01*
X155507042Y-100940650D01*
X155015819Y-100449426D01*
X154982334Y-100388103D01*
X154979500Y-100361745D01*
X154979500Y-98711540D01*
X154996113Y-98649540D01*
X155011317Y-98623206D01*
X155068688Y-98523836D01*
X155104500Y-98390183D01*
X155104500Y-98251817D01*
X155098009Y-98227592D01*
X155099672Y-98157743D01*
X155138835Y-98099881D01*
X155203064Y-98072377D01*
X155217784Y-98071500D01*
X155881725Y-98071500D01*
X155881727Y-98071500D01*
X155983588Y-98044207D01*
X156074913Y-97991480D01*
X156074914Y-97991478D01*
X156081951Y-97987416D01*
X156082645Y-97988618D01*
X156139736Y-97966539D01*
X156208182Y-97980569D01*
X156258178Y-98029376D01*
X156273851Y-98097466D01*
X156257457Y-98152107D01*
X156190423Y-98268215D01*
X156190423Y-98268216D01*
X156149500Y-98420943D01*
X156149500Y-98579057D01*
X156180362Y-98694233D01*
X156190423Y-98731783D01*
X156190426Y-98731790D01*
X156269475Y-98868709D01*
X156269479Y-98868714D01*
X156269480Y-98868716D01*
X156381284Y-98980520D01*
X156381286Y-98980521D01*
X156381290Y-98980524D01*
X156495084Y-99046222D01*
X156518216Y-99059577D01*
X156670943Y-99100500D01*
X156670945Y-99100500D01*
X156829055Y-99100500D01*
X156829057Y-99100500D01*
X156981784Y-99059577D01*
X156981785Y-99059576D01*
X156989635Y-99057473D01*
X156989820Y-99058165D01*
X157028363Y-99050500D01*
X157434547Y-99050500D01*
X157434549Y-99050500D01*
X157434550Y-99050500D01*
X157574560Y-99012984D01*
X157700090Y-98940510D01*
X159963814Y-96676784D01*
X160025135Y-96643301D01*
X160094827Y-96648285D01*
X160150760Y-96690157D01*
X160173110Y-96740275D01*
X160192497Y-96837738D01*
X160192499Y-96837744D01*
X160241533Y-96956124D01*
X160241538Y-96956133D01*
X160312723Y-97062668D01*
X160312726Y-97062672D01*
X160403327Y-97153273D01*
X160403331Y-97153276D01*
X160509866Y-97224461D01*
X160509872Y-97224464D01*
X160509873Y-97224465D01*
X160628256Y-97273501D01*
X160628260Y-97273501D01*
X160628261Y-97273502D01*
X160753928Y-97298500D01*
X160753931Y-97298500D01*
X160882071Y-97298500D01*
X160966615Y-97281682D01*
X161007744Y-97273501D01*
X161126127Y-97224465D01*
X161232669Y-97153276D01*
X161323276Y-97062669D01*
X161394465Y-96956127D01*
X161443501Y-96837744D01*
X161460658Y-96751493D01*
X161468500Y-96712071D01*
X161468500Y-96583928D01*
X161443502Y-96458261D01*
X161443501Y-96458260D01*
X161443501Y-96458256D01*
X161394465Y-96339873D01*
X161394464Y-96339872D01*
X161394461Y-96339866D01*
X161323276Y-96233331D01*
X161323273Y-96233327D01*
X161232672Y-96142726D01*
X161232668Y-96142723D01*
X161126133Y-96071538D01*
X161126124Y-96071533D01*
X161007744Y-96022499D01*
X161007738Y-96022497D01*
X160882071Y-95997500D01*
X160882069Y-95997500D01*
X160753931Y-95997500D01*
X160753926Y-95997500D01*
X160698691Y-96008487D01*
X160629099Y-96002260D01*
X160573922Y-95959396D01*
X160550678Y-95893507D01*
X160550500Y-95886870D01*
X160550500Y-95128208D01*
X160570185Y-95061169D01*
X160612499Y-95020821D01*
X160709757Y-94964670D01*
X160773028Y-94916120D01*
X160773032Y-94916115D01*
X160773037Y-94916112D01*
X160866112Y-94823037D01*
X160866115Y-94823032D01*
X160866120Y-94823028D01*
X160914670Y-94759757D01*
X160980496Y-94645743D01*
X161011015Y-94572064D01*
X161045090Y-94444897D01*
X161055500Y-94365826D01*
X161055500Y-93800000D01*
X161054197Y-93771812D01*
X161030901Y-93689935D01*
X161031487Y-93620068D01*
X161034543Y-93611200D01*
X161034864Y-93610368D01*
X161034870Y-93610359D01*
X161055500Y-93500000D01*
X161055500Y-92934174D01*
X161045090Y-92855103D01*
X161011015Y-92727936D01*
X160985316Y-92665893D01*
X160980500Y-92654265D01*
X160980492Y-92654249D01*
X160914674Y-92540250D01*
X160914670Y-92540243D01*
X160913396Y-92538583D01*
X160866119Y-92476971D01*
X160866112Y-92476963D01*
X160773037Y-92383888D01*
X160773028Y-92383880D01*
X160709767Y-92335337D01*
X160709749Y-92335325D01*
X160595750Y-92269507D01*
X160595734Y-92269499D01*
X160522067Y-92238986D01*
X160522065Y-92238985D01*
X160522064Y-92238985D01*
X160394897Y-92204910D01*
X160394896Y-92204909D01*
X160394893Y-92204909D01*
X160315833Y-92194500D01*
X160315826Y-92194500D01*
X159684174Y-92194500D01*
X159684166Y-92194500D01*
X159605106Y-92204909D01*
X159477932Y-92238986D01*
X159404265Y-92269499D01*
X159404249Y-92269507D01*
X159290250Y-92335325D01*
X159290232Y-92335337D01*
X159226971Y-92383880D01*
X159197670Y-92413181D01*
X159136347Y-92446666D01*
X159109989Y-92449500D01*
X158278363Y-92449500D01*
X158239820Y-92441834D01*
X158239635Y-92442527D01*
X158231785Y-92440423D01*
X158231784Y-92440423D01*
X158079057Y-92399500D01*
X157920943Y-92399500D01*
X157768216Y-92440423D01*
X157768209Y-92440426D01*
X157631290Y-92519475D01*
X157631282Y-92519481D01*
X157612181Y-92538583D01*
X157550858Y-92572068D01*
X157481166Y-92567084D01*
X157425233Y-92525212D01*
X157400816Y-92459748D01*
X157400500Y-92450902D01*
X157400500Y-89140540D01*
X157417113Y-89078540D01*
X157447722Y-89025523D01*
X157489688Y-88952836D01*
X157525500Y-88819183D01*
X157525500Y-88680817D01*
X157525500Y-88680815D01*
X157524691Y-88674673D01*
X157535453Y-88605638D01*
X157581831Y-88553380D01*
X157647629Y-88534483D01*
X164754489Y-88534483D01*
X164754491Y-88534483D01*
X164754492Y-88534483D01*
X164894502Y-88496967D01*
X164933416Y-88474500D01*
X165020032Y-88424493D01*
X167440510Y-86004015D01*
X167512984Y-85878485D01*
X167545998Y-85755276D01*
X167550500Y-85738475D01*
X167550500Y-85631062D01*
X167550702Y-85627527D01*
X167561300Y-85597816D01*
X167570185Y-85567561D01*
X167571359Y-85565768D01*
X167576465Y-85558127D01*
X167625501Y-85439744D01*
X167636326Y-85385327D01*
X167650500Y-85314071D01*
X167650500Y-85185928D01*
X167625502Y-85060261D01*
X167625501Y-85060260D01*
X167625501Y-85060256D01*
X167576465Y-84941873D01*
X167576464Y-84941872D01*
X167576461Y-84941866D01*
X167505276Y-84835331D01*
X167505273Y-84835327D01*
X167414672Y-84744726D01*
X167414668Y-84744723D01*
X167308133Y-84673538D01*
X167308124Y-84673533D01*
X167189744Y-84624499D01*
X167189738Y-84624497D01*
X167064071Y-84599500D01*
X167064069Y-84599500D01*
X166935931Y-84599500D01*
X166935929Y-84599500D01*
X166810261Y-84624497D01*
X166810255Y-84624499D01*
X166691875Y-84673533D01*
X166691866Y-84673538D01*
X166585331Y-84744723D01*
X166585327Y-84744726D01*
X166494726Y-84835327D01*
X166494723Y-84835331D01*
X166423538Y-84941866D01*
X166423533Y-84941875D01*
X166374499Y-85060255D01*
X166374497Y-85060261D01*
X166349500Y-85185928D01*
X166349500Y-85314073D01*
X166373717Y-85435820D01*
X166367490Y-85505411D01*
X166339781Y-85547692D01*
X164490311Y-87397164D01*
X164428988Y-87430649D01*
X164402630Y-87433483D01*
X148898978Y-87433483D01*
X148831939Y-87413798D01*
X148786184Y-87360994D01*
X148776240Y-87291836D01*
X148791591Y-87247483D01*
X148802177Y-87229145D01*
X148834688Y-87172836D01*
X148870500Y-87039183D01*
X148870500Y-86900817D01*
X148834688Y-86767164D01*
X148765505Y-86647335D01*
X148762113Y-86641459D01*
X148745500Y-86579459D01*
X148745500Y-84814071D01*
X159099499Y-84814071D01*
X159124497Y-84939738D01*
X159124499Y-84939744D01*
X159173533Y-85058124D01*
X159173538Y-85058133D01*
X159244723Y-85164668D01*
X159244726Y-85164672D01*
X159335327Y-85255273D01*
X159335331Y-85255276D01*
X159441866Y-85326461D01*
X159441872Y-85326464D01*
X159441873Y-85326465D01*
X159560256Y-85375501D01*
X159560260Y-85375501D01*
X159560261Y-85375502D01*
X159685928Y-85400500D01*
X159685931Y-85400500D01*
X159814071Y-85400500D01*
X159907454Y-85381924D01*
X159939744Y-85375501D01*
X160058127Y-85326465D01*
X160164669Y-85255276D01*
X160255276Y-85164669D01*
X160326465Y-85058127D01*
X160375501Y-84939744D01*
X160396271Y-84835331D01*
X160400500Y-84814071D01*
X160400500Y-84685928D01*
X160375502Y-84560261D01*
X160375501Y-84560260D01*
X160375501Y-84560256D01*
X160326465Y-84441873D01*
X160326464Y-84441872D01*
X160326461Y-84441866D01*
X160255276Y-84335331D01*
X160255273Y-84335327D01*
X160164672Y-84244726D01*
X160164668Y-84244723D01*
X160098388Y-84200436D01*
X170835000Y-84200436D01*
X170835000Y-84399563D01*
X170866147Y-84596222D01*
X170927679Y-84785594D01*
X171018077Y-84963008D01*
X171045580Y-85000863D01*
X171045581Y-85000864D01*
X171608871Y-84437574D01*
X171624755Y-84496853D01*
X171691898Y-84613147D01*
X171786853Y-84708102D01*
X171903147Y-84775245D01*
X171962425Y-84791128D01*
X171399134Y-85354417D01*
X171436994Y-85381924D01*
X171614405Y-85472320D01*
X171803777Y-85533852D01*
X172000437Y-85565000D01*
X172199563Y-85565000D01*
X172396222Y-85533852D01*
X172585594Y-85472320D01*
X172763005Y-85381924D01*
X172800863Y-85354418D01*
X172800863Y-85354417D01*
X172237574Y-84791128D01*
X172296853Y-84775245D01*
X172413147Y-84708102D01*
X172508102Y-84613147D01*
X172575245Y-84496853D01*
X172591128Y-84437574D01*
X173154417Y-85000863D01*
X173154418Y-85000863D01*
X173181924Y-84963005D01*
X173272320Y-84785594D01*
X173333852Y-84596222D01*
X173365000Y-84399563D01*
X173365000Y-84200436D01*
X173333852Y-84003777D01*
X173272320Y-83814405D01*
X173181924Y-83636994D01*
X173154417Y-83599135D01*
X173154417Y-83599134D01*
X172591128Y-84162424D01*
X172575245Y-84103147D01*
X172508102Y-83986853D01*
X172413147Y-83891898D01*
X172296853Y-83824755D01*
X172237574Y-83808871D01*
X172800864Y-83245581D01*
X172800863Y-83245580D01*
X172763008Y-83218077D01*
X172585594Y-83127679D01*
X172396222Y-83066147D01*
X172199563Y-83035000D01*
X172000437Y-83035000D01*
X171803777Y-83066147D01*
X171614405Y-83127679D01*
X171436990Y-83218077D01*
X171399135Y-83245580D01*
X171399135Y-83245581D01*
X171962425Y-83808871D01*
X171903147Y-83824755D01*
X171786853Y-83891898D01*
X171691898Y-83986853D01*
X171624755Y-84103147D01*
X171608871Y-84162425D01*
X171045581Y-83599135D01*
X171045580Y-83599135D01*
X171018077Y-83636990D01*
X170927679Y-83814405D01*
X170866147Y-84003777D01*
X170835000Y-84200436D01*
X160098388Y-84200436D01*
X160058133Y-84173538D01*
X160058124Y-84173533D01*
X159939744Y-84124499D01*
X159939738Y-84124497D01*
X159814071Y-84099500D01*
X159814069Y-84099500D01*
X159685931Y-84099500D01*
X159685929Y-84099500D01*
X159560261Y-84124497D01*
X159560255Y-84124499D01*
X159441875Y-84173533D01*
X159441866Y-84173538D01*
X159335331Y-84244723D01*
X159335327Y-84244726D01*
X159244726Y-84335327D01*
X159244723Y-84335331D01*
X159173538Y-84441866D01*
X159173533Y-84441875D01*
X159124499Y-84560255D01*
X159124497Y-84560261D01*
X159099500Y-84685928D01*
X159099500Y-84685931D01*
X159099500Y-84814069D01*
X159099500Y-84814071D01*
X159099499Y-84814071D01*
X148745500Y-84814071D01*
X148745500Y-83692891D01*
X148765185Y-83625852D01*
X148783217Y-83606251D01*
X148782021Y-83605055D01*
X148797338Y-83589738D01*
X148885608Y-83501468D01*
X148954791Y-83381639D01*
X148990603Y-83247986D01*
X148990603Y-83109620D01*
X148954791Y-82975967D01*
X148885608Y-82856138D01*
X148787768Y-82758298D01*
X148787767Y-82758297D01*
X148787764Y-82758295D01*
X148667941Y-82689116D01*
X148667940Y-82689115D01*
X148667939Y-82689115D01*
X148534286Y-82653303D01*
X148395920Y-82653303D01*
X148262267Y-82689115D01*
X148262264Y-82689116D01*
X148142441Y-82758295D01*
X148142436Y-82758299D01*
X148044599Y-82856136D01*
X148044595Y-82856141D01*
X147975416Y-82975964D01*
X147975415Y-82975967D01*
X147939603Y-83109620D01*
X147939603Y-83247986D01*
X147940274Y-83250493D01*
X147944500Y-83282585D01*
X147944500Y-84604678D01*
X147924815Y-84671717D01*
X147872011Y-84717472D01*
X147802853Y-84727416D01*
X147739297Y-84698391D01*
X147732819Y-84692359D01*
X147654689Y-84614229D01*
X147654685Y-84614226D01*
X147548150Y-84543041D01*
X147548140Y-84543036D01*
X147490259Y-84519061D01*
X147435856Y-84475220D01*
X147413791Y-84408926D01*
X147417936Y-84372410D01*
X147425500Y-84344183D01*
X147425500Y-84205817D01*
X147389688Y-84072164D01*
X147334437Y-83976466D01*
X147320507Y-83952338D01*
X147320503Y-83952333D01*
X147222666Y-83854496D01*
X147222661Y-83854492D01*
X147102838Y-83785313D01*
X147102837Y-83785312D01*
X147102836Y-83785312D01*
X146969183Y-83749500D01*
X146830817Y-83749500D01*
X146697164Y-83785312D01*
X146697161Y-83785313D01*
X146571459Y-83857887D01*
X146509459Y-83874500D01*
X143590541Y-83874500D01*
X143528541Y-83857887D01*
X143402838Y-83785313D01*
X143402837Y-83785312D01*
X143402836Y-83785312D01*
X143269183Y-83749500D01*
X143130817Y-83749500D01*
X142997164Y-83785312D01*
X142997161Y-83785313D01*
X142877338Y-83854492D01*
X142877333Y-83854496D01*
X142779496Y-83952333D01*
X142779492Y-83952338D01*
X142710313Y-84072161D01*
X142710312Y-84072164D01*
X142674500Y-84205817D01*
X142674500Y-84344183D01*
X142700677Y-84441875D01*
X142710312Y-84477835D01*
X142710313Y-84477838D01*
X142779492Y-84597661D01*
X142779494Y-84597664D01*
X142779495Y-84597665D01*
X142877335Y-84695505D01*
X142877336Y-84695506D01*
X142877338Y-84695507D01*
X142915383Y-84717472D01*
X142997164Y-84764688D01*
X143130817Y-84800500D01*
X143130819Y-84800500D01*
X143269181Y-84800500D01*
X143269183Y-84800500D01*
X143402836Y-84764688D01*
X143484617Y-84717472D01*
X143528541Y-84692113D01*
X143590541Y-84675500D01*
X146509459Y-84675500D01*
X146524947Y-84679649D01*
X146538690Y-84678995D01*
X146571456Y-84692111D01*
X146577335Y-84695505D01*
X146591467Y-84703664D01*
X146639683Y-84754229D01*
X146652908Y-84822835D01*
X146644030Y-84858504D01*
X146614517Y-84929754D01*
X146614514Y-84929764D01*
X146589517Y-85055431D01*
X146589517Y-85055434D01*
X146589517Y-85183572D01*
X146589517Y-85183574D01*
X146589516Y-85183574D01*
X146614514Y-85309241D01*
X146614516Y-85309247D01*
X146663550Y-85427627D01*
X146663555Y-85427636D01*
X146734740Y-85534171D01*
X146734743Y-85534175D01*
X146825344Y-85624776D01*
X146825348Y-85624779D01*
X146931883Y-85695964D01*
X146931889Y-85695967D01*
X146931890Y-85695968D01*
X147050273Y-85745004D01*
X147050277Y-85745004D01*
X147050278Y-85745005D01*
X147175945Y-85770003D01*
X147175948Y-85770003D01*
X147304088Y-85770003D01*
X147388632Y-85753185D01*
X147429761Y-85745004D01*
X147548144Y-85695968D01*
X147654686Y-85624779D01*
X147682479Y-85596986D01*
X147732819Y-85546647D01*
X147794142Y-85513162D01*
X147863834Y-85518146D01*
X147919767Y-85560018D01*
X147944184Y-85625482D01*
X147944500Y-85634328D01*
X147944500Y-86579459D01*
X147927887Y-86641459D01*
X147855313Y-86767161D01*
X147855312Y-86767164D01*
X147819500Y-86900817D01*
X147819500Y-87039182D01*
X147855312Y-87172835D01*
X147855313Y-87172838D01*
X147898409Y-87247483D01*
X147914882Y-87315384D01*
X147892029Y-87381410D01*
X147837108Y-87424601D01*
X147791022Y-87433483D01*
X122943542Y-87433483D01*
X122838534Y-87461620D01*
X122803531Y-87470999D01*
X122678003Y-87543472D01*
X122678000Y-87543474D01*
X119808294Y-90413181D01*
X119746971Y-90446666D01*
X119720613Y-90449500D01*
X114677525Y-90449500D01*
X114584224Y-90474500D01*
X114584223Y-90474499D01*
X114537519Y-90487014D01*
X114537514Y-90487016D01*
X114411986Y-90559489D01*
X114411983Y-90559491D01*
X113059491Y-91911983D01*
X113059489Y-91911986D01*
X112987016Y-92037514D01*
X112987016Y-92037515D01*
X112949500Y-92177525D01*
X112949500Y-92177527D01*
X112949500Y-93238175D01*
X112929815Y-93305214D01*
X112877011Y-93350969D01*
X112807853Y-93360913D01*
X112744297Y-93331888D01*
X112710939Y-93285628D01*
X112694234Y-93245298D01*
X112577626Y-93070781D01*
X112429218Y-92922373D01*
X112254701Y-92805765D01*
X112060795Y-92725447D01*
X112060789Y-92725445D01*
X111854945Y-92684500D01*
X111854943Y-92684500D01*
X111645057Y-92684500D01*
X111645055Y-92684500D01*
X111439210Y-92725445D01*
X111439204Y-92725447D01*
X111245298Y-92805765D01*
X111070781Y-92922373D01*
X110922373Y-93070781D01*
X110805765Y-93245298D01*
X110725447Y-93439204D01*
X110725445Y-93439210D01*
X110684455Y-93645275D01*
X110652070Y-93707186D01*
X110591354Y-93741760D01*
X110521584Y-93738019D01*
X110475157Y-93708764D01*
X107996819Y-91230426D01*
X107963334Y-91169103D01*
X107960500Y-91142745D01*
X107960500Y-81603575D01*
X145889514Y-81603575D01*
X145914512Y-81729242D01*
X145914514Y-81729248D01*
X145963548Y-81847628D01*
X145963553Y-81847637D01*
X146034738Y-81954172D01*
X146034741Y-81954176D01*
X146125342Y-82044777D01*
X146125346Y-82044780D01*
X146231881Y-82115965D01*
X146231887Y-82115968D01*
X146231888Y-82115969D01*
X146350271Y-82165005D01*
X146350275Y-82165005D01*
X146350276Y-82165006D01*
X146475943Y-82190004D01*
X146475946Y-82190004D01*
X146604086Y-82190004D01*
X146688630Y-82173186D01*
X146729759Y-82165005D01*
X146848142Y-82115969D01*
X146954684Y-82044780D01*
X147045291Y-81954173D01*
X147116480Y-81847631D01*
X147165516Y-81729248D01*
X147185631Y-81628127D01*
X147190515Y-81603575D01*
X147190515Y-81475432D01*
X147165517Y-81349765D01*
X147165516Y-81349764D01*
X147165516Y-81349760D01*
X147116480Y-81231377D01*
X147116479Y-81231376D01*
X147116476Y-81231370D01*
X147045291Y-81124835D01*
X147045288Y-81124831D01*
X146954687Y-81034230D01*
X146954683Y-81034227D01*
X146848148Y-80963042D01*
X146848139Y-80963037D01*
X146729759Y-80914003D01*
X146729753Y-80914001D01*
X146604086Y-80889004D01*
X146604084Y-80889004D01*
X146475946Y-80889004D01*
X146475944Y-80889004D01*
X146350276Y-80914001D01*
X146350270Y-80914003D01*
X146231890Y-80963037D01*
X146231881Y-80963042D01*
X146125346Y-81034227D01*
X146125342Y-81034230D01*
X146034741Y-81124831D01*
X146034738Y-81124835D01*
X145963553Y-81231370D01*
X145963548Y-81231379D01*
X145914514Y-81349759D01*
X145914512Y-81349765D01*
X145889515Y-81475432D01*
X145889515Y-81475435D01*
X145889515Y-81603573D01*
X145889515Y-81603575D01*
X145889514Y-81603575D01*
X107960500Y-81603575D01*
X107960500Y-78064071D01*
X116349499Y-78064071D01*
X116374497Y-78189738D01*
X116374499Y-78189744D01*
X116423533Y-78308124D01*
X116423538Y-78308133D01*
X116494723Y-78414668D01*
X116494726Y-78414672D01*
X116585327Y-78505273D01*
X116585331Y-78505276D01*
X116691866Y-78576461D01*
X116691872Y-78576464D01*
X116691873Y-78576465D01*
X116810256Y-78625501D01*
X116810260Y-78625501D01*
X116810261Y-78625502D01*
X116935928Y-78650500D01*
X116935931Y-78650500D01*
X117064071Y-78650500D01*
X117148615Y-78633682D01*
X117189744Y-78625501D01*
X117308127Y-78576465D01*
X117414669Y-78505276D01*
X117505276Y-78414669D01*
X117576465Y-78308127D01*
X117625501Y-78189744D01*
X117644679Y-78093334D01*
X117650500Y-78064071D01*
X117650500Y-77935928D01*
X117625502Y-77810261D01*
X117625501Y-77810260D01*
X117625501Y-77810256D01*
X117576465Y-77691873D01*
X117576464Y-77691872D01*
X117576461Y-77691866D01*
X117505276Y-77585331D01*
X117505273Y-77585327D01*
X117414672Y-77494726D01*
X117414668Y-77494723D01*
X117308133Y-77423538D01*
X117308124Y-77423533D01*
X117189744Y-77374499D01*
X117189738Y-77374497D01*
X117064071Y-77349500D01*
X117064069Y-77349500D01*
X116935931Y-77349500D01*
X116935929Y-77349500D01*
X116810261Y-77374497D01*
X116810255Y-77374499D01*
X116691875Y-77423533D01*
X116691866Y-77423538D01*
X116585331Y-77494723D01*
X116585327Y-77494726D01*
X116494726Y-77585327D01*
X116494723Y-77585331D01*
X116423538Y-77691866D01*
X116423533Y-77691875D01*
X116374499Y-77810255D01*
X116374497Y-77810261D01*
X116349500Y-77935928D01*
X116349500Y-77935931D01*
X116349500Y-78064069D01*
X116349500Y-78064071D01*
X116349499Y-78064071D01*
X107960500Y-78064071D01*
X107960500Y-74130540D01*
X107977113Y-74068540D01*
X107980505Y-74062665D01*
X108049688Y-73942836D01*
X108085500Y-73809183D01*
X108085500Y-73670817D01*
X108049688Y-73537164D01*
X107980505Y-73417335D01*
X107882665Y-73319495D01*
X107882664Y-73319494D01*
X107882661Y-73319492D01*
X107762838Y-73250313D01*
X107762837Y-73250312D01*
X107762836Y-73250312D01*
X107629183Y-73214500D01*
X107490817Y-73214500D01*
X107357164Y-73250312D01*
X107357161Y-73250313D01*
X107237338Y-73319492D01*
X107237333Y-73319496D01*
X107139496Y-73417333D01*
X107139492Y-73417338D01*
X107070313Y-73537161D01*
X107070312Y-73537164D01*
X107034500Y-73670817D01*
X105474477Y-73670817D01*
X105420505Y-73577335D01*
X105322665Y-73479495D01*
X105322664Y-73479494D01*
X105322661Y-73479492D01*
X105202838Y-73410313D01*
X105202837Y-73410312D01*
X105202836Y-73410312D01*
X105069183Y-73374500D01*
X104930817Y-73374500D01*
X104797164Y-73410312D01*
X104797161Y-73410313D01*
X104677338Y-73479492D01*
X104677333Y-73479496D01*
X104579496Y-73577333D01*
X104579492Y-73577338D01*
X104510313Y-73697161D01*
X104510312Y-73697164D01*
X104474500Y-73830817D01*
X102900500Y-73830817D01*
X102900500Y-72290540D01*
X102917113Y-72228540D01*
X102939515Y-72189738D01*
X102989688Y-72102836D01*
X103025500Y-71969183D01*
X103025500Y-71830817D01*
X102989688Y-71697164D01*
X102948313Y-71625500D01*
X102920507Y-71577338D01*
X102920503Y-71577333D01*
X102822666Y-71479496D01*
X102822661Y-71479492D01*
X102702838Y-71410313D01*
X102702837Y-71410312D01*
X102702836Y-71410312D01*
X102569183Y-71374500D01*
X102430817Y-71374500D01*
X102297164Y-71410312D01*
X102297161Y-71410313D01*
X102177338Y-71479492D01*
X102177333Y-71479496D01*
X102079496Y-71577333D01*
X102079492Y-71577338D01*
X102010313Y-71697161D01*
X102010312Y-71697164D01*
X101974500Y-71830817D01*
X96008792Y-71830817D01*
X95956192Y-71703828D01*
X95956185Y-71703815D01*
X95846751Y-71540037D01*
X95846748Y-71540033D01*
X95707466Y-71400751D01*
X95707462Y-71400748D01*
X95543684Y-71291314D01*
X95543671Y-71291307D01*
X95361691Y-71215929D01*
X95361683Y-71215927D01*
X95320000Y-71207635D01*
X95320000Y-72010511D01*
X95310060Y-71993295D01*
X95254205Y-71937440D01*
X95185796Y-71897944D01*
X95109496Y-71877500D01*
X95030504Y-71877500D01*
X94954204Y-71897944D01*
X94885795Y-71937440D01*
X94829940Y-71993295D01*
X94820000Y-72010511D01*
X94820000Y-71207636D01*
X94819999Y-71207635D01*
X94778316Y-71215927D01*
X94778308Y-71215929D01*
X94596328Y-71291307D01*
X94596315Y-71291314D01*
X94432537Y-71400748D01*
X94432533Y-71400751D01*
X94293251Y-71540033D01*
X94293248Y-71540037D01*
X94183814Y-71703815D01*
X94183807Y-71703828D01*
X94108430Y-71885806D01*
X94108427Y-71885818D01*
X94070000Y-72079004D01*
X94070000Y-72327500D01*
X94770000Y-72327500D01*
X94770000Y-72827500D01*
X94057387Y-72827500D01*
X93990348Y-72807815D01*
X93969706Y-72791181D01*
X93608746Y-72430221D01*
X93575261Y-72368898D01*
X93580245Y-72299206D01*
X93581866Y-72295087D01*
X93625501Y-72189744D01*
X93650500Y-72064069D01*
X93650500Y-71935931D01*
X93650500Y-71935928D01*
X93625502Y-71810261D01*
X93625501Y-71810260D01*
X93625501Y-71810256D01*
X93578657Y-71697164D01*
X93576466Y-71691875D01*
X93576461Y-71691866D01*
X93505276Y-71585331D01*
X93505273Y-71585327D01*
X93414672Y-71494726D01*
X93414668Y-71494723D01*
X93308133Y-71423538D01*
X93308124Y-71423533D01*
X93189744Y-71374499D01*
X93189738Y-71374497D01*
X93064071Y-71349500D01*
X93064069Y-71349500D01*
X92935931Y-71349500D01*
X92935929Y-71349500D01*
X92810261Y-71374497D01*
X92810255Y-71374499D01*
X92691876Y-71423533D01*
X92691873Y-71423534D01*
X92691873Y-71423535D01*
X92684287Y-71428603D01*
X92617611Y-71449480D01*
X92615399Y-71449500D01*
X88734601Y-71449500D01*
X88667562Y-71429815D01*
X88665747Y-71428626D01*
X88658127Y-71423535D01*
X88658124Y-71423533D01*
X88658123Y-71423533D01*
X88539744Y-71374499D01*
X88539738Y-71374497D01*
X88414071Y-71349500D01*
X88414069Y-71349500D01*
X88285931Y-71349500D01*
X88285929Y-71349500D01*
X88160261Y-71374497D01*
X88160255Y-71374499D01*
X88041875Y-71423533D01*
X88041866Y-71423538D01*
X87935331Y-71494723D01*
X87935327Y-71494726D01*
X87844726Y-71585327D01*
X87844723Y-71585331D01*
X87773538Y-71691866D01*
X87773533Y-71691875D01*
X87724499Y-71810255D01*
X87724497Y-71810261D01*
X87699500Y-71935928D01*
X87699500Y-71935931D01*
X87699500Y-72064069D01*
X87699500Y-72064071D01*
X87699499Y-72064071D01*
X87427029Y-72064071D01*
X87405141Y-71954030D01*
X87391572Y-71885818D01*
X87391569Y-71885806D01*
X87316192Y-71703828D01*
X87316185Y-71703815D01*
X87206751Y-71540037D01*
X87206748Y-71540033D01*
X87067466Y-71400751D01*
X87067462Y-71400748D01*
X86903684Y-71291314D01*
X86903671Y-71291307D01*
X86721691Y-71215929D01*
X86721683Y-71215927D01*
X86680000Y-71207635D01*
X86680000Y-72010511D01*
X86670060Y-71993295D01*
X86614205Y-71937440D01*
X86545796Y-71897944D01*
X86469496Y-71877500D01*
X86390504Y-71877500D01*
X86314204Y-71897944D01*
X86245795Y-71937440D01*
X86189940Y-71993295D01*
X86180000Y-72010511D01*
X86180000Y-71207636D01*
X86179999Y-71207635D01*
X86138316Y-71215927D01*
X86138308Y-71215929D01*
X85956328Y-71291307D01*
X85956315Y-71291314D01*
X85792537Y-71400748D01*
X85792533Y-71400751D01*
X85653251Y-71540033D01*
X85653248Y-71540037D01*
X85543814Y-71703815D01*
X85543807Y-71703828D01*
X85468430Y-71885806D01*
X85468427Y-71885818D01*
X85430000Y-72079004D01*
X78950500Y-72079004D01*
X78950500Y-71064071D01*
X111549499Y-71064071D01*
X111574497Y-71189738D01*
X111574499Y-71189744D01*
X111623533Y-71308124D01*
X111623538Y-71308133D01*
X111694723Y-71414668D01*
X111694726Y-71414672D01*
X111785327Y-71505273D01*
X111785331Y-71505276D01*
X111891866Y-71576461D01*
X111891875Y-71576466D01*
X111913268Y-71585327D01*
X112010256Y-71625501D01*
X112010260Y-71625501D01*
X112010261Y-71625502D01*
X112135928Y-71650500D01*
X112135931Y-71650500D01*
X112264071Y-71650500D01*
X112348615Y-71633682D01*
X112389744Y-71625501D01*
X112508127Y-71576465D01*
X112614669Y-71505276D01*
X112705276Y-71414669D01*
X112776465Y-71308127D01*
X112825501Y-71189744D01*
X112850500Y-71064069D01*
X112850500Y-70935931D01*
X112850500Y-70935928D01*
X112825502Y-70810261D01*
X112825501Y-70810260D01*
X112825501Y-70810256D01*
X112776465Y-70691873D01*
X112776464Y-70691872D01*
X112776461Y-70691866D01*
X112705276Y-70585331D01*
X112705273Y-70585327D01*
X112614672Y-70494726D01*
X112614668Y-70494723D01*
X112508133Y-70423538D01*
X112508124Y-70423533D01*
X112389744Y-70374499D01*
X112389738Y-70374497D01*
X112264071Y-70349500D01*
X112264069Y-70349500D01*
X112135931Y-70349500D01*
X112135929Y-70349500D01*
X112010261Y-70374497D01*
X112010255Y-70374499D01*
X111891875Y-70423533D01*
X111891866Y-70423538D01*
X111785331Y-70494723D01*
X111785327Y-70494726D01*
X111694726Y-70585327D01*
X111694723Y-70585331D01*
X111623538Y-70691866D01*
X111623533Y-70691875D01*
X111574499Y-70810255D01*
X111574497Y-70810261D01*
X111549500Y-70935928D01*
X111549500Y-70935931D01*
X111549500Y-71064069D01*
X111549500Y-71064071D01*
X111549499Y-71064071D01*
X78950500Y-71064071D01*
X78950500Y-67879004D01*
X85430000Y-67879004D01*
X85430000Y-68327500D01*
X86130000Y-68327500D01*
X86130000Y-68827500D01*
X85430000Y-68827500D01*
X85430000Y-69275995D01*
X85468427Y-69469181D01*
X85468430Y-69469193D01*
X85543807Y-69651171D01*
X85543814Y-69651184D01*
X85653248Y-69814962D01*
X85653251Y-69814966D01*
X85792533Y-69954248D01*
X85792537Y-69954251D01*
X85956315Y-70063685D01*
X85956328Y-70063692D01*
X86138308Y-70139069D01*
X86180000Y-70147362D01*
X86180000Y-69344488D01*
X86189940Y-69361705D01*
X86245795Y-69417560D01*
X86314204Y-69457056D01*
X86390504Y-69477500D01*
X86469496Y-69477500D01*
X86545796Y-69457056D01*
X86614205Y-69417560D01*
X86670060Y-69361705D01*
X86680000Y-69344488D01*
X86680000Y-70147362D01*
X86721690Y-70139069D01*
X86721692Y-70139069D01*
X86903671Y-70063692D01*
X86903684Y-70063685D01*
X87067462Y-69954251D01*
X87067466Y-69954248D01*
X87206748Y-69814966D01*
X87206751Y-69814962D01*
X87316185Y-69651184D01*
X87316192Y-69651171D01*
X87391569Y-69469193D01*
X87391572Y-69469181D01*
X87429999Y-69275995D01*
X87430000Y-69275992D01*
X87430000Y-68827500D01*
X86730000Y-68827500D01*
X86730000Y-68327500D01*
X87430000Y-68327500D01*
X87430000Y-67879008D01*
X87429999Y-67879004D01*
X94070000Y-67879004D01*
X94070000Y-68327500D01*
X94770000Y-68327500D01*
X94770000Y-68827500D01*
X94070000Y-68827500D01*
X94070000Y-69275995D01*
X94108427Y-69469181D01*
X94108430Y-69469193D01*
X94183807Y-69651171D01*
X94183814Y-69651184D01*
X94293248Y-69814962D01*
X94293251Y-69814966D01*
X94432533Y-69954248D01*
X94432537Y-69954251D01*
X94596315Y-70063685D01*
X94596328Y-70063692D01*
X94778308Y-70139069D01*
X94820000Y-70147362D01*
X94820000Y-69344488D01*
X94829940Y-69361705D01*
X94885795Y-69417560D01*
X94954204Y-69457056D01*
X95030504Y-69477500D01*
X95109496Y-69477500D01*
X95185796Y-69457056D01*
X95254205Y-69417560D01*
X95310060Y-69361705D01*
X95320000Y-69344488D01*
X95320000Y-70147362D01*
X95361690Y-70139069D01*
X95361692Y-70139069D01*
X95543671Y-70063692D01*
X95543684Y-70063685D01*
X95707462Y-69954251D01*
X95707466Y-69954248D01*
X95846748Y-69814966D01*
X95846751Y-69814962D01*
X95956185Y-69651184D01*
X95956192Y-69651171D01*
X96031569Y-69469193D01*
X96031572Y-69469181D01*
X96069999Y-69275995D01*
X96070000Y-69275992D01*
X96070000Y-68827500D01*
X95370000Y-68827500D01*
X95370000Y-68709448D01*
X98489500Y-68709448D01*
X98489500Y-68890551D01*
X98517829Y-69069410D01*
X98573787Y-69241636D01*
X98573788Y-69241639D01*
X98656006Y-69402997D01*
X98762441Y-69549494D01*
X98762445Y-69549499D01*
X98890500Y-69677554D01*
X98890505Y-69677558D01*
X99018287Y-69770396D01*
X99037006Y-69783996D01*
X99113094Y-69822765D01*
X99198360Y-69866211D01*
X99198363Y-69866212D01*
X99284476Y-69894191D01*
X99370591Y-69922171D01*
X99453429Y-69935291D01*
X99549449Y-69950500D01*
X99549454Y-69950500D01*
X99730551Y-69950500D01*
X99817259Y-69936765D01*
X99909409Y-69922171D01*
X100081639Y-69866211D01*
X100242994Y-69783996D01*
X100389501Y-69677553D01*
X100517553Y-69549501D01*
X100623996Y-69402994D01*
X100706211Y-69241639D01*
X100762171Y-69069409D01*
X100778748Y-68964746D01*
X100787527Y-68909321D01*
X100817456Y-68846186D01*
X100876768Y-68809255D01*
X100946630Y-68810253D01*
X101004863Y-68848863D01*
X101032473Y-68909321D01*
X101057829Y-69069410D01*
X101113787Y-69241636D01*
X101113788Y-69241639D01*
X101196006Y-69402997D01*
X101302441Y-69549494D01*
X101302445Y-69549499D01*
X101430500Y-69677554D01*
X101430505Y-69677558D01*
X101558287Y-69770396D01*
X101577006Y-69783996D01*
X101653094Y-69822765D01*
X101738360Y-69866211D01*
X101738363Y-69866212D01*
X101824476Y-69894191D01*
X101910591Y-69922171D01*
X101993429Y-69935291D01*
X102089449Y-69950500D01*
X102089454Y-69950500D01*
X102270551Y-69950500D01*
X102357259Y-69936765D01*
X102449409Y-69922171D01*
X102621639Y-69866211D01*
X102782994Y-69783996D01*
X102929501Y-69677553D01*
X103057553Y-69549501D01*
X103163996Y-69402994D01*
X103246211Y-69241639D01*
X103302171Y-69069409D01*
X103318748Y-68964746D01*
X103327527Y-68909321D01*
X103357456Y-68846186D01*
X103416768Y-68809255D01*
X103486630Y-68810253D01*
X103544863Y-68848863D01*
X103572473Y-68909321D01*
X103597829Y-69069410D01*
X103653787Y-69241636D01*
X103653788Y-69241639D01*
X103736006Y-69402997D01*
X103842441Y-69549494D01*
X103842445Y-69549499D01*
X103970500Y-69677554D01*
X103970505Y-69677558D01*
X104098287Y-69770396D01*
X104117006Y-69783996D01*
X104193094Y-69822765D01*
X104278360Y-69866211D01*
X104278363Y-69866212D01*
X104364476Y-69894191D01*
X104450591Y-69922171D01*
X104533429Y-69935291D01*
X104629449Y-69950500D01*
X104629454Y-69950500D01*
X104810551Y-69950500D01*
X104897259Y-69936765D01*
X104989409Y-69922171D01*
X105161639Y-69866211D01*
X105322994Y-69783996D01*
X105469501Y-69677553D01*
X105597553Y-69549501D01*
X105703996Y-69402994D01*
X105786211Y-69241639D01*
X105842171Y-69069409D01*
X105858748Y-68964746D01*
X105867527Y-68909321D01*
X105897456Y-68846186D01*
X105956768Y-68809255D01*
X106026630Y-68810253D01*
X106084863Y-68848863D01*
X106112473Y-68909321D01*
X106137829Y-69069410D01*
X106193787Y-69241636D01*
X106193788Y-69241639D01*
X106276006Y-69402997D01*
X106382441Y-69549494D01*
X106382445Y-69549499D01*
X106510500Y-69677554D01*
X106510505Y-69677558D01*
X106638287Y-69770396D01*
X106657006Y-69783996D01*
X106733094Y-69822765D01*
X106818360Y-69866211D01*
X106818363Y-69866212D01*
X106904476Y-69894191D01*
X106990591Y-69922171D01*
X107073429Y-69935291D01*
X107169449Y-69950500D01*
X107169454Y-69950500D01*
X107350551Y-69950500D01*
X107437259Y-69936765D01*
X107529409Y-69922171D01*
X107701639Y-69866211D01*
X107862994Y-69783996D01*
X108009501Y-69677553D01*
X108137553Y-69549501D01*
X108243996Y-69402994D01*
X108311090Y-69271314D01*
X108359065Y-69220519D01*
X108426886Y-69203724D01*
X108493021Y-69226262D01*
X108536472Y-69280977D01*
X108539506Y-69289292D01*
X108548904Y-69318217D01*
X108645379Y-69507557D01*
X108770272Y-69679459D01*
X108770276Y-69679464D01*
X108920535Y-69829723D01*
X108920540Y-69829727D01*
X109092442Y-69954620D01*
X109281782Y-70051095D01*
X109483871Y-70116757D01*
X109550000Y-70127231D01*
X109550000Y-69233012D01*
X109607007Y-69265925D01*
X109734174Y-69300000D01*
X109865826Y-69300000D01*
X109992993Y-69265925D01*
X110050000Y-69233012D01*
X110050000Y-70127230D01*
X110116126Y-70116757D01*
X110116129Y-70116757D01*
X110318217Y-70051095D01*
X110507557Y-69954620D01*
X110679459Y-69829727D01*
X110679464Y-69829723D01*
X110829723Y-69679464D01*
X110829727Y-69679459D01*
X110954619Y-69507559D01*
X110955005Y-69506803D01*
X110955229Y-69506564D01*
X110957168Y-69503402D01*
X110957831Y-69503808D01*
X111002970Y-69455998D01*
X111070787Y-69439190D01*
X111136927Y-69461715D01*
X111180388Y-69516422D01*
X111189500Y-69563076D01*
X111189500Y-69694855D01*
X111189502Y-69694882D01*
X111192413Y-69719987D01*
X111192415Y-69719991D01*
X111237793Y-69822764D01*
X111237794Y-69822765D01*
X111317235Y-69902206D01*
X111420009Y-69947585D01*
X111445135Y-69950500D01*
X113234864Y-69950499D01*
X113234879Y-69950497D01*
X113234882Y-69950497D01*
X113259987Y-69947586D01*
X113259988Y-69947585D01*
X113259991Y-69947585D01*
X113362765Y-69902206D01*
X113442206Y-69822765D01*
X113487585Y-69719991D01*
X113490500Y-69694865D01*
X113490499Y-68790744D01*
X113490499Y-68077155D01*
X115125000Y-68077155D01*
X115125000Y-68725000D01*
X116041988Y-68725000D01*
X116009075Y-68782007D01*
X115975000Y-68909174D01*
X115975000Y-69040826D01*
X116009075Y-69167993D01*
X116041988Y-69225000D01*
X115125000Y-69225000D01*
X115125000Y-69872844D01*
X115131401Y-69932372D01*
X115131403Y-69932379D01*
X115181645Y-70067086D01*
X115181649Y-70067093D01*
X115267809Y-70182187D01*
X115267812Y-70182190D01*
X115382906Y-70268350D01*
X115382913Y-70268354D01*
X115517620Y-70318596D01*
X115517627Y-70318598D01*
X115577155Y-70324999D01*
X115577172Y-70325000D01*
X116225000Y-70325000D01*
X116225000Y-69408012D01*
X116282007Y-69440925D01*
X116409174Y-69475000D01*
X116540826Y-69475000D01*
X116667993Y-69440925D01*
X116725000Y-69408012D01*
X116725000Y-70325000D01*
X117372828Y-70325000D01*
X117372844Y-70324999D01*
X117432372Y-70318598D01*
X117432379Y-70318596D01*
X117567086Y-70268354D01*
X117567093Y-70268350D01*
X117682187Y-70182190D01*
X117682190Y-70182187D01*
X117768350Y-70067093D01*
X117768354Y-70067086D01*
X117818596Y-69932379D01*
X117818598Y-69932372D01*
X117824999Y-69872844D01*
X117825000Y-69872827D01*
X117825000Y-69676087D01*
X117844685Y-69609048D01*
X117897489Y-69563293D01*
X117966647Y-69553349D01*
X118030203Y-69582374D01*
X118049318Y-69603202D01*
X118137441Y-69724495D01*
X118265500Y-69852554D01*
X118265505Y-69852558D01*
X118361319Y-69922170D01*
X118412006Y-69958996D01*
X118476723Y-69991971D01*
X118573360Y-70041211D01*
X118573363Y-70041212D01*
X118652997Y-70067086D01*
X118745591Y-70097171D01*
X118828429Y-70110291D01*
X118924449Y-70125500D01*
X118924454Y-70125500D01*
X119105551Y-70125500D01*
X119192259Y-70111765D01*
X119284409Y-70097171D01*
X119456639Y-70041211D01*
X119617994Y-69958996D01*
X119764501Y-69852553D01*
X119892553Y-69724501D01*
X119998996Y-69577994D01*
X120081211Y-69416639D01*
X120137171Y-69244409D01*
X120151422Y-69154425D01*
X120162527Y-69084321D01*
X120192456Y-69021186D01*
X120251768Y-68984255D01*
X120321630Y-68985253D01*
X120379863Y-69023863D01*
X120407473Y-69084321D01*
X120432829Y-69244410D01*
X120488787Y-69416636D01*
X120488788Y-69416639D01*
X120519799Y-69477500D01*
X120563513Y-69563293D01*
X120571006Y-69577997D01*
X120677441Y-69724494D01*
X120677445Y-69724499D01*
X120805500Y-69852554D01*
X120805505Y-69852558D01*
X120901319Y-69922170D01*
X120952006Y-69958996D01*
X121016723Y-69991971D01*
X121113360Y-70041211D01*
X121113363Y-70041212D01*
X121192997Y-70067086D01*
X121285591Y-70097171D01*
X121368429Y-70110291D01*
X121464449Y-70125500D01*
X121464454Y-70125500D01*
X121645551Y-70125500D01*
X121732259Y-70111765D01*
X121824409Y-70097171D01*
X121996639Y-70041211D01*
X122157994Y-69958996D01*
X122304501Y-69852553D01*
X122432553Y-69724501D01*
X122538996Y-69577994D01*
X122621211Y-69416639D01*
X122677171Y-69244409D01*
X122691765Y-69152259D01*
X122705500Y-69065551D01*
X122705500Y-68897648D01*
X125699500Y-68897648D01*
X125699500Y-69102351D01*
X125731522Y-69304534D01*
X125794781Y-69499223D01*
X125847762Y-69603202D01*
X125885648Y-69677558D01*
X125887715Y-69681613D01*
X126008028Y-69847213D01*
X126152786Y-69991971D01*
X126256185Y-70067093D01*
X126318390Y-70112287D01*
X126434607Y-70171503D01*
X126500776Y-70205218D01*
X126500778Y-70205218D01*
X126500781Y-70205220D01*
X126605137Y-70239127D01*
X126695465Y-70268477D01*
X126796557Y-70284488D01*
X126897648Y-70300500D01*
X126897649Y-70300500D01*
X127102351Y-70300500D01*
X127102352Y-70300500D01*
X127304534Y-70268477D01*
X127499219Y-70205220D01*
X127681610Y-70112287D01*
X127779439Y-70041211D01*
X127847213Y-69991971D01*
X127847215Y-69991968D01*
X127847219Y-69991966D01*
X127991966Y-69847219D01*
X127991968Y-69847215D01*
X127991971Y-69847213D01*
X128081125Y-69724501D01*
X128112287Y-69681610D01*
X128205220Y-69499219D01*
X128268477Y-69304534D01*
X128300500Y-69102352D01*
X128300500Y-68897648D01*
X128290481Y-68834390D01*
X128268477Y-68695465D01*
X128229303Y-68574901D01*
X128205220Y-68500781D01*
X128205218Y-68500778D01*
X128205218Y-68500776D01*
X128151547Y-68395442D01*
X128112287Y-68318390D01*
X128044803Y-68225505D01*
X127991971Y-68152786D01*
X127847219Y-68008034D01*
X127838739Y-68001873D01*
X127838737Y-68001870D01*
X127705585Y-67905131D01*
X131489500Y-67905131D01*
X131489500Y-69694856D01*
X131489502Y-69694882D01*
X131492413Y-69719987D01*
X131492415Y-69719991D01*
X131537793Y-69822764D01*
X131537794Y-69822765D01*
X131617235Y-69902206D01*
X131720009Y-69947585D01*
X131745135Y-69950500D01*
X133534864Y-69950499D01*
X133534879Y-69950497D01*
X133534882Y-69950497D01*
X133559987Y-69947586D01*
X133559988Y-69947585D01*
X133559991Y-69947585D01*
X133662765Y-69902206D01*
X133742206Y-69822765D01*
X133787585Y-69719991D01*
X133790500Y-69694865D01*
X133790499Y-68957125D01*
X133810183Y-68890089D01*
X133862987Y-68844334D01*
X133932146Y-68834390D01*
X133995702Y-68863415D01*
X134033476Y-68922193D01*
X134036972Y-68937729D01*
X134057829Y-69069410D01*
X134113787Y-69241636D01*
X134113788Y-69241639D01*
X134196006Y-69402997D01*
X134302441Y-69549494D01*
X134302445Y-69549499D01*
X134430500Y-69677554D01*
X134430505Y-69677558D01*
X134558287Y-69770396D01*
X134577006Y-69783996D01*
X134653094Y-69822765D01*
X134738360Y-69866211D01*
X134738363Y-69866212D01*
X134824476Y-69894191D01*
X134910591Y-69922171D01*
X134993429Y-69935291D01*
X135089449Y-69950500D01*
X135089454Y-69950500D01*
X135270551Y-69950500D01*
X135357259Y-69936765D01*
X135449409Y-69922171D01*
X135621639Y-69866211D01*
X135782994Y-69783996D01*
X135929501Y-69677553D01*
X136057553Y-69549501D01*
X136163996Y-69402994D01*
X136246211Y-69241639D01*
X136302171Y-69069409D01*
X136318748Y-68964746D01*
X136327527Y-68909321D01*
X136357456Y-68846186D01*
X136416768Y-68809255D01*
X136486630Y-68810253D01*
X136544863Y-68848863D01*
X136572473Y-68909321D01*
X136597829Y-69069410D01*
X136653787Y-69241636D01*
X136653788Y-69241639D01*
X136736006Y-69402997D01*
X136842441Y-69549494D01*
X136842445Y-69549499D01*
X136970500Y-69677554D01*
X136970505Y-69677558D01*
X137098287Y-69770396D01*
X137117006Y-69783996D01*
X137193094Y-69822765D01*
X137278360Y-69866211D01*
X137278363Y-69866212D01*
X137364476Y-69894191D01*
X137450591Y-69922171D01*
X137533429Y-69935291D01*
X137629449Y-69950500D01*
X137629454Y-69950500D01*
X137810551Y-69950500D01*
X137897259Y-69936765D01*
X137989409Y-69922171D01*
X138161639Y-69866211D01*
X138322994Y-69783996D01*
X138469501Y-69677553D01*
X138597553Y-69549501D01*
X138703996Y-69402994D01*
X138786211Y-69241639D01*
X138842171Y-69069409D01*
X138858748Y-68964746D01*
X138867527Y-68909321D01*
X138897456Y-68846186D01*
X138956768Y-68809255D01*
X139026630Y-68810253D01*
X139084863Y-68848863D01*
X139112473Y-68909321D01*
X139137829Y-69069410D01*
X139193787Y-69241636D01*
X139193788Y-69241639D01*
X139276006Y-69402997D01*
X139382441Y-69549494D01*
X139382445Y-69549499D01*
X139510500Y-69677554D01*
X139510505Y-69677558D01*
X139638287Y-69770396D01*
X139657006Y-69783996D01*
X139733094Y-69822765D01*
X139818360Y-69866211D01*
X139818363Y-69866212D01*
X139904476Y-69894191D01*
X139990591Y-69922171D01*
X140073429Y-69935291D01*
X140169449Y-69950500D01*
X140169454Y-69950500D01*
X140350551Y-69950500D01*
X140437259Y-69936765D01*
X140529409Y-69922171D01*
X140701639Y-69866211D01*
X140862994Y-69783996D01*
X141009501Y-69677553D01*
X141137553Y-69549501D01*
X141243996Y-69402994D01*
X141326211Y-69241639D01*
X141382171Y-69069409D01*
X141398748Y-68964746D01*
X141407527Y-68909321D01*
X141437456Y-68846186D01*
X141496768Y-68809255D01*
X141566630Y-68810253D01*
X141624863Y-68848863D01*
X141652473Y-68909321D01*
X141677829Y-69069410D01*
X141733787Y-69241636D01*
X141733788Y-69241639D01*
X141816006Y-69402997D01*
X141922441Y-69549494D01*
X141922445Y-69549499D01*
X142050500Y-69677554D01*
X142050505Y-69677558D01*
X142178287Y-69770396D01*
X142197006Y-69783996D01*
X142273094Y-69822765D01*
X142358360Y-69866211D01*
X142358363Y-69866212D01*
X142444476Y-69894191D01*
X142530591Y-69922171D01*
X142613429Y-69935291D01*
X142709449Y-69950500D01*
X142709454Y-69950500D01*
X142890551Y-69950500D01*
X142977259Y-69936765D01*
X143069409Y-69922171D01*
X143241639Y-69866211D01*
X143402994Y-69783996D01*
X143549501Y-69677553D01*
X143677553Y-69549501D01*
X143783996Y-69402994D01*
X143866211Y-69241639D01*
X143922171Y-69069409D01*
X143938748Y-68964746D01*
X143947527Y-68909321D01*
X143977456Y-68846186D01*
X144036768Y-68809255D01*
X144106630Y-68810253D01*
X144164863Y-68848863D01*
X144192473Y-68909321D01*
X144217829Y-69069410D01*
X144273787Y-69241636D01*
X144273788Y-69241639D01*
X144356006Y-69402997D01*
X144462441Y-69549494D01*
X144462445Y-69549499D01*
X144590500Y-69677554D01*
X144590505Y-69677558D01*
X144718287Y-69770396D01*
X144737006Y-69783996D01*
X144813094Y-69822765D01*
X144898360Y-69866211D01*
X144898363Y-69866212D01*
X144984476Y-69894191D01*
X145070591Y-69922171D01*
X145153429Y-69935291D01*
X145249449Y-69950500D01*
X145249454Y-69950500D01*
X145430551Y-69950500D01*
X145517259Y-69936765D01*
X145609409Y-69922171D01*
X145781639Y-69866211D01*
X145942994Y-69783996D01*
X146089501Y-69677553D01*
X146217553Y-69549501D01*
X146323996Y-69402994D01*
X146406211Y-69241639D01*
X146462171Y-69069409D01*
X146478748Y-68964746D01*
X146487527Y-68909321D01*
X146517456Y-68846186D01*
X146576768Y-68809255D01*
X146646630Y-68810253D01*
X146704863Y-68848863D01*
X146732473Y-68909321D01*
X146757829Y-69069410D01*
X146813787Y-69241636D01*
X146813788Y-69241639D01*
X146896006Y-69402997D01*
X147002441Y-69549494D01*
X147002445Y-69549499D01*
X147130500Y-69677554D01*
X147130505Y-69677558D01*
X147258287Y-69770396D01*
X147277006Y-69783996D01*
X147353094Y-69822765D01*
X147438360Y-69866211D01*
X147438363Y-69866212D01*
X147524476Y-69894191D01*
X147610591Y-69922171D01*
X147693429Y-69935291D01*
X147789449Y-69950500D01*
X147789454Y-69950500D01*
X147970551Y-69950500D01*
X148057259Y-69936765D01*
X148149409Y-69922171D01*
X148321639Y-69866211D01*
X148482994Y-69783996D01*
X148629501Y-69677553D01*
X148757553Y-69549501D01*
X148863996Y-69402994D01*
X148946211Y-69241639D01*
X149002171Y-69069409D01*
X149018748Y-68964746D01*
X149027527Y-68909321D01*
X149057456Y-68846186D01*
X149116768Y-68809255D01*
X149186630Y-68810253D01*
X149244863Y-68848863D01*
X149272473Y-68909321D01*
X149297829Y-69069410D01*
X149353787Y-69241636D01*
X149353788Y-69241639D01*
X149436006Y-69402997D01*
X149542441Y-69549494D01*
X149542445Y-69549499D01*
X149670500Y-69677554D01*
X149670505Y-69677558D01*
X149798287Y-69770396D01*
X149817006Y-69783996D01*
X149893094Y-69822765D01*
X149978360Y-69866211D01*
X149978363Y-69866212D01*
X150064476Y-69894191D01*
X150150591Y-69922171D01*
X150233429Y-69935291D01*
X150329449Y-69950500D01*
X150329454Y-69950500D01*
X150510551Y-69950500D01*
X150597259Y-69936765D01*
X150689409Y-69922171D01*
X150861639Y-69866211D01*
X151022994Y-69783996D01*
X151169501Y-69677553D01*
X151297553Y-69549501D01*
X151403996Y-69402994D01*
X151486211Y-69241639D01*
X151542171Y-69069409D01*
X151558748Y-68964746D01*
X151570500Y-68890551D01*
X151570500Y-68709448D01*
X151549189Y-68574901D01*
X151542171Y-68530591D01*
X151499708Y-68399901D01*
X151486212Y-68358363D01*
X151486211Y-68358360D01*
X151443182Y-68273912D01*
X151403996Y-68197006D01*
X151376861Y-68159658D01*
X151297558Y-68050505D01*
X151297554Y-68050500D01*
X151169499Y-67922445D01*
X151169494Y-67922441D01*
X151145669Y-67905131D01*
X153229500Y-67905131D01*
X153229500Y-69694856D01*
X153229502Y-69694882D01*
X153232413Y-69719987D01*
X153232415Y-69719991D01*
X153277793Y-69822764D01*
X153277794Y-69822765D01*
X153357235Y-69902206D01*
X153460009Y-69947585D01*
X153485135Y-69950500D01*
X155274864Y-69950499D01*
X155274879Y-69950497D01*
X155274882Y-69950497D01*
X155299987Y-69947586D01*
X155299988Y-69947585D01*
X155299991Y-69947585D01*
X155402765Y-69902206D01*
X155482206Y-69822765D01*
X155527585Y-69719991D01*
X155530500Y-69694865D01*
X155530499Y-68957125D01*
X155550183Y-68890089D01*
X155602987Y-68844334D01*
X155672146Y-68834390D01*
X155735702Y-68863415D01*
X155773476Y-68922193D01*
X155776972Y-68937729D01*
X155797829Y-69069410D01*
X155853787Y-69241636D01*
X155853788Y-69241639D01*
X155936006Y-69402997D01*
X156042441Y-69549494D01*
X156042445Y-69549499D01*
X156170500Y-69677554D01*
X156170505Y-69677558D01*
X156298287Y-69770396D01*
X156317006Y-69783996D01*
X156393094Y-69822765D01*
X156478360Y-69866211D01*
X156478363Y-69866212D01*
X156564476Y-69894191D01*
X156650591Y-69922171D01*
X156733429Y-69935291D01*
X156829449Y-69950500D01*
X156829454Y-69950500D01*
X157010551Y-69950500D01*
X157097259Y-69936765D01*
X157189409Y-69922171D01*
X157361639Y-69866211D01*
X157522994Y-69783996D01*
X157669501Y-69677553D01*
X157797553Y-69549501D01*
X157903996Y-69402994D01*
X157986211Y-69241639D01*
X158042171Y-69069409D01*
X158058748Y-68964746D01*
X158067527Y-68909321D01*
X158097456Y-68846186D01*
X158156768Y-68809255D01*
X158226630Y-68810253D01*
X158284863Y-68848863D01*
X158312473Y-68909321D01*
X158337829Y-69069410D01*
X158393787Y-69241636D01*
X158393788Y-69241639D01*
X158476006Y-69402997D01*
X158582441Y-69549494D01*
X158582445Y-69549499D01*
X158710500Y-69677554D01*
X158710505Y-69677558D01*
X158838287Y-69770396D01*
X158857006Y-69783996D01*
X158933094Y-69822765D01*
X159018360Y-69866211D01*
X159018363Y-69866212D01*
X159104476Y-69894191D01*
X159190591Y-69922171D01*
X159273429Y-69935291D01*
X159369449Y-69950500D01*
X159369454Y-69950500D01*
X159550551Y-69950500D01*
X159637259Y-69936765D01*
X159729409Y-69922171D01*
X159901639Y-69866211D01*
X160062994Y-69783996D01*
X160209501Y-69677553D01*
X160337553Y-69549501D01*
X160443996Y-69402994D01*
X160526211Y-69241639D01*
X160582171Y-69069409D01*
X160598748Y-68964746D01*
X160607527Y-68909321D01*
X160637456Y-68846186D01*
X160696768Y-68809255D01*
X160766630Y-68810253D01*
X160824863Y-68848863D01*
X160852473Y-68909321D01*
X160877829Y-69069410D01*
X160933787Y-69241636D01*
X160933788Y-69241639D01*
X161016006Y-69402997D01*
X161122441Y-69549494D01*
X161122445Y-69549499D01*
X161250500Y-69677554D01*
X161250505Y-69677558D01*
X161378287Y-69770396D01*
X161397006Y-69783996D01*
X161473094Y-69822765D01*
X161558360Y-69866211D01*
X161558363Y-69866212D01*
X161644476Y-69894191D01*
X161730591Y-69922171D01*
X161813429Y-69935291D01*
X161909449Y-69950500D01*
X161909454Y-69950500D01*
X162090551Y-69950500D01*
X162177259Y-69936765D01*
X162269409Y-69922171D01*
X162441639Y-69866211D01*
X162602994Y-69783996D01*
X162749501Y-69677553D01*
X162877553Y-69549501D01*
X162983996Y-69402994D01*
X163066211Y-69241639D01*
X163122171Y-69069409D01*
X163138748Y-68964746D01*
X163147527Y-68909321D01*
X163177456Y-68846186D01*
X163236768Y-68809255D01*
X163306630Y-68810253D01*
X163364863Y-68848863D01*
X163392473Y-68909321D01*
X163417829Y-69069410D01*
X163473787Y-69241636D01*
X163473788Y-69241639D01*
X163556006Y-69402997D01*
X163662441Y-69549494D01*
X163662445Y-69549499D01*
X163790500Y-69677554D01*
X163790505Y-69677558D01*
X163918287Y-69770396D01*
X163937006Y-69783996D01*
X164013094Y-69822765D01*
X164098360Y-69866211D01*
X164098363Y-69866212D01*
X164184476Y-69894191D01*
X164270591Y-69922171D01*
X164353429Y-69935291D01*
X164449449Y-69950500D01*
X164449454Y-69950500D01*
X164630551Y-69950500D01*
X164717259Y-69936765D01*
X164809409Y-69922171D01*
X164981639Y-69866211D01*
X165142994Y-69783996D01*
X165289501Y-69677553D01*
X165417553Y-69549501D01*
X165523996Y-69402994D01*
X165606211Y-69241639D01*
X165662171Y-69069409D01*
X165678748Y-68964746D01*
X165687527Y-68909321D01*
X165717456Y-68846186D01*
X165776768Y-68809255D01*
X165846630Y-68810253D01*
X165904863Y-68848863D01*
X165932473Y-68909321D01*
X165957829Y-69069410D01*
X166013787Y-69241636D01*
X166013788Y-69241639D01*
X166096006Y-69402997D01*
X166202441Y-69549494D01*
X166202445Y-69549499D01*
X166330500Y-69677554D01*
X166330505Y-69677558D01*
X166458287Y-69770396D01*
X166477006Y-69783996D01*
X166553094Y-69822765D01*
X166638360Y-69866211D01*
X166638363Y-69866212D01*
X166724476Y-69894191D01*
X166810591Y-69922171D01*
X166893429Y-69935291D01*
X166989449Y-69950500D01*
X166989454Y-69950500D01*
X167170551Y-69950500D01*
X167257259Y-69936765D01*
X167349409Y-69922171D01*
X167521639Y-69866211D01*
X167682994Y-69783996D01*
X167829501Y-69677553D01*
X167957553Y-69549501D01*
X168063996Y-69402994D01*
X168146211Y-69241639D01*
X168202171Y-69069409D01*
X168218748Y-68964746D01*
X168227527Y-68909321D01*
X168257456Y-68846186D01*
X168316768Y-68809255D01*
X168386630Y-68810253D01*
X168444863Y-68848863D01*
X168472473Y-68909321D01*
X168497829Y-69069410D01*
X168553787Y-69241636D01*
X168553788Y-69241639D01*
X168636006Y-69402997D01*
X168742441Y-69549494D01*
X168742445Y-69549499D01*
X168870500Y-69677554D01*
X168870505Y-69677558D01*
X168998287Y-69770396D01*
X169017006Y-69783996D01*
X169093094Y-69822765D01*
X169178360Y-69866211D01*
X169178363Y-69866212D01*
X169264476Y-69894191D01*
X169350591Y-69922171D01*
X169433429Y-69935291D01*
X169529449Y-69950500D01*
X169529454Y-69950500D01*
X169710551Y-69950500D01*
X169797259Y-69936765D01*
X169889409Y-69922171D01*
X170061639Y-69866211D01*
X170222994Y-69783996D01*
X170369501Y-69677553D01*
X170497553Y-69549501D01*
X170603996Y-69402994D01*
X170686211Y-69241639D01*
X170742171Y-69069409D01*
X170758748Y-68964746D01*
X170767527Y-68909321D01*
X170797456Y-68846186D01*
X170856768Y-68809255D01*
X170926630Y-68810253D01*
X170984863Y-68848863D01*
X171012473Y-68909321D01*
X171037829Y-69069410D01*
X171093787Y-69241636D01*
X171093788Y-69241639D01*
X171176006Y-69402997D01*
X171282441Y-69549494D01*
X171282445Y-69549499D01*
X171410500Y-69677554D01*
X171410505Y-69677558D01*
X171538287Y-69770396D01*
X171557006Y-69783996D01*
X171633094Y-69822765D01*
X171718360Y-69866211D01*
X171718363Y-69866212D01*
X171804476Y-69894191D01*
X171890591Y-69922171D01*
X171973429Y-69935291D01*
X172069449Y-69950500D01*
X172069454Y-69950500D01*
X172250551Y-69950500D01*
X172337259Y-69936765D01*
X172429409Y-69922171D01*
X172601639Y-69866211D01*
X172762994Y-69783996D01*
X172909501Y-69677553D01*
X173037553Y-69549501D01*
X173143996Y-69402994D01*
X173226211Y-69241639D01*
X173282171Y-69069409D01*
X173298748Y-68964746D01*
X173310500Y-68890551D01*
X173310500Y-68709448D01*
X173289189Y-68574901D01*
X173282171Y-68530591D01*
X173239708Y-68399901D01*
X173226212Y-68358363D01*
X173226211Y-68358360D01*
X173183182Y-68273912D01*
X173143996Y-68197006D01*
X173116861Y-68159658D01*
X173037558Y-68050505D01*
X173037554Y-68050500D01*
X172909499Y-67922445D01*
X172909494Y-67922441D01*
X172762997Y-67816006D01*
X172762996Y-67816005D01*
X172762994Y-67816004D01*
X172686906Y-67777235D01*
X172601639Y-67733788D01*
X172601636Y-67733787D01*
X172429410Y-67677829D01*
X172250551Y-67649500D01*
X172250546Y-67649500D01*
X172069454Y-67649500D01*
X172069449Y-67649500D01*
X171890589Y-67677829D01*
X171718363Y-67733787D01*
X171718360Y-67733788D01*
X171557002Y-67816006D01*
X171410505Y-67922441D01*
X171410500Y-67922445D01*
X171282445Y-68050500D01*
X171282441Y-68050505D01*
X171176006Y-68197002D01*
X171093788Y-68358360D01*
X171093787Y-68358363D01*
X171037829Y-68530589D01*
X171012473Y-68690678D01*
X170982544Y-68753813D01*
X170923232Y-68790744D01*
X170853369Y-68789746D01*
X170795137Y-68751136D01*
X170767527Y-68690678D01*
X170749189Y-68574901D01*
X170742171Y-68530591D01*
X170699708Y-68399901D01*
X170686212Y-68358363D01*
X170686211Y-68358360D01*
X170643182Y-68273912D01*
X170603996Y-68197006D01*
X170576861Y-68159658D01*
X170497558Y-68050505D01*
X170497554Y-68050500D01*
X170369499Y-67922445D01*
X170369494Y-67922441D01*
X170222997Y-67816006D01*
X170222996Y-67816005D01*
X170222994Y-67816004D01*
X170146906Y-67777235D01*
X170061639Y-67733788D01*
X170061636Y-67733787D01*
X169889410Y-67677829D01*
X169710551Y-67649500D01*
X169710546Y-67649500D01*
X169529454Y-67649500D01*
X169529449Y-67649500D01*
X169350589Y-67677829D01*
X169178363Y-67733787D01*
X169178360Y-67733788D01*
X169017002Y-67816006D01*
X168870505Y-67922441D01*
X168870500Y-67922445D01*
X168742445Y-68050500D01*
X168742441Y-68050505D01*
X168636006Y-68197002D01*
X168553788Y-68358360D01*
X168553787Y-68358363D01*
X168497829Y-68530589D01*
X168472473Y-68690678D01*
X168442544Y-68753813D01*
X168383232Y-68790744D01*
X168313369Y-68789746D01*
X168255137Y-68751136D01*
X168227527Y-68690678D01*
X168209189Y-68574901D01*
X168202171Y-68530591D01*
X168159708Y-68399901D01*
X168146212Y-68358363D01*
X168146211Y-68358360D01*
X168103182Y-68273912D01*
X168063996Y-68197006D01*
X168036861Y-68159658D01*
X167957558Y-68050505D01*
X167957554Y-68050500D01*
X167829499Y-67922445D01*
X167829494Y-67922441D01*
X167682997Y-67816006D01*
X167682996Y-67816005D01*
X167682994Y-67816004D01*
X167606906Y-67777235D01*
X167521639Y-67733788D01*
X167521636Y-67733787D01*
X167349410Y-67677829D01*
X167170551Y-67649500D01*
X167170546Y-67649500D01*
X166989454Y-67649500D01*
X166989449Y-67649500D01*
X166810589Y-67677829D01*
X166638363Y-67733787D01*
X166638360Y-67733788D01*
X166477002Y-67816006D01*
X166330505Y-67922441D01*
X166330500Y-67922445D01*
X166202445Y-68050500D01*
X166202441Y-68050505D01*
X166096006Y-68197002D01*
X166013788Y-68358360D01*
X166013787Y-68358363D01*
X165957829Y-68530589D01*
X165932473Y-68690678D01*
X165902544Y-68753813D01*
X165843232Y-68790744D01*
X165773369Y-68789746D01*
X165715137Y-68751136D01*
X165687527Y-68690678D01*
X165669189Y-68574901D01*
X165662171Y-68530591D01*
X165619708Y-68399901D01*
X165606212Y-68358363D01*
X165606211Y-68358360D01*
X165563182Y-68273912D01*
X165523996Y-68197006D01*
X165496861Y-68159658D01*
X165417558Y-68050505D01*
X165417554Y-68050500D01*
X165289499Y-67922445D01*
X165289494Y-67922441D01*
X165142997Y-67816006D01*
X165142996Y-67816005D01*
X165142994Y-67816004D01*
X165066906Y-67777235D01*
X164981639Y-67733788D01*
X164981636Y-67733787D01*
X164809410Y-67677829D01*
X164630551Y-67649500D01*
X164630546Y-67649500D01*
X164449454Y-67649500D01*
X164449449Y-67649500D01*
X164270589Y-67677829D01*
X164098363Y-67733787D01*
X164098360Y-67733788D01*
X163937002Y-67816006D01*
X163790505Y-67922441D01*
X163790500Y-67922445D01*
X163662445Y-68050500D01*
X163662441Y-68050505D01*
X163556006Y-68197002D01*
X163473788Y-68358360D01*
X163473787Y-68358363D01*
X163417829Y-68530589D01*
X163392473Y-68690678D01*
X163362544Y-68753813D01*
X163303232Y-68790744D01*
X163233369Y-68789746D01*
X163175137Y-68751136D01*
X163147527Y-68690678D01*
X163129189Y-68574901D01*
X163122171Y-68530591D01*
X163079708Y-68399901D01*
X163066212Y-68358363D01*
X163066211Y-68358360D01*
X163023182Y-68273912D01*
X162983996Y-68197006D01*
X162956861Y-68159658D01*
X162877558Y-68050505D01*
X162877554Y-68050500D01*
X162749499Y-67922445D01*
X162749494Y-67922441D01*
X162602997Y-67816006D01*
X162602996Y-67816005D01*
X162602994Y-67816004D01*
X162526906Y-67777235D01*
X162441639Y-67733788D01*
X162441636Y-67733787D01*
X162269410Y-67677829D01*
X162090551Y-67649500D01*
X162090546Y-67649500D01*
X161909454Y-67649500D01*
X161909449Y-67649500D01*
X161730589Y-67677829D01*
X161558363Y-67733787D01*
X161558360Y-67733788D01*
X161397002Y-67816006D01*
X161250505Y-67922441D01*
X161250500Y-67922445D01*
X161122445Y-68050500D01*
X161122441Y-68050505D01*
X161016006Y-68197002D01*
X160933788Y-68358360D01*
X160933787Y-68358363D01*
X160877829Y-68530589D01*
X160852473Y-68690678D01*
X160822544Y-68753813D01*
X160763232Y-68790744D01*
X160693369Y-68789746D01*
X160635137Y-68751136D01*
X160607527Y-68690678D01*
X160589189Y-68574901D01*
X160582171Y-68530591D01*
X160539708Y-68399901D01*
X160526212Y-68358363D01*
X160526211Y-68358360D01*
X160483182Y-68273912D01*
X160443996Y-68197006D01*
X160416861Y-68159658D01*
X160337558Y-68050505D01*
X160337554Y-68050500D01*
X160209499Y-67922445D01*
X160209494Y-67922441D01*
X160062997Y-67816006D01*
X160062996Y-67816005D01*
X160062994Y-67816004D01*
X159986906Y-67777235D01*
X159901639Y-67733788D01*
X159901636Y-67733787D01*
X159729410Y-67677829D01*
X159550551Y-67649500D01*
X159550546Y-67649500D01*
X159369454Y-67649500D01*
X159369449Y-67649500D01*
X159190589Y-67677829D01*
X159018363Y-67733787D01*
X159018360Y-67733788D01*
X158857002Y-67816006D01*
X158710505Y-67922441D01*
X158710500Y-67922445D01*
X158582445Y-68050500D01*
X158582441Y-68050505D01*
X158476006Y-68197002D01*
X158393788Y-68358360D01*
X158393787Y-68358363D01*
X158337829Y-68530589D01*
X158312473Y-68690678D01*
X158282544Y-68753813D01*
X158223232Y-68790744D01*
X158153369Y-68789746D01*
X158095137Y-68751136D01*
X158067527Y-68690678D01*
X158049189Y-68574901D01*
X158042171Y-68530591D01*
X157999708Y-68399901D01*
X157986212Y-68358363D01*
X157986211Y-68358360D01*
X157943182Y-68273912D01*
X157903996Y-68197006D01*
X157876861Y-68159658D01*
X157797558Y-68050505D01*
X157797554Y-68050500D01*
X157669499Y-67922445D01*
X157669494Y-67922441D01*
X157522997Y-67816006D01*
X157522996Y-67816005D01*
X157522994Y-67816004D01*
X157446906Y-67777235D01*
X157361639Y-67733788D01*
X157361636Y-67733787D01*
X157189410Y-67677829D01*
X157010551Y-67649500D01*
X157010546Y-67649500D01*
X156829454Y-67649500D01*
X156829449Y-67649500D01*
X156650589Y-67677829D01*
X156478363Y-67733787D01*
X156478360Y-67733788D01*
X156317002Y-67816006D01*
X156170505Y-67922441D01*
X156170500Y-67922445D01*
X156042445Y-68050500D01*
X156042441Y-68050505D01*
X155936006Y-68197002D01*
X155853788Y-68358360D01*
X155853787Y-68358363D01*
X155797829Y-68530589D01*
X155776972Y-68662271D01*
X155747042Y-68725405D01*
X155687731Y-68762336D01*
X155617868Y-68761338D01*
X155559636Y-68722728D01*
X155531522Y-68658764D01*
X155530499Y-68642872D01*
X155530499Y-67905143D01*
X155530499Y-67905136D01*
X155528479Y-67887715D01*
X155527586Y-67880012D01*
X155527585Y-67880010D01*
X155527585Y-67880009D01*
X155482206Y-67777235D01*
X155402765Y-67697794D01*
X155366191Y-67681645D01*
X155299992Y-67652415D01*
X155274865Y-67649500D01*
X153485143Y-67649500D01*
X153485117Y-67649502D01*
X153460012Y-67652413D01*
X153460008Y-67652415D01*
X153357235Y-67697793D01*
X153277794Y-67777234D01*
X153232415Y-67880006D01*
X153232415Y-67880008D01*
X153229500Y-67905131D01*
X151145669Y-67905131D01*
X151022997Y-67816006D01*
X151022996Y-67816005D01*
X151022994Y-67816004D01*
X150946906Y-67777235D01*
X150861639Y-67733788D01*
X150861636Y-67733787D01*
X150689410Y-67677829D01*
X150510551Y-67649500D01*
X150510546Y-67649500D01*
X150329454Y-67649500D01*
X150329449Y-67649500D01*
X150150589Y-67677829D01*
X149978363Y-67733787D01*
X149978360Y-67733788D01*
X149817002Y-67816006D01*
X149670505Y-67922441D01*
X149670500Y-67922445D01*
X149542445Y-68050500D01*
X149542441Y-68050505D01*
X149436006Y-68197002D01*
X149353788Y-68358360D01*
X149353787Y-68358363D01*
X149297829Y-68530589D01*
X149272473Y-68690678D01*
X149242544Y-68753813D01*
X149183232Y-68790744D01*
X149113369Y-68789746D01*
X149055137Y-68751136D01*
X149027527Y-68690678D01*
X149009189Y-68574901D01*
X149002171Y-68530591D01*
X148959708Y-68399901D01*
X148946212Y-68358363D01*
X148946211Y-68358360D01*
X148903182Y-68273912D01*
X148863996Y-68197006D01*
X148836861Y-68159658D01*
X148757558Y-68050505D01*
X148757554Y-68050500D01*
X148629499Y-67922445D01*
X148629494Y-67922441D01*
X148482997Y-67816006D01*
X148482996Y-67816005D01*
X148482994Y-67816004D01*
X148406906Y-67777235D01*
X148321639Y-67733788D01*
X148321636Y-67733787D01*
X148149410Y-67677829D01*
X147970551Y-67649500D01*
X147970546Y-67649500D01*
X147789454Y-67649500D01*
X147789449Y-67649500D01*
X147610589Y-67677829D01*
X147438363Y-67733787D01*
X147438360Y-67733788D01*
X147277002Y-67816006D01*
X147130505Y-67922441D01*
X147130500Y-67922445D01*
X147002445Y-68050500D01*
X147002441Y-68050505D01*
X146896006Y-68197002D01*
X146813788Y-68358360D01*
X146813787Y-68358363D01*
X146757829Y-68530589D01*
X146732473Y-68690678D01*
X146702544Y-68753813D01*
X146643232Y-68790744D01*
X146573369Y-68789746D01*
X146515137Y-68751136D01*
X146487527Y-68690678D01*
X146469189Y-68574901D01*
X146462171Y-68530591D01*
X146419708Y-68399901D01*
X146406212Y-68358363D01*
X146406211Y-68358360D01*
X146363182Y-68273912D01*
X146323996Y-68197006D01*
X146296861Y-68159658D01*
X146217558Y-68050505D01*
X146217554Y-68050500D01*
X146089499Y-67922445D01*
X146089494Y-67922441D01*
X145942997Y-67816006D01*
X145942996Y-67816005D01*
X145942994Y-67816004D01*
X145866906Y-67777235D01*
X145781639Y-67733788D01*
X145781636Y-67733787D01*
X145609410Y-67677829D01*
X145430551Y-67649500D01*
X145430546Y-67649500D01*
X145249454Y-67649500D01*
X145249449Y-67649500D01*
X145070589Y-67677829D01*
X144898363Y-67733787D01*
X144898360Y-67733788D01*
X144737002Y-67816006D01*
X144590505Y-67922441D01*
X144590500Y-67922445D01*
X144462445Y-68050500D01*
X144462441Y-68050505D01*
X144356006Y-68197002D01*
X144273788Y-68358360D01*
X144273787Y-68358363D01*
X144217829Y-68530589D01*
X144192473Y-68690678D01*
X144162544Y-68753813D01*
X144103232Y-68790744D01*
X144033369Y-68789746D01*
X143975137Y-68751136D01*
X143947527Y-68690678D01*
X143929189Y-68574901D01*
X143922171Y-68530591D01*
X143879708Y-68399901D01*
X143866212Y-68358363D01*
X143866211Y-68358360D01*
X143823182Y-68273912D01*
X143783996Y-68197006D01*
X143756861Y-68159658D01*
X143677558Y-68050505D01*
X143677554Y-68050500D01*
X143549499Y-67922445D01*
X143549494Y-67922441D01*
X143402997Y-67816006D01*
X143402996Y-67816005D01*
X143402994Y-67816004D01*
X143326906Y-67777235D01*
X143241639Y-67733788D01*
X143241636Y-67733787D01*
X143069410Y-67677829D01*
X142890551Y-67649500D01*
X142890546Y-67649500D01*
X142709454Y-67649500D01*
X142709449Y-67649500D01*
X142530589Y-67677829D01*
X142358363Y-67733787D01*
X142358360Y-67733788D01*
X142197002Y-67816006D01*
X142050505Y-67922441D01*
X142050500Y-67922445D01*
X141922445Y-68050500D01*
X141922441Y-68050505D01*
X141816006Y-68197002D01*
X141733788Y-68358360D01*
X141733787Y-68358363D01*
X141677829Y-68530589D01*
X141652473Y-68690678D01*
X141622544Y-68753813D01*
X141563232Y-68790744D01*
X141493369Y-68789746D01*
X141435137Y-68751136D01*
X141407527Y-68690678D01*
X141389189Y-68574901D01*
X141382171Y-68530591D01*
X141339708Y-68399901D01*
X141326212Y-68358363D01*
X141326211Y-68358360D01*
X141283182Y-68273912D01*
X141243996Y-68197006D01*
X141216861Y-68159658D01*
X141137558Y-68050505D01*
X141137554Y-68050500D01*
X141009499Y-67922445D01*
X141009494Y-67922441D01*
X140862997Y-67816006D01*
X140862996Y-67816005D01*
X140862994Y-67816004D01*
X140786906Y-67777235D01*
X140701639Y-67733788D01*
X140701636Y-67733787D01*
X140529410Y-67677829D01*
X140350551Y-67649500D01*
X140350546Y-67649500D01*
X140169454Y-67649500D01*
X140169449Y-67649500D01*
X139990589Y-67677829D01*
X139818363Y-67733787D01*
X139818360Y-67733788D01*
X139657002Y-67816006D01*
X139510505Y-67922441D01*
X139510500Y-67922445D01*
X139382445Y-68050500D01*
X139382441Y-68050505D01*
X139276006Y-68197002D01*
X139193788Y-68358360D01*
X139193787Y-68358363D01*
X139137829Y-68530589D01*
X139112473Y-68690678D01*
X139082544Y-68753813D01*
X139023232Y-68790744D01*
X138953369Y-68789746D01*
X138895137Y-68751136D01*
X138867527Y-68690678D01*
X138849189Y-68574901D01*
X138842171Y-68530591D01*
X138799708Y-68399901D01*
X138786212Y-68358363D01*
X138786211Y-68358360D01*
X138743182Y-68273912D01*
X138703996Y-68197006D01*
X138676861Y-68159658D01*
X138597558Y-68050505D01*
X138597554Y-68050500D01*
X138469499Y-67922445D01*
X138469494Y-67922441D01*
X138322997Y-67816006D01*
X138322996Y-67816005D01*
X138322994Y-67816004D01*
X138246906Y-67777235D01*
X138161639Y-67733788D01*
X138161636Y-67733787D01*
X137989410Y-67677829D01*
X137810551Y-67649500D01*
X137810546Y-67649500D01*
X137629454Y-67649500D01*
X137629449Y-67649500D01*
X137450589Y-67677829D01*
X137278363Y-67733787D01*
X137278360Y-67733788D01*
X137117002Y-67816006D01*
X136970505Y-67922441D01*
X136970500Y-67922445D01*
X136842445Y-68050500D01*
X136842441Y-68050505D01*
X136736006Y-68197002D01*
X136653788Y-68358360D01*
X136653787Y-68358363D01*
X136597829Y-68530589D01*
X136572473Y-68690678D01*
X136542544Y-68753813D01*
X136483232Y-68790744D01*
X136413369Y-68789746D01*
X136355137Y-68751136D01*
X136327527Y-68690678D01*
X136309189Y-68574901D01*
X136302171Y-68530591D01*
X136259708Y-68399901D01*
X136246212Y-68358363D01*
X136246211Y-68358360D01*
X136203182Y-68273912D01*
X136163996Y-68197006D01*
X136136861Y-68159658D01*
X136057558Y-68050505D01*
X136057554Y-68050500D01*
X135929499Y-67922445D01*
X135929494Y-67922441D01*
X135782997Y-67816006D01*
X135782996Y-67816005D01*
X135782994Y-67816004D01*
X135706906Y-67777235D01*
X135621639Y-67733788D01*
X135621636Y-67733787D01*
X135449410Y-67677829D01*
X135270551Y-67649500D01*
X135270546Y-67649500D01*
X135089454Y-67649500D01*
X135089449Y-67649500D01*
X134910589Y-67677829D01*
X134738363Y-67733787D01*
X134738360Y-67733788D01*
X134577002Y-67816006D01*
X134430505Y-67922441D01*
X134430500Y-67922445D01*
X134302445Y-68050500D01*
X134302441Y-68050505D01*
X134196006Y-68197002D01*
X134113788Y-68358360D01*
X134113787Y-68358363D01*
X134057829Y-68530589D01*
X134036972Y-68662271D01*
X134007042Y-68725405D01*
X133947731Y-68762336D01*
X133877868Y-68761338D01*
X133819636Y-68722728D01*
X133791522Y-68658764D01*
X133790499Y-68642872D01*
X133790499Y-67905143D01*
X133790499Y-67905136D01*
X133788479Y-67887715D01*
X133787586Y-67880012D01*
X133787585Y-67880010D01*
X133787585Y-67880009D01*
X133742206Y-67777235D01*
X133662765Y-67697794D01*
X133626191Y-67681645D01*
X133559992Y-67652415D01*
X133534865Y-67649500D01*
X131745143Y-67649500D01*
X131745117Y-67649502D01*
X131720012Y-67652413D01*
X131720008Y-67652415D01*
X131617235Y-67697793D01*
X131537794Y-67777234D01*
X131492415Y-67880006D01*
X131492415Y-67880008D01*
X131489500Y-67905131D01*
X127705585Y-67905131D01*
X127681613Y-67887715D01*
X127681612Y-67887714D01*
X127681610Y-67887713D01*
X127624653Y-67858691D01*
X127499223Y-67794781D01*
X127304534Y-67731522D01*
X127129995Y-67703878D01*
X127102352Y-67699500D01*
X126897648Y-67699500D01*
X126873329Y-67703351D01*
X126695465Y-67731522D01*
X126500776Y-67794781D01*
X126318386Y-67887715D01*
X126152786Y-68008028D01*
X126008028Y-68152786D01*
X125887715Y-68318386D01*
X125794781Y-68500776D01*
X125731522Y-68695465D01*
X125699500Y-68897648D01*
X122705500Y-68897648D01*
X122705500Y-68884448D01*
X122686000Y-68761338D01*
X122677171Y-68705591D01*
X122621211Y-68533361D01*
X122621211Y-68533360D01*
X122553209Y-68399901D01*
X122538996Y-68372006D01*
X122494461Y-68310708D01*
X122432558Y-68225505D01*
X122432554Y-68225500D01*
X122304499Y-68097445D01*
X122304494Y-68097441D01*
X122157997Y-67991006D01*
X122157996Y-67991005D01*
X122157994Y-67991004D01*
X122106300Y-67964664D01*
X121996639Y-67908788D01*
X121996636Y-67908787D01*
X121824410Y-67852829D01*
X121645551Y-67824500D01*
X121645546Y-67824500D01*
X121464454Y-67824500D01*
X121464449Y-67824500D01*
X121285589Y-67852829D01*
X121113363Y-67908787D01*
X121113360Y-67908788D01*
X120952002Y-67991006D01*
X120805505Y-68097441D01*
X120805500Y-68097445D01*
X120677445Y-68225500D01*
X120677441Y-68225505D01*
X120571006Y-68372002D01*
X120488788Y-68533360D01*
X120488787Y-68533363D01*
X120432829Y-68705589D01*
X120407473Y-68865678D01*
X120377544Y-68928813D01*
X120318232Y-68965744D01*
X120248369Y-68964746D01*
X120190137Y-68926136D01*
X120162527Y-68865678D01*
X120146000Y-68761338D01*
X120137171Y-68705591D01*
X120081211Y-68533361D01*
X120081211Y-68533360D01*
X120013209Y-68399901D01*
X119998996Y-68372006D01*
X119954461Y-68310708D01*
X119892558Y-68225505D01*
X119892554Y-68225500D01*
X119764499Y-68097445D01*
X119764494Y-68097441D01*
X119617997Y-67991006D01*
X119617996Y-67991005D01*
X119617994Y-67991004D01*
X119566300Y-67964664D01*
X119456639Y-67908788D01*
X119456636Y-67908787D01*
X119284410Y-67852829D01*
X119105551Y-67824500D01*
X119105546Y-67824500D01*
X118924454Y-67824500D01*
X118924449Y-67824500D01*
X118745589Y-67852829D01*
X118573363Y-67908787D01*
X118573360Y-67908788D01*
X118412002Y-67991006D01*
X118265505Y-68097441D01*
X118265500Y-68097445D01*
X118137445Y-68225500D01*
X118137441Y-68225505D01*
X118049318Y-68346797D01*
X117993988Y-68389463D01*
X117924375Y-68395442D01*
X117862580Y-68362836D01*
X117828223Y-68301998D01*
X117825000Y-68273912D01*
X117825000Y-68077172D01*
X117824999Y-68077155D01*
X117818598Y-68017627D01*
X117818596Y-68017620D01*
X117768354Y-67882913D01*
X117768350Y-67882906D01*
X117682190Y-67767812D01*
X117682187Y-67767809D01*
X117567093Y-67681649D01*
X117567086Y-67681645D01*
X117432379Y-67631403D01*
X117432372Y-67631401D01*
X117372844Y-67625000D01*
X116725000Y-67625000D01*
X116725000Y-68541988D01*
X116667993Y-68509075D01*
X116540826Y-68475000D01*
X116409174Y-68475000D01*
X116282007Y-68509075D01*
X116225000Y-68541988D01*
X116225000Y-67625000D01*
X115577155Y-67625000D01*
X115517627Y-67631401D01*
X115517620Y-67631403D01*
X115382913Y-67681645D01*
X115382906Y-67681649D01*
X115267812Y-67767809D01*
X115267809Y-67767812D01*
X115181649Y-67882906D01*
X115181645Y-67882913D01*
X115131403Y-68017620D01*
X115131401Y-68017627D01*
X115125000Y-68077155D01*
X113490499Y-68077155D01*
X113490499Y-68073851D01*
X113490499Y-67905143D01*
X113490499Y-67905136D01*
X113488479Y-67887715D01*
X113487586Y-67880012D01*
X113487585Y-67880010D01*
X113487585Y-67880009D01*
X113442206Y-67777235D01*
X113362765Y-67697794D01*
X113326191Y-67681645D01*
X113259992Y-67652415D01*
X113234865Y-67649500D01*
X111445143Y-67649500D01*
X111445117Y-67649502D01*
X111420012Y-67652413D01*
X111420008Y-67652415D01*
X111317235Y-67697793D01*
X111237794Y-67777234D01*
X111192415Y-67880006D01*
X111192415Y-67880008D01*
X111189500Y-67905131D01*
X111189500Y-68036920D01*
X111169815Y-68103959D01*
X111117011Y-68149714D01*
X111047853Y-68159658D01*
X110984297Y-68130633D01*
X110957501Y-68096393D01*
X110957168Y-68096598D01*
X110955386Y-68093691D01*
X110955018Y-68093220D01*
X110954623Y-68092445D01*
X110829727Y-67920540D01*
X110829723Y-67920535D01*
X110679464Y-67770276D01*
X110679459Y-67770272D01*
X110507557Y-67645379D01*
X110318215Y-67548903D01*
X110116124Y-67483241D01*
X110050000Y-67472768D01*
X110050000Y-68366988D01*
X109992993Y-68334075D01*
X109865826Y-68300000D01*
X109734174Y-68300000D01*
X109607007Y-68334075D01*
X109550000Y-68366988D01*
X109550000Y-67472768D01*
X109549999Y-67472768D01*
X109483875Y-67483241D01*
X109281784Y-67548903D01*
X109092442Y-67645379D01*
X108920540Y-67770272D01*
X108920535Y-67770276D01*
X108770276Y-67920535D01*
X108770272Y-67920540D01*
X108645379Y-68092442D01*
X108548905Y-68281781D01*
X108539506Y-68310708D01*
X108500068Y-68368383D01*
X108435709Y-68395581D01*
X108366862Y-68383666D01*
X108315387Y-68336421D01*
X108311090Y-68328684D01*
X108283182Y-68273912D01*
X108243996Y-68197006D01*
X108216861Y-68159658D01*
X108137558Y-68050505D01*
X108137554Y-68050500D01*
X108009499Y-67922445D01*
X108009494Y-67922441D01*
X107862997Y-67816006D01*
X107862996Y-67816005D01*
X107862994Y-67816004D01*
X107786906Y-67777235D01*
X107701639Y-67733788D01*
X107701636Y-67733787D01*
X107529410Y-67677829D01*
X107350551Y-67649500D01*
X107350546Y-67649500D01*
X107169454Y-67649500D01*
X107169449Y-67649500D01*
X106990589Y-67677829D01*
X106818363Y-67733787D01*
X106818360Y-67733788D01*
X106657002Y-67816006D01*
X106510505Y-67922441D01*
X106510500Y-67922445D01*
X106382445Y-68050500D01*
X106382441Y-68050505D01*
X106276006Y-68197002D01*
X106193788Y-68358360D01*
X106193787Y-68358363D01*
X106137829Y-68530589D01*
X106112473Y-68690678D01*
X106082544Y-68753813D01*
X106023232Y-68790744D01*
X105953369Y-68789746D01*
X105895137Y-68751136D01*
X105867527Y-68690678D01*
X105849189Y-68574901D01*
X105842171Y-68530591D01*
X105799708Y-68399901D01*
X105786212Y-68358363D01*
X105786211Y-68358360D01*
X105743182Y-68273912D01*
X105703996Y-68197006D01*
X105676861Y-68159658D01*
X105597558Y-68050505D01*
X105597554Y-68050500D01*
X105469499Y-67922445D01*
X105469494Y-67922441D01*
X105322997Y-67816006D01*
X105322996Y-67816005D01*
X105322994Y-67816004D01*
X105246906Y-67777235D01*
X105161639Y-67733788D01*
X105161636Y-67733787D01*
X104989410Y-67677829D01*
X104810551Y-67649500D01*
X104810546Y-67649500D01*
X104629454Y-67649500D01*
X104629449Y-67649500D01*
X104450589Y-67677829D01*
X104278363Y-67733787D01*
X104278360Y-67733788D01*
X104117002Y-67816006D01*
X103970505Y-67922441D01*
X103970500Y-67922445D01*
X103842445Y-68050500D01*
X103842441Y-68050505D01*
X103736006Y-68197002D01*
X103653788Y-68358360D01*
X103653787Y-68358363D01*
X103597829Y-68530589D01*
X103572473Y-68690678D01*
X103542544Y-68753813D01*
X103483232Y-68790744D01*
X103413369Y-68789746D01*
X103355137Y-68751136D01*
X103327527Y-68690678D01*
X103309189Y-68574901D01*
X103302171Y-68530591D01*
X103259708Y-68399901D01*
X103246212Y-68358363D01*
X103246211Y-68358360D01*
X103203182Y-68273912D01*
X103163996Y-68197006D01*
X103136861Y-68159658D01*
X103057558Y-68050505D01*
X103057554Y-68050500D01*
X102929499Y-67922445D01*
X102929494Y-67922441D01*
X102782997Y-67816006D01*
X102782996Y-67816005D01*
X102782994Y-67816004D01*
X102706906Y-67777235D01*
X102621639Y-67733788D01*
X102621636Y-67733787D01*
X102449410Y-67677829D01*
X102270551Y-67649500D01*
X102270546Y-67649500D01*
X102089454Y-67649500D01*
X102089449Y-67649500D01*
X101910589Y-67677829D01*
X101738363Y-67733787D01*
X101738360Y-67733788D01*
X101577002Y-67816006D01*
X101430505Y-67922441D01*
X101430500Y-67922445D01*
X101302445Y-68050500D01*
X101302441Y-68050505D01*
X101196006Y-68197002D01*
X101113788Y-68358360D01*
X101113787Y-68358363D01*
X101057829Y-68530589D01*
X101032473Y-68690678D01*
X101002544Y-68753813D01*
X100943232Y-68790744D01*
X100873369Y-68789746D01*
X100815137Y-68751136D01*
X100787527Y-68690678D01*
X100769189Y-68574901D01*
X100762171Y-68530591D01*
X100719708Y-68399901D01*
X100706212Y-68358363D01*
X100706211Y-68358360D01*
X100663182Y-68273912D01*
X100623996Y-68197006D01*
X100596861Y-68159658D01*
X100517558Y-68050505D01*
X100517554Y-68050500D01*
X100389499Y-67922445D01*
X100389494Y-67922441D01*
X100242997Y-67816006D01*
X100242996Y-67816005D01*
X100242994Y-67816004D01*
X100166906Y-67777235D01*
X100081639Y-67733788D01*
X100081636Y-67733787D01*
X99909410Y-67677829D01*
X99730551Y-67649500D01*
X99730546Y-67649500D01*
X99549454Y-67649500D01*
X99549449Y-67649500D01*
X99370589Y-67677829D01*
X99198363Y-67733787D01*
X99198360Y-67733788D01*
X99037002Y-67816006D01*
X98890505Y-67922441D01*
X98890500Y-67922445D01*
X98762445Y-68050500D01*
X98762441Y-68050505D01*
X98656006Y-68197002D01*
X98573788Y-68358360D01*
X98573787Y-68358363D01*
X98517829Y-68530589D01*
X98489500Y-68709448D01*
X95370000Y-68709448D01*
X95370000Y-68327500D01*
X96070000Y-68327500D01*
X96070000Y-67879008D01*
X96069999Y-67879004D01*
X96031572Y-67685818D01*
X96031569Y-67685806D01*
X95956192Y-67503828D01*
X95956185Y-67503815D01*
X95846751Y-67340037D01*
X95846748Y-67340033D01*
X95707466Y-67200751D01*
X95707462Y-67200748D01*
X95543684Y-67091314D01*
X95543671Y-67091307D01*
X95361691Y-67015929D01*
X95361683Y-67015927D01*
X95320000Y-67007635D01*
X95320000Y-67810511D01*
X95310060Y-67793295D01*
X95254205Y-67737440D01*
X95185796Y-67697944D01*
X95109496Y-67677500D01*
X95030504Y-67677500D01*
X94954204Y-67697944D01*
X94885795Y-67737440D01*
X94829940Y-67793295D01*
X94820000Y-67810511D01*
X94820000Y-67007636D01*
X94819999Y-67007635D01*
X94778316Y-67015927D01*
X94778308Y-67015929D01*
X94596328Y-67091307D01*
X94596315Y-67091314D01*
X94432537Y-67200748D01*
X94432533Y-67200751D01*
X94293251Y-67340033D01*
X94293248Y-67340037D01*
X94183814Y-67503815D01*
X94183807Y-67503828D01*
X94108430Y-67685806D01*
X94108427Y-67685818D01*
X94070000Y-67879004D01*
X87429999Y-67879004D01*
X87391572Y-67685818D01*
X87391569Y-67685806D01*
X87316192Y-67503828D01*
X87316185Y-67503815D01*
X87206751Y-67340037D01*
X87206748Y-67340033D01*
X87067466Y-67200751D01*
X87067462Y-67200748D01*
X86903684Y-67091314D01*
X86903671Y-67091307D01*
X86721691Y-67015929D01*
X86721683Y-67015927D01*
X86680000Y-67007635D01*
X86680000Y-67810511D01*
X86670060Y-67793295D01*
X86614205Y-67737440D01*
X86545796Y-67697944D01*
X86469496Y-67677500D01*
X86390504Y-67677500D01*
X86314204Y-67697944D01*
X86245795Y-67737440D01*
X86189940Y-67793295D01*
X86180000Y-67810511D01*
X86180000Y-67007636D01*
X86179999Y-67007635D01*
X86138316Y-67015927D01*
X86138308Y-67015929D01*
X85956328Y-67091307D01*
X85956315Y-67091314D01*
X85792537Y-67200748D01*
X85792533Y-67200751D01*
X85653251Y-67340033D01*
X85653248Y-67340037D01*
X85543814Y-67503815D01*
X85543807Y-67503828D01*
X85468430Y-67685806D01*
X85468427Y-67685818D01*
X85430000Y-67879004D01*
X78950500Y-67879004D01*
X78950500Y-67006092D01*
X78951097Y-66993939D01*
X78959805Y-66905519D01*
X78964665Y-66856171D01*
X78969403Y-66832349D01*
X79007816Y-66705719D01*
X79017113Y-66683278D01*
X79079485Y-66566587D01*
X79092982Y-66546387D01*
X79176924Y-66444103D01*
X79194103Y-66426924D01*
X79296387Y-66342982D01*
X79316587Y-66329485D01*
X79433278Y-66267113D01*
X79455719Y-66257816D01*
X79582349Y-66219403D01*
X79606173Y-66214665D01*
X79735170Y-66201960D01*
X79743939Y-66201097D01*
X79756092Y-66200500D01*
X79789882Y-66200500D01*
X172960118Y-66200500D01*
X172993908Y-66200500D01*
X173006061Y-66201097D01*
G37*
%TD.AperFunction*%
%TD*%
M02*
